<?xml version="1.0" encoding="UTF-8"?> <svg xmlns="http://www.w3.org/2000/svg" width="1165.26" height="258.12" viewBox="0 0 1165.26 258.12"><defs><style>.a{fill:#007acb;}.b{fill:#002f5e;}.c{fill:#0079cb;}</style></defs><path class="a" d="M1282,215l.24.33c-2.54,7.59-4.06,15.45-6,23.19q-4.47,17.55-8.65,35.16c-.48,2-1.4,2.37-3.24,2.37-24.44-.06-48.87,0-73.31-.1-2.2,0-3,.64-3.52,2.73q-23.38,95.77-46.84,191.54c-.53,2.17-1.36,2.86-3.64,2.85-23.82-.1-47.63-.06-71.45-.06h-2.93c16.1-65.72,32.14-131.23,48.25-197h-3.14c-22.49,0-45,0-67.46.06-2.54,0-2.83-.55-2.27-2.93q6.56-27.78,12.8-55.64c.47-2.11,1.29-2.55,3.31-2.55Q1168.06,215,1282,215Z" transform="translate(-116.98 -214.94)"></path><path class="b" d="M200.76,458.86a4.58,4.58,0,0,0,2.36-1.67C272.68,391.78,342.76,326.93,412.72,262c15.68-14.56,30.85-29.63,46.38-44.34a4.56,4.56,0,0,1,3.37-1.65q54.11.07,108.22,0h1.8l-4.84,4.4q-56.4,50.9-112.83,101.76c-1.74,1.57-2,2.55-.77,4.67,28.29,47.67,55.74,95.82,83.42,143.83.38.67.75,1.34,1.3,2.34H536.4c-22.14,0-44.28.12-66.41-.06-15.28-.13-30.46-1.38-45.11-6.25-12.9-4.29-22.82-12.1-29.53-24.07-7.26-12.94-14.87-25.69-22.35-38.51a6,6,0,0,0-1.75-2.43L345.37,425Q319.65,448.17,294,471.35A5.4,5.4,0,0,1,290,473q-83.88-.07-167.76,0h-2.36c1.61-6.62,3.15-13,4.72-19.39Q138.81,395.83,153,338.06c1.56-6.31,4.45-12.19,6.58-18.32.3-.88,1-1.69.63-3.13-14.45,13.65-28,27.82-41.75,41.84-.89-.43-.54-1.14-.55-1.67-.32-21.45-.6-42.91-1-64.37a4.08,4.08,0,0,1,1.58-3.35q38.79-35.9,77.51-71.87a4.43,4.43,0,0,1,3.3-1.21q29.24,0,58.48,0c2.07,0,2.18.52,1.73,2.37q-29,118.78-58,237.6C201.39,456.83,201.1,457.72,200.76,458.86Z" transform="translate(-116.98 -214.94)"></path><path class="c" d="M773.53,472.34c3.54-14.48,7-28.65,10.47-42.83q25.93-106.06,51.79-212.16c.5-2,1.33-2.39,3.18-2.38q96.48.06,192.94,0h2.77c-3.45,15-6.83,29.73-10.21,44.46-1.07,4.63-2.24,9.24-3.15,13.89-.4,2-1.25,2.58-3.31,2.57q-45.06-.1-90.11-.05c-8.48,0-17,.09-25.44-.06-2.14,0-2.86.76-3.34,2.64-2.6,10.23-5.22,20.45-8,30.61-.69,2.5,0,2.81,2.29,2.8q57.38-.09,114.76,0c4.21,0,4.24,0,3.31,4-4.14,18.09-8.34,36.16-12.41,54.26-.47,2.1-1.24,2.76-3.47,2.76-38.87-.08-77.74,0-116.61-.12-3,0-3.88.91-4.4,4.57a199.68,199.68,0,0,1-7.17,30.56c-1.07,3.48-.43,3.71,2,3.71q70-.07,139.93,0c3.5,0,3.51,0,2.71,3.3q-6.69,27.69-13.36,55.38c-.38,1.61-1,2.24-2.75,2.24q-110.25-.09-220.5-.05C774.87,472.42,774.35,472.37,773.53,472.34Z" transform="translate(-116.98 -214.94)"></path><path class="b" d="M263.38,215h2.42c27.21,0,54.42-.1,81.62.11,19.29.14,36.68,5.64,50.76,19.48a81.3,81.3,0,0,1,7.53,8.85c1,1.34.69,2-.4,3Q370.19,279,335.13,311.64L325.07,321Z" transform="translate(-116.98 -214.94)"></path><path class="c" d="M761.3,336.06a65.7,65.7,0,0,0,23.07-26.67c7.13-14.8,10.53-30.3,7.22-46.63C787.8,244,776.05,231.6,759,223.86c-14-6.34-28.89-8.41-44.11-8.48-21.28-.1-42.57,0-63.86,0v.12c-23,0-46.11,0-69.16-.06-2.56,0-3.58.65-4.21,3.22q-24.45,100.59-49.12,201.12c-.64,2.62,1,3.84,3.15,7.43,8.51,14.17,15,26.78,23.25,40.63,2.28,3.82,2.36,5,4.8,5q47-.07,94.07,0a169,169,0,0,0,45-5.82c23.25-6.42,43.7-17.53,59.15-36.43,14-17.11,21.93-36.68,21.5-59-.27-13.94-5.86-25.42-18.11-33C759.76,337.53,759.8,337.06,761.3,336.06Zm-52.73,52.22c-2.65,12.7-9.78,19.41-23.46,22.11a85.16,85.16,0,0,1-16.32,1.5c-19.61,0-39.21,0-58.82.06-2.22,0-2.58-.45-2-2.63q4.95-19.81,9.59-39.73c.38-1.64,1.09-2,2.67-2,10.78.06,21.55,0,32.33,0,9.27,0,18.55,0,27.82,0,6.1,0,12.17.52,18,2.56C707.14,373.25,710.48,379.18,708.57,388.28Zm12.47-96c-1.89,10.3-8.73,15.64-18.33,18.15a62.73,62.73,0,0,1-16.27,1.75c-7.85,0-15.71,0-23.56,0-9.62,0-19.24,0-28.86,0-1.89,0-2.42-.31-1.89-2.34q4.11-15.56,7.89-31.17c.45-1.85,1.13-2.53,3.14-2.52,17.74.09,35.48,0,53.22.08,5.47,0,11,.34,16.22,2C719.93,280.57,722.42,284.77,721,292.28Z" transform="translate(-116.98 -214.94)"></path></svg> 