<?xml version="1.0" encoding="UTF-8"?> <svg xmlns="http://www.w3.org/2000/svg" width="25" height="25" viewBox="0 0 25 25" fill="none"><path fill-rule="evenodd" clip-rule="evenodd" d="M11.0731 24.6193C4.47802 23.8536 -0.215148 17.876 0.550578 11.3056C1.34101 4.71044 7.29391 0.0172736 13.889 0.783C20.4595 1.57343 25.1526 7.52634 24.3869 14.1215C23.6212 20.6919 17.6436 25.3851 11.0731 24.6193ZM6.7999 9.50239H4.97204V12.096H2.37845V13.9238H4.97204V16.5174H6.7999V13.9238H9.39349V12.096H6.7999V9.50239ZM10.9002 8.68726H9.07238V7.42752C10.1098 6.9088 11.0485 6.34068 11.8389 5.67376H13.0245V19.3827H10.9249V8.68726H10.9002ZM14.5066 9.50239C14.5066 10.5398 14.9018 11.602 15.7169 12.1948C14.5807 12.9111 14.3337 14.0226 14.309 15.6529C14.309 18.1971 15.4452 19.5803 17.6189 19.5803C19.7926 19.5803 20.9288 18.1971 20.9288 15.6529C20.9288 14.0226 20.6571 12.9358 19.5208 12.1948C20.336 11.602 20.7312 10.5398 20.7312 9.50239C20.7312 6.88409 19.5208 5.69845 17.6189 5.69845C15.7169 5.69845 14.5066 6.88409 14.5066 9.50239ZM17.6189 13.2569C18.5328 13.2569 18.8292 14.0967 18.8292 15.5047C18.8292 16.9126 18.5328 17.7525 17.6189 17.7525C16.7049 17.7525 16.4085 16.9126 16.4085 15.5047C16.4085 14.0967 16.7296 13.2569 17.6189 13.2569ZM17.6189 7.52632C18.3352 7.52632 18.6316 8.06974 18.6316 9.37888C18.6316 10.688 18.3352 11.2314 17.6189 11.2314C16.9026 11.2314 16.6061 10.688 16.6061 9.37888C16.6061 8.06974 16.9026 7.52632 17.6189 7.52632Z" fill="#8D969A"></path></svg> 