<?xml version="1.0" encoding="UTF-8"?> <svg xmlns="http://www.w3.org/2000/svg" width="266.4" height="74.74" viewBox="0 0 266.4 74.74"><path d="M182.58,15.33a.44.44,0,0,0-.16-.06h-14.8c-.34,0-.54.08-.57.44,0,.1-.07.19-.09.29l-5.67,20.39a2.81,2.81,0,0,1-.3.9c-.17,0-.15-.16-.17-.25q-3.06-10.53-6.1-21.06c-.25-.84-.11-.7-.9-.7h-8.4c-.76,0-.76,0-1,.71l-6,20.62c-.07.25,0,.57-.34.74-.46-1.41-.93-2.8-1.39-4.2q-4.55-13.89-9.07-27.79c-.22-.66-.23-.66-1-.66h-13a1.94,1.94,0,0,0-.68,0,1.24,1.24,0,0,0,.17.73l10,28.42q4,11.42,8.08,22.82c.24.68.24.68.94.68h10.22c.58,0,.59,0,.76-.59l3-10.21,3.3-10.84c0-.11,0-.23.11-.21s.2.2.17.37V36q3.14,10.42,6.26,20.85c.12.42.32.53.74.53H166.9c.8,0,.8,0,1.06-.72q6.91-19.53,13.83-39A17.53,17.53,0,0,0,182.58,15.33Z" transform="translate(0.03 0.02)"></path><path d="M251.44,15.24c-.52,0-.62.27-.75.65L243.5,36.83c-.32.92-.65,1.83-1,2.76-.25-.13-.25-.34-.3-.49q-4-11.54-8-23.08c-.32-.93-.16-.76-1-.76H218.4a2.16,2.16,0,0,0-.8.07c.12.29.22.57.34.84Q226.33,35.1,234.75,54a3.19,3.19,0,0,1,0,3.11c-.73,1.36-1.28,2.82-1.93,4.22a3.82,3.82,0,0,1-3.19,2.36,9.38,9.38,0,0,1-3.83-.42,17,17,0,0,1-3-1.22,2.75,2.75,0,0,0-.17.29q-1.73,4.68-3.47,9.35c-.18.47-.17.49.35.71a28.36,28.36,0,0,0,7.38,2.07,22.78,22.78,0,0,0,8.47-.39,13.36,13.36,0,0,0,7.18-4.2,19.1,19.1,0,0,0,3-5L266.15,16a1.28,1.28,0,0,0,.22-.73h-.28C261.2,15.26,256.32,15.27,251.44,15.24Z" transform="translate(0.03 0.02)"></path><path d="M86.34,35a32.38,32.38,0,0,0-1.68-8.49A17.78,17.78,0,0,0,72.22,14.71a24.08,24.08,0,0,0-12.07-.19A18.86,18.86,0,0,0,47.5,23.71,29,29,0,0,0,44.5,35a26.63,26.63,0,0,0,.82,7.85,19.4,19.4,0,0,0,5.12,9,20.77,20.77,0,0,0,13,5.75A32.45,32.45,0,0,0,72,57.32a21.28,21.28,0,0,0,11.08-5.2,14.23,14.23,0,0,0,2.18-2.41l-9.22-7.24-.85.93a10.49,10.49,0,0,1-2.81,2.19,10.12,10.12,0,0,1-5.18,1.12,8.84,8.84,0,0,1-4.93-1.54,7.78,7.78,0,0,1-3.06-5.54.76.76,0,0,1,.58-.9.62.62,0,0,1,.19,0H86c.49,0,.51,0,.49-.52C86.46,37.12,86.43,36.06,86.34,35Zm-27-4.28c0-2.86,2.2-6.63,5.91-7.11a5.58,5.58,0,0,1,5.4,2.33,8.94,8.94,0,0,1,1.66,4.78Z" transform="translate(0.03 0.02)"></path><path d="M219,31a25.63,25.63,0,0,0-.3-4.1,13.32,13.32,0,0,0-8-10.65,21.44,21.44,0,0,0-7.43-1.81,32.65,32.65,0,0,0-8.49.44,25.07,25.07,0,0,0-11.36,5.49,1.23,1.23,0,0,0-.49.52l6.69,7.47a24.74,24.74,0,0,1,3.06-2,12,12,0,0,1,6.59-1.51,4.7,4.7,0,0,1,4.83,4.58,4.17,4.17,0,0,1,0,.5v.3c0,.58,0,.58-.59.61a86.4,86.4,0,0,0-9.76,1.06,22.73,22.73,0,0,0-7.25,2.47,12.51,12.51,0,0,0-5.76,6.18,13.06,13.06,0,0,0-.7,6.89,11.55,11.55,0,0,0,6.36,9,16.09,16.09,0,0,0,8.5,1.6,17.49,17.49,0,0,0,7.64-2.11,14.73,14.73,0,0,0,2.53-1.77c.33.87.63,1.68.93,2.49s.26.72,1.06.72h11.06c1,0,.85.11.85-.84Q219,43.76,219,31ZM203.75,46.41a8.3,8.3,0,0,1-6.34,1.51,4,4,0,0,1-3.47-4.47,4.08,4.08,0,0,1,.22-.9,4.69,4.69,0,0,1,3.53-3.34,33.75,33.75,0,0,1,6-.85c.33,0,.38.14.38.41v6.94A.72.72,0,0,1,203.75,46.41Z" transform="translate(0.03 0.02)"></path><path d="M115.79,46.42c-.19-.44-.38-.88-.58-1.36A20.87,20.87,0,0,1,113,46.43a7.24,7.24,0,0,1-3.22.87,2,2,0,0,1-2.3-1.57,9.52,9.52,0,0,1-.36-2.86V26.54c0-.66,0-.67.66-.67h8.61a1.68,1.68,0,0,0,.8-.08.82.82,0,0,0-.13-.4,15.24,15.24,0,0,1-3.13-7.85c-.13-2-.27-2.26-1-2.26h-5.19c-.69,0-.66,0-.66-.65V5a.28.28,0,0,0-.32-.31H92.35c-.32,0-.4.12-.38.4A4.77,4.77,0,0,0,92,6.17l.17,5.92c-.58,3.42.29,3.19-1,3.19H86.63a.63.63,0,0,0-.63.63h0v9.32c0,.64,0,.64.69.64H91c1,0,.9-.12.91.88V44.83a22.52,22.52,0,0,0,.54,4.91,9.94,9.94,0,0,0,5.15,7,13.87,13.87,0,0,0,5,1.42,29.28,29.28,0,0,0,7-.17,21.76,21.76,0,0,0,9.08-3.5c.4-.26.39-.29.18-.79C117.85,51.27,116.83,48.85,115.79,46.42Z" transform="translate(0.03 0.02)"></path><path d="M149.5,35.49c-.12,0-.15.1-.11.21s.17.12.28.16C149.7,35.71,149.68,35.53,149.5,35.49Z" transform="translate(0.03 0.02)"></path><path d="M31.31,16.12a22.18,22.18,0,0,0-12.15-1.46,29.24,29.24,0,0,0-4.16.86V.71c0-.77,0-.66-1-.68C9.62,0,5.24,0,.85,0-.07,0,0-.06,0,.69V54c0,.76,0,.76.69,1l.29.1a50.38,50.38,0,0,0,19,3,29.83,29.83,0,0,0,8.83-1.58A18.88,18.88,0,0,0,41,44.25,27.24,27.24,0,0,0,42.28,36a25.53,25.53,0,0,0-1.67-9.86A17.54,17.54,0,0,0,31.31,16.12ZM27.57,38.06a14,14,0,0,1-.92,4.1,8.07,8.07,0,0,1-7.44,5,14.92,14.92,0,0,1-3.59-.34C15,46.67,15,46.67,15,46V27a.92.92,0,0,1,.63-.88,10.45,10.45,0,0,1,5.73-.33A7.64,7.64,0,0,1,27,31.34a17.92,17.92,0,0,1,.57,6.72Z" transform="translate(0.03 0.02)"></path></svg> 