<?xml version="1.0" encoding="UTF-8"?> <svg xmlns="http://www.w3.org/2000/svg" id="Layer_1" data-name="Layer 1" viewBox="0 0 567.02 567.02"><defs><style>.cls-1{fill:#17c37b;}</style></defs><path class="cls-1" d="M145,210.39l24.54,14.19a126.18,126.18,0,0,0-14.61,52.26H126.57A153.2,153.2,0,0,1,145,210.39Z"></path><path class="cls-1" d="M151.88,368.05l24.47-14.19a135.22,135.22,0,0,0,36.74,36.74L198.9,415.07A163.92,163.92,0,0,1,151.88,368.05Z"></path><path d="M330.25,196.78a6.67,6.67,0,1,0,6.66,6.66h0A6.73,6.73,0,0,0,330.25,196.78Z"></path><path d="M379.39,255.14a100,100,0,0,0-23.05-40,6.67,6.67,0,1,0-9.71,9.15,87.2,87.2,0,0,1,20,34.68,6.66,6.66,0,0,0,12.87-3.47C379.47,255.38,379.43,255.26,379.39,255.14Z"></path><path d="M283.51,112.74A173.67,173.67,0,0,0,112.74,283.51,173.67,173.67,0,0,0,283.51,454.28a173.16,173.16,0,0,0,146.73-85.1,166.73,166.73,0,0,0,24-85.67A173.67,173.67,0,0,0,283.51,112.74Zm157.3,164.1H412.44a126,126,0,0,0-14.61-52.26l24.54-14.19A153.21,153.21,0,0,1,440.81,276.84Zm-25.67-78L390.67,213a135.08,135.08,0,0,0-36.74-36.74l14.19-24.47a163.78,163.78,0,0,1,47,47.16Zm-125-72.62A153.26,153.26,0,0,1,356.63,145l-14.19,24.54a126.18,126.18,0,0,0-52.26-14.61Zm-13.34,0v28.37a126,126,0,0,0-52.26,14.61l-14.19-24.54A153.21,153.21,0,0,1,276.84,126.21Zm-78,25.67L213,176.35a135.08,135.08,0,0,0-36.74,36.74L151.81,198.9a163.78,163.78,0,0,1,47.16-47Zm-54,58.51,24.54,14.19a126.18,126.18,0,0,0-14.61,52.26H126.42A153.3,153.3,0,0,1,145,210.39Zm-18.65,79.79h28.37a126,126,0,0,0,14.61,52.26l-24.54,14.19A153.21,153.21,0,0,1,126.21,290.18Zm25.67,78L176.35,354a135.22,135.22,0,0,0,36.74,36.74L198.9,415.21a163.9,163.9,0,0,1-47-47.16Zm125,72.62A153.26,153.26,0,0,1,210.39,422l14.19-24.54a126.18,126.18,0,0,0,52.26,14.61v28.72ZM168.05,283.51A117.09,117.09,0,0,1,283.51,168.05,117.18,117.18,0,0,1,399,283.51,117.09,117.09,0,0,1,283.51,399,117.09,117.09,0,0,1,168.05,283.51Zm122.13,157.3V412.44a126,126,0,0,0,52.26-14.61l14.19,24.54A153.21,153.21,0,0,1,290.18,440.81Zm78-25.67L354,390.67a135.22,135.22,0,0,0,36.74-36.74l24.47,14.19a163.9,163.9,0,0,1-47.16,47Zm54-58.51-24.54-14.19a126.53,126.53,0,0,0,14.61-52.33H440.6A153.64,153.64,0,0,1,422,356.63Z"></path><path d="M350.24,263.51a20,20,0,0,0-18.86,13.33H316.2a33.61,33.61,0,0,0-26-26V235.64a20,20,0,1,0-13.34,0v15.18a33.61,33.61,0,0,0-26,26H235.64a20,20,0,1,0,0,13.34h15.18a33.61,33.61,0,0,0,26,26v15.18a20,20,0,1,0,13.34,0V316.2a33.61,33.61,0,0,0,26-26h15.18a20,20,0,1,0,18.86-26.67ZM216.77,290.18a6.67,6.67,0,1,1,6.67-6.67,6.67,6.67,0,0,1-6.67,6.67Zm66.74-80.07a6.67,6.67,0,1,1-6.67,6.66,6.67,6.67,0,0,1,6.67-6.66Zm0,146.8a6.67,6.67,0,1,1,6.67-6.67h0A6.67,6.67,0,0,1,283.51,356.91Zm0-53.4a20,20,0,1,1,20-20h0A20,20,0,0,1,283.51,303.51Zm66.73-13.33a6.67,6.67,0,1,1,6.67-6.67h0A6.67,6.67,0,0,1,350.24,290.18Z"></path><circle class="cls-1" cx="283.51" cy="283.51" r="20"></circle><path class="cls-1" d="M415.14,199l-24.47,14.19a135.22,135.22,0,0,0-36.74-36.74L368.12,152A163.92,163.92,0,0,1,415.14,199Z"></path><path class="cls-1" d="M276.84,126.21v28.37a126,126,0,0,0-52.26,14.61l-14.19-24.54A153.21,153.21,0,0,1,276.84,126.21Z"></path><path class="cls-1" d="M290.18,440.81V412.44a126,126,0,0,0,52.26-14.61l14.19,24.54A153.21,153.21,0,0,1,290.18,440.81Z"></path><path class="cls-1" d="M422,356.63l-24.54-14.19a126.68,126.68,0,0,0,14.61-52.33h28.36A153.53,153.53,0,0,1,422,356.63Z"></path></svg> 