<?xml version="1.0" encoding="UTF-8"?> <svg xmlns="http://www.w3.org/2000/svg" id="Layer_1" data-name="Layer 1" viewBox="0 0 567.02 567.02"><defs><style>.cls-1{fill:#17c37b;}</style></defs><path d="M425.44,175.57,304.08,131.1a22.67,22.67,0,0,0-28.95,13.38L259,188.54H148.08a22.53,22.53,0,0,0-22.53,22.53V413.14a24.14,24.14,0,0,0,24.14,24.14H278.94a22.54,22.54,0,0,0,22.53-22.54V395.08l40.12,14.58a22.4,22.4,0,0,0,28.81-13.17c0-.07.05-.13.07-.2L440,206.53a24.2,24.2,0,0,0-14.37-31ZM289.37,414.68a10.43,10.43,0,0,1-10.43,10.43H149.69a12,12,0,0,1-12-12h0V211.07A10.36,10.36,0,0,1,148,200.64H254.6l-29,79.3c-6.15-6.68-11-12.16-11.23-12.43a6.15,6.15,0,0,0-8.7-.13.8.8,0,0,0-.13.13C194.22,279.41,168,308.43,168,319.8a25.41,25.41,0,0,0,26,24.6,27.44,27.44,0,0,0,10.23-2.07A24.09,24.09,0,0,0,220,365.2l69.34,25.27v24.21Zm-80.24-89.74a6,6,0,0,0-3.88,2.08,14.14,14.14,0,0,1-11.16,5.21,13.36,13.36,0,0,1-13.84-12.3c.53-4.88,15-23.27,29.75-39.32,2.81,3.08,6.69,7.36,10.63,12.11h0ZM428.45,202.38l-69.54,189.7a10.44,10.44,0,0,1-13.38,6.21L224.18,353.83A12,12,0,0,1,217,338.5l0-.05,69.54-189.76a10.35,10.35,0,0,1,13.29-6.18l.08,0L421.36,187a12,12,0,0,1,7,15.38Z"></path><path d="M180.18,240.09V212.75a6.09,6.09,0,1,0-12.17,0v27.34a3,3,0,1,1-6,0,6.09,6.09,0,1,0-12.17,0h0a15.18,15.18,0,1,0,30.36,0Z"></path><path d="M295,197.23l1.88-2.27,10.69,3.88v1.8a6.09,6.09,0,0,0,12.11,1.28,6.84,6.84,0,0,0,0-1.28V164.27a6,6,0,0,0-10.77-3.81l-23.4,29.42a6.08,6.08,0,0,0,9.49,7.55Zm12.57-11.3-2.74-1,2.74-3.41Z"></path><path d="M335.57,224.78a6.21,6.21,0,0,0-4.75,0c-14.71,7.36-49.28,25.54-53.49,36.24a23.94,23.94,0,0,0,1.27,19.13,26.72,26.72,0,0,0,14.65,12.9,27.46,27.46,0,0,0,10.56,1.54l-5.28,15.64a6.08,6.08,0,0,0,3.59,7.82h0a5.54,5.54,0,0,0,2.07,0,6,6,0,0,0,5.69-3.95l5.41-14.71a27.78,27.78,0,0,0,8.16,4.82,28.7,28.7,0,0,0,9.36,1.67A26.67,26.67,0,0,0,343,303.81,23.87,23.87,0,0,0,356.37,290c3.94-10.7-10.77-46.8-17.19-62.05a6.72,6.72,0,0,0-3.54-3.28Z"></path><path class="cls-1" d="M344.93,285.9a11.74,11.74,0,0,1-6.68,6.68,14.29,14.29,0,0,1-10.64,0,14.49,14.49,0,0,1-7.55-6.35v-.8A6,6,0,1,0,308.83,281a14,14,0,0,1-11.37.61,14.32,14.32,0,0,1-8-6.69,11.59,11.59,0,0,1-.73-9.36c2.21-4.41,22.2-16.72,41.46-26.75,8.29,20.06,15.64,42.39,14.5,46.81Z"></path><path class="cls-1" d="M344.93,285.9a11.74,11.74,0,0,1-6.68,6.68,14.29,14.29,0,0,1-10.64,0,14.49,14.49,0,0,1-7.55-6.35v-.8A6,6,0,1,0,308.83,281a14,14,0,0,1-11.37.61,14.32,14.32,0,0,1-8-6.69,11.59,11.59,0,0,1-.73-9.36c2.21-4.41,22.2-16.72,41.46-26.75,8.29,20.06,15.64,42.39,14.5,46.81Z"></path><path class="cls-1" d="M209.06,324.94a6,6,0,0,0-3.87,2.08A14.18,14.18,0,0,1,194,332.23a13.36,13.36,0,0,1-13.84-12.3c.53-4.88,15-23.27,29.75-39.32,2.81,3.08,6.69,7.36,10.63,12.11h0Z"></path></svg> 