<?xml version="1.0" encoding="UTF-8"?> <svg xmlns="http://www.w3.org/2000/svg" viewBox="0 0 567.02 567.02"><path d="M370.6,104.86v22.23a99.62,99.62,0,0,0-62,26.17L293,137.92A124,124,0,0,1,370.6,104.86Z" style="fill:#17c37b"></path><path d="M288.45,205.19c.11-.45.24-.9.37-1.35-.15-.56-.29-1.11-.45-1.66a2.09,2.09,0,0,1-.05-.21c-.15-.52-.31-1-.46-1.56q-1.23-4.09-2.81-8.06c-.27-.66-.53-1.32-.81-2s-.59-1.37-.89-2.05A97.92,97.92,0,0,0,278,203.91c-.14.51-.26,1-.37,1.54-.33,1.33-.61,2.65-.87,4-.42,2.16-.77,4.35-1,6.55l1-.1,1-.08c.81-.06,1.61-.12,2.41-.16v22.23c-.57,0-1.14.06-1.71.11l-.76.05-1.27.11-.21,0-1,.1a95.92,95.92,0,0,0,1.69,10.56c.33,1.52.69,3,1.09,4.53.46-1.55.88-3.12,1.25-4.71q3.06-.22,6.14-.22c.86,0,1.71,0,2.56,0a91.27,91.27,0,0,1-2.57-20.38,88.57,88.57,0,0,1,2.12-18.93C287.76,207.84,288.09,206.51,288.45,205.19Zm0,0c.11-.45.24-.9.37-1.35-.15-.56-.29-1.11-.45-1.66a2.09,2.09,0,0,1-.05-.21c-.15-.52-.31-1-.46-1.56q-1.23-4.09-2.81-8.06c-.27-.66-.53-1.32-.81-2s-.59-1.37-.89-2.05A97.92,97.92,0,0,0,278,203.91c-.14.51-.26,1-.37,1.54-.33,1.33-.61,2.65-.87,4-.42,2.16-.77,4.35-1,6.55l1-.1,1-.08c.81-.06,1.61-.12,2.41-.16v22.23c-.57,0-1.14.06-1.71.11l-.76.05-1.27.11-.21,0-1,.1a95.92,95.92,0,0,0,1.69,10.56c.33,1.52.69,3,1.09,4.53.46-1.55.88-3.12,1.25-4.71q3.06-.22,6.14-.22c.86,0,1.71,0,2.56,0a91.27,91.27,0,0,1-2.57-20.38,88.57,88.57,0,0,1,2.12-18.93C287.76,207.84,288.09,206.51,288.45,205.19ZM375.83,94.3a135.72,135.72,0,0,0-92.68,38.57c-.76.74-1.5,1.49-2.25,2.24a136.05,136.05,0,0,0-23.68,32.68c.82.86,1.6,1.72,2.36,2.61,1.75,2,3.41,4.06,4.95,6.2,1.63-3.46,3.42-6.85,5.38-10.14A121.56,121.56,0,0,1,283.2,148c.79-.92,1.61-1.83,2.44-2.73l15.61,15.62q-2.36,2.56-4.52,5.28a99.15,99.15,0,0,0-13.38,22.11A97.92,97.92,0,0,0,278,203.91c-.14.51-.26,1-.37,1.54-.33,1.33-.61,2.65-.87,4-.42,2.16-.77,4.35-1,6.55s-.5,4.58-.62,6.89H252.86c0-.89.1-1.78.17-2.66.18-2.41.42-4.81.76-7.2.16-1.28.35-2.57.57-3.84-2.42.6-4.83,1.28-7.19,2-1.34.42-2.68.86-4,1.32-.18,1.26-.33,2.54-.45,3.82q-.39,3.74-.57,7.55c-.07,1.4-.11,2.81-.13,4.22a135.07,135.07,0,0,0,1.63,18.9h0q.84,5.46,2.11,10.74c1.12-.55,2.23-1.08,3.36-1.58,2.07-.93,4.18-1.78,6.3-2.54q-1.2-5.23-1.9-10.58c-.44-3.22-.76-6.46-.94-9.73H274.8c.09,1.66.22,3.31.4,5a95.92,95.92,0,0,0,1.69,10.56c.33,1.52.69,3,1.09,4.53.46-1.55.88-3.12,1.25-4.71q3.06-.22,6.14-.22c.86,0,1.71,0,2.56,0a91.27,91.27,0,0,1-2.57-20.38,88.57,88.57,0,0,1,2.12-18.93c.28-1.34.61-2.67,1-4,.11-.45.24-.9.37-1.35a89.53,89.53,0,0,1,13.41-27.63c1.48-2.06,3-4.07,4.74-6,.75-.89,1.54-1.77,2.35-2.64.95-1,1.93-2,2.94-3a88.59,88.59,0,0,1,125.25-1.89c.63.62,1.27,1.25,1.89,1.89a89.61,89.61,0,0,1,26.89,63.57A91.77,91.77,0,0,1,415.37,309c-1.1.55-2.22,1.08-3.36,1.58-2,.9-4,1.72-6.1,2.47a90.53,90.53,0,0,1-21.91,5c-2.69.28-5.42.44-8.17.48-.82,0-1.64,0-2.46-.08a89.26,89.26,0,0,1,2.46,20.41,92.92,92.92,0,0,1-2.23,18.94c-.3,1.34-.64,2.67-1,4,1.06.05,2.14.07,3.22.09,2.59,0,5.18-.16,7.73-.35a135.8,135.8,0,0,0,23.26-3.74q3.65-.91,7.21-2c1.33-.41,2.67-.85,4-1.3a136.23,136.23,0,0,0,91.62-126.39A136.05,136.05,0,0,0,375.83,94.3Zm-5.23,32.79a99.62,99.62,0,0,0-62,26.17L293,137.93a123.9,123.9,0,0,1,77.57-33.07Zm10.45.27V105.14a123.93,123.93,0,0,1,77.58,32.79L443,153.54A99.55,99.55,0,0,0,381.05,127.36Zm69.35,33.57L466,145.31a123.89,123.89,0,0,1,33.34,77.8l-22.78-.22A99.57,99.57,0,0,0,450.4,160.93Zm26.17,72.35H498.8A124,124,0,0,1,466,310.9L450.4,295.29A99.67,99.67,0,0,0,476.57,233.28Zm-95.52,96.14c1.57-.09,3.13-.22,4.69-.38a98.38,98.38,0,0,0,22.2-4.9c2.05-.69,4.06-1.46,6.06-2.3,1.22-.5,2.41-1,3.6-1.6a99.26,99.26,0,0,0,25.4-17l15.48,15.47.15.14A123.72,123.72,0,0,1,419,343.35c-1.33.51-2.68,1-4,1.47-2.26.77-4.54,1.48-6.84,2.11a120.78,120.78,0,0,1-20.48,3.9l-1.6.16-.6.06-1.71.14c-.9.07-1.81.12-2.71.17Zm-92.6-124.23c.11-.45.24-.9.37-1.35-.15-.56-.29-1.11-.45-1.66a2.09,2.09,0,0,1-.05-.21c-.15-.52-.31-1-.46-1.56q-1.23-4.09-2.81-8.06c-.27-.66-.53-1.32-.81-2s-.59-1.37-.89-2.05A97.92,97.92,0,0,0,278,203.91c-.14.51-.26,1-.37,1.54-.33,1.33-.61,2.65-.87,4-.42,2.16-.77,4.35-1,6.55l1-.1,1-.08c.81-.06,1.61-.12,2.41-.16v22.23c-.57,0-1.14.06-1.71.11l-.76.05-1.27.11-.21,0-1,.1a95.92,95.92,0,0,0,1.69,10.56c.33,1.52.69,3,1.09,4.53.46-1.55.88-3.12,1.25-4.71q3.06-.22,6.14-.22c.86,0,1.71,0,2.56,0a91.27,91.27,0,0,1-2.57-20.38,88.57,88.57,0,0,1,2.12-18.93C287.76,207.84,288.09,206.51,288.45,205.19Zm-4.57,114.46c-.73.75-1.48,1.49-2.23,2.22.73.74,1.48,1.46,2.22,2.18.76-.72,1.49-1.46,2.24-2.22C285.35,321.12,284.61,320.39,283.88,319.65Z"></path><path d="M476.57,222.89a99.59,99.59,0,0,0-26.17-62L466,145.32a123.9,123.9,0,0,1,33.34,77.79Z" style="fill:#17c37b"></path><path d="M276.89,248.85a88.55,88.55,0,0,0-21.47,4.79q-1.2-5.23-1.9-10.58c-.44-3.22-.76-6.46-.94-9.73H274.8c.09,1.66.22,3.31.4,5A95.92,95.92,0,0,0,276.89,248.85Z" style="fill:#17c37b"></path><path d="M381.05,351.36V329.13A99.56,99.56,0,0,0,443,303l15.61,15.62A123.93,123.93,0,0,1,381.05,351.36Z" style="fill:#17c37b"></path><path d="M186,105.6v22.23A99.54,99.54,0,0,0,124,154L108.4,138.66A123.89,123.89,0,0,1,186,105.6Z" style="fill:#17c37b"></path><path d="M290.59,238.16V215.93l.62,0h0l-.08-.61c-.08-.65-.18-1.3-.29-1.94-.07-.42-.13-.84-.21-1.25s-.15-.88-.23-1.33-.21-1.06-.32-1.6c-.86,0-1.73-.05-2.6-.06a88.57,88.57,0,0,0-2.12,18.93,91.27,91.27,0,0,0,2.57,20.38c.35,1.46.74,2.89,1.16,4.32.36-1.4.68-2.82,1-4.23a102.93,102.93,0,0,0,1.56-10.35Zm-1-31.08c-.06-.29-.13-.59-.2-.87l-.24-1c-.11-.46-.23-.92-.35-1.38-.13.45-.26.9-.37,1.35-.36,1.32-.69,2.65-1,4,.87,0,1.74,0,2.6.06C289.94,208.52,289.79,207.8,289.61,207.08Zm35.15,15.58q-.24-3.84-.68-7.62c-.15-1.29-.32-2.57-.51-3.85a135.15,135.15,0,0,0-14.25-43.63,136.6,136.6,0,0,0-23.93-32.49c-.74-.74-1.49-1.47-2.24-2.2a135.63,135.63,0,0,0-92-37.83A136.08,136.08,0,0,0,57.39,228.85,136.13,136.13,0,0,0,153,356.55c1.31.41,2.65.81,4,1.18,2.3.63,4.61,1.21,7,1.73h0a136.63,136.63,0,0,0,23.16,3.07h0c1.36.06,2.71.11,4.08.13q3.56-.06,7.08-.3c-.37-1.29-.7-2.59-1-3.9a91.82,91.82,0,0,1-2.36-19.55A89.74,89.74,0,0,1,197.22,319c-2,.16-4,.26-6,.28-1.57,0-3.14-.08-4.69-.18a90.93,90.93,0,0,1-21.7-4.06c-2.21-.7-4.4-1.48-6.54-2.34-1.16-.46-2.29-1-3.42-1.46a91.75,91.75,0,0,1-54.11-82.42,89.58,89.58,0,0,1,26.89-63.57,88.59,88.59,0,0,1,125.25-1.89c.65.62,1.27,1.25,1.89,1.89.84.82,1.67,1.66,2.46,2.51s1.6,1.72,2.36,2.61c1.75,2,3.41,4.06,4.95,6.2a90.06,90.06,0,0,1,10.06,17.76,88.79,88.79,0,0,1,3.4,9.55c.15.49.3,1,.43,1.49.35,1.29.69,2.59,1,3.9a89.28,89.28,0,0,1,2.25,19.55,91.81,91.81,0,0,1-2.42,19.82q3.06-.22,6.14-.22c.86,0,1.71,0,2.56,0,.35,1.46.74,2.89,1.16,4.32.36-1.4.68-2.82,1-4.23a102.93,102.93,0,0,0,1.56-10.35c.14-1.4.25-2.81.32-4.22h22.23c-.15,2.73-.38,5.43-.71,8.13-.4,3.47-1,6.92-1.67,10.33,2.21.68,4.4,1.45,6.56,2.33,1.15.45,2.28.94,3.41,1.45q1.15-5.16,1.91-10.46A136.93,136.93,0,0,0,325,228.85C325,226.77,324.89,224.71,324.76,222.66ZM152.88,322c1.2.51,2.43,1,3.65,1.45q3.24,1.21,6.56,2.2a100.46,100.46,0,0,0,21.84,3.91l1,.06v22.23l-.91-.05h0a123.4,123.4,0,0,1-22.63-3.5q-3.33-.82-6.6-1.85c-1.35-.41-2.69-.86-4-1.33a123.84,123.84,0,0,1-43.4-26L124,303.42A99.56,99.56,0,0,0,152.88,322ZM116.34,296,101,311.64a123.92,123.92,0,0,1-33.06-77.56H90.17A99.59,99.59,0,0,0,116.34,296ZM90.45,223.62H68.22A124,124,0,0,1,101,146.05l15.63,15.61A99.6,99.6,0,0,0,90.45,223.62ZM186,127.82A99.63,99.63,0,0,0,124,154L108.4,138.66A123.91,123.91,0,0,1,186,105.6Zm10.45.28V105.88A123.93,123.93,0,0,1,274,138.66l-15.61,15.62A99.63,99.63,0,0,0,196.42,128.1Zm95.52,95.52c-.07-1.27-.16-2.56-.29-3.83,0-.48-.1-.95-.14-1.42-.08-.81-.19-1.6-.3-2.4l-.08-.61c-.08-.65-.18-1.3-.29-1.94-.07-.42-.13-.84-.21-1.25s-.15-.88-.23-1.33-.21-1.06-.32-1.6c-.14-.72-.29-1.44-.47-2.16-.06-.29-.13-.59-.2-.87l-.24-1c-.11-.46-.23-.92-.35-1.38s-.29-1.11-.45-1.66a2.09,2.09,0,0,1-.05-.21c-.15-.52-.31-1-.46-1.56q-1.23-4.09-2.81-8.06c-.27-.66-.53-1.32-.81-2s-.59-1.37-.89-2.05c-.22-.49-.44-1-.67-1.45q-.21-.48-.45-.93a99.21,99.21,0,0,0-12.32-19.48q-2-2.46-4.15-4.8l15.62-15.61c.62.65,1.22,1.32,1.82,2s1.34,1.51,2,2.27,1.26,1.49,1.87,2.24,1.17,1.46,1.75,2.2l.34.44,1.37,1.8c.16.21.32.43.47.65.37.5.73,1,1.08,1.49.68,1,1.34,1.92,2,2.89.4.59.8,1.19,1.18,1.8.26.39.51.79.76,1.19s.5.8.74,1.2c.48.78.95,1.57,1.4,2.36,0,0,0,0,0,0a2,2,0,0,1,.19.31c.8,1.37,1.57,2.77,2.3,4.17q.28.52.54,1.05c.38.69.73,1.39,1.07,2.1l.09.19c.19.41.4.8.58,1.2.39.81.76,1.63,1.13,2.45.3.65.59,1.3.87,2,.36.83.7,1.64,1,2.48.27.66.53,1.33.79,2,.42,1.09.83,2.21,1.21,3.32.24.69.48,1.37.71,2.07l.06.17c.26.8.51,1.59.76,2.39,0,.05,0,.12.06.18.26.86.5,1.71.75,2.58.2.72.4,1.44.59,2.17.09.36.19.72.27,1.09.15.53.28,1.07.41,1.62.08.33.16.67.23,1a1.33,1.33,0,0,1,.05.19c.11.46.22.92.3,1.38.27,1.22.51,2.45.74,3.68s.46,2.59.65,3.88c.06.44.14.88.19,1.31s.11.76.16,1.14c.14,1,.26,2,.36,3,0,.49.11,1,.15,1.51l0,.33c.06.56.1,1.13.15,1.7.06.87.13,1.73.17,2.59Zm-2.33-16.54c-.06-.29-.13-.59-.2-.87l-.24-1c-.11-.46-.23-.92-.35-1.38-.13.45-.26.9-.37,1.35-.36,1.32-.69,2.65-1,4,.87,0,1.74,0,2.6.06C289.94,208.52,289.79,207.8,289.61,207.08Zm-5.73,112.57c-.73.75-1.48,1.49-2.23,2.22.73.74,1.48,1.46,2.22,2.18.76-.72,1.49-1.46,2.24-2.22C285.35,321.12,284.61,320.39,283.88,319.65Z"></path><path d="M291.94,223.63a99.63,99.63,0,0,0-26.17-62l15.61-15.62a124,124,0,0,1,33.34,77.8Z" style="fill:#17c37b"></path><path d="M67.94,234.07H90.17a99.63,99.63,0,0,0,26.17,62L101,311.64A123.93,123.93,0,0,1,67.94,234.07Z" style="fill:#17c37b"></path><path d="M283.88,319.65c.73.74,1.47,1.47,2.23,2.18-.75.76-1.48,1.5-2.24,2.22-.74-.72-1.49-1.44-2.22-2.18C282.4,321.14,283.15,320.4,283.88,319.65Z" style="fill:#fff"></path><path d="M414,321.84a2.34,2.34,0,0,0,0-.26q-.73-5.56-1.95-11A129.94,129.94,0,0,0,324.08,215c-1.32-.41-2.65-.81-4-1.18-2.17-.61-4.36-1.15-6.58-1.64a129.89,129.89,0,0,0-23.43-3c-.86,0-1.73-.05-2.6-.06l-2.12,0q-3,0-6,.14c-.88,0-1.77.08-2.65.15a129.44,129.44,0,0,0-23,3.58c-2.39.59-4.73,1.25-7.06,2-1.35.42-2.69.86-4,1.33a129.91,129.91,0,0,0-84.46,96.39q-1.09,5.26-1.73,10.69a129.9,129.9,0,0,0-.92,15.49c0,2.52.07,5,.21,7.51s.36,5,.65,7.48c.14,1.29.31,2.56.5,3.83A129.77,129.77,0,0,0,414,355.8c.16-1.26.3-2.52.43-3.79q.36-3.57.53-7.19v-.1c.08-1.93.12-3.87.12-5.81A129.94,129.94,0,0,0,414,321.84Z" style="fill:#fff"></path><path d="M280.14,215.66v22.22a99.58,99.58,0,0,0-62,26.18l-15.62-15.34A123.92,123.92,0,0,1,280.14,215.66Z" style="fill:#17c37b"></path><path d="M417.6,320.24c0-.08,0-.16-.05-.25q-.87-5.57-2.18-11a136.24,136.24,0,0,0-91.8-97.84q-2-.62-4-1.17c-2.22-.61-4.45-1.17-6.72-1.68a135.52,135.52,0,0,0-23.68-3.12h0q-.36,0-.72,0l-3.09-.09q-3.5.06-6.94.3c-.27,0-.54,0-.8,0a134.67,134.67,0,0,0-23.26,3.74c-2.42.6-4.83,1.28-7.19,2-1.34.42-2.68.86-4,1.32a136.24,136.24,0,0,0-88.33,98.75q-1.18,5.28-2,10.7a139,139,0,0,0-1.33,16.94c0,2.07.11,4.13.25,6.18.15,2.57.38,5.12.67,7.64.16,1.28.33,2.55.52,3.82A136.09,136.09,0,0,0,285.36,472.71,136.15,136.15,0,0,0,418,354.5c.17-1.27.31-2.54.44-3.81q.39-3.65.56-7.34v-.11c.08-1.44.12-2.88.15-4.33A136.67,136.67,0,0,0,417.6,320.24Zm-9.45,26.69c-.18,2.37-.43,4.73-.76,7.06q-.24,1.93-.57,3.84a123.87,123.87,0,0,1-31.27,63.87l-15.61-15.61a99.58,99.58,0,0,0,23.62-44.52c.33-1.32.61-2.65.87-4q.63-3.24,1-6.53h0c.29-2.31.51-4.63.63-7h22.23c0,.94-.11,1.87-.18,2.8ZM193.06,419.36c-.55-.61-1.11-1.25-1.64-1.88s-1.07-1.27-1.58-1.91-1.13-1.39-1.69-2.1-1.1-1.43-1.63-2.15c-.44-.57-.85-1.14-1.26-1.72-.31-.41-.6-.83-.89-1.25-1.24-1.76-2.43-3.54-3.56-5.36-.23-.36-.45-.73-.67-1.09s-.55-.89-.81-1.34c-.62-1-1.23-2.1-1.82-3.17-.31-.56-.63-1.11-.92-1.68-.47-.87-.92-1.74-1.36-2.62s-.8-1.59-1.18-2.4c-.47-1-.92-1.95-1.35-2.93-.24-.52-.47-1.05-.7-1.58l-.3-.71c-.27-.65-.54-1.29-.8-1.93-.1-.25-.2-.5-.29-.76-.27-.64-.51-1.29-.76-1.94s-.49-1.31-.72-2c-.37-1-.72-2-1-3.05a1.93,1.93,0,0,1-.11-.34c-.18-.53-.34-1-.5-1.58s-.32-1-.47-1.55c-.21-.71-.41-1.42-.61-2.13-.39-1.41-.76-2.83-1.09-4.26s-.65-2.87-1-4.31c-.15-.73-.28-1.45-.41-2.17-.07-.34-.13-.67-.19-1s-.16-.95-.24-1.43-.15-.95-.22-1.43-.18-1.21-.25-1.82-.17-1.21-.24-1.82l0-.24c-.07-.5-.12-1-.17-1.48a.45.45,0,0,1,0-.12c-.06-.62-.12-1.22-.17-1.84a.39.39,0,0,1,0-.15c0-.34-.06-.67-.08-1s0-.52-.07-.78c-.06-.74-.11-1.47-.14-2.2h22.23c0,.77.09,1.55.15,2.33s.13,1.51.21,2.27v0c.06.6.13,1.2.21,1.81,0,.38.09.78.14,1.18a2.07,2.07,0,0,0,0,.22.75.75,0,0,0,0,.2c0,.29.07.59.12.87.08.59.17,1.19.27,1.78s.16,1,.25,1.43a1.06,1.06,0,0,0,0,.19c.1.61.22,1.21.34,1.81,0,.08,0,.16.05.24l.06.3c.07.35.15.7.23,1.05.19.89.4,1.79.62,2.67,0,.12.06.25.09.37.28,1.14.59,2.27.92,3.39.16.56.32,1.11.49,1.65s.3,1,.47,1.47c.21.67.44,1.34.67,2s.38,1.09.58,1.63l.29.77c.65,1.71,1.34,3.41,2.07,5.07.12.28.24.54.37.81l.08.18c.21.47.43.94.66,1.4A96.52,96.52,0,0,0,200,392.48c.38.6.77,1.2,1.17,1.78.79,1.19,1.62,2.37,2.48,3.52.27.38.56.76.85,1.14l.08.09.73,1c.44.55.87,1.1,1.32,1.65l1,1.2,0,0c.47.55.93,1.08,1.41,1.62s1,1.07,1.44,1.61L195.17,421.7l-1.42-1.56C193.51,419.88,193.29,419.62,193.06,419.36ZM164.8,315.07a124,124,0,0,1,30.37-59l15.62,15.62a99.53,99.53,0,0,0-25.86,57.8c-.13,1.38-.24,2.77-.32,4.16H162.39q.23-4.06.7-8.07Q163.72,320.29,164.8,315.07Zm77.45-91.22.2-.07,1.72-.65,2-.74c.76-.27,1.51-.52,2.28-.76l2.09-.67,1-.3,1.47-.43,1.34-.38,1.44-.38,2.8-.7a.65.65,0,0,0,.18,0l2.06-.46,1.68-.35.7-.14,1.77-.33c.7-.13,1.39-.25,2.09-.36l1.7-.27,1.16-.16,1.44-.19c.47-.07.95-.12,1.43-.18l1.45-.16,1.44-.13,1-.1,1-.08c.81-.06,1.61-.12,2.41-.16v22.23c-.57,0-1.14.06-1.71.11l-.76.05-1.27.11-.21,0-1,.1c-.92.1-1.84.2-2.77.33l-1.38.19c-1.84.27-3.68.59-5.49,1-.3.07-.61.13-.91.18l-.34.08c-.14,0-.27.05-.4.09-.42.09-.83.18-1.24.29s-1.09.26-1.63.4l-1.68.44-.81.22c-.44.12-.87.25-1.31.39l-.56.17c-.48.13-1,.28-1.42.44l-.09,0-1.65.56-1.16.39-.15.06a2.37,2.37,0,0,0-.34.13c-.49.16-1,.34-1.44.52-.21.07-.41.15-.6.23-.49.18-1,.38-1.46.57l-.11,0-.26.11-.78.32-.9.38-.89.38-1.78.82-1.54.73-.14.06-.08.05-1.69.84-1.43.74-1.48.81c-.63.34-1.24.7-1.86,1.06l-1.83,1.09c-.62.37-1.22.76-1.81,1.15s-1.21.77-1.8,1.17-1.18.8-1.77,1.22h0c-.08,0-.14.1-.22.14-.5.36-1,.73-1.51,1.11s-.94.69-1.4,1.05l-.49.37-1.14.9-.55.45c-.31.24-.61.49-.91.74s-.58.48-.87.73c-.45.38-.9.77-1.34,1.17s-1.08,1-1.61,1.44l-15.62-15.33c.73-.67,1.46-1.34,2.2-2,1.29-1.15,2.62-2.28,4-3.37.69-.56,1.39-1.11,2.09-1.66s1.35-1,2-1.56L213,240l0,0c.54-.41,1.07-.8,1.6-1.17.29-.22.57-.42.86-.62.51-.38,1-.73,1.56-1.09l.06,0,.47-.33c.58-.39,1.15-.78,1.74-1.15l.17-.11.18-.11c.64-.42,1.28-.83,1.93-1.23l.84-.51c.55-.35,1.1-.68,1.65-1,.85-.5,1.7-1,2.56-1.46s2-1.11,3-1.64c.72-.38,1.45-.74,2.18-1.1s1.73-.85,2.6-1.26l0,0c.73-.35,1.47-.69,2.21-1l1.24-.55c.41-.17.83-.36,1.24-.52l.52-.22c.78-.32,1.57-.64,2.35-.93l.05,0Zm37.89,238a123.91,123.91,0,0,1-77.58-32.79l15.62-15.61a99.57,99.57,0,0,0,62,26.17Zm-81.87-99.52c-.37-1.29-.7-2.59-1-3.9a91.82,91.82,0,0,1-2.36-19.55,89.48,89.48,0,0,1,26.89-63.58,88.39,88.39,0,0,1,24-17.57c1.12-.55,2.23-1.08,3.36-1.58,2.07-.93,4.18-1.78,6.3-2.54a88.55,88.55,0,0,1,21.47-4.79c.78-.07,1.55-.14,2.34-.18q3.06-.22,6.14-.22c.86,0,1.71,0,2.56,0s1.42,0,2.13.09a87.44,87.44,0,0,1,21.73,3.89c2.21.68,4.4,1.45,6.56,2.33,1.15.45,2.28.94,3.41,1.45a88.47,88.47,0,0,1,25.29,17.2l1.88,1.88a89.66,89.66,0,0,1,26.9,63.58,92.92,92.92,0,0,1-2.23,18.94c-.3,1.34-.64,2.67-1,4a90.11,90.11,0,0,1-174.34.53Zm92.32-124.2V215.93l.62,0h0a122.5,122.5,0,0,1,23.19,3.58c2.13.53,4.23,1.13,6.32,1.78,1.36.42,2.71.86,4,1.33a123.74,123.74,0,0,1,43.39,26.06l-15.61,15.62a99.35,99.35,0,0,0-28.87-18.55c-1.21-.51-2.42-1-3.65-1.45-2.16-.81-4.34-1.54-6.56-2.2a98.38,98.38,0,0,0-21.84-3.91Zm88.24,21.6c.31.35.61.71.92,1.07l.54.64c.35.42.71.85,1.06,1.29s.94,1.15,1.4,1.74.89,1.15,1.32,1.73a122,122,0,0,1,9.35,14.38c.35.59.67,1.19,1,1.79s.74,1.37,1.09,2.07.74,1.47,1.1,2.22c.15.3.3.6.44.92.38.78.75,1.56,1.1,2.35s.63,1.41.93,2.12.7,1.65,1,2.48.78,1.95,1.14,2.94c.27.69.52,1.39.76,2.09s.57,1.64.85,2.47.48,1.46.7,2.19c.1.31.19.63.28.95.42,1.36.81,2.73,1.16,4.11.11.39.22.79.32,1.19s.21.85.31,1.28l.3,1.3c.21.88.4,1.76.58,2.65.1.46.21.93.29,1.4s.17.89.25,1.32c.16.9.32,1.8.47,2.71.08.45.14.9.21,1.36s.13.91.19,1.37a1.43,1.43,0,0,1,0,.22s0,0,0,0c.05.38.11.75.14,1.13s.11.75.14,1.13a.25.25,0,0,1,0,.12c0,.15,0,.31.06.47,0,.34.08.67.11,1s.07.67.1,1c.15,1.63.28,3.26.38,4.9l-22.79-.22q0-.92-.12-1.83a4.19,4.19,0,0,0,0-.5c-.07-.78-.13-1.55-.21-2.32l0-.28c0-.18,0-.36-.07-.53-.05-.54-.12-1.1-.19-1.63-.15-1.21-.32-2.43-.52-3.62-.1-.61-.21-1.21-.32-1.82s-.25-1.31-.37-2c-.09-.35-.16-.7-.23-1.05a.07.07,0,0,0,0,0c0-.09,0-.18-.06-.25-.1-.45-.2-.91-.31-1.36a2.62,2.62,0,0,0-.09-.38c-.11-.5-.23-1-.37-1.53s-.22-.86-.34-1.29-.3-1.07-.44-1.59-.32-1.06-.47-1.59q-1.44-4.73-3.35-9.29c-.21-.51-.42-1-.65-1.51s-.44-1-.67-1.5c-.33-.74-.68-1.47-1-2.19s-.64-1.31-1-2-.61-1.17-.93-1.75l-.79-1.44c-1.37-2.46-2.86-4.85-4.44-7.19-.42-.62-.86-1.25-1.31-1.87q-1.66-2.37-3.5-4.63c-.32-.41-.65-.81-1-1.21l-.09-.11c-.26-.33-.55-.65-.83-1-.79-.93-1.61-1.85-2.43-2.75l15.61-15.62c.52.55,1,1.11,1.53,1.67.34.37.67.74,1,1.12S378.59,259.47,378.83,259.76ZM368.15,429.65a123.93,123.93,0,0,1-77.56,32.51v-22a99.57,99.57,0,0,0,62-26.17L368,429.5Z"></path><path d="M386.11,333.68a99.58,99.58,0,0,0-26.18-61.95l15.62-15.62a124,124,0,0,1,33.34,77.8Z" style="fill:#17c37b"></path><path d="M162.11,344.13h22.23a99.54,99.54,0,0,0,26.17,62L195.17,421.7A123.87,123.87,0,0,1,162.11,344.13Z" style="fill:#17c37b"></path><path d="M290.58,462.16V439.93a99.57,99.57,0,0,0,62-26.17l15.62,15.61A123.94,123.94,0,0,1,290.58,462.16Z" style="fill:#17c37b"></path></svg> 