<?xml version="1.0" encoding="UTF-8"?> <svg xmlns="http://www.w3.org/2000/svg" viewBox="0 0 567.02 567.02"><path d="M138.63,277.32a24,24,0,1,0,.09,0Zm0,31.58a7.68,7.68,0,1,1,7.68-7.68v.09a7.59,7.59,0,0,1-7.59,7.59Z"></path><path d="M138.63,390a24,24,0,1,0,.27,0A1.22,1.22,0,0,0,138.63,390Zm0,31.58a7.68,7.68,0,1,1,7.68-7.68,7.59,7.59,0,0,1-7.5,7.68Z"></path><path d="M304.07,131.77a24.17,24.17,0,0,0-27.48,20.07A23.63,23.63,0,0,0,281,169.29a24.16,24.16,0,0,0,15.62,9.6h3.75a24,24,0,0,0,3.75-47.73Zm3.76,25a7.68,7.68,0,0,1-13.7,3.31,7.59,7.59,0,0,1,6.19-12.13h1.14a7.6,7.6,0,0,1,6.4,8.62Z"></path><path d="M330.51,214a24.09,24.09,0,0,0,20.07,27.4,18.75,18.75,0,0,0,3.67,0A24,24,0,0,0,358,193.72h0a24.08,24.08,0,0,0-27.47,20.14Zm29.93-.53a7.68,7.68,0,1,1-13.7,3.32,7.6,7.6,0,0,1,7.51-6.46h1.22A7.78,7.78,0,0,1,360.44,213.44Z"></path><path d="M387.23,300.7a23.5,23.5,0,0,0,15.62,9.6h3.75a24,24,0,0,0,19.56-37.87,2.48,2.48,0,0,0-.19-.26,24.06,24.06,0,1,0-38.74,28.53ZM399,285.43A7.69,7.69,0,0,1,406.6,279h1.14A8,8,0,0,1,412.8,282a7.71,7.71,0,0,1,1.31,5.67,7.43,7.43,0,0,1-3.06,5,7.58,7.58,0,0,1-10.61-1.61l0,0a7.79,7.79,0,0,1-1.4-5.76Z"></path><path d="M485.13,125.05A41.69,41.69,0,0,0,458,108.21l-46.08-7.15a8.31,8.31,0,0,0-2.7,16.4h0l46,7.24a25.65,25.65,0,0,1,21.29,29.23L450.32,322.86a25.66,25.66,0,0,1-25.57,21.47h-3.93l-92-14.75V272.25a42.05,42.05,0,0,0-42-42h-47l17.45-111A25.66,25.66,0,0,1,286.1,98l58.46,9.25a8.2,8.2,0,0,0,2.88-16l-58.72-8.72a41.56,41.56,0,0,0-31.42,6.8,42.06,42.06,0,0,0-16.84,27.4L223,230.2H115.77a42.05,42.05,0,0,0-41.71,42.05V443.19a42,42,0,0,0,42,42H286.88a42,42,0,0,0,42-42h0v-97l89.44,14a40,40,0,0,0,6.46.53,42.07,42.07,0,0,0,41.45-35.52L492.38,156.2A41.44,41.44,0,0,0,485.13,125.05ZM312.54,443.19a25.66,25.66,0,0,1-25.66,25.66H115.77a25.65,25.65,0,0,1-25.65-25.66V272.25a25.65,25.65,0,0,1,25.65-25.65H286.88a25.65,25.65,0,0,1,25.57,25.65V443.19Z"></path><path d="M201.55,330.37a24,24,0,1,0,24,24A24,24,0,0,0,201.55,330.37Zm0,31.59a7.68,7.68,0,1,1,1.63,0A8.88,8.88,0,0,1,201.55,362Z"></path><path d="M263.94,277.58a24,24,0,1,0,24,24v-.08A24,24,0,0,0,263.94,277.58Zm0,31.58a5.43,5.43,0,1,1,.26.26h-.26Z"></path><path d="M263.94,390.23a24,24,0,1,0,24,24v-.08A24,24,0,0,0,263.94,390.23Zm0,31.58a7.68,7.68,0,1,1,7.67-7.67,7.67,7.67,0,0,1-7.67,7.67Z"></path><path d="M377.2,112.22h1.39a8.2,8.2,0,0,0,1.31-16.31h0a8,8,0,0,0-9.14,6.73s0,.11,0,.16A8.2,8.2,0,0,0,377.2,112.22Z"></path><circle cx="300.32" cy="155.5" r="10.56" style="fill:#17c37b"></circle><circle cx="354.25" cy="217.72" r="10.56" style="fill:#17c37b"></circle><circle cx="406.6" cy="286.39" r="10.56" style="fill:#17c37b"></circle><circle cx="263.94" cy="301.49" r="10.56" style="fill:#17c37b"></circle><circle cx="201.55" cy="354.36" r="10.56" style="fill:#17c37b"></circle><circle cx="138.72" cy="413.87" r="10.56" style="fill:#17c37b"></circle><circle cx="138.72" cy="301.31" r="10.56" style="fill:#17c37b"></circle><circle cx="263.94" cy="414.14" r="10.56" style="fill:#17c37b"></circle></svg> 