<?xml version="1.0" encoding="UTF-8"?> <svg xmlns="http://www.w3.org/2000/svg" width="222.6" height="47.57" viewBox="0 0 222.6 47.57"><defs><style>.a{fill:#fee318;}.b{fill:#147f5e;}</style></defs><path class="a" d="M120.45-66.46c4.85,0,9.7,0,14.56,0,.32,0,.4.09.4.41q0,4.73,0,9.46c0,.31-.09.38-.39.38l-15.14,0c-.32,0-.4.09-.4.41,0,1.91,0,3.83,0,5.75,0,.27.07.33.33.32a26.31,26.31,0,0,1,3.66-.07,17.34,17.34,0,0,1,7.86,2.13,11.07,11.07,0,0,1,5.32,7.15,15.48,15.48,0,0,1,0,7.91,11.59,11.59,0,0,1-5.92,7.39A20.68,20.68,0,0,1,124-23a38.08,38.08,0,0,1-7.91.43A51.2,51.2,0,0,1,107-23.82l-2-.46c-.19,0-.26-.11-.26-.31,0-3.08,0-6.16,0-9.24,0-.26.11-.23.28-.18a38.83,38.83,0,0,0,4.53,1,21.56,21.56,0,0,0,7.3,0,7.21,7.21,0,0,0,2.91-1.19,4.15,4.15,0,0,0,1.67-3.87c-.16-2.31-1.55-3.59-3.62-4.28a15.87,15.87,0,0,0-5.08-.64,29.49,29.49,0,0,0-6.81.94c-.44.1-.44.1-.44-.35q0-11.8,0-23.62c0-.51-.07-.45.46-.45Z" transform="translate(85.42 69.78)"></path><path class="a" d="M50-45.22A14.1,14.1,0,0,1,55.32-43,8.53,8.53,0,0,1,59-36.53a11.65,11.65,0,0,1-1.09,6.26,11.4,11.4,0,0,1-5.13,5,21.58,21.58,0,0,1-6.41,2.07,42.1,42.1,0,0,1-8.54.56A55.3,55.3,0,0,1,28-23.82c-.53-.12-1.07-.25-1.61-.35-.23,0-.3-.14-.3-.38q0-4.71,0-9.43c0-.26.06-.31.32-.23a52,52,0,0,0,6.5,1.55,25.43,25.43,0,0,0,5,.4,9.72,9.72,0,0,0,2.93-.48A3.65,3.65,0,0,0,43.6-36.4,3.81,3.81,0,0,0,41-40.13a9.7,9.7,0,0,0-3.32-.61,35.66,35.66,0,0,0-5.93.38c-.25,0-.28,0-.28-.25q0-4.38,0-8.76c0-.25.08-.31.31-.28a41.91,41.91,0,0,0,5.37.19,9.63,9.63,0,0,0,3.63-.68,3.67,3.67,0,0,0,2.22-4c-.18-2-1.47-3-3.35-3.45a14.34,14.34,0,0,0-4.8-.16A44.7,44.7,0,0,0,26.94-56c-.47.14-.47.14-.47-.35,0-3,0-6,0-8.95a.38.38,0,0,1,.3-.43,35,35,0,0,1,6.63-1.43A52.77,52.77,0,0,1,41-67.55,26.72,26.72,0,0,1,50-66a13.29,13.29,0,0,1,6.37,4.64,10.7,10.7,0,0,1,1.92,5.21,10.06,10.06,0,0,1-.6,5A9.15,9.15,0,0,1,53-46.34a14,14,0,0,1-2.87,1C50.08-45.32,50-45.33,50-45.22Z" transform="translate(85.42 69.78)"></path><path class="b" d="M14.23-67.66v.36c0,3.74,0,7.47,0,11.21,0,.3.09.35.37.35H21c.24,0,.32,0,.32.31q0,4.41,0,8.82c0,.31-.1.34-.36.34H14.55c-.27,0-.33.06-.33.33q0,4,0,8a11.76,11.76,0,0,0,.3,2.77,2.89,2.89,0,0,0,3.07,2.43,12.39,12.39,0,0,0,3.15-.36c.27-.06.36,0,.36.28q0,4.31,0,8.61c0,.24-.07.33-.31.4a34,34,0,0,1-10.75,1.22,12.87,12.87,0,0,1-5.84-1.54A9.12,9.12,0,0,1-.27-30.07a20.89,20.89,0,0,1-.62-5.28c0-3.52,0-7,0-10.54,0-.46.05-.4-.41-.4H-6c-.25,0-.34-.05-.34-.32q0-4.43,0-8.83c0-.25.07-.32.32-.32,1.59,0,3.18,0,4.77,0,.25,0,.31-.07.31-.32,0-2.18,0-4.36,0-6.54A.35.35,0,0,1-.65-63L14-67.6A1.2,1.2,0,0,1,14.23-67.66Z" transform="translate(85.42 69.78)"></path><path class="b" d="M-47.57-42.46A20,20,0,0,0-49.36-49a11.73,11.73,0,0,0-6.57-6.11,15.18,15.18,0,0,0-7.26-.73A9.84,9.84,0,0,0-70-51.92c-.06.07-.1.18-.24.22V-69.78H-85.42v47.13h13.8c.25,0,.31-.07.31-.32,0-1.57,0-3.13,0-4.7a.57.57,0,0,1,0-.33l.28.5a9.6,9.6,0,0,0,6.1,4.78,15.84,15.84,0,0,0,6,.38,11.6,11.6,0,0,0,8.65-5.22,18,18,0,0,0,2.74-8.32A30.25,30.25,0,0,0-47.57-42.46Zm-15.72,6A7.9,7.9,0,0,1-64-33.82a3.33,3.33,0,0,1-3.06,1.74,3,3,0,0,1-2.79-1.87,8.64,8.64,0,0,1-.69-2.82c-.09-.8-.1-1.61-.12-2.41a16.52,16.52,0,0,1,.49-4.37,6.78,6.78,0,0,1,.3-.79,3,3,0,0,1,3-1.94,3.31,3.31,0,0,1,3,1.88,10.89,10.89,0,0,1,.81,4.52A22.35,22.35,0,0,1-63.29-36.51Z" transform="translate(85.42 69.78)"></path><path class="a" d="M100.63-40.92a12.3,12.3,0,0,0-4.11-7,15.52,15.52,0,0,0-9.3-3.54,23.3,23.3,0,0,0-4.09.11,12.73,12.73,0,0,0-6.24,2.31c-.07.06-.13.14-.26.13a14.51,14.51,0,0,1,.38-3,7.44,7.44,0,0,1,2.54-4.17A9.14,9.14,0,0,1,84-57.9a28.47,28.47,0,0,1,8.14.17A32.33,32.33,0,0,1,97-56.65c.15,0,.27.11.27-.16,0-3.11,0-6.22,0-9.33,0-.17,0-.24-.22-.28a52.86,52.86,0,0,0-9.54-1.12,39.79,39.79,0,0,0-4.76.17,28.8,28.8,0,0,0-7,1.47A19.19,19.19,0,0,0,63.5-53.83,27.59,27.59,0,0,0,62-45.63a27.82,27.82,0,0,0,.78,8.43A19,19,0,0,0,67.09-29a18.48,18.48,0,0,0,8.83,5.37,26.27,26.27,0,0,0,8.87.9A22,22,0,0,0,91.21-24a14.73,14.73,0,0,0,7-5.08A14.43,14.43,0,0,0,100.63-40.92ZM86.18-34.45a4.63,4.63,0,0,1-4.61,2.24,4.73,4.73,0,0,1-4.25-4.08,9.69,9.69,0,0,1-.16-1.7,7.19,7.19,0,0,1,.74-3.38,4.52,4.52,0,0,1,4.33-2.46A4.72,4.72,0,0,1,86.8-40,7.43,7.43,0,0,1,86.18-34.45Z" transform="translate(85.42 69.78)"></path><path class="b" d="M-8.72-41a25.64,25.64,0,0,0-1-5.71A12.44,12.44,0,0,0-18-55.46a23.93,23.93,0,0,0-6.93-1.13,24.73,24.73,0,0,0-8.8,1.11A14.52,14.52,0,0,0-43.42-46a20.51,20.51,0,0,0-.52,11A14.17,14.17,0,0,0-36-24.84a24.18,24.18,0,0,0,9.83,2.24A47.5,47.5,0,0,0-17.44-23,30.25,30.25,0,0,0-11-24.64a.44.44,0,0,0,.35-.49c0-2.49,0-5,0-7.46,0-.41,0-.41-.37-.27A30.36,30.36,0,0,1-21.37-31a13.69,13.69,0,0,1-4.45-.58,5.07,5.07,0,0,1-3.78-4.29c0-.28,0-.33.3-.33H-8.95c.26,0,.34-.06.34-.33C-8.63-38-8.62-39.49-8.72-41ZM-22.07-42.4h-7.4c-.24,0-.3-.05-.3-.29a11.74,11.74,0,0,1,.44-3.73A3.59,3.59,0,0,1-26.93-49a3.57,3.57,0,0,1,4.53,2.12,8.83,8.83,0,0,1,.58,3.26c0,.31,0,.63,0,1S-21.88-42.4-22.07-42.4Z" transform="translate(85.42 69.78)"></path></svg> 