<?xml version="1.0" encoding="UTF-8"?>
<svg xmlns="http://www.w3.org/2000/svg" id="spinoloco" width="560" height="160" viewBox="0 0 560 160">
  <defs>
    <style> .cls-1 { fill: #00da4f; } .cls-1, .cls-2 { stroke-width: 0px; } .cls-2 { fill: #070707; } </style>
  </defs>
  <g>
    <path class="cls-1" d="M99.06,56.17h0c3.47.2,6.81,1.41,9.61,3.48-13.01-20.73-30.1-27.09-50.63-27.09-22.04,0-41.18,15.17-46.2,36.63-1.84-2.98-3.34-6.15-4.46-9.46-4.06,24.76,9.54,43.96,9.54,43.96-3.36-.24-6.58-1.42-9.31-3.41,12.84,20.46,29.64,27,49.82,27.17h.81c2.03,0,4.06-.13,6.07-.39,8.38-1.1,16.3-4.44,22.94-9.67.02-.02.04-.03.06-.05.02,0,.03-.02.05-.04,6.95-5.43,12.23-12.7,15.25-20.99,0,0,0-.03,0-.04l.32-.88c.04-.14.1-.29.14-.42s.09-.26.13-.4l.22-.68.07-.24c.08-.27.16-.54.23-.82.02-.06.04-.12.05-.18.08-.29.15-.57.24-.87,0-.03.01-.07.03-.1.08-.31.15-.6.23-.91v-.03c1.87,2.96,3.34,6.16,4.39,9.5,4.05-24.75-9.59-44.08-9.59-44.08ZM91.44,86.29h0s-25.87,25.87-25.87,25.87c-3.72,3.71-9.74,3.71-13.46,0l-25.87-25.87c-3.71-3.72-3.71-9.74,0-13.46l25.87-25.87c3.72-3.71,9.74-3.71,13.46,0l25.87,25.87c3.71,3.72,3.71,9.74,0,13.46Z"></path>
    <circle class="cls-1" cx="44.6" cy="79.56" r="8.26"></circle>
    <path class="cls-1" d="M71.89,71.65c-.11,0-.21,0-.32,0-4.56.09-8.19,3.86-8.1,8.42.09,4.56,3.86,8.19,8.42,8.1s8.19-3.86,8.1-8.42c-.08-4.44-3.66-8.02-8.1-8.1Z"></path>
  </g>
  <path class="cls-2" d="M161.47,55.65c-1.75-.22-3.51-.33-5.27-.33-5.61-.33-11.2.87-16.18,3.47-3.9,2.51-6.54,6.56-7.26,11.13-.29,1.16-.44,2.35-.44,3.54-.1,2.49.8,4.92,2.51,6.74,2.07,1.99,4.56,3.49,7.29,4.38,2.85,1.04,5.01,1.84,6.48,2.4,1.47.56,2.09,1.46,1.84,2.69-.18,1.07-.97,1.94-2.02,2.21-1.52.44-3.1.64-4.68.59-2.5-.02-4.99-.37-7.41-1.03-2.44-.61-4.8-1.5-7.04-2.65l-2.65,12.38c2.26,1.11,4.67,1.88,7.15,2.28,3.01.55,6.07.82,9.13.81,5.82.36,11.61-1.04,16.62-4.01,3.71-2.46,6.29-6.29,7.18-10.65.29-1.28.44-2.59.45-3.9.02-2.54-.82-5.01-2.39-7-2.32-2.49-5.34-4.22-8.67-4.94-1.85-.53-3.68-1.1-5.49-1.73-1.15-.42-1.73-1.02-1.73-1.81-.05-.8.37-1.56,1.07-1.95.86-.46,1.8-.73,2.76-.81,3.05-.36,6.14-.21,9.15.44,2.2.48,4.35,1.18,6.41,2.1l2.65-12.46c-1.37-.45-2.78-.81-4.2-1.07-1.75-.33-3.51-.6-5.27-.81h0ZM221.06,69.98c.04-2.48-.53-4.93-1.66-7.15-1.12-2.13-2.87-3.87-5.01-4.98-2.62-1.29-5.52-1.91-8.44-1.8h-24.69l-10.03,47.46h15.85l2.43-11.64h9.43c5.33.31,10.58-1.4,14.7-4.79,3.7-3.46,6.15-8.05,6.96-13.05.29-1.33.44-2.69.45-4.05h0ZM204.48,74.03c-.26,1.5-.93,2.89-1.95,4.01-1.26,1.11-2.93,1.66-4.61,1.5h-5.75l2.36-11.21h6.05c1.14-.11,2.28.24,3.17.96.67.72,1.01,1.68.96,2.66,0,.69-.08,1.38-.22,2.06h0ZM230.35,56.06l-10.02,47.46h15.84l10.03-47.46h-15.85ZM279.43,77.94l-10.98-21.89h-13.34l-10.02,47.46h15.85l4.57-21.81,10.9,21.82h13.49l10.02-47.46h-15.85l-4.64,21.89ZM380.26,56.06h-15.85l-10.03,47.46h36.19l2.5-12.09h-20.34l7.52-35.38ZM444.28,59.51c-4.37-3.01-9.62-4.49-14.92-4.2-4.96-.13-9.9.7-14.56,2.43-3.96,1.59-7.37,4.31-9.8,7.81-2.84,4.33-4.79,9.2-5.72,14.3-.54,2.37-.82,4.8-.81,7.23-.14,3.44.74,6.84,2.54,9.77,1.74,2.57,4.24,4.53,7.15,5.6,3.43,1.26,7.07,1.87,10.73,1.8,4.99.13,9.95-.7,14.63-2.43,3.96-1.59,7.37-4.3,9.8-7.81,2.82-4.29,4.73-9.1,5.64-14.15.28-1.25.49-2.52.63-3.79.12-1.2.18-2.35.18-3.43.41-5.01-1.64-9.9-5.49-13.12,0,0,0,0,0,0ZM432.75,79.86c-.47,3.1-1.79,6.02-3.83,8.41-1.93,1.8-4.51,2.73-7.15,2.58-1.89.16-3.78-.33-5.34-1.39-1.21-1.2-1.82-2.88-1.66-4.57.04-1.69.26-3.37.67-5.01.41-3.18,1.74-6.16,3.83-8.59,1.99-1.74,4.58-2.63,7.22-2.47,1.87-.16,3.74.31,5.31,1.32,1.2,1.2,1.8,2.88,1.62,4.57-.04,1.74-.27,3.47-.67,5.16ZM487.36,55.32c-9.73,0-17.15,2.09-22.26,6.27-5.44,4.75-9.06,11.23-10.25,18.35-.43,1.96-.65,3.97-.67,5.98-.12,3.57.89,7.09,2.88,10.06,2.01,2.8,4.79,4.95,8,6.19,3.82,1.47,7.89,2.19,11.98,2.1,2.73.02,5.45-.19,8.15-.63,2.41-.41,4.79-1.02,7.11-1.81l2.95-13.86c-2.29.95-4.68,1.68-7.11,2.17-2.34.47-4.72.71-7.11.7-2.78.2-5.56-.32-8.07-1.5-1.73-1.17-2.68-3.19-2.47-5.27,0-.64.05-1.28.15-1.91.1-.68.22-1.42.37-2.21.45-3.42,2.22-6.54,4.94-8.66,2.88-1.81,6.25-2.7,9.65-2.55,2.39-.04,4.78.19,7.11.7,2.04.51,4.01,1.26,5.86,2.25l2.95-13.79c-2.05-.86-4.19-1.5-6.37-1.91-2.57-.47-5.17-.69-7.78-.67h0s0,0,0,0ZM547.84,59.51c-4.37-3.01-9.62-4.49-14.92-4.2-4.96-.13-9.9.7-14.56,2.43-3.96,1.59-7.37,4.31-9.8,7.81-2.84,4.34-4.78,9.2-5.72,14.3-.54,2.37-.81,4.8-.81,7.23-.15,3.44.74,6.84,2.54,9.77,1.74,2.57,4.24,4.53,7.15,5.6,3.43,1.26,7.07,1.88,10.73,1.8,4.99.13,9.95-.7,14.63-2.43,3.96-1.59,7.37-4.3,9.8-7.81,2.82-4.29,4.74-9.1,5.64-14.15.28-1.25.49-2.52.63-3.79.12-1.2.19-2.35.19-3.43.41-5.01-1.64-9.9-5.49-13.12h0s0,0,0,0ZM536.31,79.86c-.47,3.11-1.79,6.02-3.83,8.41-1.93,1.8-4.51,2.73-7.15,2.58-1.89.16-3.78-.33-5.34-1.39-1.21-1.2-1.82-2.88-1.66-4.57.04-1.69.26-3.37.67-5.01.41-3.17,1.74-6.16,3.83-8.59,1.99-1.74,4.58-2.63,7.22-2.47,1.87-.16,3.73.31,5.31,1.32,1.21,1.2,1.8,2.88,1.62,4.57-.05,1.74-.27,3.47-.67,5.16h0ZM316.13,57.56l.04-.02-.04.02ZM352.42,68.22c1.62.7,3.15,1.58,4.56,2.63-3.33-7-9.16-12.51-16.34-15.43,1.51-.87,3.24-1.32,4.98-1.29-10.55-4.45-23.94.08-31.91,5.8-2.24,1.52-4.17,3.43-5.72,5.65-2.84,4.34-4.78,9.2-5.71,14.3-.17.74-.3,1.45-.41,2.15h-.05l.04.03c-.26,1.67-.39,3.37-.4,5.06,0,.68.19,3.05.24,3.37-1.68-.7-3.28-1.6-4.75-2.67,2.37,5.17,6.1,9.6,10.77,12.83.44.31.9.6,1.37.86,1.55.95,3.23,1.67,4.98,2.15-1.56.92-3.34,1.4-5.15,1.39,9.59,3.93,21.34.73,29.64-4.14,3.1-1.63,5.77-3.99,7.77-6.87,2.82-4.29,4.74-9.1,5.64-14.15.28-1.25.49-2.52.63-3.79.12-1.2.18-2.35.18-3.43,0-1.4-.11-2.8-.35-4.18v-.23h0ZM318.42,79.87c.41-3.18,1.74-6.16,3.83-8.59,1.99-1.74,4.58-2.63,7.22-2.47,1.87-.16,3.74.3,5.31,1.32,1.2,1.2,1.8,2.88,1.62,4.57-.04,1.74-.27,3.47-.67,5.16-.47,3.1-1.79,6.02-3.83,8.41-1.93,1.8-4.51,2.73-7.15,2.58-1.89.16-3.77-.33-5.34-1.39-1.21-1.2-1.82-2.88-1.66-4.57.04-1.69.26-3.37.67-5.01Z"></path>
</svg>
