<?xml version="1.0" encoding="UTF-8"?>
<svg xmlns="http://www.w3.org/2000/svg" viewBox="0 0 787.78 90.82">
  <defs>
    <style>.cls-1{fill:#f83327;}.cls-2{fill:#059ad6;}</style>
  </defs>
  <g id="Layer_2" data-name="Layer 2">
    <g id="Layer_1-2" data-name="Layer 1">
      <path d="M.08,44.36c0-13,.1-26-.08-39,0-3,.85-3.57,3.63-3.51,8.86.18,17.72.16,26.58,0,2.44,0,3.58.61,4.41,3,3.55,10.55,7.37,21,11.1,31.49.43,1.23.59,2.63,2.43,2.71,2,.09,2.34-1.3,2.83-2.7,3.64-10.39,7.39-20.75,10.91-31.18.82-2.44,1.84-3.44,4.57-3.39,9.1.2,18.21.15,27.31,0,2.17,0,3,.48,2.94,2.79q-.1,39.69,0,79.38c0,2.38-.92,2.78-3,2.74-6.31-.12-12.63-.22-18.93,0-2.81.11-3.17-1-3.15-3.37.09-12,0-24,0-36a18.82,18.82,0,0,0,0-2.91c-.16-1,.74-2.72-1.12-2.93-1.65-.19-1.69,1.52-2.11,2.54-.94,2.36-1.68,4.79-2.53,7.19-3.46,9.69-7,19.36-10.35,29.08-.75,2.17-1.78,3-4.16,2.9-9.15-.22-9.21-.1-12.37-8.77-3.64-10-7.15-20.06-10.8-30.06-.4-1.11-.31-3.13-2.17-2.87s-1.08,2.14-1.09,3.27c-.07,12.74-.14,25.49,0,38.23.05,3.1-.92,3.86-3.88,3.75-5.94-.23-11.9-.21-17.84,0C.69,86.92,0,86.25,0,83.68.15,70.57.08,57.47.08,44.36Z"></path>
      <path d="M745.4,87.73c-9.19,0-17.78,0-26.36,0-1.82,0-2.52-1.15-3.33-2.35l-14.4-21c-1.3-1.9-9.51-3.34-11.28-2-1,.73-.57,1.78-.57,2.69,0,6.43-.11,12.86,0,19.29,0,2.44-.49,3.44-3.18,3.36-6.06-.2-12.13-.13-18.19,0-2.1,0-3-.42-3-2.79q.12-39.67,0-79.34c0-2.06.59-2.73,2.65-2.71,14.43.07,28.87-.19,43.3.15,8.89.21,17.21,2.6,23.88,9.1,11.56,11.24,10.67,35.82-6.84,44.44-2.63,1.29-2.9,2.22-1.14,4.62,5.8,7.91,11.37,16,17,24C744.41,85.84,744.7,86.49,745.4,87.73ZM698.93,43.29c3.64,0,6.44.15,9.2,0,5.8-.4,9.4-3.8,9.69-8.88.34-5.93-2.48-9.3-8.66-10.45-3.37-.62-6.76-.34-10.13-.28-3.09.06-7-1.4-9,.72-1.84,1.94-.52,5.78-.51,8.78,0,3.23-1.41,7.42.55,9.46C692.19,44.84,696.47,42.91,698.93,43.29Z"></path>
      <path d="M115,44.22c0-12.86.12-25.72-.07-38.58-.05-3.12.91-3.77,3.86-3.75q31.49.18,63,0c2.69,0,3.62.63,3.47,3.42a131.37,131.37,0,0,0,0,13.46c.14,2.75-.74,3.5-3.46,3.47-13.11-.14-26.21,0-39.31-.14-2.93,0-3.62.8-3.55,3.65.19,8.81.06,8.81,8.92,8.81,10,0,19.91.08,29.85-.08,2.59,0,3.35.71,3.22,3.25-.2,4.11-.21,8.25,0,12.37.13,2.54-.67,3.28-3.22,3.25-11.65-.14-23.3,0-34.94-.14-3.08-.05-4.21.78-3.76,3.85s-1.33,6.77.71,8.69c1.84,1.74,5.56.49,8.45.5,11.52.07,23,.1,34.58,0,2.4,0,3.13.67,3,3.07-.18,4.72-.15,9.46,0,14.19.08,2.43-.52,3.34-3.2,3.33q-32.22-.18-64.43,0c-2.59,0-3.22-.77-3.2-3.28C115,70.43,115,57.33,115,44.22Z"></path>
      <path d="M269.92,54.86c-4.93-.77-10-.44-15-.31-2.81.07-3.56-.81-3.41-3.48a104.67,104.67,0,0,0,0-10.92c-.11-2.45.49-3.38,3.2-3.32,8.86.19,17.72.14,26.58,0,2.16,0,3,.44,3,2.77-.11,11.17-.06,22.34-.05,33.5,0,1.22,0,2.3-1.17,3.21-18.43,14.18-47,16.85-65.8,3.39-15.52-11.09-21-26.75-17-45.1S216.63,5.06,234.79,1.37c15.85-3.22,31.15-1,44.5,9.3,1.72,1.33,2.1,2.13.46,3.9-3.8,4.09-7.41,8.36-10.93,12.69-1.4,1.71-2.34,1.72-4.1.42-7.26-5.39-15.32-7.76-24.3-5.49C229.52,25,222.57,35.8,224,47.63a23,23,0,0,0,22.14,20.25c9.87.26,17.71-3.29,23.46-11.35a5,5,0,0,0,.47-1A3.18,3.18,0,0,0,269.92,54.86Z"></path>
      <path d="M378.6,86.77c-3,0-6.08-.2-9.09.06-2.84.24-4.15-1-5-3.48-1-3-2.52-5.77-3.56-8.73-.7-2-1.72-2.81-3.95-2.78q-13.82.19-27.65,0a3.55,3.55,0,0,0-4,2.71c-1.22,3.28-2.67,6.48-3.95,9.75-.62,1.59-1.4,2.57-3.4,2.54-6.91-.12-13.82-.1-20.73,0-2.16,0-2.46-.54-1.6-2.51q17.56-40,34.95-80.15c.83-1.93,1.91-2.43,3.83-2.4,5.7.1,11.41.22,17.1,0,2.81-.12,4.08,1,5.12,3.38q13.88,32.14,27.92,64.22,3.25,7.48,6.57,15c.8,1.8.58,2.63-1.67,2.55C385.88,86.68,382.24,86.77,378.6,86.77ZM342.82,53.46v0c2.3,0,4.6-.08,6.89,0,2,.09,3-.19,2-2.58-2.28-5.32-4.33-10.73-6.52-16.09-.34-.84-.58-2-1.83-2s-1.5.91-1.88,1.86q-3.43,8.35-7,16.68c-.66,1.55-.43,2.2,1.44,2.08C338.22,53.35,340.52,53.46,342.82,53.46Z"></path>
      <path d="M639.77,87.5c-4.11,0-8.92,1.33-12.13-.37s-3.73-7-5.2-10.84c-1.07-2.79-2.45-3.83-5.53-3.75-8.73.24-17.47.17-26.2,0-2.33,0-3.48.72-4.23,2.92-1.13,3.31-2.7,6.47-3.94,9.74a3.4,3.4,0,0,1-3.76,2.54c-6.67-.13-13.35-.17-20,0-2.63.07-2.81-.64-1.86-2.82q15.2-34.53,30.29-69.13c1.51-3.43,3-6.86,4.44-10.34.71-1.76,1.6-2.64,3.72-2.58,6.06.17,12.13.15,18.19,0,2.21-.06,3.15.81,4,2.75q17.19,39.63,34.58,79.16c1,2.23.86,3-1.8,2.93-3.51-.15-7,0-10.55,0ZM604.36,54.41c2.3,0,4.6,0,6.9,0,1.77,0,2.41-.35,1.58-2.29-2.29-5.33-4.37-10.74-6.58-16.09-.34-.83-.4-2-1.64-2.15-1.42-.13-1.74,1.07-2.15,2.06-2.28,5.45-4.5,10.93-6.82,16.37-.72,1.68-.25,2.16,1.45,2.12C599.52,54.37,601.94,54.42,604.36,54.41Z"></path>
      <path d="M485.57,45.1c0-13,.06-26-.06-38.93,0-2.53.62-3.31,3.22-3.28C501,3,513.23,2.81,525.47,3c9.18.15,17.85,2.31,24.79,8.76,8.61,8,10.15,18.15,7.76,29.07-2.47,11.25-10.43,17.25-20.85,20.66-7.78,2.54-15.82,2.15-23.8,1.95-3-.08-3.66.92-3.57,3.69.19,5.81,0,11.64.11,17.46.06,2.31-.51,3.25-3,3.19q-9.09-.24-18.19,0c-2.67.08-3.21-1-3.19-3.39.1-13.1.05-26.2.05-39.29Zm24.28-11c0,2.9,0,5.81,0,8.71,0,1.13-.07,2.26,1.58,2.21,4.58-.15,9.2.47,13.75-.51,6.46-1.39,9.77-5.37,9.5-11.27-.25-5.64-4.37-9.65-10.78-10.14-3.85-.3-7.74-.08-11.61-.25-1.95-.08-2.53.68-2.46,2.53C509.93,28.3,509.85,31.21,509.85,34.12Z"></path>
      <path d="M787.73,45.56c0,13-.06,26,0,39,0,2.5-.65,3.36-3.27,3.27-6.06-.2-12.13-.14-18.2,0-2.14,0-3-.47-3-2.8q.1-39.67,0-79.35c0-2.08.64-2.72,2.69-2.68,6.19.1,12.38.17,18.56,0,2.71-.09,3.2.94,3.18,3.35C787.68,19.36,787.72,32.46,787.73,45.56Z"></path>
      <path class="cls-1" d="M436.9,90.74C425.79,91.83,417.14,81.83,417,72a19.78,19.78,0,0,1,19.36-20.39,20.07,20.07,0,0,1,20.34,19.07C457.08,80.67,448.35,91.72,436.9,90.74Z"></path>
      <path class="cls-2" d="M436.78.5c10.66.13,20,8.94,19.81,18.77-.15,10.34-9.33,19.06-20,19S417,29.31,417.06,18.88C417.15,9.06,426.46.38,436.78.5Z"></path>
    </g>
  </g>
</svg>
