<?xml version="1.0" encoding="UTF-8"?> <svg xmlns="http://www.w3.org/2000/svg" id="Layer_1" data-name="Layer 1" viewBox="0 0 724.8 207.76"><defs><style>.cls-1{fill:#eb008a;}.cls-2{fill:#ed2099;}.cls-3{fill:#fce7d9;}.cls-4{fill:#fce6d8;}.cls-5{fill:#f8c6a3;}.cls-6{fill:#f0741f;}.cls-7{fill:#eb008b;}.cls-8{fill:#f07521;}</style></defs><path class="cls-1" d="M115.07,0c4.82,2.22,10.16,2.12,15.2,3.47a115.61,115.61,0,0,1,31.14,13.68c1.17-1.7.57-3.19.55-4.61-.08-4.25,1.64-7.06,6.09-7.65,4.62-.62,7.92,1.51,8.73,6.09,1.31,7.51,2.48,15,3.36,22.62.6,5.25-1.33,7.67-6.61,8.65-7.17,1.33-14.39,2.41-21.6,3.53-5.06.78-9-1.79-9.74-6.24-.72-4.21,1.81-7.46,6.86-8.8l2.46-.64c-3.77-3.88-12.75-8.36-22.14-11.13A88.67,88.67,0,0,0,19,78.5a87.76,87.76,0,0,0-2.73,12.2C13.07,111.43,17.27,131,28,149c1.65,2.77,1.84,4.35-.72,6.52-2.75,2.34-5,5.22-7.83,8.17a99,99,0,0,1-17.2-39.1C-9.4,68.44,25.88,14.68,82.21,2.31c3.63-.8,7.5-.43,10.9-2.31h4a45,45,0,0,0,15,0Z" transform="translate(0)"></path><path class="cls-2" d="M112.07,0a23.62,23.62,0,0,1-15,0Z" transform="translate(0)"></path><path class="cls-3" d="M117.1,206.92v.84h-6a1.06,1.06,0,0,1,.31-1.47l0,0C113.45,205.36,115.4,205.1,117.1,206.92Z" transform="translate(0)"></path><path class="cls-4" d="M101.08,207.76q0-.42,0-.84c1.39-1.58,3-1.42,4.72-.63a1,1,0,0,1,.38,1.36.41.41,0,0,1-.07.11Z" transform="translate(0)"></path><path class="cls-5" d="M106.07,207.76A5.25,5.25,0,0,1,106,207q2.56-2.55,5.13,0a5.27,5.27,0,0,1-.07.79Z" transform="translate(0)"></path><path class="cls-6" d="M111.14,207H106l-5-.05a111.12,111.12,0,0,1-49.36-17c-1.29,1.88-.44,3.52-.5,5.09-.16,4.3-2.42,6.94-6.53,7.52S37.15,201,36.39,197c-1.51-8.15-2.65-16.4-3.45-24.65-.37-3.77,1.59-6.79,5.82-7.42,7.23-1.09,14.45-2.27,21.71-3.09,6.08-.7,9.7,1.58,10.38,5.93.63,4-2.12,7.19-7.7,8.86-.6.18-1.23.27-2.24.5,3.23,3.59,7.36,5,11.18,6.8,52.41,24.36,113.79-7.74,124.12-64.54,4-22-.07-42.23-11.25-61.2-1.92-3.26-1.16-4.75,1.16-7,8-7.64,7.93-7.71,13.48,2,35.89,62.62-3.61,142.89-75.09,152.7l-7.41,1Z" transform="translate(0)"></path><path class="cls-6" d="M142,83c-2.75.55-3.69,2.26-4.94,3.5q-30.81,30.61-61.56,61.29c-2.13,2.12-4.21,4.48-7.65,3.79-2.87-.57-5.46-1.91-6.44-4.89a8.16,8.16,0,0,1,2.21-8.7q9.14-9.23,18.36-18.35c20.33-20.15,40.74-40.21,61-60.47,3.13-3.14,6.17-4.13,10.22-2.61s4.07,4.65,4.06,8.16q-.09,38.67,0,77.35v2.49a7.43,7.43,0,0,1-4.7,6.5,6.2,6.2,0,0,1-7.35-1.31q-13.89-13.41-27.61-26.89c-.24-.23-.68-.51-.65-.71.68-4.84,5.44-6.45,7.91-9.89,1.35-1.86,2.44-.79,3.6.31q5.22,5,10.52,9.92c.68.63,1.42,1.77,2.47,1,.47-.38.51-1.47.51-2.24C142,108.64,142,96,142,83Z" transform="translate(0)"></path><path class="cls-6" d="M297.72,74.55c0-10.58.28-21.16-.12-31.72-.18-4.85,1.16-6.7,6-5.89a18.73,18.73,0,0,0,4.49,0c2.22-.17,2.83.84,2.82,2.93V94.25c0,1,.15,2-.85,2.67-2.59,1.75-13-.3-15.1-3q-13-16.74-25.9-33.51c-1.88.87-1.07,2.4-1.08,3.53-.08,9.64-.2,19.29,0,28.93.09,3.55-1.08,4.47-4.51,4.42-8.5-.11-8.5,0-8.5-8.29,0-15.8.12-31.6-.09-47.4,0-3.76,1.06-4.65,4.75-4.78,5.09-.19,8.52,1.08,11.65,5.51,7.28,10.3,15.25,20.11,23,30.1.69.89,1.53,1.66,2.31,2.49Z" transform="translate(0)"></path><path class="cls-6" d="M309.9,170.66c-1.37.09-2,.08-2.69.19-7.85,1.33-13.52-.71-15.24-9.41-.61-3.1-2.82-4-5.94-3.81-4.47.26-9,.07-13.48.07,1.23-10,2.53-11.25,12.54-12.2l-7.19-16.43c-2.36.7-2.41,2.75-3.08,4.27-4.87,11.08-9.8,22.13-14.44,33.3-1.32,3.19-2.94,4.71-6.51,4.27a80.54,80.54,0,0,0-9.06-.06c2.62-6.11,5-11.54,7.3-17,5.7-13.24,11.49-26.44,17-39.75,1.15-2.77,2.63-3.61,5.52-3.59,9.05.06,9-.06,12.58,8.11C294.7,135.8,302.18,152.94,309.9,170.66Z" transform="translate(0)"></path><path class="cls-6" d="M595.67,170.87a25.49,25.49,0,0,0-3.27,0c-7.86,1.39-13-1.16-14.62-9.5-.53-2.81-2.4-3.93-5.46-3.74-4.63.29-9.3.08-14.13.08,0-3.87,1.84-7,3.33-10,1.88-3.81,6.17-.42,9.29-2.46-2.29-5.3-4.63-10.73-7-16.18-2.27.51-2.31,2.45-2.92,3.81-4.61,10.28-9.5,20.47-13.52,31-2.12,5.57-5,7.62-10.93,7.07s-6-.11-3.53-5.69c7.34-16.86,14.77-33.69,21.92-50.63,1.31-3.08,2.89-3.83,6.14-4.22,6.77-.79,9.8,1.83,12.28,8.09C580.15,135.87,587.92,152.87,595.67,170.87Z" transform="translate(0)"></path><path class="cls-6" d="M524.28,54.46c-3.43,7.7-6.47,14.46-9.46,21.23-2.48,5.61-5.16,11.14-7.29,16.88-1.38,3.7-3.4,5.38-7.35,4.69a13.41,13.41,0,0,0-4,0c-4.27.5-4.13-1.26-2.71-4.45,7.65-17.28,15.36-34.53,22.57-52,2.16-5.25,6-3.47,9.45-3.83,3.14-.32,5.38.07,6.91,3.77,7.22,17.46,14.8,34.76,22.4,52.06,1.47,3.33,1.36,4.92-2.79,4.43a14.11,14.11,0,0,0-4,0c-4,.66-6.27-.91-7.23-4.83-.38-1.58-1.45-3-1.94-4.56-.89-2.8-2.55-3.9-5.56-3.7-3.81.26-7.65,0-11.48.07-2.1,0-3.19-.45-2.13-2.91,1.88-4.41,2.39-10.14,9.65-8.52,1.88.42,2.86-.36,1.9-2.5C529,65.38,526.89,60.41,524.28,54.46Z" transform="translate(0)"></path><path class="cls-6" d="M460.78,171.25c-8.54,0-15.79-3.26-22.52-8.2-2.22-1.63-2.33-2.93-.3-4.61a2.91,2.91,0,0,0,.33-.37c5-6.13,5-6.08,11.51-2,4,2.46,8.21,4.49,13.12,3.94,3.48-.39,6.65-1.43,7.17-5.57.49-3.88-2-5.76-5.23-6.81-5.36-1.72-10.91-3-16.11-5.09A17,17,0,0,1,441.91,116c3.8-4.78,9.37-6.24,15-6.8a36.71,36.71,0,0,1,22.42,5.25c2.35,1.38,3.13,2.74,1.24,5a15.19,15.19,0,0,0-1.92,2.9c-1.42,2.93-3,3.5-6,1.6a22,22,0,0,0-15.71-3.32c-2.73.49-4.61,1.79-4.9,4.75s1,4.72,3.53,5.92c3.94,1.84,8.2,2.59,12.3,3.87,6.45,2,12.58,4.57,15,11.76,3.82,11.33-3,21.74-15.63,23.81C465.11,171.08,462.93,171.09,460.78,171.25Z" transform="translate(0)"></path><path class="cls-6" d="M411.17,35.87c7.21-.28,13.73,1.82,19.89,5.44,2.14,1.26,3.07,2.36,1.06,4.44A6.51,6.51,0,0,0,431,47.4c-1.9,3.89-4,5.91-8.44,2.55-2.89-2.19-6.7-2.82-10.43-2.91s-7.81,0-8.72,4.66,2.79,6.22,6.37,7.46c5.79,2,12,2.82,17.34,6a16.9,16.9,0,0,1,.44,28.74c-6.05,3.9-12.73,4.68-19.62,3.8s-13-3.94-18.5-8.11c-1.74-1.32-2.56-2.49-.43-4.17a6.46,6.46,0,0,0,1.53-2c2.52-4.58,5.41-5.46,9.62-1.69a22.28,22.28,0,0,0,11.27,5c4.65.79,9.51-1.69,10.07-5.27.78-4.94-2.82-6.58-6.6-7.87-4.69-1.6-9.66-2.28-14.24-4.34-9.26-4.21-12.19-9.43-10.63-19.43,1.12-7.25,7.29-12.73,15.64-13.79C407.49,35.87,409.34,35.92,411.17,35.87Z" transform="translate(0)"></path><path class="cls-6" d="M468.21,35.87c4.8-.17,11,2,16.86,5.3,2.34,1.32,3.21,2.65,1.16,4.92a11,11,0,0,0-1.92,2.9c-1.47,3.42-3.24,3.56-6.32,1.51a21.5,21.5,0,0,0-13.78-3.41c-3.2.25-6,1.32-6.51,5-.53,3.41,1.54,5.36,4.4,6.35,4.06,1.42,8.25,2.47,12.36,3.76,10.32,3.24,14.65,8.19,14.82,16.89.21,10.56-6.59,17.55-18.43,18.77-10.1,1-19-2-27-8.14C441.54,88,442,86.85,443.58,85c5.25-6.26,5.14-6.23,12.13-2,4.45,2.66,9.09,4.87,14.59,3.55,3-.73,5.23-2.3,5.56-5.55.31-3.1-1.54-5.06-4.25-6-4.52-1.61-9.16-2.89-13.7-4.47C445.64,66.21,440.52,56,445.76,45.71,450,37.32,457.82,35.87,468.21,35.87Z" transform="translate(0)"></path><path class="cls-7" d="M71,82.15c0,8.94-.14,16.58.07,24.22.09,3.54-.55,6.34-3.44,8.74-4,3.35-7.72,7.1-11.56,10.68-.69-.65-.38-1.7-.38-2.63,0-19.3-.06-38.59,0-57.88,0-7.08,2.59-9.68,8.56-9.5a6.13,6.13,0,0,1,4.35,2C77.1,66.2,85.59,74.65,94.23,83c2.37,2.29,2.81,3.93,0,6.21s-4.79,6.41-7.6,6.85c-3,.47-4.94-4.22-7.65-6.35C76.44,87.65,74.23,85.21,71,82.15Z" transform="translate(0)"></path><path class="cls-6" d="M514,110.6c6.82,0,13.65.22,20.46-.07,4.67-.2,3.51,2.92,3.43,5.28s1.54,5.74-3.27,5.42c-3.31-.22-6.66.18-10-.09-3.57-.3-4.51,1.12-4.47,4.54.16,13.46-.1,26.93.17,40.39.08,4.05-1.22,5-5,4.86-8.22-.24-8.22,0-8.22-8,0-12.3-.19-24.6.1-36.9.1-4.1-1.28-5.28-5.07-4.84a31.89,31.89,0,0,1-6.48,0c-1.87-.16-4.73,1.15-5.4-1-.79-2.57-.46-5.62-.1-8.39.23-1.72,2.18-1.09,3.39-1.1C500.39,110.57,507.21,110.6,514,110.6Z" transform="translate(0)"></path><path class="cls-6" d="M694.08,145.94c0-6.65-.27-13.32.1-20,.23-4.15-1.31-5.23-5.09-4.85-2.63.27-5.36-.24-8,.12-4.36.59-4.51-1.88-4.3-5,.19-2.81-1-5.87,4.14-5.73,13.3.34,26.63.29,39.94,0,4.81-.1,3.79,2.82,3.88,5.5.09,2.9.49,5.79-4.1,5.26-3-.35-6,.13-9-.12-3.48-.29-4.6,1-4.55,4.48.18,13.47-.09,26.94.17,40.41.07,4-1.12,5-5,4.91-8.24-.26-8.25,0-8.25-8.54Z" transform="translate(0)"></path><path class="cls-8" d="M609,171.13c-4.34.07-7.16-2.63-7.25-6.94a6.89,6.89,0,0,1,6.36-7.38,5.43,5.43,0,0,1,.57,0,7.1,7.1,0,0,1,7.52,6.65,5.45,5.45,0,0,1,0,.7C616.28,168.35,613.49,171.06,609,171.13Z" transform="translate(0)"></path><path class="cls-6" d="M400,109.05c-18.68-.07-32.08,13.1-32,31.47.06,17.58,13.57,30.59,31.79,30.62,18.45,0,32.3-13.49,32.21-31.43C431.92,122.39,418.08,109.13,400,109.05Zm-.32,50.82c-10-.11-17.78-8.55-17.81-19.41,0-11.36,8-20.3,18.16-20.21,10,.09,18.12,9,18.13,19.82C418.15,151.38,410.17,159.94,399.67,159.87Z" transform="translate(0)"></path><path class="cls-6" d="M351.26,35.87c-19,0-31.54,12.32-31.54,30.91,0,18,13.07,31.06,31.1,31.12,18.35.06,32.5-13.55,32.43-31.21C383.18,48.72,369.88,35.87,351.26,35.87Zm-.13,50.71c-10-.16-18.16-9.13-18.09-20s8.25-19.64,18.31-19.64c10.28,0,18.52,9.06,18.34,20.15-.18,10.92-8.53,19.68-18.56,19.52Z" transform="translate(0)"></path><path class="cls-6" d="M670.42,124.3c-1.52-7.56-8.52-12.8-17.36-13.34-8.63-.53-17.31-.11-26-.44-3.51-.13-4.12,1.29-4.07,4.35.16,8.65.06,17.3.06,25.94s.2,17-.1,25.45c-.13,3.79,1,4.78,4.73,4.68,8.51-.23,8.52,0,8.52-8.27,0-8.68,0-8.43,8.45-8.88,6.92-.38,14.15-.56,19.9-5.2C672.64,142.08,672.19,133.07,670.42,124.3Zm-14,13.43c-1.4,2.6-3.55,4.4-6.79,4.29h-2.5c-10.37,0-10.37,0-10.37-10.34,0-11.14,0-11.14,11.27-9.9,8.52.93,12.49,8.38,8.42,15.95Z" transform="translate(0)"></path><path class="cls-6" d="M341.71,110.87c-7.94-.61-16-.08-23.94-.37-3.41-.12-4.17,1.2-4.11,4.32.17,8.64.06,17.28.06,25.93,0,8.8.1,17.62-.05,26.42,0,2.78.73,4,3.62,3.67a14.11,14.11,0,0,1,4,0c4.6.75,6.16-1.08,5.68-5.65-.36-3.45-1.24-7.85.41-10.23,2-2.9,6.77-.59,10.28-1.18.33-.06.67,0,1-.09,7.52-1.26,15.4-1.83,20-9.36C367.44,129.75,358.72,112.19,341.71,110.87Zm5.48,24.84c-1.23,4.12-3.89,6.4-8.36,6.25-1.33-.05-2.65,0-4,0-7.82,0-7.82,0-7.82-7.78a14.67,14.67,0,0,1,0-2.48c.57-3.26-1.84-8.56,1.29-9.43,5-1.37,11-1.83,15.89,1.42,4.45,3,4.36,7.47,3,12.05Z" transform="translate(0)"></path></svg> 