<?xml version="1.0" encoding="UTF-8"?> <svg xmlns="http://www.w3.org/2000/svg" width="484.12" height="163.68" viewBox="0 0 484.12 163.68"><defs><style>.a{fill:#ea6936;}.b,.c{fill:none;}.c{stroke:#fff;stroke-linecap:round;stroke-linejoin:round;stroke-width:0;}</style></defs><path class="a" d="M100.06,109.93c-1.06,1.43-2.12,2.87-3.19,4.3-2,1.48-4,2.89-6,4.45-16,13.11-34,21.25-55.3,20.25-17.28-.83-31.38-11-34.54-26.56a55.63,55.63,0,0,1,.4-23.16C8,61.58,38.6,34.79,66.79,31.46c12.42-1.47,23.66,1.27,31,12.67,1.31,2,1.73,4.67,2.48,6.78-9.73.7-18.61,1.29-27.49,2a36.34,36.34,0,0,0-6.36,1.26c-5.11,1.39-6.8,4.15-5.53,8.77,1.33,4.82,4.55,6.72,9.4,5.69,6.82-1.47,13.61-3.24,20.51-4.18,11.31-1.54,17.4,5,15.71,16.32-2.07,13.78-10.93,21.43-27.21,22.92-11.6,1.07-22.87-.85-33.92-4.53-2.9-1-3.33-2.58-3.18-5.18.86-15.8,7.86-29,17.42-41.05,3.43-4.33,3-6.44-2.34-7.92-7.25-2-11.23-.87-14.22,6.07-4.71,11-9.39,22.07-12.45,33.55-3.69,13.86,1.64,22.77,15,28,16.94,6.64,33.77,6.44,50.34-1.5A24.49,24.49,0,0,1,100.06,109.93Z" transform="translate(0 0)"></path><path class="a" d="M262.43,64c-8.73,9.72-19.52,13.74-32.1,14.36-9.13.44-15.32-3.28-20.25-10.82.24,1.1.41,2.22.73,3.3s.76,2.11,1.2,3.31c-7.93-2-12.11-6.61-12-14.3.15-12.68,5.14-23.95,11.49-34.62,1.88-3.17,10-3.37,12-.38.6.9-.14,3.3-1,4.46-6.59,8.78-11.73,18.11-13,29.28-.4,3.51.26,5.43,4,6.48,9.76,2.7,19.55,4.23,29.56,1.81,9.8-2.37,15.19-9.25,15.2-19,0-6.25-3.61-10.25-9.93-9.79-5.59.4-11.14,1.78-16.66,2.93-4.72,1-7.53-.34-8.35-4.41-.91-4.46,1.93-6.16,5.55-6.62,7.85-1,15.73-1.69,24.4-2.59C252.68,26,252.21,23.75,251,22c-6.31-9-15.72-10.8-25.34-8.44-7.4,1.82-14.27,6-21.21,9.43-2.26,1.13-4.66,3.57-6.3.63-1.22-2.18-.48-5.46-.55-8.26,0-.23.4-.54.67-.7,13.63-8,27.82-14.2,44-9.46,10.26,3,15.62,12,15.14,22.68a7.59,7.59,0,0,0,1.38,4.27c2.14,3.13,4.56,6.06,7,9.23.69-1.12,1.47-2.47,2.34-3.77,5.47-8.12,13-12.74,22.87-13.19,3.29-.15,6.23.81,6.26,4.71,0,1.11-2,3.31-2.81,3.19-13.31-2-25.11,12.65-22,30.58.62,3.54,2.92,6.35,6.93,5.79,4.19-.59,6.28-3.91,6.45-7.81.3-7-.07-14,.12-21,.05-1.74.82-4.62,1.88-4.94,3.07-.94,6.68.12,7.06,3.63,1.34,12.2.09,24.19-8,34.07-5.89,7.21-16.9,5.75-21.66-2.28A59.21,59.21,0,0,1,262.43,64Z" transform="translate(0 0)"></path><path class="a" d="M387.25,73.71c-5.51,4.24-9.94,4.79-15.82,1.12,1.4-4.13,2.82-8.31,3.87-11.43l5,5.43c2.1-2.11,5.46-3.93,6.05-6.41,1.56-6.53,2.08-13.34,2.69-20.07.34-3.8,0-7.66,0-11.49,0-2-1.16-5.13,2.24-4.81,2.38.23,4.86,2,6.77,3.65.93.83.65,3,1,5.24,1.65-2.23,2.84-4,4.2-5.63,3.38-4.07,7.64-6,12.86-4.3,4.87,1.56,6.35,5.79,6.55,10.25.33,7.31.15,14.65.18,22,0,1.67-.09,3.34,0,5,.2,2.68-.44,6.85,3.46,6.24,2.18-.34,4.78-4,5.45-6.56,1.13-4.42.33-9.32,1.33-13.8,3-13.52,14.2-23.1,26.87-23.62,3-.12,5.86.29,6.79,3.68.69,2.5.47,4.43-3.23,4.43-10.13,0-16.83,4.47-20,14a43.32,43.32,0,0,0-1.83,14.18c.1,5.38,3.2,8.31,7,8,3.54-.27,6.45-4.06,6.5-8.76.07-6.66,0-13.33,0-20,0-2.14-1.32-5,2.47-5.34,3.33-.3,6.55.81,6.91,4.27,1.25,12.06-.38,23.78-8,33.6-5.11,6.56-13.76,6-21.3-.81l-3,2.34c-3.82,3-8.13,4-12.64,2.13s-6.24-5.91-6.35-10.48c-.2-8.15-.08-16.31-.11-24.47a26.12,26.12,0,0,0-.18-5c-.24-1.17-.9-2.85-1.77-3.15s-2.62.41-3.44,1.23a29.92,29.92,0,0,0-9.24,20.92c-.16,5,.25,10-.16,15-.18,2.28-1.56,6.23-2.64,6.31C393.41,76.83,390.84,75.08,387.25,73.71Z" transform="translate(0 0)"></path><path class="a" d="M310.88,69.14c-8.27,8.81-13.82,10.31-20.27,5.5,1.32-3.74,2.64-7.48,4.07-11.51.43.94.81,1.84,1.25,2.72,1.83,3.65,5.19,4.33,7.26.85a23.51,23.51,0,0,0,3.51-11c.14-7.87,1.33-15.27,5.61-21.92,2.86-4.43,6.5-8,12-9,7.35-1.28,13.56,3,14.07,10.41.13,2-1.51,4.56-3.11,6-1.9,1.66-3.64,1.07-4.66-1.95-.79-2.33-3-4.16-4.61-6.22-2.07,1.94-4.92,3.51-6.05,5.89a29,29,0,0,0-1.89,21.32c1.9,6.2,7.22,9.39,13.49,8.56A13,13,0,0,0,343.12,56.5c.8-17.73,12.25-31,27.68-31.9,1.88-.1,4.31.16,5.57,1.28s1.36,3.45,1.54,5.3c0,.34-2,1.24-3.16,1.27-11.61.3-19.64,7.45-21.48,19.55a41.67,41.67,0,0,0-.2,9.47c.31,4,2.09,7.14,6.63,7.35,3.38.16,6.81-3.6,6.92-7.89.19-7-.12-14,.07-21,.05-1.74.88-4.59,2-4.94,3.1-1,6.71.25,7.08,3.65,1.37,12.38,0,24.52-8.38,34.4-5.63,6.62-14.32,5.3-21.62-2.31C331.78,80.07,323.68,79.7,310.88,69.14Z" transform="translate(0 0)"></path><path class="a" d="M388.47,122.4c-10.31,9.48-13.27,10.11-18.9,3.85-4.35,4-8.55,8.53-15.88,5.86,1.56-3.36,3-6.45,4.53-9.79,2.09,3.63,4.81,3.8,6.82.74a36.35,36.35,0,0,0,4.07-9.48c2.17-7.14,4.07-14.37,6-21.58,1.07-4,3.49-5.84,8.26-5.25-.24,1.28-.39,2.47-.7,3.63-2,7.69-4.18,15.35-6.12,23.06a12.15,12.15,0,0,0-.2,5.43c.33,1.44,1.38,3.39,2.55,3.79s3.76-.39,4.3-1.41c2.84-5.35,5.87-10.74,7.57-16.5,1.53-5.18,1.61-10.83,2-16.3.19-2.9.65-5,4.14-4.67,3.78.33,3.36,3.07,3.11,5.56-.83,8.41-1.76,16.81-1.58,25.68a46.62,46.62,0,0,1,3.79-5.46c1-1.08,2.5-1.65,3.79-2.45.78,1.68,2.5,3.61,2.13,5a13.07,13.07,0,0,1-4.09,6.61c-7.19,5.56-8.67,13.16-9.06,21.53a59.28,59.28,0,0,1-2.26,12.68,17.41,17.41,0,0,1-3.74,6.39c-3.18,3.65-7.33,5.48-12.07,3.63s-5.12-6.16-4.84-10.48c.51-7.87,4.47-14.11,9.59-19.8,2.71-3,5.22-6.18,7.81-9.28Zm3,8.23c-5.54,3.93-10.86,9.43-11.9,17.92-.39,3.12-1.79,7.6,2.59,8.27s4.46-3.95,5.16-7.11c1.4-6.56,2.81-13.13,4.1-19.08Z" transform="translate(0 0)"></path><path class="a" d="M460.06,75.42c1.7-5.08,3.16-9.45,4.74-14.15a25.71,25.71,0,0,0,.49,4c1.19,4,5,5.08,7.43,1.59,2.08-3,2.81-7,4.53-10.35.9-1.76,2.67-3.07,4-4.58,1,1.88,2.88,3.76,2.87,5.63-.06,10.37-9.25,20.07-18.06,19.46C464.06,76.93,462.06,76,460.06,75.42Z" transform="translate(0 0)"></path><path class="a" d="M9.71,25.27c5.73,6.3,5.73,6.3,23,5-4,2.41-7.16,4.94-10.77,6.31a16.39,16.39,0,0,1-9.09.73C6.64,35.84,5.6,31.46,9.71,25.27Z" transform="translate(0 0)"></path><path class="a" d="M138.61,29.51a29,29,0,0,1-6.27-4.8c-8.56-9.58-19.11-15.88-31.23-19.83C83.44-.88,65.26-.82,47.2,1.38,37.61,2.56,28.2,5.76,19,8.88c-4.55,1.54-7.64,5.52-6.63,11,.92,5.06,4.55,8.1,11.19,7.79,7.41-.34,14.79-1.69,22.12-3,9.76-1.73,19.44-5.33,29.2-5.47,19.22-.27,31.84,14.73,30.22,33.6a5.17,5.17,0,0,0,1.62,3.58c15.35,14.53,14.72,35.19-1.55,48.76-1.77,1.48-3.36,3.18-5,4.77-1.06,1.43-2.12,2.87-3.19,4.3C84.34,128.58,68.66,138,49.41,143c32.88,10.89,80.9-8,92.5-36.29-14.21,9.42-29.47,13.5-45.76,13.94,25.37-4.65,34.21-9.63,52.36-29.13l-4.45,13.21c1.3-1,1.85-1.37,2.33-1.8C170,81.8,166.27,47.13,138.61,29.51Zm-52.3-12c25.35-2.19,47.4,7.45,55.27,24-14.52-16.16-33.77-21.53-55.27-24Z" transform="translate(0 0)"></path><path class="b" d="M327.68,87.93a29.46,29.46,0,0,1,.4,4.95,29.89,29.89,0,0,0-.4-5c-1.07,1.43-1.65,1.86-1.72,2.36h0c-.22,1.52-.42,3-.62,4.56.2-1.51.41-3,.62-4.53C326,89.79,326.61,89.36,327.68,87.93Z" transform="translate(0 0)"></path><path class="b" d="M323.1,111.39h0c.2-1.5.39-3,.59-4.5Z" transform="translate(0 0)"></path><path class="b" d="M339.46,122.72c-.07,1.85,1.58,4.84,3.15,5.38s4.24-1,5.9-2.27a7.72,7.72,0,0,0,2.55-4.67c1.09-7.86,1.87-15.77,2.91-24.83C343.77,103.42,339.87,112.26,339.46,122.72Z" transform="translate(0 0)"></path><path class="c" d="M327.68,87.93c-1.07,1.43-1.65,1.86-1.72,2.36-.21,1.5-.42,3-.62,4.53q-.82,6-1.64,12.06c-.2,1.5-.39,3-.59,4.5,2.52-5.74,5-11.59,5-18.5A29.46,29.46,0,0,0,327.68,87.93Z" transform="translate(0 0)"></path><path class="a" d="M363.53,90.5c-1.18-4.17-4.78-2.26-7.16-1.39-14.21,5.19-21.35,16.15-24.24,30.46-.46,2.25-.67,4.88-2,6.54-1.76,2.22-4.5,3.67-6.82,5.44.16-2.87-.49-6.1.62-8.55,4.6-10.19,9.24-20.32,10-31.67.23-3.48.4-7.56-3.81-8.83-4.42-1.34-7.12,1.72-9.17,5.2a9.91,9.91,0,0,0-1.54,3.65c-1.58,13.38-3.35,26.74-4.42,40.16-.47,5.88,4.19,8.81,9.79,6.59,3.11-1.23,5.77-3.62,8.66-5.52,5.2,4.23,10,4.52,15-.06,3-2.75,6.13-6.08,7.46-9.78a112,112,0,0,0,4.71-20.2c.38-2.32-1.13-4.94-1.77-7.41l-1.47.23a3.49,3.49,0,0,1,.79-.41C360.75,94.36,364.78,94.93,363.53,90.5ZM323.1,111.39l.6-4.51q.81-6,1.64-12.06c.2-1.52.4-3,.62-4.56h0c.07-.5.65-.93,1.72-2.36a29.89,29.89,0,0,1,.4,5c0,6.91-2.45,12.76-5,18.5Zm28,9.77a7.72,7.72,0,0,1-2.55,4.67c-1.66,1.3-4.33,2.81-5.9,2.27s-3.22-3.53-3.15-5.38c.41-10.46,4.31-19.3,14.51-26.39C352.93,105.39,352.15,113.3,351.06,121.16Z" transform="translate(0 0)"></path><path class="a" d="M301.06,83c-8.35.82-15.49,4.77-22,9.89-.63.5-1.52,1.34-1.45,1.93.19,1.86.42,3.93,1.43,5.37.36.52,3.21-.11,4.46-.93,1.88-1.24,3.35-3.1,5-4.7-.28,4.44-.4,8.9-.86,13.32-1.11,10.6-2.5,21.16-3.45,31.77-.12,1.37,1.63,2.9,2.52,4.36,1.47-1.2,3-2.38,4.39-3.62.18-.16.11-.64.09-1-.29-5.72,2.4-8.83,7.47-11.81,11-6.48,17.87-16.42,18.39-29.65C317.4,87.7,311.21,82,301.06,83Zm-7.84,39.73c.73-6.7,1.39-13.31,2.19-19.89,1-8.16,1-8.15-6.92-8.28h0c3.87-1.35,7.65-3.15,11.64-3.92,5.12-1,8.31,1.63,9.25,6.66,1.77,9.65-6.32,22.44-16.21,25.43Z" transform="translate(0 0)"></path></svg> 