<?xml version="1.0" encoding="UTF-8"?> <svg xmlns="http://www.w3.org/2000/svg" id="Camada_1" data-name="Camada 1" viewBox="0 0 300 45"><defs><style> .cls-1 { fill: #020cc7; stroke-width: 0px; } </style></defs><path class="cls-1" d="m66.17,43h9.28l-3.54-13.61c1.94-.09,3.88-.06,5.81.08l1.28-7.66c-10.55-.9-21.16,1.16-30.7,6.05l10.24-17.55,2.34,10.27c2.73-.67,5.54-1.14,8.4-1.39l-4.71-18.18h-9.68l-24.89,42h9.88c6.62-6.16,14.74-10.56,23.71-12.52.76,4.13,1.63,8.49,2.59,12.52h0Z"></path><path class="cls-1" d="m254,5.83c-1.67-2.17-3.53-3.68-5.56-4.54-2.03-.86-4.57-1.29-7.62-1.29-4.41,0-8.33,1.08-11.75,3.25-3.42,2.17-5.48,5.23-6.16,9.2-.34,2.33-.23,4.34.34,6.05.57,1.7,1.56,3.05,2.97,4.03,1.41.98,2.93,1.72,4.56,2.23,1.63.5,3.56.89,5.76,1.17,2.51.32,4.34.82,5.48,1.5,1.14.68,1.71,1.72,1.71,3.13,0,1.8-.83,3.23-2.48,4.27-1.65,1.04-3.79,1.56-6.42,1.56-2.17,0-4.28-.47-6.33-1.41-2.06-.94-3.65-2.36-4.79-4.24l-5.71,7.04c1.37,2.37,3.44,4.17,6.22,5.41,2.78,1.24,5.82,1.84,9.13,1.8,3.58-.04,6.75-.54,9.53-1.5,2.78-.96,5.1-2.64,6.96-5.02,1.86-2.39,2.8-5.38,2.8-8.99,0-2.53-.65-4.66-1.94-6.41-1.29-1.74-2.88-3-4.76-3.76-1.88-.76-4.08-1.26-6.59-1.5-2.66-.24-4.63-.65-5.9-1.23-1.27-.58-1.91-1.61-1.91-3.1,0-1.6.78-2.9,2.34-3.88,1.56-.98,3.44-1.47,5.65-1.47,1.67,0,3.29.28,4.85.84,1.56.56,2.78,1.4,3.65,2.53l5.99-5.66h0Z"></path><path class="cls-1" d="m213.29,34.36h-21.31l1.4-8.46h19.35l1.35-8.22h-19.35l1.35-8.1h20.52l1.4-8.58h-29.1l-6.9,42h29.89l1.4-8.64Z"></path><path class="cls-1" d="m131.92,43l7.08-42h-8.92l-7.08,42h8.92Z"></path><path class="cls-1" d="m114.97,42.28l-8.48-13.92c3.97-1.44,6.88-3.4,8.73-5.88,1.85-2.48,2.78-5.62,2.78-9.42,0-3.44-1.08-6.31-3.23-8.61-2.15-2.3-5.23-3.45-9.23-3.45h-18.63l-6.9,42h8.76l2.3-13.8h6.51l7.75,13.8h9.54l.11-.72h0Zm-10.72-33.24c1.65,0,2.88.54,3.71,1.62.82,1.08,1.24,2.36,1.24,3.84,0,1.68-.62,3.23-1.85,4.65-1.23,1.42-2.9,2.13-5,2.13h-9.99l2.02-12.24h9.88Z"></path><path class="cls-1" d="m163.34,31.12c5.46,0,9.77-1.7,12.93-5.1,3.16-3.4,4.74-7.54,4.74-12.42,0-3.68-1.09-6.7-3.26-9.06-2.17-2.36-5.34-3.54-9.5-3.54h-18.39l-6.85,42h8.69l1.95-11.88h9.7Zm-6.24-21.24h9.7c1.71,0,3.03.51,3.95,1.53.93,1.02,1.39,2.29,1.39,3.81,0,1.96-.67,3.67-2.01,5.13-1.34,1.46-3.14,2.19-5.4,2.19h-9.69l2.06-12.66h0Z"></path><path class="cls-1" d="m20.34,31.12c5.46,0,9.77-1.7,12.93-5.1,3.16-3.4,4.74-7.54,4.74-12.42,0-3.68-1.09-6.7-3.26-9.06-2.17-2.36-5.34-3.54-9.5-3.54H6.85L0,43h8.69l1.95-11.88h9.7Zm-6.24-21.24h9.69c1.71,0,3.03.51,3.96,1.53.93,1.02,1.39,2.29,1.39,3.81,0,1.96-.67,3.67-2.01,5.13-1.34,1.46-3.14,2.19-5.4,2.19h-9.7l2.06-12.66h0Z"></path><path class="cls-1" d="m287.17,43h9.28l-3.54-13.61c1.94-.09,3.88-.06,5.81.08l1.28-7.66c-10.55-.9-21.16,1.16-30.7,6.05l10.24-17.55,2.34,10.27c2.73-.67,5.54-1.14,8.4-1.39l-4.71-18.18h-9.68l-24.89,42h9.88c6.62-6.16,14.74-10.56,23.71-12.52.76,4.13,1.63,8.49,2.59,12.52h0Z"></path></svg> 