<?xml version="1.0" encoding="UTF-8"?> <svg xmlns="http://www.w3.org/2000/svg" viewBox="0 0 263.67 87.9"><defs><style>.cls-1{fill:#ffd300;}.cls-2{fill-rule:evenodd;}</style></defs><g id="Layer_2" data-name="Layer 2"><g id="Layer_1-2" data-name="Layer 1"><polygon points="174.4 29.5 160.4 86.5 183.1 86.5 197.7 27.1 174.4 29.5"></polygon><path d="M249.4,27c-6.8-.7-17.3,1.4-22.6,5.4a26.64,26.64,0,0,0-1-5.6l-20.1,2.5c.8,5.6,0,11.9-2,20.2l-9,37h22.8l9.3-37.7c2.3-3.3,5.9-5.5,9-5.5,3.7,0,4.7,2.8,3.5,7.3l-8.7,35.9h22.7l9.7-39C265.3,37,261.9,28.2,249.4,27Z"></path><path class="cls-1" d="M201.5,11.1C201.5,5,196.2,0,189.3,0s-12.7,5-12.7,11.1,5.6,11.1,12.3,11.1C195.9,22.1,201.5,17.1,201.5,11.1Z"></path><path class="cls-2" d="M146.9,27.69l-7.2,16.6c-2.7,6.2-5,12.1-7,17.9l-.3-34.5H112L95,62.49l1.8-35.6-22.6,2.8,4.6,56.7h20s15.2-30.6,16.5-34.1l.2,34.1H136l33.8-58.7Z"></path><path class="cls-2" d="M49.7,26.3a26.29,26.29,0,0,0-12.9,3A104.37,104.37,0,0,0,41.3,7.1h0c.1-1.7.2-3.4.2-5.2L17.7,4.8c.3,3.8-.3,9.9-3.4,22.8L2.8,75.2A35.94,35.94,0,0,1,0,83.4c7.2,2.4,15.4,4.5,29,4.5,7.5,0,13.3-1.4,19.3-4.9C58.6,77,65,66.1,67.6,55.6,72.5,35.9,64.5,26.3,49.7,26.3Zm-6,30.4c-2.6,10.9-6,15.8-11.8,15.8a9,9,0,0,1-5.3-1.4L32.9,45a10,10,0,0,1,6.7-2.9C44.6,42.2,46.4,45,43.7,56.7Z"></path></g></g></svg> 