<?xml version="1.0" encoding="UTF-8"?> <svg xmlns="http://www.w3.org/2000/svg" xmlns:xlink="http://www.w3.org/1999/xlink" version="1.1" id="Camada_1" x="0px" y="0px" viewBox="0 0 628.83 200.42" style="enable-background:new 0 0 628.83 200.42;" xml:space="preserve"> <style type="text/css"> .st0{fill:#051525;} .st1{fill:#F2A241;} .st2{fill:#FFFFFF;} </style> <g> <path class="st0" d="M378.49,125.6c0,49.87-24.19,74.8-72.57,74.8c-20.64,0-38.23-3.3-52.76-9.91V2.75h48.05v62.67 c5.45-2.31,11.72-3.47,18.82-3.47c17.67,0,31.83,5.62,42.48,16.84C373.17,90.02,378.49,105.62,378.49,125.6z M330.44,129.81 c0-21.3-6.86-31.95-20.56-31.95c-3.14,0-6.03,0.58-8.67,1.73v62.67c2.31,0.66,5.03,0.99,8.17,0.99c6.94,0,12.17-3.01,15.73-9.04 C328.67,148.18,330.44,140.05,330.44,129.81z"></path> <path class="st0" d="M93.37,197.2L0,197.17L29.68,19.26l49.93,0.02L56.74,156.39l43.44,0.02L93.37,197.2z"></path> <path class="st0" d="M233.17,79.29c-8.77-11.79-23.22-17.7-43.36-17.7c-8.24,0-15.95,1.02-23.12,3.07 c-0.92,2.54-0.62,5.15-0.28,7.96c0.42,3.42,0.88,7.27-0.37,11.24c-3.42,10.85-12.78,17.84-23.88,17.84 c-6.42,0-12.3-2.33-16.66-6.46c-6.85,10.18-11.38,22.04-13.66,35.63c-3.35,20.15,0,36.78,10.04,49.89 c10.04,13.11,26.72,19.66,50.01,19.66c22.48,0.02,41.49-3.25,57.07-9.81l-7.11-35.15c-12.39,5.4-25.66,8.1-39.81,8.1 c-15.14,0-23.77-4.68-25.87-14.01l82.57-10.06c0.85-3.09,1.78-7.68,2.79-13.75C244.71,106.59,241.94,91.11,233.17,79.29z M196.44,116.15l-38.93,4.41c1.64-8.84,4.75-15.32,9.35-19.41c4.59-4.08,9.97-6.14,16.13-6.14c5.33,0,9.18,1.85,11.56,5.54 C196.92,104.24,197.57,109.43,196.44,116.15z"></path> <path class="st1" d="M185.57,46.27c10.6-3.49,19.46-7.13,30.9-15.85c8.15-6.22,13.18-17.52,15.67-28.95 c0.14-0.8-0.14-1.47-0.47-1.47c-0.15,0-0.32,0.15-0.45,0.52c0,0-7.25,26.56-58.75,30.6c-2.89,0.22-17.14,1.28-24.85,3.96 c-16.13,5.6-35.99,19.88-21.18,52.22c3.39,5.7,9.52,8.65,15.73,8.65c7.65,0,15.44-4.48,18.38-13.81 C163.93,71.38,148.98,58.18,185.57,46.27z"></path> <path class="st0" d="M508.73,190.49c-14.36,6.61-33.77,9.91-58.21,9.91c-20.97,0-36.49-4.13-46.57-12.39 c-10.07-8.25-15.11-21.55-15.11-39.88V63.68h48.05v85.7c0,8.09,4.54,12.14,13.62,12.14c4.62,0,8.01-0.41,10.16-1.24v-96.6h48.05 V190.49z"></path> <path class="st0" d="M568.78,197.18h-48.05V2.75h48.05V197.18z"></path> <path class="st0" d="M628.83,197.18h-48.05V2.75h48.05V197.18z"></path> </g> </svg> 