<?xml version="1.0" encoding="UTF-8"?>
<svg xmlns="http://www.w3.org/2000/svg" xmlns:xlink="http://www.w3.org/1999/xlink" version="1.1" id="Layer_1" x="0px" y="0px" viewBox="0 0 425 153" style="enable-background:new 0 0 425 153;" xml:space="preserve"> <style type="text/css"> .st0{fill:#FE0065;} .st1{fill:#0098FD;} </style> <g> <path class="st0" d="M130.6,101c0.5-1.4,1-2.8,1.3-4.3c0,0,0,0,0,0c0.1-0.5,0.2-0.9,0.3-1.4c0-0.1,0-0.1,0-0.2 c0.1-0.4,0.1-0.9,0.2-1.3c0-0.1,0-0.3,0-0.4c0-0.4,0.1-0.8,0.1-1.2c0-0.2,0-0.5,0-0.7c0-0.3,0-0.6,0-0.9c0-0.5,0-1.1,0-1.7 s0-1.1,0-1.6c0-0.1,0-0.1,0-0.2c0-0.5,0-1-0.1-1.5c0-0.1,0-0.2,0-0.3c0-0.5-0.1-0.9-0.1-1.4c0-0.1,0-0.2,0-0.3 c-0.1-0.4-0.1-0.9-0.2-1.3c0-0.1,0-0.2,0-0.3c-0.1-0.4-0.1-0.8-0.2-1.2c0-0.1,0-0.2-0.1-0.4c-0.1-0.4-0.2-0.8-0.3-1.2 c0-0.1-0.1-0.3-0.1-0.4c-0.1-0.4-0.2-0.7-0.3-1.1c0-0.1-0.1-0.3-0.2-0.4c-0.1-0.3-0.2-0.6-0.3-0.9c-0.1-0.2-0.1-0.4-0.2-0.6 c-0.1-0.2-0.2-0.5-0.3-0.8c-0.1-0.1-0.1-0.3-0.2-0.4c-5-10.2-16.1-16.1-31.6-16.1c-21.5,0-34.6,11.5-34.6,30.3 c0,18.5,13.2,30.7,34.6,30.7C114.6,119.5,126,112.5,130.6,101z M98.2,103.7c-7.1,0-10-6.3-10-15.3c0-9.1,2.3-14.5,9.4-14.5 c7.9,0,10.4,7.7,10.4,15.4C107.9,96.9,106.2,103.7,98.2,103.7z"></path> <path class="st1" d="M204.4,2C197,2,191,8,191,15.4c0,7.5,6,13.4,13.4,13.4c7.4,0,13.4-5.9,13.4-13.4C217.8,8,211.8,2,204.4,2z"></path> <path class="st1" d="M217.6,35.3c0,0-14.6,0.6-26.4,0c0,0,1,16.4,1,28.1c0,1.7,0,3.4,0,5.2c-2.4-3.9-6.5-6.2-11.4-7.5 c3.6-3.6,7.4-8.7,7.4-14.2c0-14.9-9.2-19.4-34-19.4H129c0,0,0.7,25.4,0.7,37c0,2.1,0,4.2,0,6.3c3.3,5,5,11.1,5,18 c0,4.4-0.7,8.5-2.1,12.2h21.2c18.3,0,32.1-3.4,37.8-12.1c-0.1,2.3-0.1,3.7-0.1,3.7h25.3c-0.5-22.1-0.4-17.4-0.4-28.6 C216.3,51.9,217.6,35.3,217.6,35.3z M153.7,42.8c7.7,0,13.3,0.2,13.3,6.6c0,3.4-1.2,6.9-2.9,9.9c-4.9,0-10.7,0.6-10.7,0.6 S153.5,48.8,153.7,42.8z M153.6,86.2c0-5.6-0.1-9.8-0.1-14.7c9.3-0.8,16.4-0.4,16.4,7.3C169.9,86.8,160.4,87.1,153.6,86.2z"></path> <path class="st1" d="M373.9,34.9c-19.8,0-32.6,9.8-34.4,26.1l-12.3,0.8c-4.7-2.1-10.6-3.4-17.4-3.4c-11.9,0-21,3.6-26,9.6 c-0.8-11.2-7.3-18.5-20.3-18.5c-11.1,0-17.7,5-20.5,11.7l0.3-9.8h-24.6c0.1,4.6,0.1,9.2,0.1,13.1c0,21-0.7,44.1-0.7,44.1h25.4 c-0.3-7-0.7-19.7-0.7-28.5c0-7.6,1.3-14.9,8.1-14.9c6.8,0,8.7,5.9,8.7,14.9c0,9.1-0.4,21.9-0.5,28.5H283c-0.3,1.2-0.5,2.4-0.5,3.7 c0,3,0.6,5.4,1.8,7.3c-3.5,3-7.4,7.6-7.4,13.7c0,11,9.7,17.5,32.1,17.5c24.1,0,40.4-9.3,40.4-23.4c0-13.3-7.2-20.8-20.7-20.8h-24 c-3.5,0-5.1-0.7-5.1-3.2c0-0.7,0.1-1.5,0.4-2.2c3,0.5,6.2,0.8,9.7,0.8c19.1,0,30.5-8.4,30.5-21.3c0-2.6-0.5-5.2-1.4-7.5h1.3 c3.4,13.8,15.6,22.6,33.7,22.6c21.6,0,34.6-12.2,34.6-30.7C408.5,46.4,395.5,34.9,373.9,34.9z M284.4,105 c-0.1-3.1-0.2-6.9-0.3-11.4c1.6,1.7,3.5,3.1,5.8,4.3C287.8,100,285.8,102.4,284.4,105z M301.6,127h21.5c3.4,0,5.5,1.4,5.5,4.9 c0,5.2-7.7,7.3-18.8,7.3c-11.5,0-17-2.3-17-7.9c0-1.8,0.4-3.5,1.2-5.1C296.4,126.7,299.1,127,301.6,127z M309.9,91.5 c-5.3,0-7.5-3.9-7.5-9.6c0-5.8,1.7-9.5,7-9.5c5.6,0,7.7,3.8,7.7,9.5C317.1,86.9,315.4,91.5,309.9,91.5z M374,80.1 c-7.1,0-10-6.3-10-15.3c0-9.1,2.3-14.5,9.4-14.5c7.9,0,10.4,7.7,10.4,15.4C383.7,73.3,381.9,80.1,374,80.1z"></path> <path class="st0" d="M61.5,88.8c0-13,6-22.8,16.5-28c7.5-13.1,14.4-25.6,14.4-25.6H71.9C68.6,41.7,63,55.5,59,62.8 c-4.4-7-11.3-22.1-13.9-27.5H16.5c5.8,10.5,20.1,34.8,26.7,45.5c-0.1,15.9-0.4,28-0.4,28h24.4c0-0.3,0-0.6,0-0.9 C63.5,102.7,61.5,96.2,61.5,88.8z"></path> </g> </svg>
