<?xml version="1.0" encoding="UTF-8"?> <svg xmlns="http://www.w3.org/2000/svg" xmlns:xlink="http://www.w3.org/1999/xlink" id="Layer_1" data-name="Layer 1" viewBox="0 0 125 31.25"><defs><style>.cls-1{fill:none;}.cls-2{clip-path:url(#clip-path);}.cls-3{fill:#1d2230;}.cls-4{fill:url(#linear-gradient);}.cls-5{fill:url(#linear-gradient-2);}.cls-6{fill:url(#linear-gradient-4);}</style><clipPath id="clip-path" transform="translate(0 -0.88)"><rect class="cls-1" y="0.88" width="125" height="31.25"></rect></clipPath><linearGradient id="linear-gradient" x1="65.97" y1="17.54" x2="125" y2="17.54" gradientTransform="matrix(1, 0, 0, -1, 0, 34)" gradientUnits="userSpaceOnUse"><stop offset="0" stop-color="#ffc700"></stop><stop offset="1" stop-color="#ffea21"></stop></linearGradient><linearGradient id="linear-gradient-2" x1="65.97" y1="17.75" y2="17.75" xlink:href="#linear-gradient"></linearGradient><linearGradient id="linear-gradient-4" x1="65.97" y1="17.5" y2="17.5" xlink:href="#linear-gradient"></linearGradient></defs><g class="cls-2"><path class="cls-3" d="M0,.88H8.61V11.54a7.51,7.51,0,0,1,2.87-2,10,10,0,0,1,3.6-.66,8.69,8.69,0,0,1,6.72,3c1.81,2,2.63,4.75,2.63,8.36a15.35,15.35,0,0,1-1.23,6.4,8.48,8.48,0,0,1-3.36,4.1,8.78,8.78,0,0,1-4.76,1.4,8.63,8.63,0,0,1-4.1-1,11.5,11.5,0,0,1-3-2.79v3.28H0ZM8.52,20.4a6.54,6.54,0,0,0,1.07,4.18,3.58,3.58,0,0,0,2.7,1.31,3.19,3.19,0,0,0,2.55-1.23A7.08,7.08,0,0,0,15.9,20.4a6.24,6.24,0,0,0-1-3.86,3,3,0,0,0-2.46-1.23,3.54,3.54,0,0,0-2.87,1.31C8.85,17.36,8.52,18.59,8.52,20.4Z" transform="translate(0 -0.88)"></path><path class="cls-3" d="M50.57,22.53h-17a5,5,0,0,0,1.15,3A4,4,0,0,0,37.87,27a4.89,4.89,0,0,0,2.37-.66A4.4,4.4,0,0,0,41.72,25l8.36.74a11.37,11.37,0,0,1-4.67,4.75C43.61,31.55,41,32,37.62,32a16.29,16.29,0,0,1-7-1.23,9.64,9.64,0,0,1-4.19-3.93,11.71,11.71,0,0,1-1.63-6.4A11.27,11.27,0,0,1,28.2,12c2.21-2.13,5.32-3.2,9.18-3.2a16.16,16.16,0,0,1,7.54,1.48,9.86,9.86,0,0,1,4.18,4.18,14.93,14.93,0,0,1,1.47,7.14Zm-8.69-4.1a5.59,5.59,0,0,0-1.31-3.53,4.12,4.12,0,0,0-6.06.57,6.37,6.37,0,0,0-1,3Z" transform="translate(0 -0.88)"></path><path class="cls-3" d="M62.13.88V9.32H66.8v6.24H62.13v7.87a4.51,4.51,0,0,0,.25,1.89,1.47,1.47,0,0,0,1.47.74,8,8,0,0,0,2.62-.58l.66,5.91a26.07,26.07,0,0,1-5.9.65,9.62,9.62,0,0,1-4.67-.82,5.31,5.31,0,0,1-2.22-2.46,14.13,14.13,0,0,1-.73-5.41V15.56H50.49V9.32h3.12V5.22Z" transform="translate(0 -0.88)"></path><path class="cls-4" d="M80.19.88,78.71,9.35H83.4L82.33,15.6H77.65l-1.4,7.89a4.83,4.83,0,0,0-.08,1.89,1.23,1.23,0,0,0,1.31.74,8.37,8.37,0,0,0,2.71-.57l-.41,5.83a26.86,26.86,0,0,1-6,.66c-2.14,0-3.62-.24-4.52-.82a4.31,4.31,0,0,1-1.81-2.47,14.33,14.33,0,0,1,.25-5.42l1.4-7.82H66L67,9.26h3.13l.73-4.11Z" transform="translate(0 -0.88)"></path><path class="cls-5" d="M86,9.35h8.55L90.64,31.63H82.17ZM87.51.88h8.55l-1,5.83H86.53Z" transform="translate(0 -0.88)"></path><path class="cls-5" d="M99.27.88h8.55l-5.43,30.75H93.84Z" transform="translate(0 -0.88)"></path><path class="cls-6" d="M121.79.88l-1.48,8.47H125l-1.07,6.25h-4.68l-1.4,7.89a5.13,5.13,0,0,0-.09,1.89,1.25,1.25,0,0,0,1.32.74,8.37,8.37,0,0,0,2.71-.57l-.41,5.92a27.46,27.46,0,0,1-6,.66,8.73,8.73,0,0,1-4.52-.83,4.29,4.29,0,0,1-1.81-2.46,14,14,0,0,1,.25-5.43l1.39-7.81h-3.12l1.07-6.25h3.12l.74-4.12Z" transform="translate(0 -0.88)"></path></g></svg> 