<?xml version="1.0" encoding="UTF-8"?>
<svg xmlns="http://www.w3.org/2000/svg" xmlns:xlink="http://www.w3.org/1999/xlink" viewBox="0 0 138.57 49.34">
  <defs>
    <style>.cls-1{fill:#fff;}.cls-1,.cls-3{fill-rule:evenodd;}.cls-2{mask:url(#mask);}.cls-3{fill:#e81538;}</style>
    <mask id="mask" x="0" y="0" width="37.24" height="49.34" maskUnits="userSpaceOnUse">
      <g id="b">
        <path id="a" class="cls-1" d="M0,0H37.24V49.34H0Z"></path>
      </g>
    </mask>
  </defs>
  <g id="Layer_2" data-name="Layer 2">
    <g id="Layer_1-2" data-name="Layer 1">
      <g class="cls-2">
        <path class="cls-3" d="M31.36,33.9l-9.54,9.54a4.5,4.5,0,0,1-6.38,0L5.9,33.9a4.49,4.49,0,0,1,0-6.38L15.44,18a4.5,4.5,0,0,1,6.38,0l9.54,9.54a4.51,4.51,0,0,1,0,6.38m5.28-6.53h0l0-.13c0-.09-.06-.19-.1-.28L30.72,11.39l-3.49,5L18.63,0S5.07,20.17,1.63,25.31h0a9.72,9.72,0,0,0,1.2,12.27l8.92,8.91a9.71,9.71,0,0,0,13.74,0l8.91-8.91a9.7,9.7,0,0,0,2.23-10.21"></path>
      </g>
      <path class="cls-3" d="M18.63,21.48a2.81,2.81,0,0,0-.11,5.61h.11a2.81,2.81,0,0,0,0-5.61m0,12.85a2.81,2.81,0,0,0-.11,5.61h.11a2.81,2.81,0,0,0,0-5.61m6.43-6.43A2.81,2.81,0,0,0,25,33.51h.11a2.81,2.81,0,0,0,0-5.61M9.4,30.71a2.81,2.81,0,1,0,5.61.15v-.15a2.81,2.81,0,0,0-5.61,0Z"></path>
      <path class="cls-3" d="M57.58,25.53a5.35,5.35,0,0,0-1.85.33,4.5,4.5,0,0,0-1.61,1A4.63,4.63,0,0,0,53,28.55,6.25,6.25,0,0,0,52.58,31,6,6,0,0,0,53,33.42a4.83,4.83,0,0,0,1.13,1.67,4.48,4.48,0,0,0,1.59,1,5.58,5.58,0,0,0,1.85.32,5.2,5.2,0,0,0,2-.37,5.07,5.07,0,0,0,1.61-1.1,5.17,5.17,0,0,0,1.08-1.71,6.41,6.41,0,0,0,0-4.51,4.83,4.83,0,0,0-4.64-3.16ZM52.65,23a7.51,7.51,0,0,1,5.87-2.34,9.38,9.38,0,0,1,3.82.77,9,9,0,0,1,3,2.15,9.45,9.45,0,0,1,2,3.26,12.09,12.09,0,0,1,0,8.22,9.93,9.93,0,0,1-2,3.26,9.19,9.19,0,0,1-3,2.14,9.46,9.46,0,0,1-3.85.77,8.81,8.81,0,0,1-3.65-.73,6.87,6.87,0,0,1-2.66-2.12v2.38H47.29V15.39h5.36V23ZM71,40.79H76.4V15.39H71Zm17.22-3.46a4.31,4.31,0,0,0,3-1.07,3.57,3.57,0,0,0,1.22-2.82V33.2H88.23c-1.83,0-2.75.66-2.75,2a1.86,1.86,0,0,0,.78,1.59,3.35,3.35,0,0,0,2,.55m1.08-16.64a10.21,10.21,0,0,1,3.41.54,7.27,7.27,0,0,1,2.66,1.58,7.14,7.14,0,0,1,1.73,2.62,9.85,9.85,0,0,1,.62,3.68V40.79H92.87V38.88a7.16,7.16,0,0,1-2.55,1.75,9.09,9.09,0,0,1-3.49.63A8.48,8.48,0,0,1,84,40.81a6.92,6.92,0,0,1-2.15-1.23,5,5,0,0,1-1.32-1.85A5.62,5.62,0,0,1,80,35.39a5,5,0,0,1,2-4.22,8.88,8.88,0,0,1,5.45-1.51h4.93v-.87a3.39,3.39,0,0,0-.92-2.54,3.8,3.8,0,0,0-2.78-.91,5.37,5.37,0,0,0-2.76.71,11.8,11.8,0,0,0-2.44,2l-2.75-3.3a10.6,10.6,0,0,1,8.55-4M129.15,25a4.65,4.65,0,0,0-3,1.05A5.45,5.45,0,0,0,124.39,29h9a3.81,3.81,0,0,0-1.31-2.94,4.44,4.44,0,0,0-2.95-1m.21-4.33a9.81,9.81,0,0,1,3.77.71,8.8,8.8,0,0,1,2.92,2,8.48,8.48,0,0,1,1.86,2.9,9.5,9.5,0,0,1,.66,3.57,10.78,10.78,0,0,1-.12,1.63c-.07.54-.16,1-.24,1.32H124.39a5,5,0,0,0,2,2.9,6.36,6.36,0,0,0,3.62,1,7.7,7.7,0,0,0,2.92-.54,11.78,11.78,0,0,0,2.57-1.45l2.18,3.66a13.11,13.11,0,0,1-3.61,2.16,11.27,11.27,0,0,1-4.22.77,11.58,11.58,0,0,1-4.33-.79,10.44,10.44,0,0,1-3.41-2.18A10.18,10.18,0,0,1,119.84,35,10,10,0,0,1,119,31a10.16,10.16,0,0,1,3-7.31,10.35,10.35,0,0,1,3.29-2.19,10.54,10.54,0,0,1,4.07-.79m-12.71.45h-15.6v4.53h8.5l-8.5,11.43v3.71h15.58V36.28h-9.08l9.1-11.9Z"></path>
    </g>
  </g>
</svg>
