<?xml version="1.0" encoding="UTF-8"?> <svg xmlns="http://www.w3.org/2000/svg" viewBox="0 0 2485.03 609"><defs><style>.cls-1{fill:#6f2411;}.cls-2{fill:#952e15;}.cls-3{fill:#550e04;}.cls-4{fill:#f5f2ef;}.cls-5{fill:#3d0903;}</style></defs><g id="Layer_2" data-name="Layer 2"><g id="Layer_1-2" data-name="Layer 1"><path class="cls-1" d="M1436,501.88l-31.12-72.19c-5,8.11-9.32,15.67-15,22.18-11.52,13.07-23.74,25.41-39.1,34.11a15.92,15.92,0,0,1-2.79,1c-4.12-5.94-11.18-7.79-16.7-11.8-2-1.47-3.7-2.59-3.36-5.31l1-1c44.45-23.63,66.33-61.32,68.63-111.24.56.41.76.48.82.62q25.15,59.14,50.23,118.35c1,2.43,2.35,3.29,4.82,3.28q25-.06,50,0c2.46,0,3.82-.81,4.84-3.25,10.55-25.13,21.26-50.19,31.91-75.28.88-2.07,1.68-4.6-.58-5.87-3.88-2.18-7.07-5.62-11.63-6.6.29-.93.51-1.9.89-2.8q12.52-29.55,25.08-59.08,26.52-62.38,53-124.8c1.37-3.26,2.93-4.57,6.52-4.38,6.15.33,12.33,0,18.49.16,3,.1,4-.63,4-3.83q-.29-20.49,0-41c0-3.31-1.26-3.81-4.09-3.8q-57.5.11-115,0c-3.06,0-4,.82-3.91,3.92.17,13.32.27,26.66,0,40-.1,4.19,1.38,4.84,5,4.75,9.57-.23,19.14-.08,29.22-.08-22.15,56.92-44,113.17-66.34,170.48l-66.91-170.48c10.06,0,19.52-.1,29,.06,2.87.05,4.09-.47,4-3.76q-.29-20.49,0-41c0-3.21-1.1-3.87-4-3.87q-57.24.12-114.48,0c-2.84,0-3.71.84-3.68,3.68.13,13.83.15,27.66,0,41.49,0,3.08,1.22,3.48,3.8,3.43,7-.14,14,0,21-.06,1.87,0,3.47-.09,4.39,2.18,5,12.3,10.11,24.54,15.19,36.8-6-.65-10.24-4.84-15-7.69-6.07-3.63-5.69-4.27-8.12,1.73-1.44-3.15-3-6.25-4.28-9.48s-2.92-4.72-6.64-4.58c-8.15.3-16.33-.13-24.49.19-4.34.16-5.74-1.11-5.7-5.59q.32-37,0-74c0-4.39,1.21-5.69,5.63-5.65,24.5.2,49,.1,73.49.1q38,0,76,0c3,0,5.07.16,5.05,4.14q-.2,38.49,0,77c0,3.16-1.34,4-4.22,3.95-5.16-.13-10.34.09-15.5-.08-3.5-.11-4.29.64-2.87,4.22,11,27.65,21.82,55.37,32.69,83.07,1.55,4,3.12,7.94,4.83,12.31,2.64-3.75,3.41-7.68,4.84-11.31,11-28,22-56,33.14-84,1.5-3.76.09-4.32-3.15-4.27-5.66.1-11.34-.16-17,.09-3.73.17-4.89-1.15-4.87-4.86q.2-37.74,0-75.48c0-3.8,1.33-4.83,5-4.79,13.49.17,27,.07,40.49.07h109c2.79,0,5.71-.67,5.69,4-.13,25.67-.09,51.33,0,77,0,3-1.06,4.15-4.08,4.09-6.67-.14-13.34-.12-20,0-10.06.15-7.51-1.51-11.33,7.5-1.43,3.37-3,6.67-4.43,10q-4.68,11.12-9.29,22.28c8.19-4.78,15.7-10,24-13.75,27.13-12.22,55.49-14.64,84.29-8.35,35.44,7.74,61.75,27.75,77.24,61.09.59,1.28.83,3.36,2.48,3.41s1.93-2.07,2.51-3.34c7.67-16.71,19.24-30.37,33.68-41.43,19.3-14.79,41.12-22.58,65.71-22.61,12.94,0,25.53,1.19,37.7,5.79,1.23.46,3.41,1.92,4,.18,1.35-4.12,4.48-2.8,7-2.81q51.25-.1,102.49-.05c6.93,0,6.93,0,6.93,7.17v16c10-8.79,19.93-15.07,31.22-19.1,27.37-9.75,55.3-10.61,83.51-4.84,24.91,5.09,45.62,17.21,60.08,38.59,10.57,15.62,14.64,33.38,15.11,52,.36,14.16.07,28.33.07,42.49,0,10.5,0,21,.05,31.49,0,2.09-1.05,5,2.8,5.2,3.4.18,2.73-2.36,3.31-4.36,3.79-13.09,11.57-23.06,23.74-29.38,5.11-2.65,5.33-2.7,1.09-6.63-9.65-8.94-15.28-19.89-17.59-32.78-7-39.22,10.46-68.83,42.44-85.94,22.81-12.2,47.57-16.11,73.47-13,18.74,2.25,36.5,7.17,52.81,16.75,18,10.58,30.1,25.25,32.06,47,1.64,18.21-4.17,33.15-19.29,43.61-4.6,3.17-2.58,4.23.18,6.25,7.95,5.82,14.34,13.08,17.89,22.26,7.32,18.94,5.12,38.06-1.27,56.58-8.37,24.27-26.64,39.33-49.84,48.5-21.86,8.64-44.66,11-68.07,8.34-22.05-2.52-43.11-8-62.3-19.49-2.53-1.51-3.56-1.41-3.5,1.75.06,3.33,0,6.66,0,10,0,6.54-.05,6.59-6.8,6.59q-50.25,0-100.49,0a33.11,33.11,0,0,1-5.45-.43c-2-.33-3.44-1.26-3.22-3.64.4-4.26-2-3.2-4.28-2.2-15.75,6.85-32,10.37-49.35,9.45-11.37-.61-22.37-2.17-33.13-6.12-17-6.22-29.7-17.24-39.22-32.4-3.24-5.15-4.87-11-7.62-16.44a12.84,12.84,0,0,0-.39,3.52c-.6,17.09,1.28,34.23-1.87,51.28-7.45,40.27-29.29,68.39-68.37,82.24A122,122,0,0,1,1906,572c-1.22,0-3.08-.65-3.47,1s1.5,1.91,2.61,2.52c7.68,4.21,15.41,8.33,23,12.68,2.12,1.21,4.12,2.88,4.71,5.56-13.56,2.06-27.23,1.55-40.82,1a166.14,166.14,0,0,1-41.41-7.35c-15-4.49-29.31-10.31-42-19.52-19.2-13.88-31.07-32.3-35-55.89-1-6.17-.56-12.23-.76-18.33-.1-2.95-.77-3.92-3.65-2.67-15,6.48-30.73,10-46.85,12.32-17.54,2.47-35.06,2-52.64.81A149.19,149.19,0,0,1,1625.83,494c-18-7-34.64-16.22-48.23-30.51-8.67-9.11-17.55-17.89-23.71-30.36-10,23.55-19.53,46.06-29.08,68.56Zm517.71-73.31c0,12.89.6,24.9-.12,36.82-1.52,25.25-15.34,41.12-38.61,45.24-13,2.31-25.84.6-38.57-2.59-3.66-.91-4.91-2.2-4.71-6.26.92-18.73-11.82-31.25-30.3-29.86-14.12,1.06-23.3,10.89-25.22,22.48s2,21.77,10,30.39c8.62,9.32,19.54,14.92,31.24,19a149.56,149.56,0,0,0,72.88,6.77c30.41-4.65,53.66-19.82,66.56-48.72,6.62-14.85,8.92-30.56,8.91-46.7q0-78.48,0-157c0-6.45,0-6.45,6.68-6.45,6.33,0,12.66-.11,19,.06,2.74.07,3.83-.65,3.79-3.6-.15-10.82-.13-21.66,0-32.49,0-2.7-1-3.34-3.51-3.33q-36.24.1-72.48,0c-3.07,0-3.52,1.25-3.44,3.83.15,4.88,0,9.76,0,15.49l-6.74-5.1c-14.5-11-31-17-49-17.37-33.3-.63-60.13,12.85-79.83,39.62-18.31,24.9-23.88,53.23-19.16,83.39,5.67,36.3,24,63.61,59.42,76.89,23.52,8.82,47.2,8.91,70.17-2.74C1939.17,442,1946,435.42,1953.66,428.57Zm222.68,9c0,6.93.11,13-.06,19.11-.07,2.8.81,3.78,3.67,3.76q35.49-.12,71,0c2.44,0,3.62-.54,3.59-3.32-.13-10.66-.16-21.32,0-32,.05-3.13-1.35-3.49-3.9-3.45-6.83.12-13.68-.27-20.49.15-4.73.29-6.14-1-6.12-5.92.16-31.31.45-62.64-.29-93.94-.84-35.4-20.9-59.91-55.12-68.75a135.68,135.68,0,0,0-62.85-1.09c-15.36,3.27-29.63,9.15-40.55,21-10,10.92-15.08,23.6-10.85,38.48,3.92,13.81,19.14,21.16,34.24,17.07a26.37,26.37,0,0,0,18.67-31.49c-1.13-4.63.32-5.54,4.24-6.45a71.93,71.93,0,0,1,34.15.65c15.87,4,26.37,13.55,28.58,30.65,1,7.82.34,15.64.76,23.45.19,3.54-1.18,3.67-4.06,3.14-17.73-3.3-35.61-5.18-53.64-4.4-21.18.92-41.06,5.85-57.95,19.73-29.46,24.21-25.85,76.13,11.83,92.88,23.77,10.56,47.56,9.25,71.39.49C2154.65,452.93,2165.42,446.08,2176.34,437.59Zm-546.43-63.85h5.77c46,0,92-.08,137.92.15,4.52,0,5.62-1.7,6.2-5.42a136.3,136.3,0,0,0,.93-31.39c-2-27.25-12.11-50.62-34.11-67.86-16.28-12.77-35.13-18.59-55.52-19.69-41.43-2.21-74.91,12-97.84,47.8-9.33,14.56-14.18,30.87-16,47.68a106.78,106.78,0,0,0,1.51,31.52c5.86,30.85,21.44,54.75,48.78,70.67,18.75,10.92,39.21,15.41,60.65,15.63,26.92.28,53.07-3.41,77.25-16.35,2.47-1.32,3.33-2.39,2.26-5.22-3.59-9.47-7.1-19-10.25-28.61-1.45-4.43-3.12-5.46-7.72-3.61a139.06,139.06,0,0,1-64.93,10C1656.63,416.58,1636.05,400.19,1629.91,373.74Zm721.73,88.51c21.26,0,38.41-2.64,54.49-10.39,16.28-7.84,28.82-19.46,34.15-37.07,6-19.73,4.58-38.33-12.11-53.08-7.71-6.81-17-11-26.44-14.77-18.22-7.37-37.48-11.5-56-18-6.26-2.2-12.65-4.21-17.85-8.61-7.44-6.29-8.08-15.7-1.47-22.88,4.2-4.56,9.69-6.95,15.55-8.5,12.63-3.34,25.07-1.54,37.52,1.24,4.87,1.08,7,3.08,6.37,8.67-1.13,9.72,1.92,18.33,10.58,23.74,8.88,5.54,18.57,6.48,28.12,1.9s13.76-13.25,14.14-23.55c.58-15.81-7.63-27-20.34-34.91-25.84-16.1-54-20.78-83.89-15.49-19.42,3.44-36.48,11.3-49,27.15-18.17,22.93-21.84,65.9,20,83.91A343,343,0,0,0,2350.71,377c12,3.28,24,6.53,35.07,12.64,11.87,6.57,10,21.21.56,27.65a40.57,40.57,0,0,1-17,6.64c-13.7,2.08-27.22,1-40.64-2.14-8.62-2-8.64-2-8.74-11,0-.84-.05-1.67-.08-2.5-.69-14.93-12.33-26.13-26.89-25.86-16.14.29-27.95,11.7-28.1,27-.19,19.11,11.06,30.3,26.76,38A142.81,142.81,0,0,0,2351.64,462.25Zm-576.58-70.32h-2c-6.68,0-6.63,0-4.38,6,6.36,17,12.6,34,19.06,50.87,1.26,3.29.66,5.23-2.4,6.84-7.34,3.87-14.29,8.46-22,11.62-1.54.63-3.2,1.26-3.38,3.27-.21,2.17,1.66,2.57,3,3.46,7.91,5.16,16.33,9.44,24.48,14.19,4.79,2.8,6.37,2.56,8.3-2.73,5.07-13.83,14.12-23.87,28.1-29,3.65-1.35,2.56-2.22.25-4-18-13.82-30.94-31.34-38.26-52.89C1783.28,391.94,1783.32,391.93,1775.06,391.93Zm249.22-9.26c.19,0,.45-.05.48-.13,5.58-15.85,15.1-28.7,29.15-38.06,2-1.31,1.4-2.21-.2-3.26-9.86-6.42-15.63-15.77-18.5-26.91-1.43-5.56-5.47-3-8.46-3.27-3.75-.33-2.93,2.84-2.93,5q-.08,32,0,63.95C2023.82,380.88,2023.35,381.93,2024.28,382.67ZM1894.81,472.9c-1.51,0-4.18.1-6.83,0-2.88-.15-4.26.4-2.42,3.51a30.93,30.93,0,0,1,4.28,12.13c.32,2.6,2.18,3.08,4.25,3.33,5.59.68,11.17,1.17,16.77,0,12.36-2.61,21.78-8.84,23.13-22.95.37-3.9-.09-4.3-3.63-2.84A85.09,85.09,0,0,1,1894.81,472.9Zm-155.25-79.7v-1.26h-4.83c-21,0-41.9,0-62.85.08-2.14,0-5.67-1.4-6.17,1.13-.44,2.21,3.32,2.57,5.3,3.63a6.14,6.14,0,0,0,1,.29C1695.05,404.6,1717.42,400.72,1739.56,393.2ZM2129.42,308c-2.05-.1-3.36.79-3.58,3.07a34.89,34.89,0,0,1-3.45,11.36c-1.52,3.26-.18,3.6,2.61,3.52a195.39,195.39,0,0,1,28.7,1.74c2.15.26,3-.26,2.65-2.71-1-6-3.89-10.37-9.47-13.07S2135.38,309,2129.42,308Zm242.66,95.6c-12.07-3.77-23.13-8-35.28-9.85.73,3.31,1.44,6,1.9,8.79.36,2.14,1.42,3,3.57,3.38a117.84,117.84,0,0,0,21.32.95A13,13,0,0,0,2372.08,403.6Zm-28.74-93.92c6.91,2.27,13.81,4.56,20.73,6.8,1.25.4,2.68.9,3.37-.86,1.06-2.74-1.85-9.05-4.66-9.39C2356.19,305.43,2349.66,305.8,2343.34,309.68Z"></path><path class="cls-2" d="M1932.86,593.73c-.59-2.68-2.59-4.35-4.71-5.56-7.6-4.35-15.33-8.47-23-12.68-1.11-.61-3-.91-2.61-2.52s2.25-1,3.47-1a122,122,0,0,0,43.58-6.85c39.08-13.85,60.92-42,68.37-82.24,3.15-17.05,1.27-34.19,1.87-51.28a12.84,12.84,0,0,1,.39-3.52c2.75,5.43,4.38,11.29,7.62,16.44,9.52,15.16,22.26,26.18,39.22,32.4,10.76,3.95,21.76,5.51,33.13,6.12,17.31.92,33.6-2.6,49.35-9.45,2.29-1,4.68-2.06,4.28,2.2-.22,2.38,1.27,3.31,3.22,3.64a33.11,33.11,0,0,0,5.45.43q50.25,0,100.49,0c6.75,0,6.78-.05,6.8-6.59,0-3.34.06-6.67,0-10-.06-3.16,1-3.26,3.5-1.75,19.19,11.51,40.25,17,62.3,19.49,23.41,2.67,46.21.3,68.07-8.34,23.2-9.17,41.47-24.23,49.84-48.5,6.39-18.52,8.59-37.64,1.27-56.58-3.55-9.18-9.94-16.44-17.89-22.26-2.76-2-4.78-3.08-.18-6.25,15.12-10.46,20.93-25.4,19.29-43.61-2-21.7-14-36.37-32.06-47-16.31-9.58-34.07-14.5-52.81-16.75-25.9-3.1-50.66.81-73.47,13-32,17.11-49.47,46.72-42.44,85.94,2.31,12.89,7.94,23.84,17.59,32.78,4.24,3.93,4,4-1.09,6.63-12.17,6.32-20,16.29-23.74,29.38-.58,2,.09,4.54-3.31,4.36-3.85-.21-2.79-3.11-2.8-5.2-.09-10.49-.05-21-.05-31.49,0-14.16.29-28.33-.07-42.49-.47-18.58-4.54-36.34-15.11-52-14.46-21.38-35.17-33.5-60.08-38.59-28.21-5.77-56.14-4.91-83.51,4.84-11.29,4-21.18,10.31-31.22,19.1v-16c0-7.16,0-7.17-6.93-7.17q-51.24,0-102.49.05c-2.53,0-5.66-1.31-7,2.81-.57,1.74-2.75.28-4-.18-12.17-4.6-24.76-5.81-37.7-5.79-24.59,0-46.41,7.82-65.71,22.61-14.44,11.06-26,24.72-33.68,41.43-.58,1.27-.79,3.39-2.51,3.34s-1.89-2.13-2.48-3.41c-15.49-33.34-41.8-53.35-77.24-61.09-28.8-6.29-57.16-3.87-84.29,8.35-8.31,3.74-15.82,9-24,13.75q4.63-11.15,9.29-22.28c1.42-3.38,3-6.68,4.43-10,3.82-9,1.27-7.35,11.33-7.5,6.66-.1,13.33-.12,20,0,3,.06,4.09-1.08,4.08-4.09-.07-25.66-.11-51.32,0-77,0-4.63-2.9-4-5.69-4h-109c-13.5,0-27,.1-40.49-.07-3.62,0-5,1-5,4.79q.21,37.74,0,75.48c0,3.71,1.14,5,4.87,4.86,5.65-.25,11.33,0,17-.09,3.24,0,4.65.51,3.15,4.27-11.13,28-22.09,56-33.14,84-1.43,3.63-2.2,7.56-4.84,11.31-1.71-4.37-3.28-8.34-4.83-12.31-10.87-27.7-21.68-55.42-32.69-83.07-1.42-3.58-.63-4.33,2.87-4.22,5.16.17,10.34-.05,15.5.08,2.88.07,4.23-.79,4.22-3.95q-.12-38.49,0-77c0-4-2.06-4.15-5.05-4.14q-38,.08-76,0c-24.5,0-49,.1-73.49-.1-4.42,0-5.66,1.26-5.63,5.65q.29,37,0,74c0,4.48,1.36,5.75,5.7,5.59,8.16-.32,16.34.11,24.49-.19,3.72-.14,5.43,1.42,6.64,4.58s2.84,6.33,4.28,9.48l13.1,32c-5.33-2-8.07-6-11.94-8.44A197.8,197.8,0,0,0,1311.77,237c.38-2.32-1.16-3.21-2.89-4.07-2.22-1.11-4.32-2.46-6.44-3.74-7.76-4.66-15.88-8.74-23.57-13.5-4.19-2.59-9.36-4-12-8.75,4-1.05,8,.2,12-.09l3.07,0c1.66-1.49.76-3.44.76-5.13.08-29.33.23-58.66-.07-88,0-5.45,1.66-6.35,6.62-6.35q191.47.21,383,.12c1.83,0,3.66.1,5.49.15.09,13,.24,25.95.28,38.92,0,18.64.07,37.29,0,55.93,0,3,.54,4.3,4,4.39,18.46.46,36.7,2.85,54.12,9.17,16.09,5.83,31.22,13.34,44.14,25.17,4.59,4.21,8.4,9.09,12.43,12.82,37.09-38.48,81-54.54,133.86-43.88,2,.1,4,.29,6,.29q71.6.08,143.17.11c.13,1.82.26,3.63.41,5.63,6.31-.74,11.94-3.49,18-4.72,8.88-1.8,17.67-3.51,26.75-3.62a26.2,26.2,0,0,0,4.34-.78c8.64-2.19,17.13.43,25.69.71,35.91,4.39,67.57,13.66,95.9,50.54,23-32.45,55.54-47,94.08-50.54a34.55,34.55,0,0,0,10.34-1.19c1.6-.49,3.91-1.72,5.1,1,12.88,0,25.68.83,38.15,4.29,7.5,2.08,15,4.07,22.3,6.88,10.27,4,20.46,8.31,29,15,11.26,8.85,21.08,19.17,26.73,32.94,3.08,7.51,5.67,15,6.43,23.07.56,6.33,2.47,12.66,0,19a58.53,58.53,0,0,1-9.9,29.63c-1.55,2.29-1.73,3.75.36,6.53a73.51,73.51,0,0,1,13.41,29.8,106.4,106.4,0,0,1-1.81,51c-4.05,14.17-11.14,26.37-20.77,37.59a109.33,109.33,0,0,1-38.36,28.77c-15.82,7.14-32.45,12.06-50,12.75-2.8.09-5.62,0-8.39.33-3.68.46-7.23,2.67-11,1.24-4.76-1.78-9.7-1.38-14.6-1.58a164.38,164.38,0,0,1-41.05-8.24c-1.19-1-2-.51-1.74.8.92,5.3-1.91,5.57-6.19,5.56q-74.13-.21-148.27-.07c-2.12,0-4.34-.48-6.36.66-6.06,1.18-12.12,2.33-18.33,2.3h-21c-18.3-.59-35.16-6.2-51.47-15-2.87,14.8-7.42,28.71-15.11,41.46-14.76,24.49-35,42.51-61.92,52.69A158.19,158.19,0,0,1,1932.86,593.73Z"></path><path class="cls-3" d="M1327.83,469.87c-.34,2.72,1.32,3.84,3.36,5.31,5.52,4,12.58,5.86,16.7,11.8a113.55,113.55,0,0,1-38,14.88c-.41-.66-.75-.64-1,.1l0,0-.94.85c-9,1.48-17.94,3.38-27.12,3.22h-19.93c-33.15-1-62.73-12-88.79-32.38-2.52-2-4.38-2.72-7.35-.69-14.06,9.56-28.93,17.61-45.26,22.61-15.25,4.67-30.66,8.6-46.69,9.44-2.3.12-4.59.56-6.88.85-.76-1.17-2-1-3.09-1-7,0-14.06.07-21.09.11-5.21,2.66-10.58.2-15.52-.43a168.27,168.27,0,0,1-57.73-18.31c-2.86-1.52-5.46-3.51-8.18-5.28l-1.24-1.2c-.28-.33-.57-.8-.91-.1,0,.08.33.37.51.56.08.41.16.81.23,1.22l0,.08c-2.3,4.4-.86,9.11-1,13.66-.28,6.65-.08,6.66-6.83,6.66H655.7c-2.16,0-4.32.13-6.48.2a8.76,8.76,0,0,1-.43-1.91q0-63.07-.08-126.15c0-3,1-3.53,3.72-3.53,10.46,0,20.91-.18,31.37-.3.06-.37.13-.75.2-1.13,1.38-1.57.87-3.48.87-5.25q0-58.79,0-117.57c0-1.78.51-3.69-.87-5.25a1.93,1.93,0,0,1-.12-.95c-1.25-1.7-3-.8-4.56-.82-8.49-.09-17-.27-25.45.06-4.07.16-5.23-.83-5.21-5.09.19-40.41.12-80.83.15-121.25,0-1.64.27-3.28.42-4.91,2.16.07,4.32.2,6.48.2q99.93,0,199.85-.06c5.09,0,6.36,1.3,6.34,6.34-.17,41.8,0,83.6,0,125.4-11.79.05-23.58.14-35.37.11-2.81,0-4.7.19-4.69,3.89.11,26.41,0,52.81.07,79.22a12.54,12.54,0,0,0,.65,2.84q35.35,0,70.69,0c1.61,0,3.35.41,4.73-.92a.74.74,0,0,1,.52-.13c1.6-.1,1.53-1.16,1.34-2.3,2.62-11.65,7.29-22.64,11.09-33.92a18.89,18.89,0,0,1,1.94-3.35c2.4-.68,4,.94,6,1.85,4.86,2.26,9,6.6,15,5.74-8.56,16.18-14.38,33.26-15.81,51.57-.35,4.39-1.44,5.61-5.77,5.56-20.32-.21-40.64.05-61-.2-4.86-.06-6.78,1-6.57,6.27.43,10.81,0,21.65.21,32.47.09,4.08-1.09,5.54-5.32,5.44-11.65-.25-23.32-.08-35-.08-7.76,0-7.76,0-7.76-7.83q0-83.68.05-167.38c0-7.38-5.8-8.9-10.36-11.92-4.06-2.69-4.11,2.61-6.53,3.16-.06-2.66.08-5.35-.22-8-.38-3.3.82-4.17,4.08-4.1,10.83.2,21.66-.08,32.49.16,3.6.09,4.4-1,4.35-4.47-.2-13-.25-26,0-39,.09-4.17-1.08-5.23-5.23-5.22-40.16.16-80.31.09-120.47.12-1.47,0-3-.39-4.39.47-4.68.72-7.7-2.52-11.22-4.62-5.41-3.22-8.54-1.48-8.55,4.68,0,20.49.11,41-.12,61.47,0,4.54,1.45,6,5.74,5.49,8.08-1,16.18-.32,24.28-.06,6.18.19,6.4.39,6.07,6.55-.43,7.91-.93,15.84-.95,23.76q-.12,70.47.06,140.93c0,4.66-1.38,6.06-5.94,5.86-7.82-.34-15.66.12-23.48-.18-4.24-.15-5.83.93-5.79,5.51q.33,37.23,0,74.46c0,4.94,1.74,6.19,6.41,6.19q125.21-.17,250.41,0c4.72,0,6.44-1.34,6.36-6.23-.25-15.66-.12-31.32,0-47,0-1.27-.85-2.94,1.17-4.09a108.91,108.91,0,0,0,15.72,20.56,125,125,0,0,0,49.42,30.86c23.2,7.79,47,9.16,71.35,6.92a161.91,161.91,0,0,0,75.92-26.39c1.88-1.24,2.39-2.22,1.54-4.41-4-10.55-7.9-21.17-11.85-31.75-2.8-7.48-5.58-15-8.48-22.39-1.21-3.09-.39-4.35,2.94-4.21a75.32,75.32,0,0,0,8.5,0c3.38-.23,4.91,1,5.88,4.45,5.17,18.44,14.88,34.38,28,48.22s29.24,23.22,47,30.1c25.72,9.95,51.84,9.72,78.39,4.61C1309.38,477.33,1318.31,472.77,1327.83,469.87Z"></path><path class="cls-3" d="M322.9.9c23.51,2.33,46.72,6,69.45,12.87a323.34,323.34,0,0,1,56.72,23.54,258.23,258.23,0,0,1,35,22.17,322.19,322.19,0,0,1,37.54,32.81,309.88,309.88,0,0,1,30.59,36.88,325.46,325.46,0,0,1,30.88,54.42A292.56,292.56,0,0,1,604,252.91c4.2,23.72,4.57,47.61,3.69,71.51-.57,15.43-3.31,30.71-6.59,45.85a306,306,0,0,1-11.67,39.14c-3.74,10.31-8.32,20.19-13,30.1a291.69,291.69,0,0,1-68.51,90.23c-12.24,11-24.83,21.45-38.69,30.26a308.49,308.49,0,0,1-111.43,43.83A258.15,258.15,0,0,1,311.88,608H297c-32.87.06-64.72-6.22-95.48-17.25-21.68-7.78-42.06-18.49-61.65-30.87-22.77-14.39-42.65-32-60.83-51.53C63.6,491.65,50.77,473,39.53,453.25a298.59,298.59,0,0,1-23.32-52,263.19,263.19,0,0,1-11.38-46Q2.4,338.55.88,321.85q0-18.44,0-36.85c1.91-24.6,5.91-48.9,13.4-72.37,7.87-24.66,19.08-47.9,32.66-70A333.63,333.63,0,0,1,72.74,106.8c9.88-12.17,21.41-22.86,33.53-33C115.63,66,125,58.25,135.13,51.57A305,305,0,0,1,208,16c15.08-5,30.33-9.46,46-11.67,10.6-1.5,21.16-4.18,32-3.45Zm-18.33,584c155.85.26,278.55-124.81,281.12-274.71,2.78-161.82-126.24-282.59-273.51-286C148.28,20.36,28.28,150.44,24,295.08,19.24,458.24,151.9,585.86,304.57,584.89Z"></path><path class="cls-1" d="M933.87,292.88c-6.06.86-10.17-3.48-15-5.74-2-.91-3.56-2.53-6-1.85,8.21-17.56,20.66-31.94,34.82-44.77a110.82,110.82,0,0,1,24-16.09c11.33-5.83,22.93-10.92,35.3-14,7.5-1.84,15.09-3.64,22.93-3.63h25c12.91,1.4,25.89,3,38.11,7.37,9.08,3.26,18.24,6.25,26.75,11.61,10.22,6.44,19.94,13.14,28.54,21.57,1.69,1.66,2.65,3.74,4.11,5.49,2.09,2.49,3.87,3.4,6.66.31a133.39,133.39,0,0,1,28.21-23.35c17.1-10.72,35.7-17.26,55.41-21,5.69-1.08,11.34-2.33,17.19-2l7,.11c2.68,4.73,7.85,6.16,12,8.75,7.69,4.76,15.81,8.84,23.57,13.5,2.12,1.28,4.22,2.63,6.44,3.74,1.73.86,3.27,1.75,2.89,4.07-9.63-1.64-19.1-4.47-28.88-4.93-22.57-1.09-44.73.53-65.86,9.89-19.67,8.7-36.56,20.7-49.79,37.83A160.61,160.61,0,0,0,1153,302.33c-1.76-.9-2.07-2.28-2.54-3.46a102.85,102.85,0,0,0-28.56-39.54c-27.65-24.06-60.6-29.82-95.56-27.06-22.1,1.74-42.23,10.08-60,23.47-5.38,4.05-11.26,7.69-14.43,14.05a4.45,4.45,0,0,0-2.32,1.69A118.45,118.45,0,0,0,933.87,292.88Z"></path><path class="cls-4" d="M1677.65,107.69c-1.83,0-3.66-.15-5.49-.15q-191.48,0-383-.12c-5,0-6.67.9-6.62,6.35.3,29.32.15,58.65.07,88,0,1.69.9,3.64-.76,5.13,0-31.63.09-63.27,0-94.91,0-3.73.71-4.88,4.74-4.88q193.1.19,386.19.13C1674.4,107.22,1676.11,106.71,1677.65,107.69Z"></path><path class="cls-2" d="M861.91,239.81c0-41.8-.18-83.6,0-125.4,0-5-1.25-6.36-6.34-6.34q-99.93.24-199.85.06c-2.16,0-4.32-.13-6.48-.2a7.83,7.83,0,0,1-.1-.83c1.65-.1,3.31-.27,5-.27q101.61,0,203.21-.12c4.53,0,5.77,1.12,5.75,5.71-.2,40.77-.12,81.54-.18,122.31C862.86,236.42,863.76,238.42,861.91,239.81Z"></path><path class="cls-2" d="M649.22,502c2.16-.07,4.32-.2,6.48-.2H951c6.75,0,6.55,0,6.83-6.66.18-4.55-1.26-9.26,1-13.66,0,6,0,12,.18,18,.1,2.92-1.06,3.92-3.79,3.61a23,23,0,0,0-2.49,0q-149.09,0-298.17,0c-1.82,0-3.64-.17-5.47-.27A2.11,2.11,0,0,1,649.22,502Z"></path><path class="cls-4" d="M2134.15,503.7c2-1.14,4.24-.66,6.36-.66q74.14,0,148.27.07c4.28,0,7.11-.26,6.19-5.56-.23-1.31.55-1.84,1.74-.8-.27.18-.79.39-.77.51,1.18,7-3.14,6.65-8.11,6.64Q2211,503.65,2134.15,503.7Z"></path><path class="cls-4" d="M649.22,502a2.11,2.11,0,0,0-.08.75c-1.93-.54-1.07-2.15-1.07-3.24-.06-41.9,0-83.81-.14-125.71,0-3.36,1.15-3.61,4-3.58,10.64.11,21.28-.05,31.92-.11-10.46.12-20.91.33-31.37.3-2.7,0-3.73.56-3.72,3.53q.13,63.07.08,126.15A8.76,8.76,0,0,0,649.22,502Z"></path><path class="cls-4" d="M649.13,107.1a7.83,7.83,0,0,0,.1.83c-.15,1.63-.42,3.27-.42,4.91,0,40.42,0,80.84-.15,121.25,0,4.26,1.14,5.25,5.21,5.09,8.47-.33,17-.15,25.45-.06,1.51,0,3.31-.88,4.56.82-10.65,0-21.3-.17-32-.05-2.82,0-4-.35-4-3.69.13-41.94.07-83.88.13-125.82C648.07,109.3,647.08,107.62,649.13,107.1Z"></path><path class="cls-4" d="M2075.59,210.61q-71.58,0-143.17-.11c-2,0-4-.19-6-.29q72.87,0,145.73,0A28,28,0,0,1,2075.59,210.61Z"></path><path class="cls-2" d="M684,240.89c1.38,1.56.87,3.47.87,5.25q0,58.78,0,117.57c0,1.77.51,3.68-.87,5.25Z"></path><path class="cls-2" d="M1436,501.88l88.86-.21c-.3,2.14-2,1.33-3.13,1.33q-41.42.08-82.82,0C1437.81,503,1436.44,503.48,1436,501.88Z"></path><path class="cls-2" d="M898,325c-1.38,1.33-3.12.91-4.73.92q-35.34,0-70.69,0c1.12-1.51,2.75-.89,4.15-.89Q862.36,324.95,898,325Z"></path><path class="cls-4" d="M.89,285q0,18.42,0,36.85c-.82-.19-.87-.79-.87-1.49q0-17,0-33.89C0,285.77.07,285.17.89,285Z"></path><path class="cls-4" d="M322.9.9H286c.19-.82.79-.87,1.49-.87q17,0,33.92,0C322.12,0,322.71.09,322.9.9Z"></path><path class="cls-4" d="M2337.76,505c4.9.2,9.84-.2,14.6,1.58,3.82,1.43,7.37-.78,11-1.24,2.77-.35,5.59-.24,8.39-.33-.34.28-.67.8-1,.8q-16,.06-32,0C2338.43,505.79,2338.1,505.27,2337.76,505Z"></path><path class="cls-4" d="M2150.8,207.83c-8.56-.28-17.05-2.9-25.69-.71,7.41,0,14.81-.1,22.21-.05C2148.48,207.08,2150,206.15,2150.8,207.83Z"></path><path class="cls-4" d="M1054.87,206.83h-25c2.5-1.89,5.38-.88,8-.66C1043.55,206.65,1049.28,205,1054.87,206.83Z"></path><path class="cls-2" d="M1041.76,504.91c7,0,14.06-.09,21.09-.11,1.12,0,2.33-.16,3.09,1-7.23.06-14.46.14-21.69.19C1043.29,506,1042.24,506.08,1041.76,504.91Z"></path><path class="cls-4" d="M2094.82,506h21A60.7,60.7,0,0,1,2094.82,506Z"></path><path class="cls-4" d="M1260.91,506h19.93A54.72,54.72,0,0,1,1260.91,506Z"></path><path class="cls-4" d="M1266.83,206.94l-7-.11a49.67,49.67,0,0,1,19,0C1274.83,207.14,1270.82,205.89,1266.83,206.94Z"></path><path class="cls-4" d="M2478.9,308.89c2.44-6.33.53-12.66,0-19C2480.09,296.23,2479.67,302.56,2478.9,308.89Z"></path><path class="cls-4" d="M2356.22,207.67c-1.19-2.75-3.5-1.52-5.1-1a34.55,34.55,0,0,1-10.34,1.19C2345.91,206.13,2351.07,207.56,2356.22,207.67Z"></path><path class="cls-4" d="M297,608h14.88A26.79,26.79,0,0,1,297,608Z"></path><path class="cls-2" d="M899.85,322.56c.19,1.14.26,2.2-1.34,2.3C898.73,324,898.67,322.9,899.85,322.56Z"></path><path class="cls-1" d="M1308.88,502c.27-.74.61-.76,1-.1Z"></path><path class="cls-1" d="M1308,502.76l.94-.85Z"></path><path class="cls-2" d="M959.09,479.69l1.24,1.2-1.41.48-.23-1.22C958.82,480,959,479.84,959.09,479.69Z"></path><path class="cls-4" d="M1953.66,428.57c-7.68,6.85-14.49,13.47-23,17.81-23,11.65-46.65,11.56-70.17,2.74-35.41-13.28-53.75-40.59-59.42-76.89-4.72-30.16.85-58.49,19.16-83.39,19.7-26.77,46.53-40.25,79.83-39.62,18.08.34,34.55,6.36,49,17.37l6.74,5.1c0-5.73.11-10.61,0-15.49-.08-2.58.37-3.84,3.44-3.83q36.24.18,72.48,0c2.5,0,3.54.63,3.51,3.33-.12,10.83-.14,21.67,0,32.49,0,2.95-1,3.67-3.79,3.6-6.33-.17-12.66-.06-19-.06-6.68,0-6.68,0-6.68,6.45q0,78.46,0,157c0,16.14-2.29,31.85-8.91,46.7-12.9,28.9-36.15,44.07-66.56,48.72a149.56,149.56,0,0,1-72.88-6.77c-11.7-4.1-22.62-9.7-31.24-19-8-8.62-11.94-18.95-10-30.39s11.1-21.42,25.22-22.48c18.48-1.39,31.22,11.13,30.3,29.86-.2,4.06,1,5.35,4.71,6.26,12.73,3.19,25.52,4.9,38.57,2.59,23.27-4.12,37.09-20,38.61-45.24C1954.26,453.47,1953.66,441.46,1953.66,428.57Zm-1-77.6c0-12.48-.11-25,.08-37.45a7,7,0,0,0-3.42-6.52,72.62,72.62,0,0,0-51.11-12.74c-17.41,2-31,10.1-39.46,26-7.14,13.51-8.19,28-6.63,42.75,1.94,18.34,9.53,33.76,26.7,42.4,25.47,12.82,52.69,5.86,72.6-12.92,1.62-1.52,1.22-3.33,1.22-5.1C1952.65,375.27,1952.63,363.12,1952.63,351Z"></path><path class="cls-4" d="M1369,236.9c-5.08-12.26-10.21-24.5-15.19-36.8-.92-2.27-2.52-2.19-4.39-2.18-7,0-14-.08-21,.06-2.58.05-3.84-.35-3.8-3.43.16-13.83.14-27.66,0-41.49,0-2.84.84-3.68,3.68-3.68q57.24.12,114.48,0c2.92,0,4.06.66,4,3.87q-.27,20.49,0,41c0,3.29-1.17,3.81-4,3.76-9.46-.16-18.92-.06-29-.06l66.91,170.48c22.31-57.31,44.19-113.56,66.34-170.48-10.08,0-19.65-.15-29.22.08-3.66.09-5.14-.56-5-4.75.31-13.32.21-26.66,0-40,0-3.1.85-3.93,3.91-3.92q57.49.15,115,0c2.83,0,4.13.49,4.09,3.8q-.29,20.49,0,41c0,3.2-1,3.93-4,3.83-6.16-.21-12.34.17-18.49-.16-3.59-.19-5.15,1.12-6.52,4.38q-26.34,62.46-53,124.8-12.55,29.54-25.08,59.08c-.38.9-.6,1.87-.89,2.8a17.08,17.08,0,0,0-1,1.7c-9.36,22-18.76,43.94-28,66-1.21,2.87-2.7,4-5.87,3.9-7.65-.23-15.32-.37-23,0-4.35.23-6.37-1.23-8-5.22q-32-75.93-64.33-151.71C1388.18,281.33,1378.54,259.13,1369,236.9Z"></path><path class="cls-5" d="M933.87,292.88a118.45,118.45,0,0,1,15.65-21.4,4.45,4.45,0,0,1,2.32-1.69c6,1.84,10.71,6.12,16.5,8.32-2.66,3.76-6.36,6.49-9.11,10.32-19,26.44-25.38,55.74-20.2,87.52,5.1,31.36,21.27,55.48,49,71.46,21.78,12.53,45.49,16.3,70.18,15.37,23.49-.89,46.25-4.92,67.28-16.21,2.67-1.43,3.41-2.65,2.27-5.62-3.62-9.46-7.08-19-10.28-28.59-1.38-4.13-3-5.24-7.35-3.42a134.76,134.76,0,0,1-50,10.62c-17.74.3-34.91-2.11-49.7-13.13-10.93-8.14-17.44-19-20.43-32.68h6l129.43,0c14,0,14,0,15.58-13.86.1-.09.28-.2.27-.28a3.19,3.19,0,0,0-.21-.71l.21-3c3.18-.2,5.52,1.73,8.16,3.05,3.6,1.82,6.6,5,11,5,.84,10.77,2.41,21.29,6.41,31.52,13,33.09,36.16,55,70.4,64.45,26.77,7.39,53.37,5.67,79.32-4.5.24,3,2.33,3.94,4.77,4.95,3.8,1.56,7.84,3.18,7.36,8.54l-1,1c-9.52,2.9-18.45,7.46-28.35,9.37-26.55,5.11-52.67,5.34-78.39-4.61-17.79-6.88-33.86-16.21-47-30.1s-22.83-29.78-28-48.22c-1-3.46-2.5-4.68-5.88-4.45a75.32,75.32,0,0,1-8.5,0c-3.33-.14-4.15,1.12-2.94,4.21,2.9,7.43,5.68,14.91,8.48,22.39,4,10.58,7.8,21.2,11.85,31.75.85,2.19.34,3.17-1.54,4.41A161.91,161.91,0,0,1,1071.61,481c-24.3,2.24-48.15.87-71.35-6.92a125,125,0,0,1-49.42-30.86,108.91,108.91,0,0,1-15.72-20.56c-2,1.15-1.17,2.82-1.17,4.09-.08,15.66-.21,31.32,0,47,.08,4.89-1.64,6.23-6.36,6.23q-125.21-.17-250.41,0c-4.67,0-6.45-1.25-6.41-6.19q.32-37.23,0-74.46c0-4.58,1.55-5.66,5.79-5.51,7.82.3,15.66-.16,23.48.18,4.56.2,5.95-1.2,5.94-5.86q-.24-70.47-.06-140.93c0-7.92.52-15.85.95-23.76.33-6.16.11-6.36-6.07-6.55-8.1-.26-16.2-1-24.28.06-4.29.53-5.79-1-5.74-5.49.23-20.49.1-41,.12-61.47,0-6.16,3.14-7.9,8.55-4.68,3.52,2.1,6.54,5.34,11.22,4.62,0,14.67.13,29.33,0,44,0,3.31.91,4.17,4.14,4.09,9.5-.21,19,0,28.5-.14,2.88,0,3.58.83,3.58,3.64q-.11,103.48,0,207c0,3.63-1.4,4-4.36,4-9.33-.13-18.66.08-28-.12-3.09-.07-3.92.83-3.88,3.9.17,13.49.19,27,0,40.49-.05,3.32,1.22,3.72,4,3.72q108.74-.09,217.47,0c3.17,0,4.3-.78,4.28-4.14q-.18-42,0-84c0-3-.83-4-3.93-4q-21.75.22-43.49,0c-3.06,0-4,.9-4,4,.16,11.83-.1,23.67.16,35.49.09,3.82-1,4.7-4.74,4.68q-37.74-.25-75.49,0c-4.08,0-5.24-.85-5.23-5.12.18-48.82.1-97.65.12-146.47,0-17,.11-34,.16-51,2.42-.55,2.47-5.85,6.53-3.16,4.56,3,10.37,4.54,10.36,11.92q-.18,83.69-.05,167.38c0,7.82,0,7.83,7.76,7.83,11.66,0,23.33-.17,35,.08,4.23.1,5.41-1.36,5.32-5.44-.24-10.82.22-21.66-.21-32.47-.21-5.31,1.71-6.33,6.57-6.27,20.32.25,40.64,0,61,.2,4.33.05,5.42-1.17,5.77-5.56C919.49,326.14,925.31,309.06,933.87,292.88Zm167.06,99.37h-76.34C1034.94,404.11,1076.67,403.55,1100.93,392.25Z"></path><path class="cls-4" d="M2176.34,437.59c-10.92,8.49-21.69,15.34-33.78,19.79-23.83,8.76-47.62,10.07-71.39-.49-37.68-16.75-41.29-68.67-11.83-92.88,16.89-13.88,36.77-18.81,57.95-19.73,18-.78,35.91,1.1,53.64,4.4,2.88.53,4.25.4,4.06-3.14-.42-7.81.26-15.63-.76-23.45-2.21-17.1-12.71-26.65-28.58-30.65a71.93,71.93,0,0,0-34.15-.65c-3.92.91-5.37,1.82-4.24,6.45a26.37,26.37,0,0,1-18.67,31.49c-15.1,4.09-30.32-3.26-34.24-17.07-4.23-14.88.81-27.56,10.85-38.48,10.92-11.88,25.19-17.76,40.55-21a135.68,135.68,0,0,1,62.85,1.09c34.22,8.84,54.28,33.35,55.12,68.75.74,31.3.45,62.63.29,93.94,0,5,1.39,6.21,6.12,5.92,6.81-.42,13.66,0,20.49-.15,2.55,0,4,.32,3.9,3.45-.17,10.66-.14,21.32,0,32,0,2.78-1.15,3.33-3.59,3.32q-35.48-.09-71,0c-2.86,0-3.74-1-3.67-3.76C2176.45,450.62,2176.34,444.52,2176.34,437.59Zm-2-45c0-4.16-.18-8.33,0-12.48.18-3.2-.63-4.83-4.17-5.19-5.45-.56-10.81-1.9-16.26-2.48-13.75-1.45-27.5-2.58-41.08,1.53-14.66,4.44-22.9,16.65-21,31.42,1.63,12.83,12.79,21.18,28.15,21.59,17.58.48,33.29-5,48.13-13.9,4.53-2.71,7.28-5.82,6.29-11.52C2174,398.62,2174.38,395.56,2174.38,392.56Z"></path><path class="cls-4" d="M1629.91,373.74c6.14,26.45,26.72,42.84,54.86,45.27a139.06,139.06,0,0,0,64.93-10c4.6-1.85,6.27-.82,7.72,3.61,3.15,9.62,6.66,19.14,10.25,28.61,1.07,2.83.21,3.9-2.26,5.22-24.18,12.94-50.33,16.63-77.25,16.35-21.44-.22-41.9-4.71-60.65-15.63-27.34-15.92-42.92-39.82-48.78-70.67a106.78,106.78,0,0,1-1.51-31.52c1.86-16.81,6.71-33.12,16-47.68,22.93-35.76,56.41-50,97.84-47.8,20.39,1.1,39.24,6.92,55.52,19.69,22,17.24,32.06,40.61,34.11,67.86a136.3,136.3,0,0,1-.93,31.39c-.58,3.72-1.68,5.45-6.2,5.42-46-.23-91.94-.15-137.92-.15Zm50.75-35.34c15.32,0,30.64,0,45.95,0,1.7,0,4.37,1,3.94-2.6-1.61-13.65-5.94-25.93-17.39-34.61-30.87-23.41-75.75-5.29-82.19,33.11-.58,3.43.44,4.23,3.75,4.2C1650,338.32,1665.35,338.41,1680.66,338.4Z"></path><path class="cls-4" d="M2351.64,462.25a142.81,142.81,0,0,1-60-14.72c-15.7-7.75-27-18.94-26.76-38,.15-15.34,12-26.75,28.1-27,14.56-.27,26.2,10.93,26.89,25.86,0,.83.07,1.66.08,2.5.1,9,.12,9,8.74,11,13.42,3.14,26.94,4.22,40.64,2.14a40.57,40.57,0,0,0,17-6.64c9.42-6.44,11.31-21.08-.56-27.65-11-6.11-23.07-9.36-35.07-12.64a343,343,0,0,1-45.26-15.38c-41.86-18-38.19-61-20-83.91,12.56-15.85,29.62-23.71,49-27.15,29.88-5.29,58.05-.61,83.89,15.49,12.71,7.92,20.92,19.1,20.34,34.91-.38,10.3-4.46,18.91-14.14,23.55s-19.24,3.64-28.12-1.9c-8.66-5.41-11.71-14-10.58-23.74.65-5.59-1.5-7.59-6.37-8.67-12.45-2.78-24.89-4.58-37.52-1.24-5.86,1.55-11.35,3.94-15.55,8.5-6.61,7.18-6,16.59,1.47,22.88,5.2,4.4,11.59,6.41,17.85,8.61,18.51,6.5,37.77,10.63,56,18,9.43,3.81,18.73,8,26.44,14.77,16.69,14.75,18.07,33.35,12.11,53.08-5.33,17.61-17.87,29.23-34.15,37.07C2390.05,459.61,2372.9,462.26,2351.64,462.25Z"></path><path class="cls-3" d="M968.34,278.11c-5.79-2.2-10.53-6.48-16.5-8.32,3.17-6.36,9-10,14.43-14.05,17.81-13.39,37.94-21.73,60-23.47,35-2.76,67.91,3,95.56,27.06a102.85,102.85,0,0,1,28.56,39.54c.47,1.18.78,2.56,2.54,3.46a160.61,160.61,0,0,1,14.27-22.54c13.23-17.13,30.12-29.13,49.79-37.83,21.13-9.36,43.29-11,65.86-9.89,9.78.46,19.25,3.29,28.88,4.93A197.8,197.8,0,0,1,1347,254.46c3.87,2.41,6.61,6.39,11.94,8.44l-13.1-32c2.43-6,2.05-5.36,8.12-1.73,4.77,2.85,9,7,15,7.69,9.57,22.23,19.21,44.43,28.69,66.7q32.28,75.79,64.33,151.71c1.68,4,3.7,5.45,8,5.22,7.64-.41,15.31-.27,23,0,3.17.1,4.66-1,5.87-3.9,9.23-22,18.63-44,28-66a17.08,17.08,0,0,1,1-1.7c4.56,1,7.75,4.42,11.63,6.6,2.26,1.27,1.46,3.8.58,5.87-10.65,25.09-21.36,50.15-31.91,75.28-1,2.44-2.38,3.26-4.84,3.25q-25-.07-50,0c-2.47,0-3.79-.85-4.82-3.28q-25-59.22-50.23-118.35c-.06-.14-.26-.21-.82-.62-2.3,49.92-24.18,87.61-68.63,111.24.48-5.36-3.56-7-7.36-8.54-2.44-1-4.53-2-4.77-4.95,14.86-6.49,27.91-15.54,38.37-28,20.5-24.36,28.67-52.49,24.8-84.06-4.29-35.09-20.83-62.56-51.86-80.16-24.4-13.84-51-16.93-78.35-12.24-35.21,6-61.48,25-78,56.85-9.1,17.57-12.13,36.47-11.1,56.11-4.44.06-7.44-3.14-11-5-2.64-1.32-5-3.25-8.16-3.05-.18-6.82,0-13.67-.61-20.45-1.92-23-9.6-43.61-26.59-59.73-27.14-25.78-60.08-30.33-95.32-24.12C999.41,255.07,982.73,264.59,968.34,278.11Z"></path><path class="cls-2" d="M1775.06,391.93c8.26,0,8.22,0,10.8,7.6,7.32,21.55,20.26,39.07,38.26,52.89,2.31,1.78,3.4,2.65-.25,4-14,5.17-23,15.21-28.1,29-1.93,5.29-3.51,5.53-8.3,2.73-8.15-4.75-16.57-9-24.48-14.19-1.37-.89-3.24-1.29-3-3.46.18-2,1.84-2.64,3.38-3.27,7.71-3.16,14.66-7.75,22-11.62,3.06-1.61,3.66-3.55,2.4-6.84-6.46-16.91-12.7-33.91-19.06-50.87-2.25-6-2.3-6,4.38-6Z"></path><path class="cls-2" d="M2024.28,382.67c-.93-.74-.46-1.79-.46-2.68q-.06-32,0-63.95c0-2.16-.82-5.33,2.93-5,3,.26,7-2.29,8.46,3.27,2.87,11.14,8.64,20.49,18.5,26.91,1.6,1,2.16,1.95.2,3.26-14,9.36-23.57,22.21-29.15,38.06C2024.73,382.62,2024.47,382.63,2024.28,382.67Z"></path><path class="cls-2" d="M1894.81,472.9a85.09,85.09,0,0,0,35.55-6.85c3.54-1.46,4-1.06,3.63,2.84-1.35,14.11-10.77,20.34-23.13,22.95-5.6,1.17-11.18.68-16.77,0-2.07-.25-3.93-.73-4.25-3.33a30.93,30.93,0,0,0-4.28-12.13c-1.84-3.11-.46-3.66,2.42-3.51C1890.63,473,1893.3,472.9,1894.81,472.9Z"></path><path class="cls-2" d="M1739.56,393.2c-22.14,7.52-44.51,11.4-67.6,3.87a6.14,6.14,0,0,1-1-.29c-2-1.06-5.74-1.42-5.3-3.63.5-2.53,4-1.12,6.17-1.13,20.95-.12,41.9-.08,62.85-.08h4.83Z"></path><path class="cls-2" d="M2129.42,308c6,1,11.95,1.24,17.46,3.91s8.5,7.06,9.47,13.07c.39,2.45-.5,3-2.65,2.71A195.39,195.39,0,0,0,2125,326c-2.79.08-4.13-.26-2.61-3.52a34.89,34.89,0,0,0,3.45-11.36C2126.06,308.79,2127.37,307.9,2129.42,308Z"></path><path class="cls-2" d="M2372.08,403.6a13,13,0,0,1-8.49,3.27,117.84,117.84,0,0,1-21.32-.95c-2.15-.34-3.21-1.24-3.57-3.38-.46-2.76-1.17-5.48-1.9-8.79C2349,395.61,2360,399.83,2372.08,403.6Z"></path><path class="cls-2" d="M2343.34,309.68c6.32-3.88,12.85-4.25,19.44-3.45,2.81.34,5.72,6.65,4.66,9.39-.69,1.76-2.12,1.26-3.37.86C2357.15,314.24,2350.25,312,2343.34,309.68Z"></path><path class="cls-4" d="M780.07,209.94c-.05,17-.15,34-.16,51,0,48.82.06,97.65-.12,146.47,0,4.27,1.15,5.15,5.23,5.12q37.74-.3,75.49,0c3.7,0,4.83-.86,4.74-4.68-.26-11.82,0-23.66-.16-35.49,0-3.07.91-4,4-4q21.74.19,43.49,0c3.1,0,3.94,1,3.93,4q-.15,42,0,84c0,3.36-1.11,4.14-4.28,4.14q-108.74-.12-217.47,0c-2.83,0-4.1-.4-4-3.72.2-13.5.18-27,0-40.49,0-3.07.79-4,3.88-3.9,9.33.2,18.66,0,28,.12,3,0,4.36-.35,4.36-4q-.2-103.47,0-207c0-2.81-.7-3.69-3.58-3.64-9.5.18-19-.07-28.5.14-3.23.08-4.17-.78-4.14-4.09.17-14.66.05-29.32,0-44,1.38-.86,2.92-.47,4.39-.47,40.16,0,80.31,0,120.47-.12,4.15,0,5.32,1.05,5.23,5.22-.27,13-.22,26,0,39,.05,3.43-.75,4.56-4.35,4.47-10.83-.24-21.66,0-32.49-.16-3.26-.07-4.46.8-4.08,4.1C780.15,204.59,780,207.28,780.07,209.94Z"></path><path class="cls-2" d="M958.69,480.15c-.18-.19-.56-.48-.51-.56.34-.7.63-.23.91.1C959,479.84,958.82,480,958.69,480.15Z"></path><path class="cls-5" d="M304.57,584.89C151.9,585.86,19.24,458.24,24,295.08,28.28,150.44,148.28,20.36,312.18,24.17c147.27,3.42,276.29,124.19,273.51,286C583.12,460.08,460.42,585.15,304.57,584.89Zm-.35-542.42C159.68,42.66,44.3,159.25,42.44,300.56,40.51,447.64,158.87,566.1,304.26,566,449.14,565.86,564.15,448.71,566,307.29,567.91,161,449.7,42.52,304.22,42.47Z"></path><path class="cls-1" d="M1952.63,351c0,12.15,0,24.3,0,36.45,0,1.77.4,3.58-1.22,5.1-19.91,18.78-47.13,25.74-72.6,12.92-17.17-8.64-24.76-24.06-26.7-42.4-1.56-14.73-.51-29.24,6.63-42.75,8.41-15.93,22-24,39.46-26A72.62,72.62,0,0,1,1949.29,307a7,7,0,0,1,3.42,6.52C1952.52,326,1952.63,338.49,1952.63,351Zm-18.79,1.36c0-9.16-.22-18.33.09-27.48.14-4.08-1.61-5.94-5-7.45A55,55,0,0,0,1900.6,313c-12.79,1.38-22.65,7.21-27.38,20-4.17,11.27-4.4,22.71-1.74,34.29,2,8.57,5.89,16.17,13.65,20.66,14.84,8.58,29.7,8.2,44.32-1,3.17-2,4.58-4.26,4.47-8.09C1933.66,370,1933.84,361.16,1933.84,352.33Z"></path><path class="cls-4" d="M1160.6,363.94c-1-19.64,2-38.54,11.1-56.11,16.51-31.88,42.78-50.81,78-56.85,27.35-4.69,54-1.6,78.35,12.24,31,17.6,47.57,45.07,51.86,80.16,3.87,31.57-4.3,59.7-24.8,84.06-10.46,12.43-23.51,21.48-38.37,28-26,10.17-52.55,11.89-79.32,4.5-34.24-9.44-57.44-31.36-70.4-64.45C1163,385.23,1161.44,374.71,1160.6,363.94ZM1207,392.43c.58,7.29,1.1,14.57,4.63,21.26,2.62,4.95,6.57,7.46,12.09,7.18,5-.26,10-.38,14.9-1.42,13.56-2.93,26.37-1.91,38.49,5.38a55,55,0,0,0,13.81,5.62,12.83,12.83,0,0,0,11.76-2.26c7-5.25,9.7-12.71,11.46-20.9,1.49-7-.09-12.36-5.86-16.7-6.63-5-10.63-11.65-12.58-19.78s-4.52-16.36-9.43-23.46c-6.83-9.9-15.85-13.24-25.79-9.05-19.47,8.2-35.11,21.44-48.09,37.9C1208.74,380.86,1206.58,386.27,1207,392.43Zm139.72-38.56c-.23-5-.72-9.4-2.34-13.65-1-2.64-3.31-3.73-4.71-1.21-4.1,7.38-11.54,10.2-18,14.47-5.32,3.53-8,8.74-8.56,15a15.13,15.13,0,0,0,9.25,14.6c5.91,2.29,13.87-.06,17.79-5.53C1345.36,370.37,1346.06,361.88,1346.74,353.87Zm-137.93-38.11a29.23,29.23,0,0,0,6.78,20.45c4.5,5.3,9.77,5.84,15.46,2,10.92-7.42,10.62-21.78-.8-30.05-5.13-3.71-10.39-7.2-13.35-13.07-.67-1.32-1.67-2.13-3.18-1.79s-1.89,1.65-2.25,3A73.31,73.31,0,0,0,1208.81,315.76Zm69.87-6.11a39.49,39.49,0,0,0-2.74-11.7c-1.67-4.14-3.73-8.16-4.26-12.7-.21-1.76,0-3.83-2.13-4.66-2.4-.94-3.6,1.05-5,2.3a20.67,20.67,0,0,0-2.5,2.45c-7.21,8.78-13.26,18.06-11.14,30.23a14.54,14.54,0,0,0,13.3,12.23c5.09.5,10.46-3.71,12.83-10A27.5,27.5,0,0,0,1278.68,309.65Zm42.52,10.81c0-10.19-3.2-18.09-6.51-25.89-1.32-3.11-3.78-2.74-5.16,0-2.91,5.75-7.41,10.21-11.47,15a23.85,23.85,0,0,0-5.92,12.95c-.75,6.78,3,13,9.08,15,7,2.34,12.86.17,16.69-6.17A21.77,21.77,0,0,0,1321.2,320.46Z"></path><path class="cls-4" d="M968.34,278.11c14.39-13.52,31.07-23,50.54-26.48,35.24-6.21,68.18-1.66,95.32,24.12,17,16.12,24.67,36.77,26.59,59.73.57,6.78.43,13.63.61,20.45l-.21,3-.06,1c-1.57,13.86-1.57,13.86-15.58,13.86l-129.43,0h-6c3,13.64,9.5,24.54,20.43,32.68,14.79,11,32,13.43,49.7,13.13a134.76,134.76,0,0,0,50-10.62c4.38-1.82,6-.71,7.35,3.42,3.2,9.61,6.66,19.13,10.28,28.59,1.14,3,.4,4.19-2.27,5.62-21,11.29-43.79,15.32-67.28,16.21-24.69.93-48.4-2.84-70.18-15.37-27.77-16-43.94-40.1-49-71.46-5.18-31.78,1.18-61.08,20.2-87.52C962,284.6,965.68,281.87,968.34,278.11Zm72.48,60.32c15.47,0,30.94-.05,46.41,0,2.65,0,4-.38,3.5-3.52-1.14-7.42-2.8-14.65-6.5-21.29-10.55-18.91-33.21-25.67-54.7-21.15-20.12,4.23-35.2,21.43-38.49,42.4-.49,3.16.66,3.58,3.36,3.56C1009.88,338.38,1025.35,338.43,1040.82,338.43Z"></path><path class="cls-3" d="M1100.93,392.25c-24.26,11.3-66,11.86-76.34,0Z"></path><path class="cls-3" d="M1141.13,359.91l.06-1a3.19,3.19,0,0,1,.21.71C1141.41,359.71,1141.23,359.82,1141.13,359.91Z"></path><path class="cls-1" d="M2174.38,392.56c0,3-.42,6.06.08,9,1,5.7-1.76,8.81-6.29,11.52-14.84,8.88-30.55,14.38-48.13,13.9-15.36-.41-26.52-8.76-28.15-21.59-1.87-14.77,6.37-27,21-31.42,13.58-4.11,27.33-3,41.08-1.53,5.45.58,10.81,1.92,16.26,2.48,3.54.36,4.35,2,4.17,5.19C2174.2,384.23,2174.38,388.4,2174.38,392.56Zm-39.07-3.64a54.85,54.85,0,0,0-6.75,0c-5.55.76-11.34.92-15.67,5.33-2.22,2.26-3.67,4.74-2.76,8,1,3.59,3.83,5,7.08,5.39,13.28,1.5,25.28-2.5,36.66-8.9,2.82-1.59,2-4.36,1.79-6.73-.21-2.72-2.55-2.23-4.25-2.14C2145.73,390.28,2140.23,388.16,2135.31,388.92Z"></path><path class="cls-1" d="M1680.66,338.41c-15.31,0-30.63-.09-45.94.06-3.31,0-4.33-.77-3.75-4.2,6.44-38.4,51.32-56.52,82.19-33.11,11.45,8.68,15.78,21,17.39,34.61.43,3.63-2.24,2.59-3.94,2.6C1711.3,338.43,1696,338.4,1680.66,338.41Zm1.06-18.53c6.47,0,12.94,0,19.41,0,1.15,0,2.54.08,2.9-1.31.29-1.07-.76-1.78-1.5-2.4a21.75,21.75,0,0,0-3.57-2.63c-8.3-4.53-17.24-4.43-26.14-2.95-4.18.7-8.38,2.19-11.54,5.43-.76.78-2.14,1.44-1.56,2.79s2,1.07,3.09,1.08Q1672.28,319.91,1681.72,319.88Z"></path><path class="cls-4" d="M304.22,42.47C449.7,42.52,567.91,161,566,307.29,564.15,448.71,449.14,565.86,304.26,566,158.87,566.1,40.51,447.64,42.44,300.56,44.3,159.25,159.68,42.66,304.22,42.47Zm94,361.19c1,.62,2,1.18,2.87,1.89,24.91,19.51,49.84,39,74.63,58.64,3.06,2.43,4.68,2.25,7-.76,4.14-5.42,8.53-10.67,13-15.78,2.41-2.72,2.29-4.18-.69-6.58-19.69-15.91-39.1-32.17-58.76-48.1-9-7.29-17.48-15.26-27.18-21.68l-.05,0c1.84-2.06,3.25.07,4.56.69q48.54,22.62,97,45.51c3,1.41,4.18,1.1,5.46-1.9,2.79-6.57,5.76-13.08,9-19.44,1.6-3.15.92-4.41-2.19-5.84-25.35-11.68-50.61-23.53-75.9-35.34L422.24,343.4c2.27-.9,3.68-.36,5.08-.1q52.71,10,105.38,20.07c2.19.42,3.22.53,3.65-2.11,1.32-8,2.88-16,4.42-24,.47-2.45-.6-3-2.85-3.42-19.64-3.53-39.25-7.21-58.88-10.83-17.09-3.16-34.18-6.3-51.49-9.48,1-1.54,2.33-1.24,3.36-1.31Q461,310,491.18,307.93c15.78-1.1,31.54-2.31,47.33-3.2,3.75-.22,4.59-1.54,4.51-5.11-.15-7.33-.92-14.61-1.46-21.9-.21-2.94-1.35-3.92-4.42-3.56-5.78.68-11.61.92-17.43,1.3Q472.44,278.6,425,281.7c1.16-2,3.22-1.92,4.84-2.45q51-16.47,102-32.7c3.44-1.09,3.86-2.57,3-5.63q-2.86-10.59-6.72-20.85c-1.12-3-2.49-3.69-5.48-3-18.13,4.22-36.3,8.31-54.46,12.42-8.59,1.94-17.2,3.82-25.8,5.73a9.82,9.82,0,0,1,3.79-3.52q31.89-20,63.82-40c2.58-1.6,3.49-2.86,1.55-5.71-4.21-6.17-8.18-12.52-12.13-18.87-1.55-2.51-2.84-3.12-5.8-1.5q-32.76,18-65.79,35.51c-2.93,1.56-3.7,3.2-2.61,6.25,4,11.19,3.73,22.78,3.68,34.49-.06,13.82-5.87,23.46-17.65,30-3.77,2.11-7.3,4.65-11.09,6.71-7.32,4-12,9.82-13.61,18.07-.77,4-1.59,8-2.48,12.47-2.62-2.08-4.75-3.89-7-5.51-1.29-.93-2.81-2.52-4.43-1.31-1.82,1.36-.2,3.17.44,4.5,3.44,7.18,7.38,14.12,10.12,21.64a76,76,0,0,1,3.21,38.89C381.69,396.11,361,405,332.88,399.94c-17.62-3.19-32.32-26.2-14.76-45.21,8.12-8.79,16.65-16.72,28.11-20.93,3.27-1.2,6.63-2.58,7.72-6.45.73-2.61,3-6,.35-7.78-2.41-1.66-4.07,2-5.86,3.49-2.22,1.9-3.58,3.47-4.84-1.07-1.16-4.15-4.53-6.58-9.32-5.27a85.84,85.84,0,0,0-11.43,3.51,46.9,46.9,0,0,1-35,1.31,57.64,57.64,0,0,0-9.22-2.13c-5.72-1-10.23,2.3-11.48,8.45-1.61-1.72-3-3.29-4.53-4.78-.83-.83-1.91-1.65-3.06-.75s-.71,2.12-.16,3.19c.68,1.33,1.46,2.61,2.16,3.93,4.77,9,12.43,15.06,20.94,20.18a36.71,36.71,0,0,1,15.26,18.52c2.49,6.26,2.8,12.85-1.36,18.62-11.53,16-27.29,24.37-47,25.3-4.07.19-6.83-1.57-9-5.08a130.35,130.35,0,0,1-14.25-31.73c-3-10.41-3.84-21.11-.72-31.55,4.09-13.69,9-27.1,16.84-39.25,1.3-2,3-3.9,3.5-6.46-5.78,0-8.08,1.42-16.63,10.29-5.77-12.11-15.07-21-25.44-29-3-2.34-5.81-5-8.71-7.49a21,21,0,0,1-7.25-13.27c-1.77-12.1-.44-24.27-1-36.4a52.1,52.1,0,0,1,2.26-18.25c.85-2.64.26-3.67-2.16-4.77q-36.33-16.38-72.55-33c-2.75-1.26-4.21-1.19-5.84,1.71q-5.37,9.57-11.54,18.66c-2,3-1.4,4.19,1.47,6q33.34,20.57,66.48,41.44c1.35.84,3.05,1.29,3.87,2.93-1.42.47-2.64,0-3.92-.34-26.26-6-52.53-11.91-78.76-18-2.85-.66-4.21-.29-5.07,2.61-2.12,7.16-4.36,14.3-6.8,21.36-1.14,3.31-.09,4.54,3.09,5.56,25.61,8.23,51.17,16.63,76.74,25,8.14,2.66,16.25,5.4,24.37,8.1-12.7.07-25.17-.52-37.63-1.19-22.76-1.22-45.53-2.41-68.29-3.8-3.54-.21-5.15.66-5.32,4.33-.33,7.48-1.51,14.89-1.3,22.42.06,2.5,1,2.91,3.23,3q38.89,1.95,77.77,4.11c12.31.67,24.61,1.39,36.92,2.08-8.93,2.39-17.87,4.15-26.82,5.89-28.08,5.45-56.15,10.94-84.25,16.26-3.39.64-4.36,1.9-3.62,5.22,1.53,6.81,3,13.65,4.09,20.54.63,3.92,2.39,4.63,6,3.9q42.32-8.46,84.69-16.67c7.83-1.54,15.69-2.94,24.29-4.55-1.57,2.35-3.3,2.62-4.74,3.29-31.56,14.85-63.09,29.77-94.76,44.38-4.47,2.05-5,3.88-2.75,7.92a168.49,168.49,0,0,1,8.61,17.41c1.65,4,3.52,3.62,6.74,2.09q48.12-22.93,96.37-45.64c1-.46,2-1.6,3.71-.51-1.11.94-2,1.69-2.85,2.42q-41,34.31-82.06,68.54c-2.56,2.12-3.15,3.49-.78,6.17q6.93,7.86,13.29,16.22c2.41,3.17,4.11,2.81,7,.41q40.31-34,80.84-67.66c1.25-1,2.34-2.52,4.81-2.88-1.05,1.54-1.67,2.5-2.34,3.43q-31.44,43.5-63,86.95c-2,2.77-2,4.24.83,6.2,6,4.15,12,8.44,17.74,12.92,2.71,2.11,4,1.28,5.87-1.14q23-30.21,46.17-60.27c1.82-2.37,3.68-4.71,5.52-7.07a8.45,8.45,0,0,1-.52,4.69c-8.92,25.2-17.8,50.41-26.82,75.57-1.09,3-.87,4.55,2.43,5.92,6.9,2.87,13.89,5.48,20.87,8.13,2.89,1.09,4.06.52,5.33-2.08,8.61-17.61,17.34-35.17,26-52.73.52-1.06.43-2.63,2.37-2.9-.63,20.91-1.19,41.7-2,62.49-.11,2.73.4,3.78,3.24,4.21,7.73,1.19,15.47,2.24,23.25,3,3.52.37,4.95-.81,6-4,4-11.87,8.27-23.64,12.76-36.34,4.63,13,9,24.95,13.15,37,.92,2.68,2,3.56,4.93,3.32,8.14-.66,16.2-1.78,24.25-3.11,2.26-.37,3.13-1.06,2.95-3.46-.89-11.78-1.66-23.57-2.43-35.36-.68-10.55-1.3-21.1-1.95-31.65a30.09,30.09,0,0,1,4.44,6.81c8.76,17.35,17.56,34.68,26.18,52.1,1.44,2.92,2.75,3.82,6,2.53,6.63-2.63,13.35-5,19.94-7.82,3.48-1.47,4.15-2.88,2.74-6.52-10.62-27.59-21-55.26-31.39-82.93-.56-1.48-1.8-3-1-5.43,1.37,1.74,2.4,3,3.38,4.31q26.85,35.44,53.62,70.93c2,2.61,3.38,2.95,5.95,1,5.54-4.26,11.16-8.42,16.94-12.33,3.27-2.21,3.66-3.78,1.15-7.24-19.16-26.4-38-53-57-79.54Zm-92.1-239.61c9.9-15.63,24.64-20.21,41.81-19,8.84.63,17.2,3.71,25.65,6.19,3.58,1.05,6,.25,8.37-2.4a94.29,94.29,0,0,0,10.16-13.57c2.7-4.44,6.73-5.82,11.53-5a39.5,39.5,0,0,1,8.57,2.56c2.51,1.06,3.85,1.22,5.29-1.74,4.21-8.65,8.8-17.13,13.38-25.6,1.12-2.07.88-3.14-1.23-4.26-6.9-3.65-13.77-7.36-20.52-11.28-2.65-1.54-3.86-.86-5.51,1.5-8.9,12.67-18,25.2-27.06,37.74-1,1.34-1.58,3.15-3.83,3.82.26-2.9.46-5.38.71-7.86,1.5-14.74,2.94-29.48,4.59-44.2.32-2.88-.42-4.19-3.27-4.82-7.63-1.68-15.25-3.46-22.79-5.5-2.6-.7-3.43,0-4.25,2.38-3.13,9.1-6.5,18.13-9.78,27.18l-11.34,31.25a11.34,11.34,0,0,1-1.49-5c-1.78-18.73-3.61-37.45-5.25-56.18-.28-3.27-1.34-4.38-4.76-4.58-7.84-.45-15.63.17-23.45.24-2.33,0-2.64,1.06-2.79,3-.55,7-1.26,13.93-1.92,20.89l-4.2,44.3a16.46,16.46,0,0,1-2.79-5.37C273.71,110.82,267.35,93,261.42,75c-1.39-4.22-3.17-5.29-7.26-4-5.24,1.6-10.64,2.67-15.91,4.19-8,2.3-8,2.37-7.31,10.86.14,1.83.39,3.64.58,5.46,1.4,13.26,2.81,26.52,4.24,40.09-2.13-.92-2.8-2.53-3.79-3.81Q218,109.55,204,91.28c-1.21-1.59-2-3.25-4.68-1.56-6.6,4.16-13.4,8-20.22,11.84-2.49,1.39-2.59,2.66-1.27,5q7.68,14,14.94,28.17c1.11,2.19,1.85,2.47,4,1.37a45.6,45.6,0,0,1,18.56-5.35,8.52,8.52,0,0,1,8.35,4.31,100.91,100.91,0,0,1,7.36,14.14c.84,2,1.35,3.22,4.18,1.73,12.1-6.34,25.19-7.12,38.42-5.44S297.15,154.32,306.09,164.05Zm30.8,86.24c.07,1.31.05,2.82.27,4.29s.4,3.1,2.11,3.65a3.33,3.33,0,0,0,3.91-1.54c1.9-3.44,5.31-3.7,8.45-4.54,5.61-1.5,11.19-3.15,16.88-4.24a25.53,25.53,0,0,0,17.81-12.3c1.69-2.77,3.6-4.51,7.2-3.58a4,4,0,0,0,5-2.35c1.14-2.48-1.07-3.16-2.36-4.25-15-12.58-31.41-12.46-48.56-5.31a11.16,11.16,0,0,0-6.86,7.94A133.93,133.93,0,0,0,336.89,250.29ZM233.83,178.81c-7.18-.17-13,.76-18.49,3.56a16.35,16.35,0,0,0-9.11,12.87c-.86,6.1,3,9.08,8.73,6.92,3.25-1.24,6.43-2.68,9.73-3.77,10.84-3.61,18.27-1.49,25.79,7.24,3.26,3.77,6.42,7.63,9.7,11.37,4.23,4.83,9.59,6.23,15.78,5.07,3.39-.63,6.94-1.51,7.71-5.25.82-4-2.54-6.25-5.53-7.36-9.93-3.66-16.59-11.07-22.14-19.36C250.24,181.5,242.61,178.15,233.83,178.81Zm9,40.86c-8.62-.07-19.69,4.41-25.75,10.45-1,1-1.85,2-1.29,3.47s1.78,2.79,3.38,2.41c4.28-1,7.23,1,10.11,3.68,1.28,1.18,3,1.25,4.67,1.44,8.85,1,16.95,3.43,22,11.7A6.39,6.39,0,0,0,261.8,256c2.58-.14,4.5.54,5.86,2.84.88,1.49,2.34,1.75,3.93,1.12s1.57-2,1.47-3.36c-.3-4.14-.59-8.29-1-12.43-1.72-18-5-21.39-22.79-24.08C247.15,219.81,245,219.82,242.81,219.67Zm204-46.17c10.52-10.52,19.93-19.92,29.3-29.36,1.14-1.14,3.29-2,1-4.27-6.06-5.93-12-11.92-18.74-17.15-1.41-1.1-2.24-1.32-3.68-.07-7.65,6.65-15.37,13.2-23.11,19.74-1.33,1.13-2.09,1.86-.29,3.39C439.64,152.83,446.73,160.72,446.78,173.5Zm-284.43-1.24c3.27-8.75,8.79-15.35,14.72-21.62,1.89-2,2.07-3.18-.07-5.11-8-7.22-15.91-14.58-23.78-22-1.27-1.18-2-1.72-3.57-.23-6.08,5.89-12.28,11.65-18.5,17.39-1.1,1-1.31,1.64-.12,2.73C141.41,153,151.76,162.51,162.35,172.26Zm207.36,10.47c-15.74-2.82-26,11.24-38.79,19.92-3.14,2.14-2.85,6.48-.39,9.48s4.82.17,6.83-1.23a85.47,85.47,0,0,1,30.81-13.54c11.43-2.54,21.38,1.5,27.44,11.47,1.79,2.95,2.92,6.31,4.38,9.46.44,1,.36,2.61,2,2.27,1.18-.24,1-1.55,1.1-2.52A31.7,31.7,0,0,0,402,206.21C395.84,185.39,390.3,183.09,369.71,182.73Z"></path><path class="cls-2" d="M1933.84,352.33c0,8.83-.18,17.66.08,26.48.11,3.83-1.3,6.09-4.47,8.09-14.62,9.23-29.48,9.61-44.32,1-7.76-4.49-11.69-12.09-13.65-20.66-2.66-11.58-2.43-23,1.74-34.29,4.73-12.74,14.59-18.57,27.38-20a55,55,0,0,1,28.28,4.37c3.44,1.51,5.19,3.37,5,7.45C1933.62,334,1933.84,343.17,1933.84,352.33Z"></path><path class="cls-3" d="M1207,392.43c-.44-6.16,1.72-11.57,5.39-16.23,13-16.46,28.62-29.7,48.09-37.9,9.94-4.19,19-.85,25.79,9.05,4.91,7.1,7.46,15.21,9.43,23.46s6,14.8,12.58,19.78c5.77,4.34,7.35,9.74,5.86,16.7-1.76,8.19-4.47,15.65-11.46,20.9a12.83,12.83,0,0,1-11.76,2.26,55,55,0,0,1-13.81-5.62c-12.12-7.29-24.93-8.31-38.49-5.38-4.85,1-9.92,1.16-14.9,1.42-5.52.28-9.47-2.23-12.09-7.18C1208.12,407,1207.6,399.72,1207,392.43Z"></path><path class="cls-3" d="M1346.74,353.87c-.68,8-1.38,16.5-6.55,23.71-3.92,5.47-11.88,7.82-17.79,5.53a15.13,15.13,0,0,1-9.25-14.6c.51-6.29,3.24-11.5,8.56-15,6.44-4.27,13.88-7.09,18-14.47,1.4-2.52,3.71-1.43,4.71,1.21C1346,344.47,1346.51,348.91,1346.74,353.87Z"></path><path class="cls-3" d="M1208.81,315.76a73.31,73.31,0,0,1,2.66-19.52c.36-1.32.74-2.64,2.25-3s2.51.47,3.18,1.79c3,5.87,8.22,9.36,13.35,13.07,11.42,8.27,11.72,22.63.8,30.05-5.69,3.87-11,3.33-15.46-2A29.23,29.23,0,0,1,1208.81,315.76Z"></path><path class="cls-3" d="M1278.68,309.65a27.5,27.5,0,0,1-1.69,8.14c-2.37,6.3-7.74,10.51-12.83,10a14.54,14.54,0,0,1-13.3-12.23c-2.12-12.17,3.93-21.45,11.14-30.23a20.67,20.67,0,0,1,2.5-2.45c1.45-1.25,2.65-3.24,5-2.3,2.15.83,1.92,2.9,2.13,4.66.53,4.54,2.59,8.56,4.26,12.7A39.49,39.49,0,0,1,1278.68,309.65Z"></path><path class="cls-3" d="M1321.2,320.46a21.77,21.77,0,0,1-3.29,10.87c-3.83,6.34-9.67,8.51-16.69,6.17-6.09-2-9.83-8.2-9.08-15a23.85,23.85,0,0,1,5.92-12.95c4.06-4.81,8.56-9.27,11.47-15,1.38-2.72,3.84-3.09,5.16,0C1318,302.37,1321.17,310.27,1321.2,320.46Z"></path><path class="cls-3" d="M1040.82,338.43c-15.47,0-30.94-.05-46.42,0-2.7,0-3.85-.4-3.36-3.56,3.29-21,18.37-38.17,38.49-42.4,21.49-4.52,44.15,2.24,54.7,21.15,3.7,6.64,5.36,13.87,6.5,21.29.48,3.14-.85,3.54-3.5,3.52C1071.76,338.38,1056.29,338.43,1040.82,338.43Z"></path><path class="cls-2" d="M2135.31,388.92c4.92-.76,10.42,1.36,16.1,1,1.7-.09,4-.58,4.25,2.14.18,2.37,1,5.14-1.79,6.73-11.38,6.4-23.38,10.4-36.66,8.9-3.25-.37-6.09-1.8-7.08-5.39-.91-3.3.54-5.78,2.76-8,4.33-4.41,10.12-4.57,15.67-5.33A54.85,54.85,0,0,1,2135.31,388.92Z"></path><path class="cls-2" d="M1681.72,319.88q-9.45,0-18.91,0c-1.14,0-2.54.17-3.09-1.08s.8-2,1.56-2.79c3.16-3.24,7.36-4.73,11.54-5.43,8.9-1.48,17.84-1.58,26.14,2.95a21.75,21.75,0,0,1,3.57,2.63c.74.62,1.79,1.33,1.5,2.4-.36,1.39-1.75,1.31-2.9,1.31C1694.66,319.9,1688.19,319.88,1681.72,319.88Z"></path><path class="cls-5" d="M409.08,371.29c9.7,6.42,18.18,14.39,27.18,21.68,19.66,15.93,39.07,32.19,58.76,48.1,3,2.4,3.1,3.86.69,6.58-4.52,5.11-8.91,10.36-13,15.78-2.29,3-3.91,3.19-7,.76-24.79-19.66-49.72-39.13-74.63-58.64-.9-.71-1.91-1.27-2.87-1.89-.33-.24-.8-.74-1-.66-.85.46-.2.95.09,1.41,19,26.54,37.85,53.14,57,79.54,2.51,3.46,2.12,5-1.15,7.24-5.78,3.91-11.4,8.07-16.94,12.33-2.57,2-4,1.63-5.95-1Q403.61,467,376.67,431.61c-1-1.3-2-2.57-3.38-4.31-.8,2.45.44,3.95,1,5.43,10.38,27.67,20.77,55.34,31.39,82.93,1.41,3.64.74,5.05-2.74,6.52C396.35,525,389.63,527.37,383,530c-3.26,1.29-4.57.39-6-2.53-8.62-17.42-17.42-34.75-26.18-52.1a30.09,30.09,0,0,0-4.44-6.81c.65,10.55,1.27,21.1,1.95,31.65.77,11.79,1.54,23.58,2.43,35.36.18,2.4-.69,3.09-2.95,3.46-8.05,1.33-16.11,2.45-24.25,3.11-2.91.24-4-.64-4.93-3.32-4.14-12.08-8.52-24.07-13.15-37-4.49,12.7-8.76,24.47-12.76,36.34-1.08,3.19-2.51,4.37-6,4-7.78-.81-15.52-1.86-23.25-3-2.84-.43-3.35-1.48-3.24-4.21.77-20.79,1.33-41.58,2-62.49-1.94.27-1.85,1.84-2.37,2.9-8.71,17.56-17.44,35.12-26,52.73-1.27,2.6-2.44,3.17-5.33,2.08-7-2.65-14-5.26-20.87-8.13-3.3-1.37-3.52-2.89-2.43-5.92,9-25.16,17.9-50.37,26.82-75.57a8.45,8.45,0,0,0,.52-4.69c-1.84,2.36-3.7,4.7-5.52,7.07Q203.81,473,180.75,503.12c-1.84,2.42-3.16,3.25-5.87,1.14-5.78-4.48-11.72-8.77-17.74-12.92-2.84-2-2.85-3.43-.83-6.2q31.6-43.38,63-86.95c.67-.93,1.29-1.89,2.34-3.43-2.47.36-3.56,1.84-4.81,2.88Q176.33,431.42,136,465.3c-2.85,2.4-4.55,2.76-7-.41q-6.34-8.34-13.29-16.22c-2.37-2.68-1.78-4.05.78-6.17q41.13-34.15,82.06-68.54c.88-.73,1.74-1.48,2.85-2.42-1.71-1.09-2.73,0-3.71.51q-48.23,22.76-96.37,45.64c-3.22,1.53-5.09,1.87-6.74-2.09A168.49,168.49,0,0,0,86,398.19c-2.26-4-1.72-5.87,2.75-7.92,31.67-14.61,63.2-29.53,94.76-44.38,1.44-.67,3.17-.94,4.74-3.29-8.6,1.61-16.46,3-24.29,4.55q-42.36,8.27-84.69,16.67c-3.64.73-5.4,0-6-3.9-1.11-6.89-2.56-13.73-4.09-20.54-.74-3.32.23-4.58,3.62-5.22,28.1-5.32,56.17-10.81,84.25-16.26,8.95-1.74,17.89-3.5,26.82-5.89-12.31-.69-24.61-1.41-36.92-2.08q-38.88-2.1-77.77-4.11c-2.24-.11-3.17-.52-3.23-3-.21-7.53,1-14.94,1.3-22.42.17-3.67,1.78-4.54,5.32-4.33,22.76,1.39,45.53,2.58,68.29,3.8,12.46.67,24.93,1.26,37.63,1.19-8.12-2.7-16.23-5.44-24.37-8.1-25.57-8.37-51.13-16.77-76.74-25-3.18-1-4.23-2.25-3.09-5.56,2.44-7.06,4.68-14.2,6.8-21.36.86-2.9,2.22-3.27,5.07-2.61,26.23,6.1,52.5,12,78.76,18,1.28.29,2.5.81,3.92.34-.82-1.64-2.52-2.09-3.87-2.93Q131.72,213,98.43,192.39c-2.87-1.77-3.48-3-1.47-6q6.17-9.08,11.54-18.66c1.63-2.9,3.09-3,5.84-1.71q36.21,16.65,72.55,33c2.42,1.1,3,2.13,2.16,4.77a52.1,52.1,0,0,0-2.26,18.25c.54,12.13-.79,24.3,1,36.4A21,21,0,0,0,195,271.76c2.9,2.5,5.68,5.15,8.71,7.49,10.37,8,19.67,16.93,25.44,29C237.72,299.42,240,298,245.8,298c-.54,2.56-2.2,4.43-3.5,6.46-7.79,12.15-12.75,25.56-16.84,39.25-3.12,10.44-2.28,21.14.72,31.55A130.35,130.35,0,0,0,240.43,407c2.14,3.51,4.9,5.27,9,5.08,19.71-.93,35.47-9.3,47-25.3,4.16-5.77,3.85-12.36,1.36-18.62a36.71,36.71,0,0,0-15.26-18.52c-8.51-5.12-16.17-11.16-20.94-20.18-.7-1.32-1.48-2.6-2.16-3.93-.55-1.07-1-2.32.16-3.19s2.23-.08,3.06.75c1.5,1.49,2.92,3.06,4.53,4.78,1.25-6.15,5.76-9.41,11.48-8.45a57.64,57.64,0,0,1,9.22,2.13,46.9,46.9,0,0,0,35-1.31,85.84,85.84,0,0,1,11.43-3.51c4.79-1.31,8.16,1.12,9.32,5.27,1.26,4.54,2.62,3,4.84,1.07,1.79-1.53,3.45-5.15,5.86-3.49,2.64,1.82.38,5.17-.35,7.78-1.09,3.87-4.45,5.25-7.72,6.45-11.46,4.21-20,12.14-28.11,20.93-17.56,19-2.86,42,14.76,45.21,28.12,5.1,48.81-3.83,53.57-32.59a76,76,0,0,0-3.21-38.89c-2.74-7.52-6.68-14.46-10.12-21.64-.64-1.33-2.26-3.14-.44-4.5,1.62-1.21,3.14.38,4.43,1.31,2.27,1.62,4.4,3.43,7,5.51.89-4.46,1.71-8.46,2.48-12.47,1.58-8.25,6.29-14.08,13.61-18.07,3.79-2.06,7.32-4.6,11.09-6.71,11.78-6.59,17.59-16.23,17.65-30,.05-11.71.32-23.3-3.68-34.49-1.09-3-.32-4.69,2.61-6.25q33-17.55,65.79-35.51c3-1.62,4.25-1,5.8,1.5,3.95,6.35,7.92,12.7,12.13,18.87,1.94,2.85,1,4.11-1.55,5.71q-32,19.92-63.82,40a9.82,9.82,0,0,0-3.79,3.52c8.6-1.91,17.21-3.79,25.8-5.73,18.16-4.11,36.33-8.2,54.46-12.42,3-.7,4.36,0,5.48,3q3.87,10.27,6.72,20.85c.83,3.06.41,4.54-3,5.63q-51.06,16.14-102,32.7c-1.62.53-3.68.48-4.84,2.45q47.48-3.12,94.68-6.24c5.82-.38,11.65-.62,17.43-1.3,3.07-.36,4.21.62,4.42,3.56.54,7.29,1.31,14.57,1.46,21.9.08,3.57-.76,4.89-4.51,5.11-15.79.89-31.55,2.1-47.33,3.2Q461,310,430.91,312.18c-1,.07-2.35-.23-3.36,1.31,17.31,3.18,34.4,6.32,51.49,9.48,19.63,3.62,39.24,7.3,58.88,10.83,2.25.4,3.32,1,2.85,3.42-1.54,8-3.1,16-4.42,24-.43,2.64-1.46,2.53-3.65,2.11Q480,353.23,427.32,343.3c-1.4-.26-2.81-.8-5.08.1l24.68,11.54c25.29,11.81,50.55,23.66,75.9,35.34,3.11,1.43,3.79,2.69,2.19,5.84-3.23,6.36-6.2,12.87-9,19.44-1.28,3-2.49,3.31-5.46,1.9q-48.4-22.93-97-45.51c-1.31-.62-2.72-2.75-4.56-.69.37-.26.72-.53,1.07-.79l-.4-.3ZM250,435a27.8,27.8,0,0,0,1.54,4.07c6,11.19,13.67,21.22,24.64,27.59A80.32,80.32,0,0,1,302.6,491.1c2.4,3.5,4.06,3.76,6.22-.26,5.13-9.56,12.05-17.64,21.63-22.93,16.91-9.34,24.69-25.37,31.5-42.14,2.37-5.83.52-8.41-5.82-8.79-16.35-1-31.8-4.84-45.75-13.79a8.36,8.36,0,0,0-10.63.71c-13.44,11.52-28.42,20.15-45.54,24.9C251.4,429.59,250.24,431.57,250,435Zm171.71-92.44c-.07-.12-.12-.31-.22-.34s-.3.05-.46.08a2,2,0,0,0,.31.45S421.55,342.58,421.68,342.51Zm-49,84-.23-.33c-.1.08-.27.16-.28.26s.13.21.2.32ZM202.39,370.08l-.38.3c.11.12.21.33.33.34s.25-.18.38-.28Z"></path><path class="cls-5" d="M306.09,164.05c-8.94-9.73-19.26-16.84-32.38-18.51s-26.32-.9-38.42,5.44c-2.83,1.49-3.34.29-4.18-1.73a100.91,100.91,0,0,0-7.36-14.14,8.52,8.52,0,0,0-8.35-4.31,45.6,45.6,0,0,0-18.56,5.35c-2.19,1.1-2.93.82-4-1.37q-7.25-14.2-14.94-28.17c-1.32-2.39-1.22-3.66,1.27-5,6.82-3.8,13.62-7.68,20.22-11.84,2.68-1.69,3.47,0,4.68,1.56q14,18.25,27.94,36.49c1,1.28,1.66,2.89,3.79,3.81-1.43-13.57-2.84-26.83-4.24-40.09-.19-1.82-.44-3.63-.58-5.46-.67-8.49-.68-8.56,7.31-10.86,5.27-1.52,10.67-2.59,15.91-4.19,4.09-1.26,5.87-.19,7.26,4,5.93,18,12.29,35.81,18.5,53.69a16.46,16.46,0,0,0,2.79,5.37l4.2-44.3c.66-7,1.37-13.92,1.92-20.89.15-1.92.46-2.95,2.79-3,7.82-.07,15.61-.69,23.45-.24,3.42.2,4.48,1.31,4.76,4.58,1.64,18.73,3.47,37.45,5.25,56.18a11.34,11.34,0,0,0,1.49,5l11.34-31.25c3.28-9,6.65-18.08,9.78-27.18.82-2.38,1.65-3.08,4.25-2.38,7.54,2,15.16,3.82,22.79,5.5,2.85.63,3.59,1.94,3.27,4.82-1.65,14.72-3.09,29.46-4.59,44.2-.25,2.48-.45,5-.71,7.86,2.25-.67,2.87-2.48,3.83-3.82,9.07-12.54,18.16-25.07,27.06-37.74,1.65-2.36,2.86-3,5.51-1.5,6.75,3.92,13.62,7.63,20.52,11.28,2.11,1.12,2.35,2.19,1.23,4.26-4.58,8.47-9.17,17-13.38,25.6-1.44,3-2.78,2.8-5.29,1.74a39.5,39.5,0,0,0-8.57-2.56c-4.8-.82-8.83.56-11.53,5a94.29,94.29,0,0,1-10.16,13.57c-2.35,2.65-4.79,3.45-8.37,2.4-8.45-2.48-16.81-5.56-25.65-6.19C330.73,143.84,316,148.42,306.09,164.05Z"></path><path class="cls-5" d="M336.89,250.29a133.93,133.93,0,0,1,3.82-22.23,11.16,11.16,0,0,1,6.86-7.94c17.15-7.15,33.57-7.27,48.56,5.31,1.29,1.09,3.5,1.77,2.36,4.25a4,4,0,0,1-5,2.35c-3.6-.93-5.51.81-7.2,3.58a25.53,25.53,0,0,1-17.81,12.3c-5.69,1.09-11.27,2.74-16.88,4.24-3.14.84-6.55,1.1-8.45,4.54a3.33,3.33,0,0,1-3.91,1.54c-1.71-.55-1.89-2.2-2.11-3.65S337,251.6,336.89,250.29Z"></path><path class="cls-5" d="M233.83,178.81c8.78-.66,16.41,2.69,22.17,11.29,5.55,8.29,12.21,15.7,22.14,19.36,3,1.11,6.35,3.39,5.53,7.36-.77,3.74-4.32,4.62-7.71,5.25-6.19,1.16-11.55-.24-15.78-5.07-3.28-3.74-6.44-7.6-9.7-11.37-7.52-8.73-14.95-10.85-25.79-7.24-3.3,1.09-6.48,2.53-9.73,3.77-5.71,2.16-9.59-.82-8.73-6.92a16.35,16.35,0,0,1,9.11-12.87C220.81,179.57,226.65,178.64,233.83,178.81Z"></path><path class="cls-5" d="M242.81,219.67c2.16.15,4.34.14,6.47.46,17.83,2.69,21.07,6.12,22.79,24.08.4,4.14.69,8.29,1,12.43.1,1.35.09,2.73-1.47,3.36s-3,.37-3.93-1.12c-1.36-2.3-3.28-3-5.86-2.84a6.39,6.39,0,0,1-5.87-3.22c-5.05-8.27-13.15-10.67-22-11.7-1.67-.19-3.39-.26-4.67-1.44-2.88-2.66-5.83-4.7-10.11-3.68-1.6.38-2.8-.87-3.38-2.41s.29-2.47,1.29-3.47C223.12,224.08,234.19,219.6,242.81,219.67Z"></path><path class="cls-5" d="M446.78,173.5c0-12.78-7.14-20.67-15.53-27.72-1.8-1.53-1-2.26.29-3.39,7.74-6.54,15.46-13.09,23.11-19.74,1.44-1.25,2.27-1,3.68.07C465,128,471,133.94,477.07,139.87c2.3,2.25.15,3.13-1,4.27C466.71,153.58,457.3,163,446.78,173.5Z"></path><path class="cls-5" d="M162.35,172.26c-10.59-9.75-20.94-19.3-31.32-28.8-1.19-1.09-1-1.71.12-2.73,6.22-5.74,12.42-11.5,18.5-17.39,1.54-1.49,2.3-1,3.57.23,7.87,7.38,15.76,14.74,23.78,22,2.14,1.93,2,3.12.07,5.11C171.14,156.91,165.62,163.51,162.35,172.26Z"></path><path class="cls-5" d="M369.71,182.73c20.59.36,26.13,2.66,32.24,23.48A31.7,31.7,0,0,1,403.09,218c-.09,1,.08,2.28-1.1,2.52-1.64.34-1.56-1.32-2-2.27-1.46-3.15-2.59-6.51-4.38-9.46-6.06-10-16-14-27.44-11.47a85.47,85.47,0,0,0-30.81,13.54c-2,1.4-4.31,4.31-6.83,1.23s-2.75-7.34.39-9.48C343.67,194,354,179.91,369.71,182.73Z"></path><path class="cls-4" d="M250,435c.27-3.38,1.43-5.36,4.24-6.15,17.12-4.75,32.1-13.38,45.54-24.9a8.36,8.36,0,0,1,10.63-.71c13.95,8.95,29.4,12.83,45.75,13.79,6.34.38,8.19,3,5.82,8.79-6.81,16.77-14.59,32.8-31.5,42.14-9.58,5.29-16.5,13.37-21.63,22.93-2.16,4-3.82,3.76-6.22.26a80.32,80.32,0,0,0-26.45-24.49c-11-6.37-18.66-16.4-24.64-27.59A27.8,27.8,0,0,1,250,435Z"></path><path class="cls-4" d="M421.68,342.51c-.13.07-.33.22-.37.19a2,2,0,0,1-.31-.45c.16,0,.33-.12.46-.08S421.61,342.39,421.68,342.51Z"></path><path class="cls-4" d="M372.7,426.55l-.31.25c-.07-.11-.22-.23-.2-.32s.18-.18.28-.26Z"></path><path class="cls-4" d="M397.32,404.41c-.29-.46-.94-1-.09-1.41.16-.08.63.42,1,.66Z"></path><path class="cls-4" d="M409.08,371.29l.62-1.12.4.3c-.35.26-.7.53-1.07.79Z"></path><path class="cls-4" d="M202.39,370.08l.33.36c-.13.1-.26.29-.38.28s-.22-.22-.33-.34Z"></path></g></g></svg> 