<?xml version="1.0" encoding="UTF-8"?> <svg xmlns="http://www.w3.org/2000/svg" viewBox="0 0 399.77 99.47"><defs><style>.cls-1{fill:#02020e;}.cls-2{fill:#02020d;}.cls-3{fill:#d6292b;}.cls-4{fill:#d72f31;}.cls-5{fill:#d62d2e;}</style></defs><g id="Layer_2" data-name="Layer 2"><g id="Layer_1-2" data-name="Layer 1"><path class="cls-1" d="M399.77,5.57c-4.91,13.91-7.85,28.37-11.87,42.52-3.54,12.46-6.83,25-10,37.54-.89,3.52-2.47,5.06-6.17,4.88-4.65-.24-9.33-.21-14,0-3.09.14-4.72-1.11-6.21-3.79-7.12-12.78-14.46-25.43-21.8-38.07-.87-1.49-1.21-3.49-3.72-4.43-2.74,10.3-5.44,20.47-8.13,30.65a99.11,99.11,0,0,0-2.72,10.59c-.6,3.9-2.32,5.3-6.3,5.08-6.31-.34-12.65-.18-19-.16-3.51,0-4.28-1.15-2.15-4.11a61.59,61.59,0,0,0,11.69-43.74c-.24-2.37.64-4.56,1.26-6.8,2.75-9.92,5.55-19.82,8-29.8.85-3.37,2.44-4.7,5.87-4.56,6,.24,12.69-1.44,17.77.75s6.36,9.66,9.22,14.83C347.44,27.55,353,38.32,358.68,49c.06.12.27.17.5.31,1.54-.16,1.34-1.54,1.62-2.55,3.83-13.93,7.7-27.85,11.39-41.81.71-2.67,1.72-3.75,4.65-3.64,7.64.29,15.29.19,22.93.25Z"></path><path class="cls-1" d="M0,84.52c1.81-.85,1.61-2.7,2-4.21C8.68,55.48,15.38,30.66,21.88,5.79c.88-3.36,2.24-4.61,5.73-4.46,6.15.27,12.32.23,18.48,0,4.3-.14,5.53,1,4.26,5.52C44.88,26.36,39.78,46,34.53,65.51,32.87,71.69,33.09,72,39.44,72c13.15,0,26.3,0,39.45,0,5.72,0,6,.42,4.45,6.1C80,90.45,80,90.45,67.19,90.45H5.76c-2,0-4,.19-5.76-.93Z"></path><path class="cls-2" d="M130.93,90.45c-12,0-24-.07-36,0-3.76,0-5.54-.51-4.29-5.09C97.91,59,104.91,32.51,111.9,6c.86-3.25,2.47-4.67,5.9-4.66,22.32.09,44.64,0,67,.06,1.61,0,3.55-.39,4.24,1.7a4.42,4.42,0,0,1-1.23,4.56A8.49,8.49,0,0,0,185.92,10c-3.69,9.43-11.06,10.5-20,9.76-8.27-.68-16.65,0-25-.22-3.54-.11-5.07,1.28-5.82,4.53-3.06,13.34-5.37,12.54,9.56,12.47,8.32,0,16.65,0,25,0,3.64,0,4.61,1.29,3.72,4.92-3.24,13.14-3.14,13.16-16.56,13.16-8.5,0-17,.13-25.48-.06-3-.07-4.67.89-5.31,3.85a75.44,75.44,0,0,1-2.26,8.66c-1.47,4.24.32,5.36,4.24,5.33,14.49-.08,29,.08,43.47-.1,4.41-.06,5.52,1.28,4.42,5.59-3.21,12.54-3.09,12.57-16,12.57Z"></path><path class="cls-3" d="M238.06,30.83c3.84.4,9.54-1.88,12.78.9,2.95,2.52,3.48,8,4.77,12.29s4.94,9.23,3.39,13.08c-1.43,3.56-6.63,5.65-10.27,8.26s-7.59,7.18-11.48,7.28c-3.6.09-7.39-4.49-11-7.18s-9.46-4.56-10.54-8.57c-1-3.65,2-8.43,3.34-12.68C223.3,30.82,223.32,30.83,238.06,30.83Z"></path><path class="cls-4" d="M287,41.09c2,17.75-2.57,31.56-14.46,44.18C271.18,76.53,270,68.74,268.77,61a3,3,0,0,1,1.2-2.59Z"></path><path class="cls-5" d="M244.75,0c17.31,3.57,29.3,12,37.59,27.35C273.71,26,266,24.78,258.22,23.61a3.2,3.2,0,0,1-2.53-2.05C252.3,14.77,248.83,8,244.75,0Z"></path><path class="cls-5" d="M230.06.09c-4.12,8-7.64,14.77-11.07,21.58a3.58,3.58,0,0,1-3.15,2c-6.75,1-13.5,1.93-20.2,3.18-2.08.39-3.11.34-1.86-1.81C201.63,11.45,213.3,3.3,230.06.09Z"></path><path class="cls-4" d="M202.32,84.59c-11.26-9.19-18-29.93-13.69-42.88,5.68,5.87,11.07,11.45,16.47,17a3,3,0,0,1,.86,2.72C204.77,69.05,203.57,76.66,202.32,84.59Z"></path><path class="cls-5" d="M214.4,94.06c7.54-3.88,14.3-7.34,21-10.83,1.07-.56,2-1,3.23-.31,7,3.64,14.1,7.19,21.74,11.07C245,101.32,230.2,101.25,214.4,94.06Z"></path></g></g></svg> 