<?xml version="1.0" encoding="UTF-8"?> <svg xmlns="http://www.w3.org/2000/svg" viewBox="0 0 308.57 120"><defs><style>.cls-1,.cls-2{fill:#fec882;}.cls-2{fill-rule:evenodd;}.cls-3{fill:#443b2d;}</style></defs><g id="Layer_2" data-name="Layer 2"><g id="Layer_1-2" data-name="Layer 1"><path class="cls-1" d="M55.19,120a18.8,18.8,0,0,1-9.27-2.49L9.32,96.62A18,18,0,0,1,0,80.82V39.15A18.19,18.19,0,0,1,9.27,23.3L45.92,2.42a19,19,0,0,1,18.59,0L101.12,23.3a18,18,0,0,1,9.26,15.8V80.77a18.05,18.05,0,0,1-9.26,15.8L64.51,117.45A18.56,18.56,0,0,1,55.19,120Zm0-117.95a14.76,14.76,0,0,0-6.65,1.72L9.16,26.27A13.25,13.25,0,0,0,2.51,37.49V82.33A12.82,12.82,0,0,0,9.16,93.55L48.54,116a13.19,13.19,0,0,0,13.15,0l39.37-22.4a13.25,13.25,0,0,0,6.66-11.22V37.54a12.81,12.81,0,0,0-6.66-11.22L61.85,3.82A13.79,13.79,0,0,0,55.19,2.05Z"></path><path class="cls-2" d="M63.38,13.9,93.13,30.84a14.94,14.94,0,0,1,7.42,12.83V77.29A14.69,14.69,0,0,1,93,90.12L63.38,107.06a15.08,15.08,0,0,1-7.52,2,14.72,14.72,0,0,1-7.53-2L18.74,90.23a14.84,14.84,0,0,1-7.53-12.84V43.67a14.71,14.71,0,0,1,7.53-12.83L48.33,13.9A15.49,15.49,0,0,1,63.38,13.9Zm2,69.42H76.8V36.66H65.38V65.6l-19-28.94H34.92V83.32H46.33V54.69Z"></path><path class="cls-3" d="M160.61,54.17H153.7L142.13,36.81V54.17h-6.92V25.9h6.92L153.7,43.41V25.9h6.91Z"></path><path class="cls-3" d="M174,31.57a8.16,8.16,0,0,1,4.46,1.14,7.21,7.21,0,0,1,2.76,3.17V31.83h6.86V54.17h-6.86V50.11a6.81,6.81,0,0,1-2.76,3.17A8.16,8.16,0,0,1,174,54.43a9.75,9.75,0,0,1-5-1.35,10.26,10.26,0,0,1-3.48-4A14,14,0,0,1,164.24,43a14,14,0,0,1,1.23-6.08A9.3,9.3,0,0,1,169,33,9.12,9.12,0,0,1,174,31.57Zm2.2,6a4.62,4.62,0,0,0-3.58,1.46,5.68,5.68,0,0,0-1.33,4,5.71,5.71,0,0,0,1.33,4,4.83,4.83,0,0,0,3.58,1.45,4.52,4.52,0,0,0,3.54-1.45,5.57,5.57,0,0,0,1.43-3.95,5.28,5.28,0,0,0-1.43-4A4.23,4.23,0,0,0,176.17,37.59Z"></path><path class="cls-3" d="M205.56,48.3v5.87h-3.12a9.13,9.13,0,0,1-6.2-1.92c-1.43-1.3-2.2-3.43-2.2-6.45V37.64h-3V31.88h3V26.37H201v5.46h4.51v5.76H201v8.32a2.42,2.42,0,0,0,.51,1.81,2.53,2.53,0,0,0,1.85.52h2.25Z"></path><path class="cls-3" d="M208.79,25.59A3.2,3.2,0,0,1,209.91,23a4.35,4.35,0,0,1,3-1,4.26,4.26,0,0,1,3,1,3.44,3.44,0,0,1,0,5.1,4.31,4.31,0,0,1-3,1,4.23,4.23,0,0,1-3-1A3.48,3.48,0,0,1,208.79,25.59Zm7.57,6.29V54.22h-6.91V31.88Z"></path><path class="cls-3" d="M231.67,31.57a12.41,12.41,0,0,1,6,1.4,9.54,9.54,0,0,1,4.15,4A11.66,11.66,0,0,1,243.34,43a11.71,11.71,0,0,1-1.53,6.08,10.38,10.38,0,0,1-4.15,4,13.11,13.11,0,0,1-6,1.35,13.48,13.48,0,0,1-6-1.35,10.57,10.57,0,0,1-4.2-4A12.19,12.19,0,0,1,220,43a12.14,12.14,0,0,1,1.48-6.08,10,10,0,0,1,4.2-4A12.89,12.89,0,0,1,231.67,31.57Zm0,5.92a4.44,4.44,0,0,0-3.38,1.45A5.82,5.82,0,0,0,227,43.05a5.77,5.77,0,0,0,1.33,4.1,4.55,4.55,0,0,0,3.38,1.41A4.44,4.44,0,0,0,235,47.15a5.77,5.77,0,0,0,1.33-4.1A5.82,5.82,0,0,0,235,38.94,4.44,4.44,0,0,0,231.67,37.49Z"></path><path class="cls-3" d="M261.26,31.62a7.7,7.7,0,0,1,6.15,2.54,10.23,10.23,0,0,1,2.3,7.07V54.17H262.8V42a4.71,4.71,0,0,0-1.23-3.48,4.17,4.17,0,0,0-3.17-1.3,4.48,4.48,0,0,0-3.38,1.3,5.29,5.29,0,0,0-1.23,3.74V54.12h-6.91V31.77h6.91v4.11a7.4,7.4,0,0,1,2.87-3.17A10.13,10.13,0,0,1,261.26,31.62Z"></path><path class="cls-3" d="M282.87,31.57a8.1,8.1,0,0,1,4.45,1.14,7.24,7.24,0,0,1,2.77,3.17V31.83H297V54.17h-6.86V50.11a6.89,6.89,0,0,1-2.77,3.17,8.1,8.1,0,0,1-4.45,1.15,9.75,9.75,0,0,1-5-1.35,10.26,10.26,0,0,1-3.48-4A14,14,0,0,1,273.14,43a14,14,0,0,1,1.23-6.08,9.3,9.3,0,0,1,3.48-4A9.12,9.12,0,0,1,282.87,31.57Zm2.2,6a4.62,4.62,0,0,0-3.58,1.46,5.68,5.68,0,0,0-1.33,4,5.71,5.71,0,0,0,1.33,4,4.83,4.83,0,0,0,3.58,1.45,4.69,4.69,0,0,0,3.58-1.45,5.53,5.53,0,0,0,1.44-3.95,5.25,5.25,0,0,0-1.44-4A4.45,4.45,0,0,0,285.07,37.59Z"></path><path class="cls-3" d="M308.57,24.6V54.22h-6.91V24.6Z"></path><path class="cls-3" d="M145.56,71.89a11.22,11.22,0,0,1,7.16,2.28,9.68,9.68,0,0,1,3.54,6.13h-4.92a4.83,4.83,0,0,0-2-3.22,6.2,6.2,0,0,0-3.89-1.19A5.85,5.85,0,0,0,141,77.76a7.63,7.63,0,0,0-1.79,5.45A7.67,7.67,0,0,0,141,88.67a5.85,5.85,0,0,0,4.45,1.87,6.2,6.2,0,0,0,3.89-1.2,5.18,5.18,0,0,0,2-3.27h4.92a9.9,9.9,0,0,1-3.54,6.18,11.07,11.07,0,0,1-7.16,2.29,12.22,12.22,0,0,1-5.74-1.35,10.06,10.06,0,0,1-3.89-3.9,12.61,12.61,0,0,1-1.43-6,11.73,11.73,0,0,1,1.43-6,9.43,9.43,0,0,1,3.89-3.9A10,10,0,0,1,145.56,71.89Z"></path><path class="cls-3" d="M169.57,71.89a8.9,8.9,0,0,1,5.17,1.45,7.8,7.8,0,0,1,3,3.9V72.09h4.61v22h-4.61V89a8.08,8.08,0,0,1-3,3.9,9,9,0,0,1-5.17,1.45A10.3,10.3,0,0,1,164.35,93a9.19,9.19,0,0,1-3.54-3.9,13.18,13.18,0,0,1-1.28-6,12.84,12.84,0,0,1,1.28-6,9.34,9.34,0,0,1,3.54-3.9A10.52,10.52,0,0,1,169.57,71.89Zm1.43,4a6.45,6.45,0,0,0-4.91,2,7.41,7.41,0,0,0-1.85,5.3,7.52,7.52,0,0,0,1.85,5.35A6.42,6.42,0,0,0,171,90.44a7.09,7.09,0,0,0,3.48-.89A6.27,6.27,0,0,0,176.89,87a7.81,7.81,0,0,0,.87-3.85,8.15,8.15,0,0,0-.87-3.79,6,6,0,0,0-2.41-2.55A6.62,6.62,0,0,0,171,75.89Z"></path><path class="cls-3" d="M195.27,71.89a9.42,9.42,0,0,1,6.25,2,8.27,8.27,0,0,1,2.91,5.3h-4.35a4.37,4.37,0,0,0-1.59-2.86,4.88,4.88,0,0,0-3.37-1.14,4,4,0,0,0-2.72.83,2.72,2.72,0,0,0-.92,2.18,2.16,2.16,0,0,0,.67,1.67,4.62,4.62,0,0,0,1.69,1,21.34,21.34,0,0,0,3,.78,32.17,32.17,0,0,1,4,1.15,6,6,0,0,1,2.66,1.92,5,5,0,0,1,1.13,3.53,5.48,5.48,0,0,1-2.15,4.47,8.67,8.67,0,0,1-5.68,1.71,11,11,0,0,1-6.76-1.92A8,8,0,0,1,187,87.11h4.5A4.13,4.13,0,0,0,193.12,90a5.93,5.93,0,0,0,3.74,1.14,3.79,3.79,0,0,0,2.61-.83,2.74,2.74,0,0,0,1-2.18,2.38,2.38,0,0,0-.72-1.82,4.49,4.49,0,0,0-1.84-1,23.94,23.94,0,0,0-3-.78A25.2,25.2,0,0,1,191,83.37a6.84,6.84,0,0,1-2.61-1.82,5.06,5.06,0,0,1-1.08-3.43,5.6,5.6,0,0,1,2.1-4.52A9.08,9.08,0,0,1,195.27,71.89Z"></path><path class="cls-3" d="M208.63,65.75a2.48,2.48,0,0,1,.82-1.92,3.35,3.35,0,0,1,4.3,0,2.5,2.5,0,0,1,.87,1.92,2.33,2.33,0,0,1-.87,1.88,3.57,3.57,0,0,1-4.3,0A2.48,2.48,0,0,1,208.63,65.75Zm5.28,6.4v22H209.3v-22Z"></path><path class="cls-3" d="M231.93,71.78a8.14,8.14,0,0,1,6.24,2.5c1.59,1.66,2.36,4,2.36,7.06V94.18h-4.61V81.81a6.37,6.37,0,0,0-1.54-4.57,5.46,5.46,0,0,0-4.19-1.67,5.74,5.74,0,0,0-4.41,1.77,7,7,0,0,0-1.63,5.09V94.18h-4.61v-22h4.61V77a7.69,7.69,0,0,1,3-3.85A8.77,8.77,0,0,1,231.93,71.78Z"></path><path class="cls-3" d="M256.09,71.89a12.65,12.65,0,0,1,5.84,1.35,9.77,9.77,0,0,1,4,3.89,13.24,13.24,0,0,1,0,12,9.47,9.47,0,0,1-4,3.89,13.29,13.29,0,0,1-11.67,0,10.5,10.5,0,0,1-4-3.89,12.09,12.09,0,0,1-1.43-6,11.77,11.77,0,0,1,1.43-6,9.78,9.78,0,0,1,4-3.89A12,12,0,0,1,256.09,71.89Zm0,3.94a7.07,7.07,0,0,0-3.27.78,5.83,5.83,0,0,0-2.41,2.5,8.2,8.2,0,0,0-.87,4,9.24,9.24,0,0,0,.87,4.11,6,6,0,0,0,2.41,2.44,6.92,6.92,0,0,0,3.27.78,7.08,7.08,0,0,0,3.28-.78,6.15,6.15,0,0,0,2.41-2.44,8.33,8.33,0,0,0,.92-4.11,8.2,8.2,0,0,0-.92-4,6,6,0,0,0-2.41-2.5A7.08,7.08,0,0,0,256.09,75.83Z"></path></g></g></svg> 