<?xml version="1.0" encoding="UTF-8"?> <svg xmlns="http://www.w3.org/2000/svg" xmlns:xlink="http://www.w3.org/1999/xlink" version="1.1" width="2560px" height="485px" style="shape-rendering:geometricPrecision; text-rendering:geometricPrecision; image-rendering:optimizeQuality; fill-rule:evenodd; clip-rule:evenodd"><g><path style="opacity:0.004" fill="#00bbdc" d="M 267.5,36.5 C 270.167,36.5 272.833,36.5 275.5,36.5C 275.5,37.8333 275.5,39.1667 275.5,40.5C 272.833,40.5 270.167,40.5 267.5,40.5C 267.5,39.1667 267.5,37.8333 267.5,36.5 Z"></path></g><g><path style="opacity:0.004" fill="#00bbdc" d="M 344.5,36.5 C 347.833,36.5 351.167,36.5 354.5,36.5C 354.5,37.8333 354.5,39.1667 354.5,40.5C 351.167,40.5 347.833,40.5 344.5,40.5C 344.5,39.1667 344.5,37.8333 344.5,36.5 Z"></path></g><g><path style="opacity:0.004" fill="#00bbde" d="M 359.5,36.5 C 360.598,37.6009 360.765,38.9343 360,40.5C 359.51,39.2068 359.343,37.8734 359.5,36.5 Z"></path></g><g><path style="opacity:0.004" fill="#00bbdc" d="M 391.5,36.5 C 394.833,36.5 398.167,36.5 401.5,36.5C 401.5,37.8333 401.5,39.1667 401.5,40.5C 398.167,40.5 394.833,40.5 391.5,40.5C 391.5,39.1667 391.5,37.8333 391.5,36.5 Z"></path></g><g><path style="opacity:0.004" fill="#00bbdc" d="M 573.5,36.5 C 576.833,36.5 580.167,36.5 583.5,36.5C 583.5,37.8333 583.5,39.1667 583.5,40.5C 580.167,40.5 576.833,40.5 573.5,40.5C 573.5,39.1667 573.5,37.8333 573.5,36.5 Z"></path></g><g><path style="opacity:0.004" fill="#00bbdd" d="M 734.5,36.5 C 737.167,36.5 739.833,36.5 742.5,36.5C 742.5,37.8333 742.5,39.1667 742.5,40.5C 739.833,40.5 737.167,40.5 734.5,40.5C 734.5,39.1667 734.5,37.8333 734.5,36.5 Z"></path></g><g><path style="opacity:0.004" fill="#fea000" d="M 1033.5,36.5 C 1036.83,36.5 1040.17,36.5 1043.5,36.5C 1043.5,37.8333 1043.5,39.1667 1043.5,40.5C 1040.17,40.5 1036.83,40.5 1033.5,40.5C 1033.5,39.1667 1033.5,37.8333 1033.5,36.5 Z"></path></g><g><path style="opacity:0.004" fill="#fea000" d="M 1047.5,36.5 C 1048.59,36.62 1049.25,37.2867 1049.5,38.5C 1049.17,39.1667 1048.83,39.8333 1048.5,40.5C 1047.57,39.3112 1047.24,37.9778 1047.5,36.5 Z"></path></g><g><path style="opacity:0.004" fill="#fea100" d="M 1396.5,36.5 C 1397.6,37.6009 1397.76,38.9343 1397,40.5C 1396.51,39.2068 1396.34,37.8734 1396.5,36.5 Z"></path></g><g><path style="opacity:0.004" fill="#fea100" d="M 1400.5,36.5 C 1401.6,37.6009 1401.76,38.9343 1401,40.5C 1400.51,39.2068 1400.34,37.8734 1400.5,36.5 Z"></path></g><g><path style="opacity:0.004" fill="#fea100" d="M 1483.5,36.5 C 1484.6,37.6009 1484.76,38.9343 1484,40.5C 1483.51,39.2068 1483.34,37.8734 1483.5,36.5 Z"></path></g><g><path style="opacity:0.004" fill="#fea100" d="M 1486.5,36.5 C 1487.59,36.62 1488.25,37.2867 1488.5,38.5C 1488.17,39.1667 1487.83,39.8333 1487.5,40.5C 1486.57,39.3112 1486.24,37.9778 1486.5,36.5 Z"></path></g><g><path style="opacity:0.004" fill="#fea200" d="M 1489.5,36.5 C 1490.59,36.62 1491.25,37.2867 1491.5,38.5C 1491.17,39.1667 1490.83,39.8333 1490.5,40.5C 1489.57,39.3112 1489.24,37.9778 1489.5,36.5 Z"></path></g><g><path style="opacity:0.004" fill="#fea500" d="M 1493.5,36.5 C 1494.6,37.6009 1494.76,38.9343 1494,40.5C 1493.51,39.2068 1493.34,37.8734 1493.5,36.5 Z"></path></g><g><path style="opacity:0.004" fill="#fea100" d="M 1719.5,36.5 C 1720.6,37.6009 1720.76,38.9343 1720,40.5C 1719.51,39.2068 1719.34,37.8734 1719.5,36.5 Z"></path></g><g><path style="opacity:0.004" fill="#fea100" d="M 1722.5,36.5 C 1723.6,37.6009 1723.76,38.9343 1723,40.5C 1722.51,39.2068 1722.34,37.8734 1722.5,36.5 Z"></path></g><g><path style="opacity:0.004" fill="#fea000" d="M 1794.5,36.5 C 1795.6,37.6009 1795.76,38.9343 1795,40.5C 1794.51,39.2068 1794.34,37.8734 1794.5,36.5 Z"></path></g><g><path style="opacity:0.004" fill="#ffa000" d="M 1800.5,36.5 C 1803.83,36.5 1807.17,36.5 1810.5,36.5C 1810.5,37.8333 1810.5,39.1667 1810.5,40.5C 1807.17,40.5 1803.83,40.5 1800.5,40.5C 1800.5,39.1667 1800.5,37.8333 1800.5,36.5 Z"></path></g><g><path style="opacity:0.005" fill="#ffa100" d="M 1261.5,40.5 C 1267.41,39.7427 1272.74,41.076 1277.5,44.5C 1278.63,46.0745 1278.8,47.7412 1278,49.5C 1277.31,48.6433 1276.48,47.9767 1275.5,47.5C 1273.63,47.9461 1271.8,48.2795 1270,48.5C 1264.61,47.2228 1259.11,46.5562 1253.5,46.5C 1253.5,45.5 1253.5,44.5 1253.5,43.5C 1256.44,43.0233 1259.1,42.0233 1261.5,40.5 Z"></path></g><g><path style="opacity:0.005" fill="#ffa200" d="M 1733.5,40.5 C 1736.71,40.9856 1739.71,41.9856 1742.5,43.5C 1742.66,45.1992 1742.49,46.8659 1742,48.5C 1737.95,48.1146 1733.79,47.1146 1729.5,45.5C 1730.25,44.2638 1730.58,42.9305 1730.5,41.5C 1731.79,41.7373 1732.79,41.404 1733.5,40.5 Z"></path></g><g><path style="opacity:0.006" fill="#fea100" d="M 2379.5,40.5 C 2383.18,40.3347 2386.85,40.5014 2390.5,41C 2392.65,42.4127 2394.99,43.2461 2397.5,43.5C 2397.89,46.5225 2396.89,47.5225 2394.5,46.5C 2391.96,47.1153 2389.46,47.7819 2387,48.5C 2382.61,47.3252 2378.11,46.6586 2373.5,46.5C 2373.5,45.5 2373.5,44.5 2373.5,43.5C 2376.08,43.5449 2378.08,42.5449 2379.5,40.5 Z"></path></g><g><path style="opacity:0.004" fill="#fea100" d="M 1384.5,41.5 C 1387.17,42.1667 1389.83,42.8333 1392.5,43.5C 1392.5,44.5 1392.5,45.5 1392.5,46.5C 1389.58,47.2911 1386.75,47.2911 1384,46.5C 1380.95,48.8504 1380.78,51.3504 1383.5,54C 1379.43,54.6408 1375.59,55.1408 1372,55.5C 1371.22,54.0563 1371.39,52.723 1372.5,51.5C 1374.23,49.9702 1376.23,48.9702 1378.5,48.5C 1379.43,47.3112 1379.76,45.9778 1379.5,44.5C 1381.17,44.5 1382.83,44.5 1384.5,44.5C 1384.5,43.5 1384.5,42.5 1384.5,41.5 Z"></path></g><g><path style="opacity:0.004" fill="#ffa100" d="M 1499.5,41.5 C 1502.17,41.5 1504.83,41.5 1507.5,41.5C 1507.5,42.5 1507.5,43.5 1507.5,44.5C 1508.83,44.5 1510.17,44.5 1511.5,44.5C 1511.34,46.1992 1511.51,47.8659 1512,49.5C 1512.41,49.0426 1512.91,48.7093 1513.5,48.5C 1515.79,49.7057 1518.13,50.7057 1520.5,51.5C 1520.76,52.9778 1520.43,54.3112 1519.5,55.5C 1515.9,55.9065 1512.24,55.4065 1508.5,54C 1511.04,51.7779 1511.04,49.6112 1508.5,47.5C 1507.91,47.7093 1507.41,48.0426 1507,48.5C 1503.57,47.3424 1500.07,46.3424 1496.5,45.5C 1497.83,44.3578 1498.83,43.0245 1499.5,41.5 Z"></path></g><g><path style="opacity:0.004" fill="#fea100" d="M 1605.5,41.5 C 1608.56,41.9275 1611.56,42.5942 1614.5,43.5C 1614.5,44.5 1614.5,45.5 1614.5,46.5C 1611.52,46.6203 1608.69,47.287 1606,48.5C 1604.39,47.5668 1603.56,48.2335 1603.5,50.5C 1605.38,53.09 1604.71,54.59 1601.5,55C 1599.23,55.7581 1597.06,55.5914 1595,54.5C 1594.33,55.1667 1593.67,55.8333 1593,56.5C 1592.51,54.8659 1592.34,53.1992 1592.5,51.5C 1595.29,49.9856 1598.29,48.9856 1601.5,48.5C 1601.5,47.1667 1601.5,45.8333 1601.5,44.5C 1602.83,44.5 1604.17,44.5 1605.5,44.5C 1605.5,43.5 1605.5,42.5 1605.5,41.5 Z"></path></g><g><path style="opacity:0.847" fill="#ffa100" d="M 1452.5,45.5 C 1463.61,46.3652 1474.94,47.1985 1486.5,48C 1489.17,50 1491.83,52 1494.5,54C 1500.68,54.0035 1505.68,56.3369 1509.5,61C 1514.93,61.9081 1518.6,64.9081 1520.5,70C 1522.5,70.8333 1524.5,71.6667 1526.5,72.5C 1527.5,74.5 1528.5,76.5 1529.5,78.5C 1531.57,79.1341 1533.4,80.1341 1535,81.5C 1537.27,86.0978 1539.94,90.4311 1543,94.5C 1544.55,99.7167 1546.55,104.717 1549,109.5C 1550.15,110.743 1551.49,111.743 1553,112.5C 1554.96,196.169 1554.96,279.836 1553,363.5C 1553.27,368.808 1551.1,372.641 1546.5,375C 1545.78,378.461 1545.28,381.961 1545,385.5C 1543.63,387.86 1541.63,389.527 1539,390.5C 1537.31,397.22 1533.64,402.554 1528,406.5C 1526.83,408.333 1525.67,410.167 1524.5,412C 1520.03,413.237 1516.7,415.903 1514.5,420C 1508.64,420.597 1503.97,423.264 1500.5,428C 1493.09,428.208 1486.76,430.875 1481.5,436C 1457.83,436.667 1434.17,436.667 1410.5,436C 1404.46,430.927 1397.46,428.094 1389.5,427.5C 1386.4,422.949 1382.07,420.449 1376.5,420C 1374.42,416.25 1371.42,413.584 1367.5,412C 1364.67,407.833 1361.17,404.333 1357,401.5C 1355.08,397.912 1353.24,394.246 1351.5,390.5C 1350.17,389.5 1348.83,388.5 1347.5,387.5C 1346.57,382.979 1345.07,378.645 1343,374.5C 1341.85,373.257 1340.51,372.257 1339,371.5C 1336.99,328.36 1336.16,285.194 1336.5,242C 1336.67,212.833 1336.83,183.667 1337,154.5C 1337.24,140.477 1337.9,126.477 1339,112.5C 1340.51,111.743 1341.85,110.743 1343,109.5C 1344.91,105.685 1346.24,101.685 1347,97.5C 1351.1,92.2947 1354.44,86.628 1357,80.5C 1358.4,79.7734 1359.9,79.2734 1361.5,79C 1362.83,76.6667 1364.17,74.3333 1365.5,72C 1369.83,71.1709 1372.83,68.6709 1374.5,64.5C 1379.53,63.3221 1383.53,60.6554 1386.5,56.5C 1389.85,55.774 1393.19,54.9407 1396.5,54C 1399.17,52 1401.83,50 1404.5,48C 1420.66,47.135 1436.66,46.3017 1452.5,45.5 Z M 1441.5,120.5 C 1444.19,120.336 1446.85,120.503 1449.5,121C 1450.1,122.062 1450.43,123.228 1450.5,124.5C 1450.45,200.181 1450.45,275.848 1450.5,351.5C 1449.84,354.806 1449.34,358.139 1449,361.5C 1446.33,364.167 1443.67,364.167 1441,361.5C 1440.25,356.625 1440.41,351.792 1441.5,347C 1440.88,342.456 1440.05,337.956 1439,333.5C 1438.33,270.167 1438.33,206.833 1439,143.5C 1440.58,135.788 1441.41,128.121 1441.5,120.5 Z"></path></g><g><path style="opacity:0.831" fill="#ffa100" d="M 1735.5,55.5 C 1734.26,60.7812 1735.26,65.6145 1738.5,70C 1741.17,70.6667 1743.83,70.6667 1746.5,70C 1748.38,69.0816 1749.38,67.5816 1749.5,65.5C 1751.54,68.6935 1754.37,71.0268 1758,72.5C 1759.23,76.3609 1761.73,78.6943 1765.5,79.5C 1765.42,84.3564 1767.59,87.6898 1772,89.5C 1773.28,91.7173 1774.28,94.0506 1775,96.5C 1775.33,105.5 1775.67,114.5 1776,123.5C 1779.79,140.013 1780.46,156.68 1778,173.5C 1777.5,174 1777,174.5 1776.5,175C 1745.79,175.969 1715.12,175.636 1684.5,174C 1683.58,173.626 1682.75,173.126 1682,172.5C 1681.12,169.211 1680.45,165.877 1680,162.5C 1679.45,148.807 1679.45,135.14 1680,121.5C 1676.93,120.383 1673.76,120.216 1670.5,121C 1668.67,124.167 1666.83,127.333 1665,130.5C 1664.33,138.833 1664.33,147.167 1665,155.5C 1665.84,158.674 1667.51,161.341 1670,163.5C 1669.64,169.81 1672.47,173.643 1678.5,175C 1680.97,179.964 1684.97,182.797 1690.5,183.5C 1692.82,188.245 1696.65,190.578 1702,190.5C 1704.94,194.633 1708.78,197.3 1713.5,198.5C 1713.34,201.518 1713.5,204.518 1714,207.5C 1715.86,210.207 1718.36,211.041 1721.5,210C 1723.43,209.578 1724.43,208.411 1724.5,206.5C 1726.92,208.411 1729.25,210.578 1731.5,213C 1735.6,213.105 1738.27,215.105 1739.5,219C 1744.55,220.545 1748.21,223.712 1750.5,228.5C 1754.43,229.263 1756.93,231.597 1758,235.5C 1760,236.833 1762,238.167 1764,239.5C 1766.94,244.772 1770.27,249.772 1774,254.5C 1774.8,259.394 1776.3,264.061 1778.5,268.5C 1779.63,269.262 1780.79,269.929 1782,270.5C 1782.92,280.502 1783.75,290.502 1784.5,300.5C 1784.24,301.689 1783.91,302.856 1783.5,304C 1784.12,309.029 1785.28,313.862 1787,318.5C 1787.81,326.378 1787.14,334.045 1785,341.5C 1784.19,355.857 1783.19,370.19 1782,384.5C 1781.67,385.5 1781.33,386.5 1781,387.5C 1775.76,389.144 1773.42,392.81 1774,398.5C 1772.3,401.702 1769.8,404.035 1766.5,405.5C 1764.54,409.96 1761.21,412.793 1756.5,414C 1752.84,419.221 1747.84,422.221 1741.5,423C 1740.17,424.667 1738.83,426.333 1737.5,428C 1733.42,428.231 1729.42,428.898 1725.5,430C 1722.83,432 1720.17,434 1717.5,436C 1691.83,436.667 1666.17,436.667 1640.5,436C 1635.01,430.616 1628.34,427.95 1620.5,428C 1617.33,422.856 1612.67,420.189 1606.5,420C 1604.35,415.846 1601.01,413.18 1596.5,412C 1594.88,409.92 1593.38,407.754 1592,405.5C 1589.53,404.896 1587.53,403.562 1586,401.5C 1584.5,397.833 1583,394.167 1581.5,390.5C 1579.2,389.769 1577.36,388.436 1576,386.5C 1575.67,381.5 1575.33,376.5 1575,371.5C 1572.56,366.373 1570.56,361.04 1569,355.5C 1567.05,331.491 1567.05,307.491 1569,283.5C 1570.67,284.167 1572.33,284.833 1574,285.5C 1602.1,284.293 1630.27,284.293 1658.5,285.5C 1658.26,282.737 1656.92,280.571 1654.5,279C 1648.25,276.405 1642.25,273.405 1636.5,270C 1634.79,264.626 1631.13,261.96 1625.5,262C 1623.23,257.395 1619.56,254.728 1614.5,254C 1612.35,249.846 1609.01,247.18 1604.5,246C 1602.87,241.364 1599.7,238.531 1595,237.5C 1593.96,235.254 1592.79,233.087 1591.5,231C 1589.32,230.837 1587.49,230.004 1586,228.5C 1583.73,223.902 1581.06,219.569 1578,215.5C 1576.53,210.768 1574.87,206.102 1573,201.5C 1572.33,199.5 1571,198.167 1569,197.5C 1567.41,166.858 1567.07,136.192 1568,105.5C 1572.97,99.3228 1576.3,92.3228 1578,84.5C 1582.12,81.3728 1585.12,77.3728 1587,72.5C 1591.7,71.4689 1594.87,68.6356 1596.5,64C 1601.87,63.3184 1605.87,60.6517 1608.5,56C 1615.55,56.2075 1621.22,53.5408 1625.5,48C 1634.56,47.5439 1643.56,46.7105 1652.5,45.5C 1665.15,46.8154 1677.81,46.8154 1690.5,45.5C 1700.15,46.4434 1709.81,47.2767 1719.5,48C 1723.66,52.9105 1728.99,55.4105 1735.5,55.5 Z M 1662.5,286.5 C 1665.51,287.653 1667.51,289.82 1668.5,293C 1672.07,293.7 1674.9,295.533 1677,298.5C 1678.58,302.675 1680.92,306.341 1684,309.5C 1684.82,311.788 1685.49,314.122 1686,316.5C 1686.67,329.167 1686.67,341.833 1686,354.5C 1682.82,356.511 1680.32,359.178 1678.5,362.5C 1676.3,363.78 1674.13,363.78 1672,362.5C 1670.33,359.167 1668.67,355.833 1667,352.5C 1665.77,333.197 1665.11,313.863 1665,294.5C 1663.96,292.254 1662.79,290.087 1661.5,288C 1662.06,287.617 1662.39,287.117 1662.5,286.5 Z"></path></g><g><path style="opacity:0.004" fill="#ffa000" d="M 1282.5,48.5 C 1286.68,48.9295 1290.68,49.9295 1294.5,51.5C 1294.19,54.2469 1294.52,56.9135 1295.5,59.5C 1296.47,58.5109 1297.63,57.8443 1299,57.5C 1301.06,58.6182 1303.23,59.2849 1305.5,59.5C 1305.5,62.1667 1305.5,64.8333 1305.5,67.5C 1307.12,67.6399 1308.29,66.9733 1309,65.5C 1310.05,67.1066 1311.55,67.7733 1313.5,67.5C 1313.5,70.5 1313.5,73.5 1313.5,76.5C 1311.86,76.2865 1310.36,76.6198 1309,77.5C 1308.67,75.8333 1308.33,74.1667 1308,72.5C 1305.61,69.772 1303.61,66.772 1302,63.5C 1301.67,64.1667 1301.33,64.8333 1301,65.5C 1299,63.253 1296.5,62.253 1293.5,62.5C 1293.76,60.2075 1293.42,58.0408 1292.5,56C 1288.34,55.8633 1284,55.3633 1279.5,54.5C 1279.03,51.6421 1280.03,49.6421 1282.5,48.5 Z"></path></g><g><path style="opacity:0.005" fill="#ffa100" d="M 2405.5,49.5 C 2408.88,49.7263 2411.88,50.7263 2414.5,52.5C 2414.5,53.8333 2414.5,55.1667 2414.5,56.5C 2417.71,56.9856 2420.71,57.9856 2423.5,59.5C 2423.5,61.5 2423.5,63.5 2423.5,65.5C 2428.23,65.0643 2430.56,67.2309 2430.5,72C 2430.56,74.5383 2429.56,76.3717 2427.5,77.5C 2424.66,73.4939 2422.49,69.1606 2421,64.5C 2420.67,65.1667 2420.33,65.8333 2420,66.5C 2417.36,64.6796 2414.53,63.3463 2411.5,62.5C 2411.66,60.4727 2411.5,58.4727 2411,56.5C 2410.67,56.8333 2410.33,57.1667 2410,57.5C 2407.51,55.5029 2404.68,54.5029 2401.5,54.5C 2401.5,53.5 2401.5,52.5 2401.5,51.5C 2403.48,51.8432 2404.82,51.1765 2405.5,49.5 Z"></path></g><g><path style="opacity:0.858" fill="#00badc" d="M 252.5,99.5 C 257.08,98.9685 259.413,96.3019 259.5,91.5C 258.811,89.556 258.311,87.556 258,85.5C 256.89,83.9632 255.39,83.2965 253.5,83.5C 253.334,74.4938 253.5,65.4938 254,56.5C 254.465,55.0692 255.299,53.9025 256.5,53C 262.156,52.0017 267.823,51.1684 273.5,50.5C 302.18,51.6996 330.68,51.6996 359,50.5C 361.312,50.9551 363.312,51.9551 365,53.5C 365.667,61.8333 365.667,70.1667 365,78.5C 362.638,85.255 360.638,92.255 359,99.5C 357.849,113.471 357.183,127.471 357,141.5C 355.024,148.437 353.024,155.437 351,162.5C 350.107,178.517 349.107,194.517 348,210.5C 345.88,215.298 344.213,220.298 343,225.5C 342.024,239.818 341.358,254.152 341,268.5C 338.819,274.713 336.819,281.046 335,287.5C 335.018,304.239 334.018,320.906 332,337.5C 329.465,341.816 327.798,346.482 327,351.5C 326.977,367.903 325.977,384.237 324,400.5C 320.117,408.702 318.117,417.369 318,426.5C 317.5,427.667 316.667,428.5 315.5,429C 269.835,429.5 224.168,429.667 178.5,429.5C 178.141,427.629 177.141,426.129 175.5,425C 172.518,424.502 169.518,424.335 166.5,424.5C 166.5,419.167 166.5,413.833 166.5,408.5C 167.822,408.67 168.989,408.337 170,407.5C 173.767,402.163 173.267,397.33 168.5,393C 167.423,392.53 166.423,392.697 165.5,393.5C 164.387,387.995 162.553,382.662 160,377.5C 158.923,363.177 157.923,348.844 157,334.5C 151.266,322.548 149.099,309.881 150.5,296.5C 157.32,294.557 158.987,290.39 155.5,284C 154.354,283.355 153.354,282.522 152.5,281.5C 151.583,282.127 150.583,282.461 149.5,282.5C 148.102,278.287 146.935,273.954 146,269.5C 145.333,268.833 144.667,268.167 144,267.5C 142.954,252.507 141.954,237.507 141,222.5C 138.038,216.852 136.038,210.852 135,204.5C 134.758,192.983 134.258,181.483 133.5,170C 132.192,165.248 130.359,160.748 128,156.5C 126.84,143.532 126.173,130.532 126,117.5C 123.667,109.5 121.333,101.5 119,93.5C 118.333,79.8333 118.333,66.1667 119,52.5C 119.5,52 120,51.5 120.5,51C 153.154,51.2401 185.82,51.5735 218.5,52C 220.519,52.4497 222.352,53.283 224,54.5C 226.301,60.7616 228.301,67.0949 230,73.5C 230.949,90.822 231.616,108.155 232,125.5C 232.926,132.092 234.593,138.425 237,144.5C 238.097,166.151 238.764,187.818 239,209.5C 239.39,213.069 240.39,216.403 242,219.5C 243.541,213.254 244.541,206.921 245,200.5C 245.239,176.486 245.906,152.486 247,128.5C 250.172,119.148 252.005,109.482 252.5,99.5 Z"></path></g><g><path style="opacity:0.829" fill="#00badc" d="M 526.5,50.5 C 531.752,51.2849 537.085,51.7849 542.5,52C 544.887,52.9761 546.054,54.8094 546,57.5C 546.964,84.2157 546.631,110.882 545,137.5C 544.25,138.126 543.416,138.626 542.5,139C 537.25,139.193 532.083,139.693 527,140.5C 513.211,139.584 499.377,139.084 485.5,139C 484.175,157.435 484.175,175.935 485.5,194.5C 487.575,195.762 489.575,195.595 491.5,194C 505.833,193.333 520.167,193.333 534.5,194C 535.872,194.402 537.205,194.902 538.5,195.5C 539.314,197.766 539.814,200.1 540,202.5C 540.883,227.19 540.55,251.856 539,276.5C 538.25,277.126 537.416,277.626 536.5,278C 518.926,278.174 501.426,278.674 484,279.5C 484.793,298.492 484.626,317.492 483.5,336.5C 483.68,337.554 484.013,338.554 484.5,339.5C 504.825,340.333 525.158,340.833 545.5,341C 546.624,341.249 547.624,341.749 548.5,342.5C 549.658,370.791 549.825,399.124 549,427.5C 548.25,428.126 547.416,428.626 546.5,429C 491.833,429.667 437.167,429.667 382.5,429C 380.954,427.56 380.121,425.727 380,423.5C 379.171,300.649 379.338,177.816 380.5,55C 380.755,53.6739 381.422,52.6739 382.5,52C 430.668,51.8327 478.668,51.3327 526.5,50.5 Z"></path></g><g><path style="opacity:0.847" fill="#00badc" d="M 855.5,286.5 C 854.849,285.909 854.182,285.243 853.5,284.5C 850.99,286.187 849.49,288.52 849,291.5C 847.507,314.147 847.173,336.814 848,359.5C 849.935,361.759 852.435,362.759 855.5,362.5C 855.5,363.167 855.5,363.833 855.5,364.5C 854.5,364.5 853.5,364.5 852.5,364.5C 852.166,367.491 853.166,369.824 855.5,371.5C 855.829,386.676 855.496,401.676 854.5,416.5C 854.667,403.829 854.5,391.162 854,378.5C 853.121,375.654 851.454,374.987 849,376.5C 847.527,394.073 847.027,411.739 847.5,429.5C 818.789,429.825 790.123,429.492 761.5,428.5C 760.702,426.922 760.202,425.256 760,423.5C 759.833,417 759.667,410.5 759.5,404C 760.489,373.17 760.655,342.337 760,311.5C 760.035,307.755 759.035,307.088 757,309.5C 755.593,314.758 754.426,320.091 753.5,325.5C 751.5,325.833 749.5,326.167 747.5,326.5C 746.005,331.88 746.172,337.213 748,342.5C 749.488,344.16 751.321,345.16 753.5,345.5C 752.903,353.153 752.403,360.82 752,368.5C 751.412,372.806 750.079,376.806 748,380.5C 745.96,395.75 744.96,411.084 745,426.5C 743.509,428.004 741.676,428.837 739.5,429C 717.469,429.801 695.469,429.634 673.5,428.5C 673.777,416.973 671.611,405.973 667,395.5C 665.894,380.512 664.894,365.512 664,350.5C 663.075,345.86 661.409,341.527 659,337.5C 657.794,322.868 657.127,308.202 657,293.5C 656.73,290.638 655.896,287.972 654.5,285.5C 653.808,286.025 653.308,286.692 653,287.5C 653.296,306.832 653.963,326.165 655,345.5C 655.667,372.5 655.667,399.5 655,426.5C 653.509,428.004 651.676,428.837 649.5,429C 621.167,429.667 592.833,429.667 564.5,429C 564,428.5 563.5,428 563,427.5C 561.527,304.837 561.194,182.17 562,59.5C 562.029,56.6335 562.862,54.1335 564.5,52C 605.893,51.017 647.226,51.3504 688.5,53C 689.667,54.1667 690.833,55.3333 692,56.5C 695.119,62.7631 697.119,69.4298 698,76.5C 698.333,88.1667 698.667,99.8333 699,111.5C 700.741,116.87 702.408,122.203 704,127.5C 705.08,143.158 705.914,158.825 706.5,174.5C 708.124,174.64 709.29,173.973 710,172.5C 710.76,168.181 711.427,163.848 712,159.5C 712.26,142.815 712.926,126.148 714,109.5C 715.48,104.724 717.147,100.057 719,95.5C 720.132,82.5287 720.799,69.5287 721,56.5C 721.5,55.5 722,54.5 722.5,53.5C 728.246,52.0526 734.08,51.0526 740,50.5C 777.889,51.0029 815.722,51.8362 853.5,53C 854.227,54.3988 854.727,55.8988 855,57.5C 855.5,133.833 855.667,210.166 855.5,286.5 Z"></path></g><g><path style="opacity:0.844" fill="#fea100" d="M 1033.5,50.5 C 1040.23,51.1277 1046.89,52.1277 1053.5,53.5C 1052.68,69.9147 1055.51,85.5813 1062,100.5C 1062.17,113.865 1062.83,127.199 1064,140.5C 1065.67,144.5 1067.33,148.5 1069,152.5C 1070.13,165.471 1070.8,178.471 1071,191.5C 1072.68,197.213 1074.68,202.88 1077,208.5C 1078.16,221.468 1078.83,234.468 1079,247.5C 1081.33,255.5 1083.67,263.5 1086,271.5C 1086.13,284.208 1086.79,296.874 1088,309.5C 1089.52,313.234 1091.18,316.901 1093,320.5C 1094.1,333.474 1094.77,346.474 1095,359.5C 1096.55,366.032 1098.55,372.365 1101,378.5C 1101.88,392.331 1102.72,406.164 1103.5,420C 1103.45,422.557 1103.11,425.057 1102.5,427.5C 1101.97,428.192 1101.31,428.692 1100.5,429C 1066.97,429.823 1033.47,429.656 1000,428.5C 999.055,428.095 998.388,427.428 998,426.5C 997.572,406.76 996.906,387.094 996,367.5C 992.767,366.214 989.267,365.547 985.5,365.5C 981.916,365.518 978.416,365.852 975,366.5C 977.262,387.516 975.095,408.016 968.5,428C 933.894,429.646 899.227,429.98 864.5,429C 863.186,415.876 863.353,402.71 865,389.5C 866.738,384.131 868.405,378.798 870,373.5C 870.167,358.472 870.834,343.472 872,328.5C 874.401,322.629 876.401,316.629 878,310.5C 878.333,298.5 878.667,286.5 879,274.5C 880.876,265.328 883.209,256.328 886,247.5C 886.333,235.167 886.667,222.833 887,210.5C 889.178,201.453 891.512,192.453 894,183.5C 894.333,171.833 894.667,160.167 895,148.5C 895.308,140.923 897.308,133.923 901,127.5C 902.131,113.193 902.797,98.8592 903,84.5C 906.037,74.3354 908.704,64.002 911,53.5C 911.75,52.8742 912.584,52.3742 913.5,52C 953.669,51.8326 993.669,51.3326 1033.5,50.5 Z M 983.5,228.5 C 984.117,228.611 984.617,228.944 985,229.5C 988.551,247.48 990.384,265.48 990.5,283.5C 985.533,284.662 980.533,284.829 975.5,284C 974.919,283.107 974.585,282.107 974.5,281C 975.846,271.858 977.013,262.691 978,253.5C 980.726,245.342 982.56,237.009 983.5,228.5 Z"></path></g><g><path style="opacity:0.819" fill="#ffa100" d="M 1804.5,50.5 C 1864.39,51.8128 1924.22,51.8128 1984,50.5C 1989.08,51.3071 1994.25,51.8071 1999.5,52C 2001,53.4907 2001.84,55.324 2002,57.5C 2002.24,86.8399 2002.74,116.173 2003.5,145.5C 2003.2,151.174 2002.87,156.841 2002.5,162.5C 2001.5,162.5 2000.5,162.5 1999.5,162.5C 1999.5,159.833 1999.5,157.167 1999.5,154.5C 1998.5,154.5 1997.5,154.5 1996.5,154.5C 1995.97,149.891 1996.64,145.557 1998.5,141.5C 1998.29,140.914 1997.96,140.414 1997.5,140C 1985.46,139.565 1973.29,139.731 1961,140.5C 1957.85,139.754 1954.68,139.087 1951.5,138.5C 1949.71,138.696 1948.38,139.529 1947.5,141C 1948.28,143.74 1948.78,146.574 1949,149.5C 1949.17,195.167 1949.33,240.833 1949.5,286.5C 1949.66,333.545 1949.16,380.545 1948,427.5C 1947.25,428.126 1946.42,428.626 1945.5,429C 1912.5,429.667 1879.5,429.667 1846.5,429C 1844.8,332.625 1843.8,236.125 1843.5,139.5C 1826.22,139.83 1808.88,139.83 1791.5,139.5C 1791.45,142.292 1792.79,144.125 1795.5,145C 1792.77,147.435 1793.11,149.435 1796.5,151C 1799.66,151.24 1802.82,151.073 1806,150.5C 1813.04,152.986 1820.04,152.986 1827,150.5C 1828.8,151.378 1830.63,152.045 1832.5,152.5C 1832.5,153.5 1832.5,154.5 1832.5,155.5C 1830.63,155.955 1828.8,156.622 1827,157.5C 1820.04,155.014 1813.04,155.014 1806,157.5C 1802.42,156.736 1798.92,155.736 1795.5,154.5C 1794.51,159.792 1794.17,165.125 1794.5,170.5C 1793.5,170.5 1792.5,170.5 1791.5,170.5C 1790.13,145.026 1789.46,119.526 1789.5,94C 1789.83,80.5 1790.17,67 1790.5,53.5C 1791.31,53.1924 1791.97,52.6924 1792.5,52C 1796.69,51.8238 1800.69,51.3238 1804.5,50.5 Z"></path></g><g><path style="opacity:0.842" fill="#ffa100" d="M 1315.5,90.5 C 1313.1,90.393 1311.26,91.393 1310,93.5C 1309.33,97.5 1309.33,101.5 1310,105.5C 1312.09,108.147 1314.59,108.814 1317.5,107.5C 1320.53,111.549 1322.36,116.216 1323,121.5C 1323.67,156.167 1323.67,190.833 1323,225.5C 1320.48,230.705 1318.15,236.038 1316,241.5C 1315.67,245.167 1315.33,248.833 1315,252.5C 1313.08,253.928 1310.92,254.928 1308.5,255.5C 1307.39,257.385 1306.56,259.385 1306,261.5C 1301.5,262.499 1298.33,265.166 1296.5,269.5C 1293.33,270.21 1290.33,271.377 1287.5,273C 1286.5,275.333 1284.83,277 1282.5,278C 1273.1,277.679 1264.43,280.013 1256.5,285C 1244.28,286.487 1232.11,286.987 1220,286.5C 1220.13,310.81 1220.3,335.143 1220.5,359.5C 1220.66,382.253 1220.16,404.919 1219,427.5C 1217.6,428.227 1216.1,428.727 1214.5,429C 1182.17,429.667 1149.83,429.667 1117.5,429C 1116.87,428.25 1116.37,427.416 1116,426.5C 1115.01,302.124 1115.34,177.791 1117,53.5C 1117.5,53 1118,52.5 1118.5,52C 1155.17,51.3333 1191.83,51.3333 1228.5,52C 1242.05,54.4014 1255.71,55.7347 1269.5,56C 1271.79,57.2899 1273.79,58.9565 1275.5,61C 1279.46,62.1265 1283.46,63.1265 1287.5,64C 1289.88,68.365 1293.55,71.0317 1298.5,72C 1300.66,75.1557 1303.16,77.989 1306,80.5C 1306.86,82.087 1307.53,83.7536 1308,85.5C 1311.01,86.5388 1313.51,88.2055 1315.5,90.5 Z M 1219.5,128.5 C 1222.19,128.336 1224.85,128.503 1227.5,129C 1230.06,132.622 1232.23,136.455 1234,140.5C 1234.67,157.833 1234.67,175.167 1234,192.5C 1233.24,196.905 1231.57,200.905 1229,204.5C 1225.93,205.617 1222.76,205.784 1219.5,205C 1218.4,202.502 1218.57,200.002 1220,197.5C 1220.67,177.167 1220.67,156.833 1220,136.5C 1218.3,133.881 1218.14,131.214 1219.5,128.5 Z"></path></g><g><path style="opacity:0.004" fill="#ff9600" d="M 1748.5,51.5 C 1749.43,52.5676 1749.77,53.901 1749.5,55.5C 1747.96,54.6993 1746.29,54.366 1744.5,54.5C 1744.5,53.5 1744.5,52.5 1744.5,51.5C 1745.83,51.5 1747.17,51.5 1748.5,51.5 Z"></path></g><g><path style="opacity:0.005" fill="#ffa200" d="M 1749.5,55.5 C 1749.77,53.901 1749.43,52.5676 1748.5,51.5C 1748.79,50.3509 1749.62,49.6842 1751,49.5C 1752.84,51.1605 1755.01,52.1605 1757.5,52.5C 1757.24,53.9778 1757.57,55.3112 1758.5,56.5C 1764.89,58.138 1766.89,62.138 1764.5,68.5C 1763.83,68.8333 1763.17,69.1667 1762.5,69.5C 1760.29,65.6258 1756.95,63.2925 1752.5,62.5C 1753.09,59.3695 1752.09,57.0361 1749.5,55.5 Z"></path></g><g><path style="opacity:0.847" fill="#ffa100" d="M 2030.5,51.5 C 2073.83,51.3333 2117.17,51.5 2160.5,52C 2164.85,51.9194 2168.01,53.7527 2170,57.5C 2171.07,70.4769 2171.74,83.4769 2172,96.5C 2174.29,102.276 2176.29,108.276 2178,114.5C 2179.13,127.471 2179.8,140.471 2180,153.5C 2182.14,159.054 2184.14,164.721 2186,170.5C 2186.85,183.157 2187.51,195.824 2188,208.5C 2190.13,214.824 2192.13,221.157 2194,227.5C 2194.21,240.195 2194.87,252.862 2196,265.5C 2198.15,271.106 2200.15,276.772 2202,282.5C 2202.17,295.532 2202.84,308.532 2204,321.5C 2205.55,327.373 2207.55,333.04 2210,338.5C 2210.19,351.862 2210.86,365.195 2212,378.5C 2217.92,394.667 2219.76,411.333 2217.5,428.5C 2183.46,429.826 2149.46,429.826 2115.5,428.5C 2114.81,427.975 2114.31,427.308 2114,426.5C 2113.67,420.833 2113.33,415.167 2113,409.5C 2110.6,398.386 2108.43,387.22 2106.5,376C 2108.24,373.07 2108.74,369.903 2108,366.5C 2102.58,365.361 2097.08,365.194 2091.5,366C 2091,366.5 2090.5,367 2090,367.5C 2089.35,370.565 2089.85,373.399 2091.5,376C 2090.04,383.001 2088.21,389.835 2086,396.5C 2084.98,405.807 2084.32,415.14 2084,424.5C 2083.78,425.938 2083.28,427.271 2082.5,428.5C 2048.3,429.831 2014.14,429.831 1980,428.5C 1979.33,414.167 1979.33,399.833 1980,385.5C 1980.48,381.469 1981.15,377.469 1982,373.5C 1983.78,370.726 1985.11,367.726 1986,364.5C 1987.17,349.528 1987.83,334.528 1988,319.5C 1989.46,313.257 1991.46,307.257 1994,301.5C 1995.14,286.526 1995.81,271.526 1996,256.5C 1997.49,250.216 1999.49,244.216 2002,238.5C 2003.09,223.521 2003.76,208.521 2004,193.5C 2005.81,187.062 2007.81,180.728 2010,174.5C 2011.1,160.523 2011.76,146.523 2012,132.5C 2013.16,125.2 2015.16,118.2 2018,111.5C 2018.41,96.488 2019.07,81.488 2020,66.5C 2021.16,61.8483 2022.99,57.515 2025.5,53.5C 2027.34,52.9724 2029,52.3058 2030.5,51.5 Z M 2091.5,266.5 C 2091.3,260.455 2091.64,254.455 2092.5,248.5C 2092.51,239.125 2094.18,230.125 2097.5,221.5C 2098.92,234.137 2100.09,246.803 2101,259.5C 2103.79,267.624 2105.62,275.957 2106.5,284.5C 2101.24,284.805 2096.07,284.471 2091,283.5C 2091.22,277.868 2091.38,272.201 2091.5,266.5 Z"></path></g><g><path style="opacity:0.833" fill="#ffa100" d="M 2231.5,51.5 C 2264.83,51.3333 2298.17,51.5 2331.5,52C 2351.08,54.1806 2370.74,55.5139 2390.5,56C 2392.79,57.2899 2394.79,58.9565 2396.5,61C 2402.84,61.7787 2407.84,64.7787 2411.5,70C 2417.94,73.6133 2422.94,78.78 2426.5,85.5C 2427.91,86.624 2429.41,87.624 2431,88.5C 2432.95,95.0595 2435.95,101.06 2440,106.5C 2440.33,114.833 2440.67,123.167 2441,131.5C 2445.63,150.081 2445.63,168.748 2441,187.5C 2440.84,196.217 2440.17,204.884 2439,213.5C 2437.27,214.249 2435.43,214.749 2433.5,215C 2432.48,217.071 2431.64,219.238 2431,221.5C 2427.69,223.645 2424.85,226.312 2422.5,229.5C 2419.89,230.23 2417.22,230.73 2414.5,231C 2411.29,231.625 2410.29,233.291 2411.5,236C 2414.36,237.399 2417.36,238.399 2420.5,239C 2421.64,243.145 2424.31,245.478 2428.5,246C 2430.32,247.8 2431.48,249.966 2432,252.5C 2435.82,255.324 2438.49,258.991 2440,263.5C 2440.41,275.304 2441.75,286.97 2444,298.5C 2444.98,341.546 2444.64,384.546 2443,427.5C 2410.33,428.833 2377.67,428.833 2345,427.5C 2344.5,375.168 2344.33,322.834 2344.5,270.5C 2340.24,270.455 2336.41,269.122 2333,266.5C 2333.8,320.512 2333.64,374.512 2332.5,428.5C 2298.86,429.639 2265.19,429.806 2231.5,429C 2230.23,428.691 2229.07,428.191 2228,427.5C 2226.75,401.211 2225.92,374.878 2225.5,348.5C 2226.3,251.504 2226.8,154.504 2227,57.5C 2226.89,54.1279 2228.39,52.1279 2231.5,51.5 Z M 2331.5,128.5 C 2336.95,127.339 2341.11,129.006 2344,133.5C 2344.67,152.167 2344.67,170.833 2344,189.5C 2340.93,192.237 2337.6,194.571 2334,196.5C 2330.99,194.39 2330.65,191.724 2333,188.5C 2333.67,170.833 2333.67,153.167 2333,135.5C 2331.65,133.406 2331.15,131.073 2331.5,128.5 Z"></path></g><g><path style="opacity:0.356" fill="#ff9700" d="M 1735.5,55.5 C 1736.5,55.8333 1737.17,56.5 1737.5,57.5C 1736.99,62.1547 1738.83,65.488 1743,67.5C 1745.07,66.8971 1746.24,65.5638 1746.5,63.5C 1748.03,63.427 1749.03,64.0937 1749.5,65.5C 1749.38,67.5816 1748.38,69.0816 1746.5,70C 1743.83,70.6667 1741.17,70.6667 1738.5,70C 1735.26,65.6145 1734.26,60.7812 1735.5,55.5 Z"></path></g><g><path style="opacity:0.008" fill="#00badc" d="M 708.5,56.5 C 709.833,56.5 711.167,56.5 712.5,56.5C 712.942,58.9719 713.275,61.4719 713.5,64C 712.359,75.5543 711.025,87.0543 709.5,98.5C 708.5,98.5 707.5,98.5 706.5,98.5C 705.432,85.5216 705.266,72.5216 706,59.5C 706.698,58.3094 707.531,57.3094 708.5,56.5 Z"></path></g><g><path style="opacity:0.009" fill="#00b9dc" d="M 241.5,57.5 C 245.641,57.5759 247.308,59.7426 246.5,64C 245.614,78.2685 244.28,92.4352 242.5,106.5C 241.5,106.5 240.5,106.5 239.5,106.5C 238.415,91.1877 238.249,75.8543 239,60.5C 239.698,59.3094 240.531,58.3094 241.5,57.5 Z"></path></g><g><path style="opacity:0.004" fill="#fea100" d="M 1063.5,57.5 C 1064.78,58.968 1066.45,59.6347 1068.5,59.5C 1068.5,62.5 1068.5,65.5 1068.5,68.5C 1066.55,68.2267 1065.05,68.8934 1064,70.5C 1062.18,66.2379 1062.01,61.9046 1063.5,57.5 Z"></path></g><g><path style="opacity:0.13" fill="#ff8a00" d="M 1737.5,57.5 C 1738.93,58.8333 1740.27,60.3333 1741.5,62C 1743.25,62.3519 1744.91,62.8519 1746.5,63.5C 1746.24,65.5638 1745.07,66.8971 1743,67.5C 1738.83,65.488 1736.99,62.1547 1737.5,57.5 Z"></path></g><g><path style="opacity:0.006" fill="#ffa100" d="M 1779.5,57.5 C 1780.22,57.9175 1780.72,58.5842 1781,59.5C 1781.5,70.8284 1781.67,82.1618 1781.5,93.5C 1780.17,93.5 1778.83,93.5 1777.5,93.5C 1776.62,88.6444 1775.28,83.9778 1773.5,79.5C 1774.64,72.8747 1775.3,66.208 1775.5,59.5C 1776.82,59.33 1777.99,59.6634 1779,60.5C 1779.48,59.552 1779.65,58.552 1779.5,57.5 Z"></path></g><g><path style="opacity:0.006" fill="#fea100" d="M 2181.5,57.5 C 2182.27,58.2625 2182.77,59.2625 2183,60.5C 2183.41,60.0426 2183.91,59.7093 2184.5,59.5C 2184.83,62.1667 2185.17,64.8333 2185.5,67.5C 2185.17,72.8384 2184.83,78.1718 2184.5,83.5C 2180.96,83.7612 2179.12,82.0945 2179,78.5C 2178.33,72.5 2178.33,66.5 2179,60.5C 2179.7,59.3094 2180.53,58.3094 2181.5,57.5 Z"></path></g><g><path style="opacity:0.004" fill="#fea000" d="M 1358.5,59.5 C 1361.5,59.5 1364.5,59.5 1367.5,59.5C 1367.5,60.5 1367.5,61.5 1367.5,62.5C 1363.62,61.8742 1361.79,63.5408 1362,67.5C 1357.93,69.1681 1355.1,72.0014 1353.5,76C 1352.55,76.4828 1351.55,76.6495 1350.5,76.5C 1350.5,73.5 1350.5,70.5 1350.5,67.5C 1353.17,67.5 1355.83,67.5 1358.5,67.5C 1358.5,64.8333 1358.5,62.1667 1358.5,59.5 Z"></path></g><g><path style="opacity:0.004" fill="#fea000" d="M 1524.5,59.5 C 1527.5,59.5 1530.5,59.5 1533.5,59.5C 1533.5,62.1667 1533.5,64.8333 1533.5,67.5C 1536.17,67.5 1538.83,67.5 1541.5,67.5C 1541.5,70.5 1541.5,73.5 1541.5,76.5C 1540.17,76.5 1538.83,76.5 1537.5,76.5C 1536.67,72.0702 1534,69.4035 1529.5,68.5C 1529.98,64.6509 1528.31,62.6509 1524.5,62.5C 1524.5,61.5 1524.5,60.5 1524.5,59.5 Z"></path></g><g><path style="opacity:0.004" fill="#fea100" d="M 1579.5,59.5 C 1582.5,59.5 1585.5,59.5 1588.5,59.5C 1586.94,62.0962 1585.27,64.7629 1583.5,67.5C 1582.31,68.4287 1580.98,68.762 1579.5,68.5C 1579.5,65.5 1579.5,62.5 1579.5,59.5 Z"></path></g><g><path style="opacity:0.005" fill="#ffa100" d="M 2211.5,59.5 C 2213.5,59.5 2215.5,59.5 2217.5,59.5C 2217.19,141.507 2217.52,223.507 2218.5,305.5C 2218.05,312.837 2217.55,320.17 2217,327.5C 2216.59,327.957 2216.09,328.291 2215.5,328.5C 2214.6,323.261 2213.27,318.594 2211.5,314.5C 2210.24,303.536 2209.57,292.536 2209.5,281.5C 2210.86,267.809 2211.86,253.309 2212.5,238C 2211.52,178.512 2211.18,119.012 2211.5,59.5 Z"></path></g><g><path style="opacity:0.005" fill="#00bbe2" d="M 870.5,176.5 C 869.668,157.338 869.168,138.004 869,118.5C 868.282,117.549 867.449,117.383 866.5,118C 865.915,119.302 865.249,120.469 864.5,121.5C 864.5,114.833 864.5,108.167 864.5,101.5C 865.141,103.042 866.141,104.376 867.5,105.5C 868.192,104.975 868.692,104.308 869,103.5C 869.667,92.8333 869.667,82.1667 869,71.5C 868.465,69.7295 867.631,69.3961 866.5,70.5C 865.95,72.6568 865.283,74.6568 864.5,76.5C 864.084,70.0478 864.584,63.7145 866,57.5C 867.049,59.1066 868.549,59.7733 870.5,59.5C 870.5,98.5 870.5,137.5 870.5,176.5 Z"></path></g><g><path style="opacity:0.006" fill="#ffa100" d="M 890.5,67.5 C 891.833,67.5 893.167,67.5 894.5,67.5C 895.46,80.5125 895.46,93.5125 894.5,106.5C 892.533,106.261 890.699,106.594 889,107.5C 888.667,105.167 888.333,102.833 888,100.5C 887.75,89.4166 888.583,78.4166 890.5,67.5 Z"></path></g><g><path style="opacity:0.004" fill="#ffa100" d="M 1766.5,67.5 C 1768.5,67.5 1770.5,67.5 1772.5,67.5C 1772.5,70.5 1772.5,73.5 1772.5,76.5C 1770.83,76.5 1769.17,76.5 1767.5,76.5C 1766.84,73.5448 1766.51,70.5448 1766.5,67.5 Z"></path></g><g><path style="opacity:0.004" fill="#fea100" d="M 2010.5,67.5 C 2011.16,69.9779 2011.5,72.6445 2011.5,75.5C 2011.62,78.6911 2011.12,81.6911 2010,84.5C 2009.76,78.8333 2009.92,73.1667 2010.5,67.5 Z"></path></g><g><path style="opacity:0.005" fill="#00bcea" d="M 864.5,101.5 C 864.5,93.1667 864.5,84.8333 864.5,76.5C 865.283,74.6568 865.95,72.6568 866.5,70.5C 867.631,69.3961 868.465,69.7295 869,71.5C 869.667,82.1667 869.667,92.8333 869,103.5C 868.692,104.308 868.192,104.975 867.5,105.5C 866.141,104.376 865.141,103.042 864.5,101.5 Z"></path></g><g><path style="opacity:0.004" fill="#ffa100" d="M 1316.5,73.5 C 1317.78,74.968 1319.45,75.6347 1321.5,75.5C 1321.5,78.5 1321.5,81.5 1321.5,84.5C 1319.55,84.2267 1318.05,84.8934 1317,86.5C 1314.15,82.15 1313.98,77.8167 1316.5,73.5 Z"></path></g><g><path style="opacity:0.005" fill="#fea100" d="M 2432.5,73.5 C 2436.71,73.5409 2438.71,75.7076 2438.5,80C 2438.44,82.6423 2437.44,84.809 2435.5,86.5C 2433.36,85.5711 2432.2,83.9045 2432,81.5C 2431.4,78.7795 2431.57,76.1128 2432.5,73.5 Z"></path></g><g><path style="opacity:0.004" fill="#ffa000" d="M 1569.5,75.5 C 1571.5,75.5 1573.5,75.5 1575.5,75.5C 1575.5,78.5 1575.5,81.5 1575.5,84.5C 1573.5,84.5 1571.5,84.5 1569.5,84.5C 1569.5,81.5 1569.5,78.5 1569.5,75.5 Z"></path></g><g><path style="opacity:0.005" fill="#fea100" d="M 1342.5,81.5 C 1343.82,81.33 1344.99,81.6634 1346,82.5C 1346.67,85.5 1346.67,88.5 1346,91.5C 1345.33,92.8333 1344.33,93.8333 1343,94.5C 1342.29,93.0267 1341.12,92.3601 1339.5,92.5C 1339.5,89.1667 1339.5,85.8333 1339.5,82.5C 1340.79,82.7373 1341.79,82.404 1342.5,81.5 Z"></path></g><g><path style="opacity:0.004" fill="#fea100" d="M 1546.5,81.5 C 1548.04,82.3007 1549.71,82.634 1551.5,82.5C 1551.5,85.8333 1551.5,89.1667 1551.5,92.5C 1549.46,92.8541 1547.63,92.8541 1546,92.5C 1545.24,88.7446 1545.41,85.0779 1546.5,81.5 Z"></path></g><g><path style="opacity:0.005" fill="#ffa000" d="M 1563.5,81.5 C 1565.14,81.2865 1566.64,81.6198 1568,82.5C 1568.67,85.8333 1568.67,89.1667 1568,92.5C 1566.27,95.0789 1564.44,95.0789 1562.5,92.5C 1561.03,88.549 1561.37,84.8824 1563.5,81.5 Z"></path></g><g><path style="opacity:0.004" fill="#ffa100" d="M 2439.5,82.5 C 2441.52,83.6225 2443.52,83.6225 2445.5,82.5C 2445.83,84.1667 2446.17,85.8333 2446.5,87.5C 2445.46,91.4569 2444.8,95.4569 2444.5,99.5C 2443.5,99.5 2442.5,99.5 2441.5,99.5C 2440.45,93.8891 2439.78,88.2224 2439.5,82.5 Z"></path></g><g><path style="opacity:0.006" fill="#ffa100" d="M 1070.5,83.5 C 1071.47,84.7914 1072.47,84.7914 1073.5,83.5C 1077.06,96.6825 1077.89,110.016 1076,123.5C 1075.67,123.167 1075.33,122.833 1075,122.5C 1074.67,123.5 1074.33,124.5 1074,125.5C 1072.99,124.663 1071.82,124.33 1070.5,124.5C 1069.19,110.832 1069.19,97.1652 1070.5,83.5 Z"></path></g><g><path style="opacity:0.169" fill="#00b3e4" d="M 253.5,83.5 C 255.39,83.2965 256.89,83.9632 258,85.5C 258.311,87.556 258.811,89.556 259.5,91.5C 259.413,96.3019 257.08,98.9685 252.5,99.5C 253.342,94.213 253.676,88.8797 253.5,83.5 Z"></path></g><g><path style="opacity:0.005" fill="#ffa100" d="M 1324.5,88.5 C 1326.5,89.1667 1328.5,89.8333 1330.5,90.5C 1330.66,93.5184 1330.5,96.5184 1330,99.5C 1328.67,100.494 1327.34,101.494 1326,102.5C 1325.05,102.095 1324.39,101.428 1324,100.5C 1323.31,96.446 1323.47,92.446 1324.5,88.5 Z"></path></g><g><path style="opacity:0.006" fill="#ffa100" d="M 1554.5,89.5 C 1555.4,90.209 1555.74,91.209 1555.5,92.5C 1556.83,92.5 1558.17,92.5 1559.5,92.5C 1560.52,100.842 1560.52,109.176 1559.5,117.5C 1555.97,110.582 1553.64,103.249 1552.5,95.5C 1552.68,93.2147 1553.34,91.2147 1554.5,89.5 Z"></path></g><g><path style="opacity:0.182" fill="#ff9800" d="M 1315.5,90.5 C 1315.21,96.3216 1315.88,101.988 1317.5,107.5C 1314.59,108.814 1312.09,108.147 1310,105.5C 1309.33,101.5 1309.33,97.5 1310,93.5C 1311.26,91.393 1313.1,90.393 1315.5,90.5 Z"></path></g><g><path style="opacity:0.004" fill="#ffa100" d="M 1332.5,90.5 C 1334.39,91.5361 1336.22,91.5361 1338,90.5C 1338.37,96.1747 1338.2,101.841 1337.5,107.5C 1336.5,107.5 1335.5,107.5 1334.5,107.5C 1333.45,101.889 1332.78,96.2224 1332.5,90.5 Z"></path></g><g><path style="opacity:0.006" fill="#ffa100" d="M 2186.5,99.5 C 2187.83,99.5 2189.17,99.5 2190.5,99.5C 2192.48,108.702 2193.48,118.036 2193.5,127.5C 2193.17,131.5 2192.83,135.5 2192.5,139.5C 2190.9,138.45 2190.06,139.117 2190,141.5C 2188.67,140.833 2187.67,139.833 2187,138.5C 2186.5,125.504 2186.33,112.504 2186.5,99.5 Z"></path></g><g><path style="opacity:0.006" fill="#ffa100" d="M 2447.5,99.5 C 2449.67,100.768 2451.84,100.768 2454,99.5C 2454.59,103.321 2455.09,107.155 2455.5,111C 2453.78,114.615 2452.78,118.448 2452.5,122.5C 2451.5,122.5 2450.5,122.5 2449.5,122.5C 2447.8,114.954 2447.13,107.287 2447.5,99.5 Z"></path></g><g><path style="opacity:0.004" fill="#ffa100" d="M 1330.5,107.5 C 1331.49,112.64 1331.82,117.974 1331.5,123.5C 1330.5,123.5 1329.5,123.5 1328.5,123.5C 1328.37,118.025 1329.03,112.692 1330.5,107.5 Z"></path></g><g><path style="opacity:0.007" fill="#00b9db" d="M 369.5,91.5 C 370.833,104.316 371.499,117.483 371.5,131C 371.54,149.185 371.04,167.351 370,185.5C 369.088,180.536 368.588,175.536 368.5,170.5C 366.856,170.286 365.356,170.62 364,171.5C 363.512,144.656 365.345,117.989 369.5,91.5 Z"></path></g><g><path style="opacity:0.005" fill="#00bcea" d="M 870.5,176.5 C 870.5,178.833 870.5,181.167 870.5,183.5C 868.435,183.517 866.435,183.85 864.5,184.5C 864.5,163.5 864.5,142.5 864.5,121.5C 865.249,120.469 865.915,119.302 866.5,118C 867.449,117.383 868.282,117.549 869,118.5C 869.168,138.004 869.668,157.338 870.5,176.5 Z"></path></g><g><path style="opacity:0.006" fill="#ff9f00" d="M 886.5,122.5 C 887.099,137.994 887.099,153.66 886.5,169.5C 885.07,169.421 883.736,169.754 882.5,170.5C 881.682,167.893 881.182,165.226 881,162.5C 881.166,149.499 881.666,136.499 882.5,123.5C 884.099,123.768 885.432,123.434 886.5,122.5 Z"></path></g><g><path style="opacity:0.006" fill="#00badc" d="M 114.5,129.5 C 115.833,129.5 117.167,129.5 118.5,129.5C 119.284,143.152 119.618,156.819 119.5,170.5C 117.833,170.5 116.167,170.5 114.5,170.5C 113.152,161.39 112.152,152.223 111.5,143C 111.628,138.23 112.628,133.73 114.5,129.5 Z"></path></g><g><path style="opacity:0.006" fill="#ffa100" d="M 1078.5,139.5 C 1079.83,139.5 1081.17,139.5 1082.5,139.5C 1083.95,148.596 1084.95,157.763 1085.5,167C 1085.25,170.91 1084.58,174.743 1083.5,178.5C 1082.16,180.005 1080.49,180.672 1078.5,180.5C 1077.25,166.829 1077.25,153.162 1078.5,139.5 Z"></path></g><g><path style="opacity:0.007" fill="#ffa100" d="M 1957.5,148.5 C 1967.99,152.46 1978.82,153.46 1990,151.5C 1990.49,152.793 1990.66,154.127 1990.5,155.5C 1981.83,155.5 1973.17,155.5 1964.5,155.5C 1964.8,213.341 1964.47,271.175 1963.5,329C 1964.06,347.502 1964.73,366.002 1965.5,384.5C 1966.17,381.833 1966.83,379.167 1967.5,376.5C 1968.74,377.246 1970.07,377.579 1971.5,377.5C 1972.3,387.521 1972.3,397.521 1971.5,407.5C 1969.86,407.286 1968.36,407.62 1967,408.5C 1966.82,405.774 1966.32,403.107 1965.5,400.5C 1964.67,408.5 1963.83,416.5 1963,424.5C 1962.67,424.167 1962.33,423.833 1962,423.5C 1961.45,426.557 1959.78,426.89 1957,424.5C 1956.83,334.305 1956.33,244.139 1955.5,154C 1956.08,152.1 1956.74,150.267 1957.5,148.5 Z"></path></g><g><path style="opacity:0.006" fill="#ffa100" d="M 2194.5,154.5 C 2195.47,155.791 2196.47,155.791 2197.5,154.5C 2201.38,167.607 2202.38,180.94 2200.5,194.5C 2198.79,193.391 2198.12,194.058 2198.5,196.5C 2197.5,196.5 2196.5,196.5 2195.5,196.5C 2194.55,182.536 2194.22,168.536 2194.5,154.5 Z"></path></g><g><path style="opacity:0.005" fill="#00badc" d="M 493.5,149.5 C 507.365,152.557 521.365,153.224 535.5,151.5C 535.5,152.833 535.5,154.167 535.5,155.5C 524.48,155.168 513.48,155.501 502.5,156.5C 500.659,157.23 498.825,157.897 497,158.5C 496.333,164.167 496.333,169.833 497,175.5C 498.825,176.103 500.659,176.77 502.5,177.5C 513.48,178.499 524.48,178.832 535.5,178.5C 535.762,179.978 535.429,181.311 534.5,182.5C 529.049,181.856 523.549,181.522 518,181.5C 509.746,181.528 501.58,182.028 493.5,183C 493.448,171.838 493.448,160.671 493.5,149.5 Z"></path></g><g><path style="opacity:0.006" fill="#00b9db" d="M 362.5,178.5 C 364.319,186.276 364.819,194.276 364,202.5C 361.797,207.25 360.297,212.583 359.5,218.5C 357.246,205.559 356.913,192.559 358.5,179.5C 360.099,179.768 361.432,179.434 362.5,178.5 Z"></path></g><g><path style="opacity:0.006" fill="#ffa100" d="M 1991.5,178.5 C 1992.85,179.171 1994.01,179.171 1995,178.5C 1995.78,192.532 1995.61,206.532 1994.5,220.5C 1993.5,220.5 1992.5,220.5 1991.5,220.5C 1991.88,218.058 1991.21,217.391 1989.5,218.5C 1989.17,214.5 1988.83,210.5 1988.5,206.5C 1988.52,197.036 1989.52,187.702 1991.5,178.5 Z"></path></g><g><path style="opacity:0.006" fill="#00badc" d="M 122.5,179.5 C 123.5,179.5 124.5,179.5 125.5,179.5C 127.498,192.129 127.831,204.795 126.5,217.5C 125.167,217.5 123.833,217.5 122.5,217.5C 121.13,211.999 120.13,205.665 119.5,198.5C 120.13,191.335 121.13,185.001 122.5,179.5 Z"></path></g><g><path style="opacity:0.004" fill="#00b9d2" d="M 870.5,183.5 C 870.5,183.833 870.5,184.167 870.5,184.5C 868.053,184.615 866.053,185.615 864.5,187.5C 864.5,186.5 864.5,185.5 864.5,184.5C 866.435,183.85 868.435,183.517 870.5,183.5 Z"></path></g><g><path style="opacity:0.005" fill="#ffa000" d="M 1706.5,185.5 C 1711.07,184.165 1715.74,184.332 1720.5,186C 1721.27,188.405 1721.77,190.905 1722,193.5C 1722.84,192.376 1724.01,191.709 1725.5,191.5C 1727.51,191.84 1729.51,192.173 1731.5,192.5C 1731.5,193.5 1731.5,194.5 1731.5,195.5C 1732.5,195.5 1733.5,195.5 1734.5,195.5C 1734.5,196.833 1734.5,198.167 1734.5,199.5C 1740.49,199.33 1743.33,202.33 1743,208.5C 1745.07,207.105 1746.91,207.438 1748.5,209.5C 1749.78,211.63 1749.28,213.296 1747,214.5C 1745.6,213.773 1744.1,213.273 1742.5,213C 1741.74,210.931 1741.24,208.764 1741,206.5C 1740.67,207.167 1740.33,207.833 1740,208.5C 1736.83,206.387 1733.33,205.387 1729.5,205.5C 1729.5,203.5 1729.5,201.5 1729.5,199.5C 1723.68,199.008 1719.84,196.008 1718,190.5C 1717.67,190.833 1717.33,191.167 1717,191.5C 1713.95,190.39 1710.78,189.723 1707.5,189.5C 1707.77,187.901 1707.43,186.568 1706.5,185.5 Z"></path></g><g><path style="opacity:0.311" fill="#ff9900" d="M 2096.5,184.5 C 2099.97,183.875 2102.8,184.875 2105,187.5C 2105.67,191.833 2105.67,196.167 2105,200.5C 2101.1,205.804 2097.1,205.804 2093,200.5C 2090.73,194.272 2091.89,188.939 2096.5,184.5 Z"></path></g><g><path style="opacity:0.006" fill="#fe9f00" d="M 876.5,232.5 C 875.609,231.89 874.609,231.557 873.5,231.5C 872.591,227.237 871.924,222.903 871.5,218.5C 872.828,210.548 873.494,202.548 873.5,194.5C 874.5,194.5 875.5,194.5 876.5,194.5C 876.187,191.753 876.52,189.086 877.5,186.5C 878.538,190.095 879.204,193.762 879.5,197.5C 879.232,206.805 879.065,216.138 879,225.5C 879.03,228.361 878.197,230.695 876.5,232.5 Z"></path></g><g><path style="opacity:0.183" fill="#fd9100" d="M 2097.5,187.5 C 2102.01,187.468 2104.01,189.801 2103.5,194.5C 2102.86,201.37 2100.03,202.703 2095,198.5C 2093.81,194.259 2094.65,190.592 2097.5,187.5 Z"></path></g><g><path style="opacity:0.004" fill="#00b6ba" d="M 870.5,184.5 C 870.5,184.833 870.5,185.167 870.5,185.5C 868.629,185.859 867.129,186.859 866,188.5C 865.333,202.167 865.333,215.833 866,229.5C 866.45,232.106 867.95,233.439 870.5,233.5C 870.5,234.167 870.5,234.833 870.5,235.5C 869.609,234.89 868.609,234.557 867.5,234.5C 866.391,234.443 865.391,234.11 864.5,233.5C 864.5,218.167 864.5,202.833 864.5,187.5C 866.053,185.615 868.053,184.615 870.5,184.5 Z"></path></g><g><path style="opacity:0.004" fill="#00b9d9" d="M 366.5,193.5 C 368.124,193.36 369.29,194.027 370,195.5C 370.333,194.833 370.667,194.167 371,193.5C 370.498,270.51 370.664,347.51 371.5,424.5C 370.5,424.5 369.5,424.5 368.5,424.5C 368.399,420.258 367.732,416.091 366.5,412C 367.721,401.553 368.387,391.053 368.5,380.5C 368.387,369.947 367.721,359.447 366.5,349C 368.161,301.535 369.161,254.035 369.5,206.5C 369.333,205.167 369.167,203.833 369,202.5C 368.586,202.957 368.086,203.291 367.5,203.5C 366.513,200.232 366.18,196.898 366.5,193.5 Z"></path></g><g><path style="opacity:0.006" fill="#ffa100" d="M 1085.5,194.5 C 1087.17,194.5 1088.83,194.5 1090.5,194.5C 1091.85,203.61 1092.85,212.777 1093.5,222C 1093.04,226.172 1092.54,230.338 1092,234.5C 1091.67,234.167 1091.33,233.833 1091,233.5C 1090.67,234.5 1090.33,235.5 1090,236.5C 1088.99,235.663 1087.82,235.33 1086.5,235.5C 1085.69,221.85 1085.35,208.183 1085.5,194.5 Z"></path></g><g><path style="opacity:0.006" fill="#ffa100" d="M 2449.5,195.5 C 2450.5,195.5 2451.5,195.5 2452.5,195.5C 2453.23,199.07 2454.23,202.57 2455.5,206C 2455.58,209.922 2453.74,212.422 2450,213.5C 2449.23,213.355 2448.56,213.022 2448,212.5C 2447.27,206.697 2447.77,201.031 2449.5,195.5 Z"></path></g><g><path style="opacity:0.004" fill="#17b29a" d="M 870.5,185.5 C 870.5,186.167 870.5,186.833 870.5,187.5C 869.542,187.953 868.708,188.619 868,189.5C 867.173,203.006 867.34,216.34 868.5,229.5C 868.5,230.833 869.167,231.5 870.5,231.5C 870.5,232.167 870.5,232.833 870.5,233.5C 867.95,233.439 866.45,232.106 866,229.5C 865.333,215.833 865.333,202.167 866,188.5C 867.129,186.859 868.629,185.859 870.5,185.5 Z"></path></g><g><path style="opacity:0.149" fill="#ff9a00" d="M 1713.5,198.5 C 1715.6,200.498 1717.6,202.665 1719.5,205C 1721.38,205.198 1723.05,205.698 1724.5,206.5C 1724.43,208.411 1723.43,209.578 1721.5,210C 1718.36,211.041 1715.86,210.207 1714,207.5C 1713.5,204.518 1713.34,201.518 1713.5,198.5 Z"></path></g><g><path style="opacity:0.004" fill="#b2a94c" d="M 870.5,189.5 C 869.894,202.868 869.894,216.201 870.5,229.5C 869.833,229.5 869.167,229.5 868.5,229.5C 868.333,216.496 868.5,203.496 869,190.5C 869.383,189.944 869.883,189.611 870.5,189.5 Z"></path></g><g><path style="opacity:0.004" fill="#74ad6f" d="M 870.5,187.5 C 870.5,188.167 870.5,188.833 870.5,189.5C 869.883,189.611 869.383,189.944 869,190.5C 868.5,203.496 868.333,216.496 868.5,229.5C 867.34,216.34 867.173,203.006 868,189.5C 868.708,188.619 869.542,187.953 870.5,187.5 Z"></path></g><g><path style="opacity:0.004" fill="#ffa100" d="M 1565.5,202.5 C 1567.4,207.547 1568.4,212.88 1568.5,218.5C 1566.83,218.5 1565.17,218.5 1563.5,218.5C 1563.88,213.123 1564.55,207.79 1565.5,202.5 Z"></path></g><g><path style="opacity:0.006" fill="#ffa100" d="M 2202.5,210.5 C 2203.5,210.5 2204.5,210.5 2205.5,210.5C 2205.5,213.167 2205.5,215.833 2205.5,218.5C 2206.5,218.5 2207.5,218.5 2208.5,218.5C 2208.84,225.027 2209.5,231.527 2210.5,238C 2209.93,241.817 2209.6,245.651 2209.5,249.5C 2207.8,249.626 2206.3,250.293 2205,251.5C 2204.05,251.095 2203.39,250.428 2203,249.5C 2202.5,236.504 2202.33,223.504 2202.5,210.5 Z"></path></g><g><path style="opacity:0.005" fill="#ffa100" d="M 1571.5,215.5 C 1572.83,215.5 1574.17,215.5 1575.5,215.5C 1575.5,219.833 1575.5,224.167 1575.5,228.5C 1571.29,228.459 1569.29,226.292 1569.5,222C 1569.83,219.659 1570.5,217.492 1571.5,215.5 Z"></path></g><g><path style="opacity:0.004" fill="#ffa000" d="M 1751.5,217.5 C 1754.85,217.335 1758.18,217.502 1761.5,218C 1762.44,220.381 1762.77,222.881 1762.5,225.5C 1765.5,225.5 1768.5,225.5 1771.5,225.5C 1771.5,228.5 1771.5,231.5 1771.5,234.5C 1767.93,235.092 1765.93,233.592 1765.5,230C 1761.99,228.923 1759.33,226.256 1757.5,222C 1755.65,220.872 1753.65,220.372 1751.5,220.5C 1751.5,219.5 1751.5,218.5 1751.5,217.5 Z"></path></g><g><path style="opacity:0.004" fill="#fea100" d="M 2440.5,217.5 C 2442.5,217.5 2444.5,217.5 2446.5,217.5C 2446.5,220.5 2446.5,223.5 2446.5,226.5C 2444.17,226.5 2441.83,226.5 2439.5,226.5C 2439.26,223.391 2439.6,220.391 2440.5,217.5 Z"></path></g><g><path style="opacity:0.004" fill="#ffa000" d="M 2432.5,224.5 C 2433.73,224.721 2434.73,225.388 2435.5,226.5C 2436.17,226.167 2436.83,225.833 2437.5,225.5C 2437.83,227 2438.17,228.5 2438.5,230C 2437.37,233.771 2436.71,237.605 2436.5,241.5C 2439.17,241.5 2441.83,241.5 2444.5,241.5C 2444.6,245.742 2445.27,249.909 2446.5,254C 2446.17,255.5 2445.83,257 2445.5,258.5C 2443.93,257.691 2442.26,257.357 2440.5,257.5C 2441.61,252.118 2439.77,248.118 2435,245.5C 2433.86,241.558 2431.53,238.558 2428,236.5C 2427.17,233.398 2428.17,231.064 2431,229.5C 2432.01,227.975 2432.51,226.308 2432.5,224.5 Z"></path></g><g><path style="opacity:0.004" fill="#95ac60" d="M 868.5,229.5 C 869.167,229.5 869.833,229.5 870.5,229.5C 870.5,230.167 870.5,230.833 870.5,231.5C 869.167,231.5 868.5,230.833 868.5,229.5 Z"></path></g><g><path style="opacity:0.004" fill="#c3a83d" d="M 873.5,231.5 C 874.609,231.557 875.609,231.89 876.5,232.5C 874.351,235.334 873.351,235.001 873.5,231.5 Z"></path></g><g><path style="opacity:0.004" fill="#fea100" d="M 1579.5,233.5 C 1582.94,233.35 1584.94,235.017 1585.5,238.5C 1587.3,239.986 1589.3,240.986 1591.5,241.5C 1592.33,245.93 1595,248.596 1599.5,249.5C 1599.38,251.484 1600.05,253.15 1601.5,254.5C 1604,253.879 1606.33,254.545 1608.5,256.5C 1607.6,258.307 1606.27,259.64 1604.5,260.5C 1602.03,259.008 1599.36,258.342 1596.5,258.5C 1596.5,255.833 1596.5,253.167 1596.5,250.5C 1593.81,250.664 1591.15,250.497 1588.5,250C 1587.56,247.619 1587.23,245.119 1587.5,242.5C 1584.83,242.5 1582.17,242.5 1579.5,242.5C 1579.5,239.5 1579.5,236.5 1579.5,233.5 Z"></path></g><g><path style="opacity:0.006" fill="#00badc" d="M 130.5,234.5 C 131.5,234.5 132.5,234.5 133.5,234.5C 134.056,242.172 134.723,249.839 135.5,257.5C 135.166,262.838 134.832,268.172 134.5,273.5C 133.167,273.5 131.833,273.5 130.5,273.5C 129.508,267.019 128.508,260.519 127.5,254C 128.122,246.668 129.122,240.168 130.5,234.5 Z"></path></g><g><path style="opacity:0.004" fill="#00b8da" d="M 550.5,139.5 C 551.5,139.5 552.5,139.5 553.5,139.5C 553.5,202.5 553.5,265.5 553.5,328.5C 552.5,328.5 551.5,328.5 550.5,328.5C 550.5,265.5 550.5,202.5 550.5,139.5 Z"></path></g><g><path style="opacity:0.005" fill="#00badb" d="M 864.5,233.5 C 865.391,234.11 866.391,234.443 867.5,234.5C 869.173,237.821 868.173,239.821 864.5,240.5C 864.5,238.167 864.5,235.833 864.5,233.5 Z"></path></g><g><path style="opacity:0.004" fill="#01b8c9" d="M 867.5,234.5 C 868.609,234.557 869.609,234.89 870.5,235.5C 870.5,237.833 870.5,240.167 870.5,242.5C 868.486,242.392 866.82,243.058 865.5,244.5C 865.167,244.5 864.833,244.5 864.5,244.5C 864.5,243.167 864.5,241.833 864.5,240.5C 868.173,239.821 869.173,237.821 867.5,234.5 Z"></path></g><g><path style="opacity:0.004" fill="#ffa000" d="M 1324.5,239.5 C 1326.01,240.502 1327.68,241.169 1329.5,241.5C 1329.5,244.5 1329.5,247.5 1329.5,250.5C 1328.32,250.281 1327.32,250.614 1326.5,251.5C 1323.92,255.84 1321.92,260.507 1320.5,265.5C 1318.87,265.968 1317.7,266.968 1317,268.5C 1316.29,267.027 1315.12,266.36 1313.5,266.5C 1313.5,269.167 1313.5,271.833 1313.5,274.5C 1311.23,274.715 1309.06,275.382 1307,276.5C 1305.67,276.245 1304.67,275.578 1304,274.5C 1303.97,277.367 1303.14,279.867 1301.5,282C 1297.17,283 1293.17,282.333 1289.5,280C 1293.37,279.895 1297.04,279.062 1300.5,277.5C 1301.35,275.591 1301.68,273.591 1301.5,271.5C 1305.82,270.68 1308.32,268.013 1309,263.5C 1310.05,265.107 1311.55,265.773 1313.5,265.5C 1314.32,262.129 1315.49,258.796 1317,255.5C 1317.31,256.308 1317.81,256.975 1318.5,257.5C 1319.48,254.914 1319.81,252.247 1319.5,249.5C 1320.83,249.5 1322.17,249.5 1323.5,249.5C 1323.34,246.098 1323.68,242.764 1324.5,239.5 Z"></path></g><g><path style="opacity:0.005" fill="#fea100" d="M 1775.5,239.5 C 1779.71,239.541 1781.71,241.708 1781.5,246C 1781.71,250.292 1779.71,252.459 1775.5,252.5C 1775.5,248.167 1775.5,243.833 1775.5,239.5 Z"></path></g><g><path style="opacity:0.005" fill="#00badc" d="M 354.5,241.5 C 355.806,246.611 356.472,251.944 356.5,257.5C 356.137,265.605 355.137,273.605 353.5,281.5C 352.5,281.5 351.5,281.5 350.5,281.5C 349.539,270.181 349.372,258.848 350,247.5C 350.319,244.495 351.819,242.495 354.5,241.5 Z"></path></g><g><path style="opacity:0.006" fill="#ffa100" d="M 1983.5,241.5 C 1984.85,242.171 1986.01,242.171 1987,241.5C 1987.29,251.013 1987.79,260.513 1988.5,270C 1988.09,273.845 1987.59,277.679 1987,281.5C 1985.62,284.058 1984.12,284.058 1982.5,281.5C 1981.42,277.743 1980.75,273.91 1980.5,270C 1981.13,260.443 1982.13,250.943 1983.5,241.5 Z"></path></g><g><path style="opacity:0.201" fill="#ff9900" d="M 2092.5,248.5 C 2091.64,254.455 2091.3,260.455 2091.5,266.5C 2085.73,263.635 2083.9,258.968 2086,252.5C 2087.03,249.307 2089.19,247.974 2092.5,248.5 Z"></path></g><g><path style="opacity:0.005" fill="#ffa100" d="M 1093.5,249.5 C 1095.17,249.5 1096.83,249.5 1098.5,249.5C 1099.72,262.809 1100.72,276.142 1101.5,289.5C 1102.09,289.291 1102.59,288.957 1103,288.5C 1103.6,293.88 1103.26,299.213 1102,304.5C 1100.99,305.337 1099.82,305.67 1098.5,305.5C 1097.08,297.513 1095.58,289.513 1094,281.5C 1093.5,270.839 1093.33,260.172 1093.5,249.5 Z"></path></g><g><path style="opacity:0.004" fill="#ffa100" d="M 1782.5,249.5 C 1784.5,249.5 1786.5,249.5 1788.5,249.5C 1786.5,270.833 1784.5,270.833 1782.5,249.5 Z"></path></g><g><path style="opacity:0.005" fill="#ffa100" d="M 2448.5,255.5 C 2452.71,255.541 2454.71,257.708 2454.5,262C 2453.37,265.771 2452.71,269.605 2452.5,273.5C 2451.5,273.5 2450.5,273.5 2449.5,273.5C 2448.99,269.642 2448.32,265.809 2447.5,262C 2447.65,259.784 2447.99,257.617 2448.5,255.5 Z"></path></g><g><path style="opacity:0.196" fill="#00b1e1" d="M 757.5,257.5 C 764.342,256.173 767.675,259.007 767.5,266C 766.954,268.861 765.954,271.527 764.5,274C 755.527,274.617 752.36,270.451 755,261.5C 755.662,260.016 756.496,258.683 757.5,257.5 Z"></path></g><g><path style="opacity:0.012" fill="#a4aa54" d="M 870.5,245.5 C 870.5,246.167 870.5,246.833 870.5,247.5C 869.503,264.659 869.17,281.992 869.5,299.5C 869.795,307.307 869.128,314.307 867.5,320.5C 867.5,315.5 867.5,310.5 867.5,305.5C 867.5,301.167 867.5,296.833 867.5,292.5C 868.331,277.339 868.831,262.005 869,246.5C 869.383,245.944 869.883,245.611 870.5,245.5 Z"></path></g><g><path style="opacity:0.004" fill="#fea100" d="M 1608.5,261.5 C 1609.29,261.783 1609.96,262.283 1610.5,263C 1609.18,263.528 1608.52,263.028 1608.5,261.5 Z"></path></g><g><path style="opacity:0.008" fill="#ffa100" d="M 1611.5,261.5 C 1613.85,261.163 1616.18,261.663 1618.5,263C 1620,264.337 1621,266.004 1621.5,268C 1625.69,269.809 1630.02,271.309 1634.5,272.5C 1635.31,274.472 1636.64,275.972 1638.5,277C 1638,277.5 1637.5,278 1637,278.5C 1615.27,277.793 1593.44,277.126 1571.5,276.5C 1571.5,275.5 1571.5,274.5 1571.5,273.5C 1576.16,271.163 1581.16,269.83 1586.5,269.5C 1595.92,271.087 1605.26,270.754 1614.5,268.5C 1613.68,267.614 1612.68,267.281 1611.5,267.5C 1611.5,265.5 1611.5,263.5 1611.5,261.5 Z"></path></g><g><path style="opacity:0.014" fill="#72ae70" d="M 870.5,243.5 C 870.5,244.167 870.5,244.833 870.5,245.5C 869.883,245.611 869.383,245.944 869,246.5C 868.831,262.005 868.331,277.339 867.5,292.5C 867.5,290.833 867.5,289.167 867.5,287.5C 867.333,273.496 867.5,259.496 868,245.5C 868.708,244.619 869.542,243.953 870.5,243.5 Z"></path></g><g><path style="opacity:0.012" fill="#d7a731" d="M 870.5,247.5 C 871.134,255.121 871.468,262.788 871.5,270.5C 871.708,280.384 871.042,290.051 869.5,299.5C 869.17,281.992 869.503,264.659 870.5,247.5 Z"></path></g><g><path style="opacity:0.006" fill="#ffa100" d="M 1791.5,266.5 C 1792.5,266.5 1793.5,266.5 1794.5,266.5C 1794.78,270.552 1795.78,274.385 1797.5,278C 1797.09,281.845 1796.59,285.679 1796,289.5C 1794.64,288.62 1793.14,288.286 1791.5,288.5C 1790.22,281.172 1790.22,273.838 1791.5,266.5 Z"></path></g><g><path style="opacity:0.221" fill="#00b3da" d="M 150.5,296.5 C 150.563,291.797 150.229,287.13 149.5,282.5C 150.583,282.461 151.583,282.127 152.5,281.5C 153.354,282.522 154.354,283.355 155.5,284C 158.987,290.39 157.32,294.557 150.5,296.5 Z"></path></g><g><path style="opacity:0.217" fill="#00b9d5" d="M 855.5,286.5 C 855.5,289.167 855.5,291.833 855.5,294.5C 853.175,295.655 852.008,297.655 852,300.5C 851.023,305.793 850.523,311.126 850.5,316.5C 850.495,320.534 850.162,324.534 849.5,328.5C 848.342,338.325 848.175,348.325 849,358.5C 849.708,359.381 850.542,360.047 851.5,360.5C 852.833,360.5 854.167,360.5 855.5,360.5C 855.5,361.167 855.5,361.833 855.5,362.5C 852.435,362.759 849.935,361.759 848,359.5C 847.173,336.814 847.507,314.147 849,291.5C 849.49,288.52 850.99,286.187 853.5,284.5C 854.182,285.243 854.849,285.909 855.5,286.5 Z"></path></g><g><path style="opacity:0.005" fill="#ffa100" d="M 1289.5,283.5 C 1290.46,285.265 1290.79,287.265 1290.5,289.5C 1289.5,289.5 1288.5,289.5 1287.5,289.5C 1287.5,290.5 1287.5,291.5 1287.5,292.5C 1281.68,293.377 1276.68,291.877 1272.5,288C 1277.61,285.918 1282.77,285.418 1288,286.5C 1289.04,285.756 1289.54,284.756 1289.5,283.5 Z"></path></g><g><path style="opacity:0.006" fill="#ffa100" d="M 1228.5,292.5 C 1240.84,293.143 1253.17,293.81 1265.5,294.5C 1265.5,295.833 1265.5,297.167 1265.5,298.5C 1255.59,300.21 1245.59,300.877 1235.5,300.5C 1235.5,341.833 1235.5,383.167 1235.5,424.5C 1233.26,425.449 1230.93,426.116 1228.5,426.5C 1228.67,384.832 1228.5,343.165 1228,301.5C 1225.89,298.345 1226.06,295.345 1228.5,292.5 Z"></path></g><g><path style="opacity:0.063" fill="#00b8cb" d="M 855.5,294.5 C 855.5,296.167 855.5,297.833 855.5,299.5C 853.304,305.008 851.637,310.674 850.5,316.5C 850.523,311.126 851.023,305.793 852,300.5C 852.008,297.655 853.175,295.655 855.5,294.5 Z"></path></g><g><path style="opacity:0.006" fill="#00badc" d="M 138.5,290.5 C 139.5,290.5 140.5,290.5 141.5,290.5C 142.166,298.162 142.832,305.828 143.5,313.5C 143.536,318.638 142.869,323.638 141.5,328.5C 140.5,328.5 139.5,328.5 138.5,328.5C 136.573,323.198 135.573,316.865 135.5,309.5C 135.573,302.135 136.573,295.802 138.5,290.5 Z"></path></g><g><path style="opacity:0.004" fill="#01b5b6" d="M 864.5,244.5 C 864.833,244.5 865.167,244.5 865.5,244.5C 865.585,267.841 865.251,291.174 864.5,314.5C 864.167,314.5 863.833,314.5 863.5,314.5C 863.638,291.163 863.972,267.83 864.5,244.5 Z"></path></g><g><path style="opacity:0.008" fill="#0bb299" d="M 870.5,242.5 C 870.5,242.833 870.5,243.167 870.5,243.5C 869.542,243.953 868.708,244.619 868,245.5C 867.5,259.496 867.333,273.496 867.5,287.5C 866.773,296.526 865.773,305.526 864.5,314.5C 865.251,291.174 865.585,267.841 865.5,244.5C 866.82,243.058 868.486,242.392 870.5,242.5 Z"></path></g><g><path style="opacity:0.005" fill="#00badc" d="M 344.5,305.5 C 345.5,305.5 346.5,305.5 347.5,305.5C 349.199,318.644 348.532,331.644 345.5,344.5C 344.5,344.5 343.5,344.5 342.5,344.5C 341.507,333.183 341.34,321.85 342,310.5C 342.335,308.497 343.168,306.83 344.5,305.5 Z"></path></g><g><path style="opacity:0.025" fill="#00b6c0" d="M 855.5,299.5 C 855.5,304.167 855.5,308.833 855.5,313.5C 853.528,316.084 852.528,319.084 852.5,322.5C 851.71,323.609 851.21,324.942 851,326.5C 850.176,335.676 850.343,344.676 851.5,353.5C 851.369,356.367 852.703,358.033 855.5,358.5C 855.5,359.167 855.5,359.833 855.5,360.5C 854.167,360.5 852.833,360.5 851.5,360.5C 849.627,349.967 848.96,339.3 849.5,328.5C 850.162,324.534 850.495,320.534 850.5,316.5C 851.637,310.674 853.304,305.008 855.5,299.5 Z"></path></g><g><path style="opacity:0.006" fill="#ffa100" d="M 1975.5,305.5 C 1976.83,305.5 1978.17,305.5 1979.5,305.5C 1979.5,313.512 1979.83,321.512 1980.5,329.5C 1980.55,335.325 1979.72,340.992 1978,346.5C 1977.67,345.5 1977.33,344.5 1977,343.5C 1975.99,344.337 1974.82,344.67 1973.5,344.5C 1972.48,331.424 1973.15,318.424 1975.5,305.5 Z"></path></g><g><path style="opacity:0.709" fill="#00bbe3" d="M 843.5,311.5 C 844.222,311.918 844.722,312.584 845,313.5C 846.552,328.504 846.719,343.504 845.5,358.5C 844.167,358.5 842.833,358.5 841.5,358.5C 840.393,346.2 840.227,333.866 841,321.5C 841.222,317.944 842.056,314.611 843.5,311.5 Z"></path></g><g><path style="opacity:0.007" fill="#ffa100" d="M 1101.5,313.5 C 1103.17,313.5 1104.83,313.5 1106.5,313.5C 1106.93,319.99 1107.27,326.49 1107.5,333C 1107.58,337.917 1107.08,342.75 1106,347.5C 1105.33,346.167 1104.67,346.167 1104,347.5C 1103.09,346.672 1102.42,345.672 1102,344.5C 1101.5,334.172 1101.33,323.839 1101.5,313.5 Z"></path></g><g><path style="opacity:0.004" fill="#ffa000" d="M 1799.5,313.5 C 1800.5,313.5 1801.5,313.5 1802.5,313.5C 1802.5,323.833 1802.5,334.167 1802.5,344.5C 1801.18,344.33 1800.01,344.663 1799,345.5C 1798.83,344 1798.67,342.5 1798.5,341C 1799.37,331.854 1799.7,322.688 1799.5,313.5 Z"></path></g><g><path style="opacity:0.007" fill="#00badc" d="M 492.5,285.5 C 508.002,285.35 523.002,285.683 537.5,286.5C 537.5,287.833 537.5,289.167 537.5,290.5C 534.625,291.623 531.625,292.456 528.5,293C 517.839,293.5 507.172,293.667 496.5,293.5C 496.5,304.167 496.5,314.833 496.5,325.5C 511.17,325.333 525.837,325.5 540.5,326C 541.9,327.438 543.567,328.271 545.5,328.5C 545.657,329.873 545.49,331.207 545,332.5C 527.607,332.62 510.107,332.62 492.5,332.5C 493.807,316.746 493.807,301.08 492.5,285.5 Z"></path></g><g><path style="opacity:0.004" fill="#74ad6f" d="M 867.5,305.5 C 867.5,310.5 867.5,315.5 867.5,320.5C 866.251,323.087 865.251,325.754 864.5,328.5C 865.656,320.721 866.656,313.054 867.5,305.5 Z"></path></g><g><path style="opacity:0.004" fill="#43b083" d="M 867.5,287.5 C 867.5,289.167 867.5,290.833 867.5,292.5C 867.5,296.833 867.5,301.167 867.5,305.5C 866.656,313.054 865.656,320.721 864.5,328.5C 863.833,329.167 863.167,329.833 862.5,330.5C 862.687,325.155 863.02,319.822 863.5,314.5C 863.833,314.5 864.167,314.5 864.5,314.5C 865.773,305.526 866.773,296.526 867.5,287.5 Z"></path></g><g><path style="opacity:0.239" fill="#00b8cc" d="M 849.5,328.5 C 848.96,339.3 849.627,349.967 851.5,360.5C 850.542,360.047 849.708,359.381 849,358.5C 848.175,348.325 848.342,338.325 849.5,328.5 Z"></path></g><g><path style="opacity:0.194" fill="#00bbd8" d="M 753.5,325.5 C 753.5,332.167 753.5,338.833 753.5,345.5C 751.321,345.16 749.488,344.16 748,342.5C 746.172,337.213 746.005,331.88 747.5,326.5C 749.5,326.167 751.5,325.833 753.5,325.5 Z"></path></g><g><path style="opacity:0.078" fill="#00b3a7" d="M 855.5,313.5 C 855.5,316.5 855.5,319.5 855.5,322.5C 854.883,322.611 854.383,322.944 854,323.5C 852.621,333.468 852.287,343.468 853,353.5C 853.377,354.942 854.21,355.942 855.5,356.5C 855.5,357.167 855.5,357.833 855.5,358.5C 852.703,358.033 851.369,356.367 851.5,353.5C 851.328,343.143 851.661,332.81 852.5,322.5C 852.528,319.084 853.528,316.084 855.5,313.5 Z"></path></g><g><path style="opacity:0.004" fill="#83ad67" d="M 864.5,328.5 C 864.5,331.833 864.5,335.167 864.5,338.5C 863.5,339.167 862.5,339.833 861.5,340.5C 862.051,337.193 862.384,333.86 862.5,330.5C 863.167,329.833 863.833,329.167 864.5,328.5 Z"></path></g><g><path style="opacity:0.004" fill="#00b9db" d="M 550.5,336.5 C 551.5,336.5 552.5,336.5 553.5,336.5C 553.5,339.5 553.5,342.5 553.5,345.5C 552.5,345.5 551.5,345.5 550.5,345.5C 550.5,342.5 550.5,339.5 550.5,336.5 Z"></path></g><g><path style="opacity:0.122" fill="#00b5b2" d="M 852.5,322.5 C 851.661,332.81 851.328,343.143 851.5,353.5C 850.343,344.676 850.176,335.676 851,326.5C 851.21,324.942 851.71,323.609 852.5,322.5 Z"></path></g><g><path style="opacity:0.004" fill="#ffa100" d="M 2216.5,336.5 C 2217.5,336.5 2218.5,336.5 2219.5,336.5C 2220.08,342.167 2220.24,347.833 2220,353.5C 2218.47,352.455 2217.64,350.955 2217.5,349C 2216.76,344.863 2216.43,340.697 2216.5,336.5 Z"></path></g><g><path style="opacity:0.047" fill="#00b194" d="M 855.5,322.5 C 855.5,324.833 855.5,327.167 855.5,329.5C 853.582,336.928 853.082,344.595 854,352.5C 854.278,353.416 854.778,354.082 855.5,354.5C 855.5,355.167 855.5,355.833 855.5,356.5C 854.21,355.942 853.377,354.942 853,353.5C 852.287,343.468 852.621,333.468 854,323.5C 854.383,322.944 854.883,322.611 855.5,322.5 Z"></path></g><g><path style="opacity:0.004" fill="#95ab5d" d="M 864.5,338.5 C 864.325,343.234 863.658,347.901 862.5,352.5C 861.509,348.555 861.176,344.555 861.5,340.5C 862.5,339.833 863.5,339.167 864.5,338.5 Z"></path></g><g><path style="opacity:0.024" fill="#49b080" d="M 855.5,329.5 C 855.5,337.833 855.5,346.167 855.5,354.5C 854.778,354.082 854.278,353.416 854,352.5C 853.082,344.595 853.582,336.928 855.5,329.5 Z"></path></g><g><path style="opacity:0.006" fill="#00badc" d="M 146.5,345.5 C 147.5,345.5 148.5,345.5 149.5,345.5C 150.166,353.162 150.832,360.828 151.5,368.5C 151.536,373.638 150.869,378.638 149.5,383.5C 148.5,383.5 147.5,383.5 146.5,383.5C 146.5,381.167 146.5,378.833 146.5,376.5C 145.5,376.5 144.5,376.5 143.5,376.5C 143.169,368.472 143.502,360.472 144.5,352.5C 145.086,352.709 145.586,353.043 146,353.5C 146.497,350.854 146.664,348.187 146.5,345.5 Z"></path></g><g><path style="opacity:0.006" fill="#ffa100" d="M 1324.5,352.5 C 1326.04,353.301 1327.71,353.634 1329.5,353.5C 1330.01,357.358 1330.68,361.191 1331.5,365C 1331.22,369.387 1329.72,373.22 1327,376.5C 1326.2,371.808 1325.03,367.975 1323.5,365C 1324.12,360.853 1324.46,356.686 1324.5,352.5 Z"></path></g><g><path style="opacity:0.005" fill="#ffa100" d="M 1561.5,353.5 C 1564.94,365.838 1566.94,378.505 1567.5,391.5C 1566.5,391.5 1565.5,391.5 1564.5,391.5C 1564.5,389.167 1564.5,386.833 1564.5,384.5C 1561.83,384.833 1559.17,385.167 1556.5,385.5C 1556.94,388.364 1556.1,390.697 1554,392.5C 1553.33,387.167 1553.33,381.833 1554,376.5C 1554.31,375.692 1554.81,375.025 1555.5,374.5C 1557.07,375.309 1558.74,375.643 1560.5,375.5C 1560.48,368.146 1560.81,360.813 1561.5,353.5 Z"></path></g><g><path style="opacity:0.029" fill="#00bcec" d="M 855.5,364.5 C 855.5,366.833 855.5,369.167 855.5,371.5C 853.166,369.824 852.166,367.491 852.5,364.5C 853.5,364.5 854.5,364.5 855.5,364.5 Z"></path></g><g><path style="opacity:0.006" fill="#00badc" d="M 334.5,366.5 C 335.5,366.5 336.5,366.5 337.5,366.5C 337.119,368.942 337.786,369.609 339.5,368.5C 339.833,372.5 340.167,376.5 340.5,380.5C 340.483,389.964 339.483,399.298 337.5,408.5C 336.5,408.5 335.5,408.5 334.5,408.5C 333.167,394.5 333.167,380.5 334.5,366.5 Z"></path></g><g><path style="opacity:0.005" fill="#fea200" d="M 1791.5,366.5 C 1793.5,367.167 1795.5,367.833 1797.5,368.5C 1797.5,373.833 1797.5,379.167 1797.5,384.5C 1795.8,384.626 1794.3,385.293 1793,386.5C 1792.23,386.355 1791.56,386.022 1791,385.5C 1790.77,379.167 1790.93,372.834 1791.5,366.5 Z"></path></g><g><path style="opacity:0.007" fill="#ffa000" d="M 983.5,372.5 C 985.03,373.067 986.53,373.733 988,374.5C 988.647,391.172 988.981,407.838 989,424.5C 987.951,426.107 986.451,426.773 984.5,426.5C 984.649,425.448 984.483,424.448 984,423.5C 983.667,423.833 983.333,424.167 983,424.5C 982.182,407.093 982.348,389.76 983.5,372.5 Z"></path></g><g><path style="opacity:0.005" fill="#ffa100" d="M 2097.5,373.5 C 2099.63,373.147 2100.97,373.98 2101.5,376C 2100.02,381.373 2099.02,386.873 2098.5,392.5C 2097.77,386.995 2097.1,381.495 2096.5,376C 2096.74,375.098 2097.08,374.265 2097.5,373.5 Z"></path></g><g><path style="opacity:0.004" fill="#ffa100" d="M 1332.5,376.5 C 1334.14,376.286 1335.64,376.62 1337,377.5C 1338.48,382.064 1339.31,386.73 1339.5,391.5C 1344.44,388.88 1346.78,390.713 1346.5,397C 1346.46,398.764 1346.12,400.431 1345.5,402C 1343.51,402.18 1341.51,402.014 1339.5,401.5C 1339.81,398.753 1339.48,396.086 1338.5,393.5C 1337.91,393.709 1337.41,394.043 1337,394.5C 1335.95,392.893 1334.45,392.227 1332.5,392.5C 1332.5,387.167 1332.5,381.833 1332.5,376.5 Z"></path></g><g><path style="opacity:0.099" fill="#00bcea" d="M 853.5,427.5 C 852.329,428.345 850.995,429.011 849.5,429.5C 849.175,412.589 849.508,395.756 850.5,379C 851.449,378.383 852.282,378.549 853,379.5C 853.5,395.497 853.667,411.497 853.5,427.5 Z"></path></g><g><path style="opacity:0.005" fill="#fea100" d="M 1546.5,389.5 C 1550.27,390.16 1551.94,392.494 1551.5,396.5C 1551.88,401.715 1549.71,403.381 1545,401.5C 1544.33,397.334 1544.83,393.334 1546.5,389.5 Z"></path></g><g><path style="opacity:0.005" fill="#fea200" d="M 1571.5,389.5 C 1572.83,389.5 1574.17,389.5 1575.5,389.5C 1576.33,393.476 1576.5,397.476 1576,401.5C 1571.29,403.381 1569.12,401.715 1569.5,396.5C 1569.8,393.988 1570.46,391.655 1571.5,389.5 Z"></path></g><g><path style="opacity:0.005" fill="#ffa100" d="M 1783.5,389.5 C 1785.5,390.167 1787.5,390.833 1789.5,391.5C 1789.5,394.833 1789.5,398.167 1789.5,401.5C 1787.25,402.333 1785.08,402.333 1783,401.5C 1782.31,397.446 1782.47,393.446 1783.5,389.5 Z"></path></g><g><path style="opacity:0.172" fill="#00b3d8" d="M 166.5,408.5 C 166.084,403.507 165.751,398.507 165.5,393.5C 166.423,392.697 167.423,392.53 168.5,393C 173.267,397.33 173.767,402.163 170,407.5C 168.989,408.337 167.822,408.67 166.5,408.5 Z"></path></g><g><path style="opacity:0.004" fill="#ffa100" d="M 1348.5,399.5 C 1349.38,399.369 1350.04,399.702 1350.5,400.5C 1352.06,402.991 1353.06,405.657 1353.5,408.5C 1351.83,408.5 1350.17,408.5 1348.5,408.5C 1348.5,405.5 1348.5,402.5 1348.5,399.5 Z"></path></g><g><path style="opacity:0.004" fill="#fea100" d="M 1538.5,399.5 C 1540.17,399.5 1541.83,399.5 1543.5,399.5C 1543.5,402.5 1543.5,405.5 1543.5,408.5C 1541.55,408.227 1540.05,408.893 1539,410.5C 1538.22,409.271 1537.72,407.938 1537.5,406.5C 1538.22,404.218 1538.56,401.884 1538.5,399.5 Z"></path></g><g><path style="opacity:0.004" fill="#fea200" d="M 1579.5,399.5 C 1581.87,401.956 1582.87,404.956 1582.5,408.5C 1581.5,408.5 1580.5,408.5 1579.5,408.5C 1579.5,405.5 1579.5,402.5 1579.5,399.5 Z"></path></g><g><path style="opacity:0.004" fill="#fea100" d="M 1776.5,399.5 C 1777.83,399.5 1779.17,399.5 1780.5,399.5C 1780.5,402.5 1780.5,405.5 1780.5,408.5C 1778.83,408.5 1777.17,408.5 1775.5,408.5C 1775.26,405.391 1775.6,402.391 1776.5,399.5 Z"></path></g><g><path style="opacity:0.02" fill="#00bbe3" d="M 854.5,416.5 C 854.815,420.371 854.482,424.038 853.5,427.5C 853.667,411.497 853.5,395.497 853,379.5C 852.282,378.549 851.449,378.383 850.5,379C 849.508,395.756 849.175,412.589 849.5,429.5C 848.833,429.5 848.167,429.5 847.5,429.5C 847.027,411.739 847.527,394.073 849,376.5C 851.454,374.987 853.121,375.654 854,378.5C 854.5,391.162 854.667,403.829 854.5,416.5 Z"></path></g><g><path style="opacity:0.004" fill="#fea100" d="M 2096.5,408.5 C 2097.5,408.5 2098.5,408.5 2099.5,408.5C 2100.45,413.79 2101.12,419.123 2101.5,424.5C 2099.17,424.5 2096.83,424.5 2094.5,424.5C 2094.88,419.123 2095.55,413.79 2096.5,408.5 Z"></path></g><g><path style="opacity:0.006" fill="#00badb" d="M 154.5,400.5 C 156.772,401.723 157.939,403.723 158,406.5C 158.667,413.167 158.667,419.833 158,426.5C 157,425.167 156,425.167 155,426.5C 154.935,424.117 154.102,423.45 152.5,424.5C 152.167,421.833 151.833,419.167 151.5,416.5C 151.961,411.012 152.961,405.679 154.5,400.5 Z"></path></g><g><path style="opacity:0.004" fill="#ffa100" d="M 1770.5,412.5 C 1771.43,413.568 1771.77,414.901 1771.5,416.5C 1770.5,416.5 1769.5,416.5 1768.5,416.5C 1768.53,414.801 1769.19,413.467 1770.5,412.5 Z"></path></g><g><path style="opacity:0.004" fill="#ff9b00" d="M 1358.5,413.5 C 1359.5,413.5 1360.5,413.5 1361.5,413.5C 1361.5,414.5 1361.5,415.5 1361.5,416.5C 1360.5,416.5 1359.5,416.5 1358.5,416.5C 1358.5,415.5 1358.5,414.5 1358.5,413.5 Z"></path></g><g><path style="opacity:0.004" fill="#fea100" d="M 1530.5,413.5 C 1531.5,413.5 1532.5,413.5 1533.5,413.5C 1533.5,414.5 1533.5,415.5 1533.5,416.5C 1532.5,416.5 1531.5,416.5 1530.5,416.5C 1530.5,415.5 1530.5,414.5 1530.5,413.5 Z"></path></g><g><path style="opacity:0.004" fill="#ffa100" d="M 1522.5,420.5 C 1524.01,421.728 1525.51,421.728 1527,420.5C 1527.49,421.793 1527.66,423.127 1527.5,424.5C 1525.55,424.227 1524.05,424.893 1523,426.5C 1522.69,425.692 1522.19,425.025 1521.5,424.5C 1520.52,427.086 1520.19,429.753 1520.5,432.5C 1518.04,433.465 1515.54,434.465 1513,435.5C 1511.56,434.852 1510.06,434.519 1508.5,434.5C 1508.72,438.748 1506.72,441.415 1502.5,442.5C 1499.16,443.874 1495.99,443.541 1493,441.5C 1492.5,443.473 1492.34,445.473 1492.5,447.5C 1491.5,447.5 1490.5,447.5 1489.5,447.5C 1489.39,444.951 1490.05,442.618 1491.5,440.5C 1491.17,439.833 1490.83,439.167 1490.5,438.5C 1495,437.359 1499.5,436.359 1504,435.5C 1504.41,435.957 1504.91,436.291 1505.5,436.5C 1507.17,434.49 1507.84,432.157 1507.5,429.5C 1509.94,429.683 1512.1,429.016 1514,427.5C 1518.86,429.477 1520.7,427.477 1519.5,421.5C 1520.79,421.737 1521.79,421.404 1522.5,420.5 Z"></path></g><g><path style="opacity:0.004" fill="#ffa000" d="M 1593.5,420.5 C 1596.2,420.771 1598.87,421.104 1601.5,421.5C 1601.19,423.924 1601.53,426.257 1602.5,428.5C 1603.97,428.277 1605.47,427.944 1607,427.5C 1608.58,428.861 1610.42,429.528 1612.5,429.5C 1612.5,431.167 1612.5,432.833 1612.5,434.5C 1610.94,434.519 1609.44,434.852 1608,435.5C 1605.46,434.465 1602.96,433.465 1600.5,432.5C 1600.66,429.813 1600.5,427.146 1600,424.5C 1599.69,425.308 1599.19,425.975 1598.5,426.5C 1597.16,424.995 1595.49,424.328 1593.5,424.5C 1593.5,423.167 1593.5,421.833 1593.5,420.5 Z"></path></g><g><path style="opacity:0.004" fill="#ffa100" d="M 1759.5,420.5 C 1761.13,421.815 1762.8,421.815 1764.5,420.5C 1765.43,421.689 1765.76,423.022 1765.5,424.5C 1763.18,424.229 1761.18,424.896 1759.5,426.5C 1758.75,425.624 1758.25,424.624 1758,423.5C 1757.96,427.089 1757.13,430.422 1755.5,433.5C 1751.92,436.444 1748.75,436.11 1746,432.5C 1745.01,440.813 1740.34,444.146 1732,442.5C 1730.32,441.318 1728.82,439.985 1727.5,438.5C 1731.82,437.392 1736.15,436.392 1740.5,435.5C 1741.09,435.709 1741.59,436.043 1742,436.5C 1743.35,434.406 1743.85,432.073 1743.5,429.5C 1746.27,429.78 1748.77,429.113 1751,427.5C 1752.34,428.214 1753.68,427.88 1755,426.5C 1755.33,426.833 1755.67,427.167 1756,427.5C 1756.5,425.527 1756.66,423.527 1756.5,421.5C 1757.79,421.737 1758.79,421.404 1759.5,420.5 Z"></path></g><g><path style="opacity:0.004" fill="#ff9d00" d="M 1364.5,420.5 C 1366.38,421.341 1368.38,421.675 1370.5,421.5C 1370.51,423.308 1370.01,424.975 1369,426.5C 1367.95,424.893 1366.45,424.227 1364.5,424.5C 1364.5,423.167 1364.5,421.833 1364.5,420.5 Z"></path></g><g><path style="opacity:0.029" fill="#00b3e2" d="M 166.5,424.5 C 169.518,424.335 172.518,424.502 175.5,425C 177.141,426.129 178.141,427.629 178.5,429.5C 175.09,429.543 171.757,429.043 168.5,428C 167.177,427.184 166.511,426.017 166.5,424.5 Z"></path></g><g><path style="opacity:0.005" fill="#ffa100" d="M 1371.5,427.5 C 1375.25,428.081 1379.25,428.748 1383.5,429.5C 1381.47,436.002 1377.8,437.002 1372.5,432.5C 1371.55,430.955 1371.21,429.288 1371.5,427.5 Z"></path></g><g><path style="opacity:0.004" fill="#fea100" d="M 1613.5,429.5 C 1614.53,429.897 1614.69,430.563 1614,431.5C 1613.54,430.906 1613.37,430.239 1613.5,429.5 Z"></path></g><g><path style="opacity:0.005" fill="#ffa100" d="M 1613.5,433.5 C 1614.27,434.66 1615.27,435.66 1616.5,436.5C 1617.09,436.291 1617.59,435.957 1618,435.5C 1621.89,436.178 1625.73,437.178 1629.5,438.5C 1628.75,439.736 1628.42,441.07 1628.5,442.5C 1623.24,444.315 1618.57,443.315 1614.5,439.5C 1613.53,437.604 1613.2,435.604 1613.5,433.5 Z"></path></g><g><path style="opacity:0.005" fill="#ffa100" d="M 1383.5,435.5 C 1384.72,436.028 1385.89,436.695 1387,437.5C 1390.78,436.363 1394.62,436.363 1398.5,437.5C 1398.5,439.167 1398.5,440.833 1398.5,442.5C 1393.32,444.04 1388.66,443.04 1384.5,439.5C 1383.57,438.311 1383.24,436.978 1383.5,435.5 Z"></path></g><g><path style="opacity:0.004" fill="#fea100" d="M 1399.5,437.5 C 1401.13,440.65 1401.46,443.983 1400.5,447.5C 1399.51,444.232 1399.18,440.898 1399.5,437.5 Z"></path></g><g><path style="opacity:0.004" fill="#ffa100" d="M 1404.5,443.5 C 1405.59,443.62 1406.25,444.287 1406.5,445.5C 1406.17,446.167 1405.83,446.833 1405.5,447.5C 1404.57,446.311 1404.24,444.978 1404.5,443.5 Z"></path></g><g><path style="opacity:0.004" fill="#fea200" d="M 1408.5,443.5 C 1409.59,443.62 1410.25,444.287 1410.5,445.5C 1410.17,446.167 1409.83,446.833 1409.5,447.5C 1408.57,446.311 1408.24,444.978 1408.5,443.5 Z"></path></g><g><path style="opacity:0.004" fill="#fea200" d="M 1413.5,443.5 C 1414.6,444.601 1414.76,445.934 1414,447.5C 1413.51,446.207 1413.34,444.873 1413.5,443.5 Z"></path></g><g><path style="opacity:0.004" fill="#fea200" d="M 1477.5,443.5 C 1478.6,444.601 1478.76,445.934 1478,447.5C 1477.51,446.207 1477.34,444.873 1477.5,443.5 Z"></path></g><g><path style="opacity:0.004" fill="#fea200" d="M 1481.5,443.5 C 1482.59,443.62 1483.25,444.287 1483.5,445.5C 1483.17,446.167 1482.83,446.833 1482.5,447.5C 1481.57,446.311 1481.24,444.978 1481.5,443.5 Z"></path></g><g><path style="opacity:0.004" fill="#fea100" d="M 1485.5,443.5 C 1486.59,443.62 1487.25,444.287 1487.5,445.5C 1487.17,446.167 1486.83,446.833 1486.5,447.5C 1485.57,446.311 1485.24,444.978 1485.5,443.5 Z"></path></g></svg> 