<?xml version="1.0" standalone="no"?>
<!DOCTYPE svg PUBLIC "-//W3C//DTD SVG 20010904//EN"
 "http://www.w3.org/TR/2001/REC-SVG-20010904/DTD/svg10.dtd">
<svg version="1.0" xmlns="http://www.w3.org/2000/svg"
 width="512.000000pt" height="512.000000pt" viewBox="0 0 512.000000 512.000000"
 preserveAspectRatio="xMidYMid meet">
<metadata>
Created by potrace 1.14, written by Peter Selinger 2001-2017
</metadata>
<g transform="translate(0.000000,512.000000) scale(0.100000,-0.100000)"
fill="#000000" stroke="none">
<path d="M2368 5115 c-2 -1 -37 -6 -77 -9 -41 -4 -78 -9 -81 -11 -3 -2 -33 -7
-65 -10 -78 -9 -270 -56 -382 -94 -740 -246 -1331 -811 -1598 -1526 -36 -96
-98 -304 -109 -362 -2 -15 -9 -53 -15 -83 -29 -155 -35 -239 -36 -450 0 -243
10 -349 60 -592 32 -161 126 -415 219 -594 83 -159 216 -361 297 -449 10 -11
42 -47 71 -79 121 -136 267 -269 428 -387 78 -58 256 -162 375 -219 193 -93
468 -179 680 -214 31 -5 69 -10 170 -23 77 -10 406 -10 510 0 783 74 1515 533
1927 1207 199 326 330 714 365 1079 10 99 10 416 1 511 -72 721 -437 1368
-1013 1795 -382 283 -782 442 -1260 499 -92 11 -457 20 -467 11z m649 -665
c24 -69 41 -134 38 -145 -5 -22 -1455 -1477 -1455 -1460 0 6 36 116 81 245 44
129 82 240 83 245 2 6 6 17 9 25 3 8 24 71 47 140 204 609 363 1066 373 1072
7 4 185 7 397 5 l384 -2 43 -125z m922 -604 c56 -172 101 -322 99 -334 -2 -17
-2381 -2414 -2417 -2436 -6 -4 -233 216 -506 489 -361 361 -495 501 -495 517
0 23 203 625 215 636 3 3 178 -166 389 -377 267 -267 388 -381 397 -376 7 5
503 500 1103 1102 599 601 1095 1093 1101 1093 6 0 57 -141 114 -314z m-174
-1673 c73 -220 208 -629 210 -638 1 -5 5 -17 8 -25 33 -88 118 -364 114 -373
-6 -16 -691 -17 -706 -2 -10 10 -201 583 -201 603 0 14 529 546 536 539 3 -3
21 -50 39 -104z"/>
</g>
</svg>
