<?xml version="1.0" encoding="UTF-8"?> <svg xmlns="http://www.w3.org/2000/svg" width="122" height="24" viewBox="0 0 122 24" fill="none"><path fill-rule="evenodd" clip-rule="evenodd" d="M17.4753 13.2919C17.4417 13.3144 17.419 13.3248 17.4026 13.3412C16.6023 14.1431 15.8039 14.9466 15.0007 15.7456C14.9249 15.821 14.9488 15.8881 14.9729 15.9617C15.2584 16.8325 15.5487 17.7017 15.8288 18.5743C15.8687 18.6985 15.9246 18.7316 16.0501 18.7309C17.0438 18.7255 18.0377 18.7277 19.0315 18.7275C19.2691 18.7274 19.2645 18.7287 19.1892 18.5C18.7945 17.3025 18.4029 16.1041 18.0093 14.9063C17.8336 14.3716 17.6558 13.8375 17.4753 13.2919ZM7.51087 10.6936C7.57957 10.6285 7.62039 10.5915 7.65923 10.5527C8.82335 9.38834 9.98764 8.22423 11.151 7.05923C12.1793 6.02957 13.2054 4.99782 14.236 3.97058C14.3343 3.87261 14.3701 3.79121 14.3167 3.65093C14.1988 3.34075 14.0939 3.02473 14.004 2.70545C13.9643 2.56472 13.902 2.52748 13.7609 2.5282C12.6489 2.534 11.5369 2.53448 10.425 2.52748C10.2841 2.5266 10.2327 2.57947 10.1918 2.70021C9.3288 5.2457 8.462 7.78996 7.59897 10.3354C7.56326 10.4408 7.49479 10.5409 7.51087 10.6936ZM3.93675 11.2247C3.87189 11.2524 3.87223 11.3167 3.85626 11.3633C3.53898 12.2886 3.22711 13.2157 2.90748 14.1401C2.86711 14.2569 2.88536 14.329 2.97252 14.4152C3.56708 15.0033 4.15559 15.5976 4.74709 16.1888C5.64064 17.0819 6.53747 17.9717 7.42613 18.8695C7.543 18.9876 7.60927 18.9907 7.71558 18.8673C7.8405 18.7223 7.98498 18.5941 8.12047 18.4581C10.2717 16.2988 12.4224 14.139 14.5742 11.9803C16.0082 10.5416 17.4428 9.10354 18.881 7.66896C18.9645 7.58566 18.9746 7.51872 18.9396 7.41373C18.6301 6.48534 18.3254 5.55536 18.0192 4.62586C17.9558 4.43327 17.9539 4.43167 17.8155 4.57025C16.6383 5.74933 15.4618 6.92923 14.2848 8.10857C12.1102 10.2875 9.93585 12.4667 7.76006 14.6444C7.5314 14.8733 7.59808 14.8787 7.35875 14.6397C6.25419 13.5366 5.1516 12.4315 4.04802 11.3274C4.01328 11.2927 3.97581 11.2606 3.93675 11.2247ZM11.1915 24C10.936 23.9242 10.669 23.9325 10.4081 23.8961C7.61199 23.5061 5.23825 22.2931 3.29872 20.2602C1.54703 18.4242 0.483998 16.2393 0.125227 13.7356C-0.776421 7.44423 3.2848 1.72439 9.28122 0.314516C15.4197 -1.12872 21.7229 2.52779 23.4989 8.56082C25.1967 14.3285 22.4679 20.3694 17.014 22.9055C15.7026 23.5154 14.3209 23.8672 12.8754 23.9676C12.8354 23.9704 12.7865 23.9517 12.7581 24H11.1915Z" fill="#17C37B"></path><path fill-rule="evenodd" clip-rule="evenodd" d="M121.2 16.7936C120.451 16.795 119.702 16.7943 118.953 16.8C118.832 16.8009 118.788 16.7673 118.803 16.668C118.807 16.6447 118.804 16.6205 118.804 16.5968C118.804 12.7329 118.805 8.869 118.8 5.0051C118.8 4.84476 118.842 4.79725 119.036 4.80011C119.757 4.8109 120.478 4.80451 121.2 4.80454V16.7936Z" fill="#17C37B"></path><path fill-rule="evenodd" clip-rule="evenodd" d="M103.809 8.15571C102.714 7.99949 101.969 8.5191 101.846 9.59672C101.742 10.502 102.21 11.268 102.994 11.4595C103.218 11.5141 103.445 11.5255 103.674 11.5075C104.386 11.4514 104.853 11.0482 105.021 10.3451C105.063 10.1685 105.082 9.98802 105.076 9.85381C105.074 8.86931 104.636 8.27367 103.809 8.15571ZM103.5 18.6817C104.268 18.6502 104.994 18.48 105.614 17.9694C105.863 17.7647 106.071 17.5265 106.18 17.2102C106.421 16.5102 106.108 16.0303 105.398 16.0085C105.368 16.0075 105.338 16.0069 105.308 16.0069C104.373 16.0068 103.438 16.0063 102.503 16.0071C102.166 16.0075 101.834 16.0461 101.516 16.1712C101.147 16.3161 100.878 16.5625 100.788 16.9799C100.665 17.5472 100.854 17.9658 101.376 18.2713C101.941 18.6019 102.557 18.6985 103.194 18.6823C103.296 18.6823 103.398 18.6859 103.5 18.6817ZM100.796 12.1302C100.636 11.9646 100.48 11.8021 100.343 11.6206C99.523 10.5351 99.4817 8.50134 100.992 7.38545C101.625 6.9177 102.321 6.65146 103.098 6.62569C103.91 6.59875 104.701 6.70105 105.438 7.08776C105.531 7.13686 105.56 7.12275 105.573 7.01533C105.732 5.70342 106.906 4.84606 107.997 4.81961C108.11 4.81686 108.152 4.83281 108.143 4.96834C108.107 5.5615 108.079 6.15537 108.058 6.7494C108.054 6.88075 108.005 6.89712 107.898 6.90061C107.603 6.91025 107.313 6.95081 107.041 7.08099C106.849 7.17234 106.691 7.30403 106.596 7.50077C106.491 7.71941 106.452 7.91807 106.626 8.15233C107.492 9.32111 107.215 11.1944 106.079 12.1232C105.218 12.8277 104.246 13.0946 103.173 13.0323C102.77 13.009 102.376 12.939 101.995 12.7989C101.957 12.785 101.912 12.7786 101.873 12.7842C101.561 12.8286 101.256 13.1627 101.219 13.4973C101.173 13.9182 101.314 14.1784 101.673 14.3338C101.927 14.4435 102.195 14.4734 102.465 14.4746C103.461 14.4791 104.456 14.4775 105.452 14.4777C105.976 14.4777 106.493 14.5297 106.992 14.7056C108.008 15.0629 108.407 15.8643 108.289 16.9054C108.145 18.1824 107.407 19.032 106.388 19.6551C105.645 20.1086 104.833 20.3338 103.98 20.3932C102.726 20.4805 101.5 20.368 100.355 19.7681C99.8287 19.4921 99.3688 19.1256 99.0477 18.5972C98.7154 18.0505 98.6284 17.4546 98.7832 16.8336C98.9537 16.1498 99.436 15.7827 100.049 15.5711C100.167 15.5303 100.29 15.5058 100.435 15.4673C98.9995 14.612 99.0889 12.6762 100.796 12.1302Z" fill="#17C37B"></path><path fill-rule="evenodd" clip-rule="evenodd" d="M41.705 13.0333C41.7199 13.7778 42.0612 14.3223 42.7319 14.646C43.8313 15.1766 45.1377 14.6236 45.6212 13.4265C45.8994 12.7377 45.9065 12.0241 45.7637 11.3091C45.5606 10.293 44.7626 9.39288 43.529 9.47928C42.6593 9.54018 41.9703 10.0898 41.7692 10.9378C41.6662 11.3719 41.7227 11.8108 41.7042 12.1817C41.7042 12.5094 41.6998 12.7715 41.705 13.0333ZM43.5801 7.59395C44.7201 7.46762 45.7226 7.79148 46.5632 8.58341C47.368 9.34166 47.8043 10.2815 47.9293 11.3715C48.0491 12.4159 47.9854 13.4425 47.523 14.4041C46.9781 15.5373 46.1353 16.3491 44.8859 16.6651C44.2117 16.8356 43.5324 16.8052 42.8648 16.6113C42.4077 16.4785 42.0674 16.247 41.7283 15.8629C41.6864 15.9242 41.7052 15.9901 41.7052 16.0499C41.7038 17.5611 41.7012 19.0724 41.7084 20.5836C41.7092 20.7452 41.6572 20.769 41.5136 20.767C40.9404 20.7589 40.3669 20.7577 39.7937 20.7673C39.631 20.77 39.5818 20.7326 39.582 20.5604C39.5876 16.502 39.5863 12.4436 39.5863 8.38519C39.5863 8.23284 39.5911 8.08031 39.5845 7.92822C39.5805 7.83669 39.602 7.80053 39.7035 7.80155C40.2097 7.80665 40.716 7.80562 41.2222 7.80218C41.3049 7.80163 41.3332 7.8224 41.3463 7.90949C41.3974 8.25035 41.4607 8.58938 41.5265 8.96973C42.0135 8.15381 42.6872 7.69284 43.5801 7.59395Z" fill="#1D2129"></path><path fill-rule="evenodd" clip-rule="evenodd" d="M80.1507 13.4478C80.1535 13.3616 80.1275 13.3385 80.0684 13.3212C79.3182 13.1022 78.5611 12.9595 77.7882 13.1162C77.3983 13.1953 77.055 13.3798 76.9233 13.8688C76.7616 14.4688 77.026 15.0864 77.5388 15.318C77.7865 15.4299 78.0476 15.4494 78.2792 15.4657C79.3047 15.4884 80.1127 14.5998 80.1507 13.4478ZM79.8371 16.3213C79.4145 16.8125 78.8956 17.0747 78.3087 17.1298C77.6005 17.1963 76.9043 17.1187 76.2476 16.7656C75.0385 16.1154 74.6354 14.6582 74.9627 13.4052C75.1681 12.6188 75.6856 12.179 76.3167 11.9003C77.0296 11.5854 77.774 11.5499 78.5246 11.611C79.0418 11.6531 79.5493 11.7704 80.0533 11.9078C80.1058 11.9221 80.1613 11.9652 80.1601 11.848C80.1549 11.3353 80.1885 10.819 80.0937 10.3134C79.9652 9.62687 79.6433 9.29463 79.0073 9.20624C78.6533 9.15707 78.299 9.19221 77.9592 9.3347C77.5453 9.50821 77.2778 9.82905 77.2393 10.3551C77.2287 10.5001 77.1823 10.5241 77.0695 10.5228C76.4962 10.5161 75.9229 10.5198 75.3496 10.5197C75.1487 10.5197 75.1491 10.5195 75.1615 10.2783C75.2177 9.18142 75.6567 8.38007 76.5556 7.99848C77.81 7.46593 79.094 7.37701 80.3634 7.90696C81.3342 8.3123 81.8352 9.19679 82.0017 10.3556C82.0449 10.6568 82.0486 10.9614 82.0489 11.2653C82.0505 13.072 82.0474 14.8787 82.0535 16.6853C82.0541 16.8561 82.0152 16.8942 81.8734 16.8906C81.4259 16.8793 80.978 16.8822 80.5304 16.8896C80.4272 16.8913 80.3859 16.854 80.374 16.7391C80.3394 16.4063 80.2994 16.0743 80.257 15.7026C80.1157 15.9367 79.9909 16.1425 79.8371 16.3213Z" fill="#1D2129"></path><path fill-rule="evenodd" clip-rule="evenodd" d="M33.1251 12.9896C32.9964 13.008 32.8679 13.0451 32.7442 13.0913C32.2994 13.2573 32.078 13.576 32.0498 14.0762C32.0236 14.5431 32.2659 14.9889 32.6543 15.1982C32.8716 15.3154 33.1038 15.3447 33.3372 15.3706C34.3624 15.4843 35.2394 14.6271 35.3279 13.4332C35.3384 13.2908 35.2988 13.2391 35.1837 13.2069C34.6784 13.0656 34.1688 12.9679 33.6478 12.9507C33.4735 12.9626 33.2981 12.965 33.1251 12.9896ZM34.0362 16.9098C32.96 17.2233 31.9168 17.1238 30.9846 16.3706C30.2957 15.814 30.0013 14.9953 30.0348 14.0317C30.0754 12.8628 30.6278 12.1039 31.6836 11.7266C32.3564 11.4862 33.0458 11.4568 33.7422 11.5207C34.2757 11.5697 34.7978 11.6941 35.3307 11.84C35.3214 11.3153 35.3671 10.8 35.2863 10.2908C35.1687 9.54902 34.8287 9.18292 34.1692 9.10252C33.8201 9.06 33.4714 9.09327 33.1361 9.23354C32.7 9.41609 32.4381 9.76052 32.4083 10.3111C32.403 10.4092 32.3695 10.4229 32.2985 10.4227C31.6808 10.4206 31.063 10.4185 30.4454 10.4244C30.3385 10.4255 30.3376 10.3683 30.3375 10.2752C30.3363 9.06879 30.8781 8.22021 31.9277 7.80095C32.6398 7.51645 33.3774 7.45739 34.1237 7.48191C34.618 7.49815 35.1023 7.58203 35.5612 7.80171C36.5495 8.27476 37.0527 9.16933 37.1953 10.3725C37.2313 10.6761 37.2279 10.9806 37.2279 11.2854C37.2281 13.0581 37.2253 14.8309 37.2322 16.6036C37.2329 16.7791 37.1886 16.8085 37.0515 16.8054C36.6089 16.7951 36.166 16.7977 35.7233 16.8043C35.6115 16.8059 35.5624 16.7848 35.5512 16.6345C35.5269 16.3083 35.477 15.9848 35.4315 15.6106C35.0744 16.262 34.6417 16.7333 34.0362 16.9098Z" fill="#1D2129"></path><path fill-rule="evenodd" clip-rule="evenodd" d="M112.107 13.0257C111.548 13.1539 111.236 13.5327 111.226 14.0893C111.215 14.6906 111.54 15.1559 112.08 15.3019C112.202 15.3347 112.327 15.3524 112.451 15.3685C113.516 15.5063 114.397 14.6704 114.5 13.4315C114.51 13.3058 114.492 13.2436 114.372 13.2099C113.846 13.0618 113.315 12.9657 112.773 12.9536C112.55 12.9546 112.327 12.9753 112.107 13.0257ZM113.181 16.9212C112.793 17.055 112.397 17.0801 111.998 17.0517C111.325 17.0039 110.684 16.832 110.131 16.3478C109.329 15.6464 108.99 14.3359 109.334 13.2427C109.546 12.5662 109.984 12.1476 110.536 11.8752C111.273 11.5122 112.047 11.4587 112.832 11.5206C113.361 11.5623 113.88 11.6772 114.394 11.82C114.442 11.8331 114.508 11.8843 114.505 11.7639C114.494 11.2578 114.544 10.7481 114.447 10.247C114.311 9.5446 114.021 9.21608 113.412 9.11912C113.026 9.05755 112.638 9.08562 112.269 9.25434C111.866 9.43874 111.612 9.76684 111.584 10.2882C111.578 10.3967 111.545 10.4254 111.455 10.4249C110.85 10.421 110.244 10.4197 109.638 10.4257C109.529 10.4268 109.515 10.378 109.517 10.2687C109.544 9.19533 109.93 8.37565 110.804 7.96169C112.048 7.37286 113.332 7.29741 114.611 7.77359C115.612 8.14647 116.153 9.02001 116.335 10.2063C116.383 10.5191 116.396 10.836 116.396 11.1535C116.396 12.9678 116.394 14.7822 116.4 16.5965C116.401 16.7725 116.355 16.8031 116.218 16.8C115.771 16.79 115.323 16.7926 114.876 16.799C114.772 16.8005 114.737 16.7684 114.726 16.6444C114.696 16.3116 114.649 15.9808 114.602 15.5976C114.241 16.268 113.79 16.7108 113.181 16.9212Z" fill="#17C37B"></path><path fill-rule="evenodd" clip-rule="evenodd" d="M55.3482 10.9547C55.1765 10.2577 54.8474 9.68062 54.1613 9.43673C53.1161 9.06531 51.9492 9.51403 51.5284 10.7475C51.2843 11.4629 51.2783 12.2028 51.3646 12.9467C51.423 13.4498 51.5612 13.9221 51.8544 14.3379C52.6005 15.3957 54.5018 15.3392 55.1692 13.8667C55.414 13.3267 55.475 12.7509 55.4698 12.1156C55.474 11.755 55.4457 11.3503 55.3482 10.9547ZM57.0784 14.7157C56.4434 16.0294 55.4275 16.7875 54.0215 16.953C53.2527 17.0435 52.4947 16.9955 51.7678 16.7047C50.6549 16.2593 49.892 15.4302 49.5121 14.2563C49.0547 12.8428 49.0525 11.4061 49.5585 10.0066C50.0985 8.51304 51.165 7.67027 52.6748 7.45225C53.5547 7.32517 54.4195 7.396 55.2379 7.77293C56.3891 8.30312 57.0514 9.27175 57.3808 10.5129C57.5275 11.0658 57.5839 11.6335 57.5724 12.1438C57.5798 13.081 57.4579 13.9304 57.0784 14.7157Z" fill="#1D2129"></path><path fill-rule="evenodd" clip-rule="evenodd" d="M95.4883 11.4607C95.5481 11.4605 95.6297 11.4963 95.6261 11.3628C95.6121 10.8605 95.5309 10.3838 95.2759 9.9545C94.734 9.04228 93.2335 9.09581 92.6674 10.0213C92.4285 10.4119 92.2846 10.8354 92.224 11.3017C92.207 11.4319 92.2368 11.4653 92.3505 11.4642C92.8763 11.4588 93.4021 11.4618 93.9278 11.4618C94.448 11.4618 94.9681 11.4626 95.4883 11.4607ZM92.3554 12.8603C92.2159 12.8589 92.1841 12.9064 92.1959 13.0525C92.2401 13.5965 92.3484 14.116 92.6201 14.5795C92.8494 14.9706 93.1687 15.2104 93.5775 15.2997C93.9037 15.371 94.2304 15.3714 94.5524 15.2781C95.0072 15.1464 95.2975 14.8155 95.4206 14.3099C95.4525 14.1785 95.5021 14.1483 95.6161 14.1497C96.1758 14.1568 96.7357 14.1568 97.2955 14.15C97.4164 14.1486 97.4327 14.1856 97.4094 14.3113C97.1443 15.7436 96.1549 16.7986 94.8311 17.0487C93.7302 17.2568 92.7009 17.0859 91.8053 16.283C90.9159 15.4856 90.4392 14.4232 90.3023 13.1699C90.1829 12.0769 90.2478 10.9987 90.6665 9.9822C91.6773 7.528 93.9136 7.12377 95.4706 7.86116C96.43 8.31547 96.9574 9.20149 97.2526 10.2877C97.4678 11.0794 97.4869 11.8848 97.4022 12.7011C97.3867 12.8507 97.3367 12.8674 97.2241 12.8667C96.4154 12.8621 95.6068 12.8642 94.7982 12.8642C93.9839 12.8642 93.1696 12.8683 92.3554 12.8603Z" fill="#17C37B"></path><path fill-rule="evenodd" clip-rule="evenodd" d="M63.9839 10.0677C63.9167 10.0683 63.8651 10.0676 63.8481 9.97162C63.7658 9.50705 63.4706 9.28304 63.0847 9.17904C62.6487 9.06147 62.212 9.06295 61.7805 9.21465C61.5795 9.28533 61.4078 9.40774 61.2714 9.58563C61.0426 9.88379 61.0529 10.2641 61.2962 10.5472C61.4834 10.765 61.7279 10.8705 61.9763 10.9709C62.8545 11.3258 63.7349 11.6749 64.5993 12.07C64.811 12.1668 65.0028 12.3047 65.1936 12.4454C66.1388 13.1424 66.1714 14.4251 65.7366 15.2374C65.3777 15.9079 64.843 16.3637 64.1903 16.6164C62.9177 17.1091 61.637 17.0938 60.3879 16.5181C59.5963 16.1532 59.0471 15.5192 58.8622 14.5585C58.8301 14.3915 58.8133 14.222 58.8061 14.0504C58.8012 13.9348 58.8399 13.9144 58.9327 13.9151C59.4657 13.9189 59.9988 13.9177 60.5319 13.9161C60.6079 13.9159 60.6592 13.9211 60.6664 14.0323C60.7006 14.5606 60.9663 14.8999 61.4109 15.0532C61.9802 15.2495 62.5562 15.2817 63.1275 15.0468C63.3072 14.9729 63.4648 14.8587 63.5954 14.7043C63.9096 14.3331 63.8558 13.7882 63.4774 13.5C63.307 13.3702 63.1167 13.285 62.9224 13.2081C62.2244 12.9321 61.5264 12.656 60.8305 12.3737C60.4366 12.214 60.0695 11.9983 59.7457 11.6979C58.7009 10.7284 58.7565 9.01156 59.8632 8.13027C60.3422 7.74877 60.8849 7.54454 61.4635 7.45411C62.2755 7.32716 63.0867 7.32007 63.8788 7.58766C64.7253 7.87358 65.3501 8.43964 65.6358 9.3981C65.6859 9.56641 65.7103 9.74151 65.7258 9.91856C65.7355 10.0298 65.7139 10.0744 65.6002 10.0701C65.3311 10.0598 65.0615 10.0668 64.7921 10.0668C64.5227 10.0668 64.2533 10.0655 63.9839 10.0677Z" fill="#1D2129"></path><path fill-rule="evenodd" clip-rule="evenodd" d="M68.6953 9.10658C68.6964 8.96726 68.6598 8.93371 68.5329 8.93808C68.2332 8.94838 67.9329 8.93703 67.633 8.94362C67.5222 8.94608 67.4696 8.92809 67.4728 8.78885C67.482 8.3803 67.4798 7.97131 67.4736 7.56264C67.4719 7.4502 67.5055 7.42126 67.6078 7.42336C67.9199 7.42988 68.2324 7.4195 68.5444 7.42886C68.6654 7.43249 68.6959 7.39492 68.6949 7.26848C68.689 6.56131 68.6953 5.85399 68.6891 5.14682C68.688 5.01215 68.72 4.97079 68.8509 4.97239C69.457 4.9798 70.0633 4.97969 70.6694 4.97223C70.7938 4.97083 70.8192 5.01215 70.8183 5.13527C70.813 5.84248 70.8191 6.54976 70.8127 7.25693C70.8115 7.38919 70.837 7.43093 70.9699 7.42937C71.6495 7.42145 72.3292 7.43132 73.0087 7.42141C73.1599 7.41919 73.188 7.47073 73.1848 7.61598C73.1759 8.00506 73.1772 8.39462 73.1846 8.78378C73.187 8.91163 73.1509 8.94553 73.0306 8.9444C72.3449 8.93816 71.6591 8.94518 70.9734 8.938C70.8458 8.93668 70.8122 8.96925 70.8125 9.10678C70.8175 10.7354 70.8148 12.364 70.8173 13.9926C70.8176 14.1344 70.8313 14.2779 70.8542 14.4178C70.928 14.8684 71.2428 15.1487 71.6824 15.1784C72.1502 15.2101 72.592 15.0854 73.0279 14.9334C73.1533 14.8897 73.1905 14.8982 73.215 15.0458C73.2868 15.4785 73.3773 15.9078 73.4614 16.3382C73.4767 16.4165 73.493 16.4758 73.3896 16.5167C72.7175 16.783 72.0414 17.021 71.3079 16.9637C70.4532 16.897 69.6889 16.6308 69.1626 15.8542C68.8216 15.3512 68.7025 14.7732 68.6963 14.1674C68.6876 13.3371 68.6941 12.5065 68.6941 11.676C68.692 10.8195 68.6887 9.96298 68.6953 9.10658Z" fill="#1D2129"></path><path fill-rule="evenodd" clip-rule="evenodd" d="M87.908 16.6329C87.9085 16.7815 87.8646 16.8215 87.6923 16.8193C87.0219 16.8105 86.3512 16.8125 85.6807 16.8184C85.5458 16.8196 85.5094 16.7888 85.5095 16.6718C85.5132 12.7712 85.5134 8.87067 85.5088 4.97012C85.5086 4.83538 85.5647 4.81962 85.6986 4.82073C86.3553 4.8262 87.0122 4.82898 87.6688 4.81948C87.8529 4.81676 87.9095 4.85251 87.9088 5.02052C87.9012 6.95889 87.9039 8.89727 87.9039 10.8356C87.9039 12.7681 87.9018 14.7005 87.908 16.6329Z" fill="#17C37B"></path></svg> 