<?xml version="1.0" encoding="UTF-8"?> <svg xmlns="http://www.w3.org/2000/svg" width="122" height="24" viewBox="0 0 122 24" fill="none"><path fill-rule="evenodd" clip-rule="evenodd" d="M17.4753 13.2919C17.4417 13.3144 17.419 13.3248 17.4026 13.3412C16.6023 14.1431 15.8039 14.9466 15.0007 15.7456C14.9249 15.821 14.9488 15.8881 14.9729 15.9617C15.2584 16.8325 15.5487 17.7017 15.8288 18.5743C15.8687 18.6985 15.9246 18.7316 16.0501 18.7309C17.0438 18.7255 18.0377 18.7277 19.0315 18.7275C19.2691 18.7274 19.2645 18.7287 19.1892 18.5C18.7945 17.3025 18.4029 16.1041 18.0093 14.9063C17.8336 14.3716 17.6558 13.8375 17.4753 13.2919ZM7.51087 10.6936C7.57957 10.6285 7.62039 10.5915 7.65923 10.5527C8.82335 9.38834 9.98764 8.22423 11.151 7.05923C12.1793 6.02957 13.2054 4.99782 14.236 3.97058C14.3343 3.87261 14.3701 3.79121 14.3167 3.65093C14.1988 3.34075 14.0939 3.02473 14.004 2.70545C13.9643 2.56472 13.902 2.52748 13.7609 2.5282C12.6489 2.534 11.5369 2.53448 10.425 2.52748C10.2841 2.5266 10.2327 2.57947 10.1918 2.70021C9.3288 5.2457 8.462 7.78996 7.59897 10.3354C7.56326 10.4408 7.49479 10.5409 7.51087 10.6936ZM3.93675 11.2247C3.87189 11.2524 3.87223 11.3167 3.85626 11.3633C3.53898 12.2886 3.22711 13.2157 2.90748 14.1401C2.86711 14.2569 2.88536 14.329 2.97252 14.4152C3.56708 15.0033 4.15559 15.5976 4.74709 16.1888C5.64064 17.0819 6.53747 17.9717 7.42613 18.8695C7.543 18.9876 7.60927 18.9907 7.71558 18.8673C7.8405 18.7223 7.98498 18.5941 8.12047 18.4581C10.2717 16.2988 12.4224 14.139 14.5742 11.9803C16.0082 10.5416 17.4428 9.10354 18.881 7.66896C18.9645 7.58566 18.9746 7.51872 18.9396 7.41373C18.6301 6.48534 18.3254 5.55536 18.0192 4.62586C17.9558 4.43327 17.9539 4.43167 17.8155 4.57025C16.6383 5.74933 15.4618 6.92923 14.2848 8.10857C12.1102 10.2875 9.93585 12.4667 7.76006 14.6444C7.5314 14.8733 7.59808 14.8787 7.35875 14.6397C6.25419 13.5366 5.1516 12.4315 4.04802 11.3274C4.01328 11.2927 3.97581 11.2606 3.93675 11.2247ZM11.1915 24C10.936 23.9242 10.669 23.9325 10.4081 23.8961C7.61199 23.5061 5.23825 22.2931 3.29872 20.2602C1.54703 18.4242 0.483998 16.2393 0.125227 13.7356C-0.776421 7.44423 3.2848 1.72439 9.28122 0.314516C15.4197 -1.12872 21.7229 2.52779 23.4989 8.56082C25.1967 14.3285 22.4679 20.3694 17.014 22.9055C15.7026 23.5154 14.3209 23.8672 12.8754 23.9676C12.8354 23.9704 12.7865 23.9517 12.7581 24H11.1915Z" fill="#17C37B"></path><path fill-rule="evenodd" clip-rule="evenodd" d="M121.2 16.7936C120.451 16.795 119.702 16.7943 118.953 16.8C118.833 16.8009 118.788 16.7673 118.804 16.668C118.807 16.6447 118.804 16.6205 118.804 16.5968C118.804 12.7329 118.805 8.869 118.8 5.0051C118.8 4.84476 118.843 4.79725 119.036 4.80011C119.757 4.8109 120.479 4.80451 121.2 4.80454V16.7936Z" fill="#17C37B"></path><path fill-rule="evenodd" clip-rule="evenodd" d="M103.809 8.15571C102.713 7.99949 101.968 8.5191 101.845 9.59672C101.742 10.502 102.209 11.268 102.994 11.4595C103.217 11.5141 103.445 11.5255 103.673 11.5075C104.386 11.4514 104.853 11.0482 105.021 10.3451C105.063 10.1685 105.082 9.98802 105.076 9.85381C105.073 8.86931 104.636 8.27367 103.809 8.15571ZM103.5 18.6817C104.268 18.6502 104.994 18.48 105.614 17.9694C105.863 17.7647 106.071 17.5265 106.18 17.2102C106.421 16.5102 106.107 16.0303 105.397 16.0085C105.367 16.0075 105.337 16.0069 105.307 16.0069C104.373 16.0068 103.438 16.0063 102.503 16.0071C102.166 16.0075 101.834 16.0461 101.516 16.1712C101.147 16.3161 100.878 16.5625 100.788 16.9799C100.664 17.5472 100.853 17.9658 101.375 18.2713C101.94 18.6019 102.556 18.6985 103.194 18.6823C103.296 18.6823 103.398 18.6859 103.5 18.6817ZM100.796 12.1302C100.635 11.9646 100.479 11.8021 100.342 11.6206C99.5228 10.5351 99.4815 8.50134 100.991 7.38545C101.624 6.9177 102.32 6.65146 103.098 6.62569C103.91 6.59875 104.7 6.70105 105.437 7.08776C105.531 7.13686 105.56 7.12275 105.573 7.01533C105.732 5.70342 106.906 4.84606 107.997 4.81961C108.11 4.81686 108.151 4.83281 108.143 4.96834C108.106 5.5615 108.078 6.15537 108.058 6.7494C108.054 6.88075 108.004 6.89712 107.897 6.90061C107.603 6.91025 107.313 6.95081 107.04 7.08099C106.849 7.17234 106.691 7.30403 106.596 7.50077C106.491 7.71941 106.452 7.91807 106.625 8.15233C107.492 9.32111 107.215 11.1944 106.079 12.1232C105.217 12.8277 104.246 13.0946 103.172 13.0323C102.77 13.009 102.376 12.939 101.994 12.7989C101.957 12.785 101.912 12.7786 101.872 12.7842C101.56 12.8286 101.256 13.1627 101.219 13.4973C101.173 13.9182 101.314 14.1784 101.673 14.3338C101.926 14.4435 102.195 14.4734 102.465 14.4746C103.46 14.4791 104.456 14.4775 105.451 14.4777C105.975 14.4777 106.492 14.5297 106.992 14.7056C108.007 15.0629 108.406 15.8643 108.289 16.9054C108.145 18.1824 107.407 19.032 106.387 19.6551C105.645 20.1086 104.832 20.3338 103.979 20.3932C102.726 20.4805 101.5 20.368 100.355 19.7681C99.8285 19.4921 99.3685 19.1256 99.0474 18.5972C98.7152 18.0505 98.6281 17.4546 98.783 16.8336C98.9535 16.1498 99.4358 15.7827 100.048 15.5711C100.166 15.5303 100.289 15.5058 100.434 15.4673C98.9992 14.612 99.0887 12.6762 100.796 12.1302Z" fill="#17C37B"></path><path fill-rule="evenodd" clip-rule="evenodd" d="M41.7046 13.0333C41.7195 13.7778 42.0608 14.3223 42.7315 14.646C43.8308 15.1766 45.1373 14.6236 45.6208 13.4265C45.899 12.7377 45.9061 12.0241 45.7632 11.3091C45.5602 10.293 44.7622 9.39288 43.5286 9.47928C42.6589 9.54018 41.9698 10.0898 41.7687 10.9378C41.6658 11.3719 41.7222 11.8108 41.7038 12.1817C41.7038 12.5094 41.6994 12.7715 41.7046 13.0333ZM43.5797 7.59395C44.7197 7.46762 45.7221 7.79148 46.5627 8.58341C47.3676 9.34166 47.8039 10.2815 47.9289 11.3715C48.0487 12.4159 47.985 13.4425 47.5226 14.4041C46.9777 15.5373 46.1349 16.3491 44.8855 16.6651C44.2112 16.8356 43.532 16.8052 42.8644 16.6113C42.4073 16.4785 42.067 16.247 41.7279 15.8629C41.686 15.9242 41.7048 15.9901 41.7047 16.0499C41.7034 17.5611 41.7007 19.0724 41.708 20.5836C41.7088 20.7452 41.6568 20.769 41.5132 20.767C40.94 20.7589 40.3665 20.7577 39.7933 20.7673C39.6306 20.77 39.5814 20.7326 39.5816 20.5604C39.5871 16.502 39.5859 12.4436 39.5859 8.38519C39.5859 8.23284 39.5907 8.08031 39.5841 7.92822C39.5801 7.83669 39.6016 7.80053 39.7031 7.80155C40.2092 7.80665 40.7155 7.80562 41.2217 7.80218C41.3045 7.80163 41.3328 7.8224 41.3458 7.90949C41.397 8.25035 41.4603 8.58938 41.5261 8.96973C42.0131 8.15381 42.6868 7.69284 43.5797 7.59395Z" fill="white"></path><path fill-rule="evenodd" clip-rule="evenodd" d="M80.1507 13.4478C80.1536 13.3616 80.1276 13.3385 80.0684 13.3212C79.3183 13.1022 78.5612 12.9595 77.7883 13.1162C77.3983 13.1953 77.0551 13.3798 76.9233 13.8688C76.7616 14.4688 77.0261 15.0864 77.5389 15.318C77.7866 15.4299 78.0477 15.4494 78.2792 15.4657C79.3048 15.4884 80.1128 14.5998 80.1507 13.4478ZM79.8371 16.3213C79.4146 16.8125 78.8957 17.0747 78.3087 17.1298C77.6006 17.1963 76.9043 17.1187 76.2476 16.7656C75.0386 16.1154 74.6355 14.6582 74.9627 13.4052C75.1681 12.6188 75.6856 12.179 76.3167 11.9003C77.0297 11.5854 77.7741 11.5499 78.5246 11.611C79.0418 11.6531 79.5494 11.7704 80.0533 11.9078C80.1058 11.9221 80.1613 11.9652 80.1601 11.848C80.1549 11.3353 80.1885 10.819 80.0938 10.3134C79.9652 9.62687 79.6434 9.29463 79.0074 9.20624C78.6534 9.15707 78.2991 9.19221 77.9593 9.3347C77.5454 9.50821 77.2779 9.82905 77.2394 10.3551C77.2288 10.5001 77.1824 10.5241 77.0696 10.5228C76.4963 10.5161 75.923 10.5198 75.3497 10.5197C75.1488 10.5197 75.1491 10.5195 75.1615 10.2783C75.2178 9.18142 75.6568 8.38007 76.5557 7.99848C77.8101 7.46593 79.0941 7.37701 80.3634 7.90696C81.3343 8.3123 81.8353 9.19679 82.0017 10.3556C82.045 10.6568 82.0486 10.9614 82.0489 11.2653C82.0506 13.072 82.0474 14.8787 82.0536 16.6853C82.0541 16.8561 82.0152 16.8942 81.8735 16.8906C81.426 16.8793 80.9781 16.8822 80.5304 16.8896C80.4273 16.8913 80.386 16.854 80.3741 16.7391C80.3395 16.4063 80.2995 16.0743 80.2571 15.7026C80.1158 15.9367 79.9909 16.1425 79.8371 16.3213Z" fill="white"></path><path fill-rule="evenodd" clip-rule="evenodd" d="M33.1247 12.9896C32.996 13.008 32.8675 13.0451 32.7438 13.0913C32.299 13.2573 32.0776 13.576 32.0494 14.0762C32.0232 14.5431 32.2655 14.9889 32.6539 15.1982C32.8712 15.3154 33.1034 15.3447 33.3368 15.3706C34.362 15.4843 35.239 14.6271 35.3275 13.4332C35.338 13.2908 35.2984 13.2391 35.1833 13.2069C34.678 13.0656 34.1684 12.9679 33.6474 12.9507C33.4731 12.9626 33.2977 12.965 33.1247 12.9896ZM34.0358 16.9098C32.9596 17.2233 31.9164 17.1238 30.9842 16.3706C30.2953 15.814 30.0009 14.9953 30.0344 14.0317C30.075 12.8628 30.6274 12.1039 31.6832 11.7266C32.356 11.4862 33.0455 11.4568 33.7418 11.5207C34.2753 11.5697 34.7974 11.6941 35.3303 11.84C35.321 11.3153 35.3667 10.8 35.2859 10.2908C35.1683 9.54902 34.8283 9.18292 34.1688 9.10252C33.8197 9.06 33.471 9.09327 33.1357 9.23354C32.6996 9.41609 32.4377 9.76052 32.4079 10.3111C32.4026 10.4092 32.3691 10.4229 32.2981 10.4227C31.6804 10.4206 31.0626 10.4185 30.445 10.4244C30.3381 10.4255 30.3372 10.3683 30.3371 10.2752C30.3359 9.06879 30.8777 8.22021 31.9273 7.80095C32.6394 7.51645 33.377 7.45739 34.1233 7.48191C34.6176 7.49815 35.1019 7.58203 35.5608 7.80171C36.5491 8.27476 37.0523 9.16933 37.1949 10.3725C37.2309 10.6761 37.2275 10.9806 37.2275 11.2854C37.2277 13.0581 37.2249 14.8309 37.2318 16.6036C37.2325 16.7791 37.1882 16.8085 37.0511 16.8054C36.6085 16.7951 36.1656 16.7977 35.7229 16.8043C35.6111 16.8059 35.562 16.7848 35.5508 16.6345C35.5265 16.3083 35.4766 15.9848 35.4311 15.6106C35.074 16.262 34.6413 16.7333 34.0358 16.9098Z" fill="white"></path><path fill-rule="evenodd" clip-rule="evenodd" d="M112.107 13.0257C111.548 13.1539 111.236 13.5327 111.226 14.0893C111.214 14.6906 111.54 15.1559 112.08 15.3019C112.202 15.3347 112.327 15.3524 112.451 15.3685C113.515 15.5063 114.397 14.6704 114.5 13.4315C114.51 13.3058 114.491 13.2436 114.372 13.2099C113.846 13.0618 113.315 12.9657 112.773 12.9536C112.549 12.9546 112.327 12.9753 112.107 13.0257ZM113.18 16.9212C112.793 17.055 112.397 17.0801 111.998 17.0517C111.325 17.0039 110.684 16.832 110.13 16.3478C109.329 15.6464 108.99 14.3359 109.333 13.2427C109.546 12.5662 109.984 12.1476 110.536 11.8752C111.272 11.5122 112.047 11.4587 112.832 11.5206C113.361 11.5623 113.879 11.6772 114.394 11.82C114.442 11.8331 114.508 11.8843 114.505 11.7639C114.494 11.2578 114.543 10.7481 114.447 10.247C114.311 9.5446 114.021 9.21608 113.412 9.11912C113.026 9.05755 112.637 9.08562 112.269 9.25434C111.866 9.43874 111.612 9.76684 111.584 10.2882C111.578 10.3967 111.544 10.4254 111.455 10.4249C110.85 10.421 110.244 10.4197 109.638 10.4257C109.529 10.4268 109.514 10.378 109.517 10.2687C109.544 9.19533 109.93 8.37565 110.804 7.96169C112.048 7.37286 113.332 7.29741 114.611 7.77359C115.612 8.14647 116.153 9.02001 116.335 10.2063C116.383 10.5191 116.396 10.836 116.396 11.1535C116.396 12.9678 116.393 14.7822 116.4 16.5965C116.401 16.7725 116.355 16.8031 116.218 16.8C115.77 16.79 115.323 16.7926 114.875 16.799C114.772 16.8005 114.737 16.7684 114.726 16.6444C114.696 16.3116 114.649 15.9808 114.602 15.5976C114.241 16.268 113.79 16.7108 113.18 16.9212Z" fill="#17C37B"></path><path fill-rule="evenodd" clip-rule="evenodd" d="M55.3481 10.9547C55.1764 10.2577 54.8473 9.68062 54.1612 9.43673C53.116 9.06531 51.9491 9.51403 51.5283 10.7475C51.2842 11.4629 51.2781 12.2028 51.3645 12.9467C51.4229 13.4498 51.5611 13.9221 51.8543 14.3379C52.6004 15.3957 54.5017 15.3392 55.1691 13.8667C55.4139 13.3267 55.4749 12.7509 55.4696 12.1156C55.4739 11.755 55.4455 11.3503 55.3481 10.9547ZM57.0783 14.7157C56.4433 16.0294 55.4274 16.7875 54.0214 16.953C53.2526 17.0435 52.4946 16.9955 51.7677 16.7047C50.6547 16.2593 49.8919 15.4302 49.512 14.2563C49.0546 12.8428 49.0524 11.4061 49.5584 10.0066C50.0984 8.51304 51.1649 7.67027 52.6747 7.45225C53.5546 7.32517 54.4194 7.396 55.2378 7.77293C56.389 8.30312 57.0513 9.27175 57.3807 10.5129C57.5274 11.0658 57.5837 11.6335 57.5723 12.1438C57.5797 13.081 57.4578 13.9304 57.0783 14.7157Z" fill="white"></path><path fill-rule="evenodd" clip-rule="evenodd" d="M95.4885 11.4607C95.5484 11.4605 95.6299 11.4963 95.6263 11.3628C95.6124 10.8605 95.5311 10.3838 95.2761 9.9545C94.7342 9.04228 93.2337 9.09581 92.6676 10.0213C92.4287 10.4119 92.2848 10.8354 92.2242 11.3017C92.2072 11.4319 92.237 11.4653 92.3507 11.4642C92.8765 11.4588 93.4023 11.4618 93.9281 11.4618C94.4482 11.4618 94.9684 11.4626 95.4885 11.4607ZM92.3556 12.8603C92.2161 12.8589 92.1843 12.9064 92.1961 13.0525C92.2403 13.5965 92.3486 14.116 92.6203 14.5795C92.8496 14.9706 93.169 15.2104 93.5777 15.2997C93.904 15.371 94.2306 15.3714 94.5526 15.2781C95.0074 15.1464 95.2977 14.8155 95.4208 14.3099C95.4528 14.1785 95.5023 14.1483 95.6163 14.1497C96.176 14.1568 96.7359 14.1568 97.2957 14.15C97.4166 14.1486 97.4329 14.1856 97.4096 14.3113C97.1445 15.7436 96.1551 16.7986 94.8313 17.0487C93.7304 17.2568 92.7011 17.0859 91.8055 16.283C90.9161 15.4856 90.4394 14.4232 90.3025 13.1699C90.1831 12.0769 90.2481 10.9987 90.6667 9.9822C91.6775 7.528 93.9138 7.12377 95.4708 7.86116C96.4303 8.31547 96.9576 9.20149 97.2528 10.2877C97.468 11.0794 97.4871 11.8848 97.4024 12.7011C97.3869 12.8507 97.3369 12.8674 97.2243 12.8667C96.4157 12.8621 95.607 12.8642 94.7984 12.8642C93.9841 12.8642 93.1698 12.8683 92.3556 12.8603Z" fill="#17C37B"></path><path fill-rule="evenodd" clip-rule="evenodd" d="M63.9837 10.0677C63.9165 10.0683 63.8649 10.0676 63.8479 9.97162C63.7656 9.50705 63.4703 9.28304 63.0845 9.17904C62.6485 9.06147 62.2117 9.06295 61.7803 9.21465C61.5793 9.28533 61.4076 9.40774 61.2711 9.58563C61.0424 9.88379 61.0527 10.2641 61.2959 10.5472C61.4832 10.765 61.7276 10.8705 61.976 10.9709C62.8542 11.3258 63.7346 11.6749 64.599 12.07C64.8107 12.1668 65.0026 12.3047 65.1933 12.4454C66.1386 13.1424 66.1712 14.4251 65.7364 15.2374C65.3775 15.9079 64.8427 16.3637 64.19 16.6164C62.9175 17.1091 61.6368 17.0938 60.3877 16.5181C59.5961 16.1532 59.0468 15.5192 58.862 14.5585C58.8298 14.3915 58.8131 14.222 58.8058 14.0504C58.8009 13.9348 58.8397 13.9144 58.9325 13.9151C59.4655 13.9189 59.9986 13.9177 60.5316 13.9161C60.6077 13.9159 60.6589 13.9211 60.6661 14.0323C60.7003 14.5606 60.966 14.8999 61.4107 15.0532C61.9799 15.2495 62.556 15.2817 63.1273 15.0468C63.307 14.9729 63.4645 14.8587 63.5952 14.7043C63.9093 14.3331 63.8555 13.7882 63.4772 13.5C63.3067 13.3702 63.1165 13.285 62.9222 13.2081C62.2242 12.9321 61.5262 12.656 60.8302 12.3737C60.4363 12.214 60.0692 11.9983 59.7455 11.6979C58.7007 10.7284 58.7562 9.01156 59.8629 8.13027C60.342 7.74877 60.8847 7.54454 61.4633 7.45411C62.2753 7.32716 63.0864 7.32007 63.8786 7.58766C64.7251 7.87358 65.3498 8.43964 65.6355 9.3981C65.6857 9.56641 65.7101 9.74151 65.7256 9.91856C65.7353 10.0298 65.7137 10.0744 65.6 10.0701C65.3309 10.0598 65.0613 10.0668 64.7919 10.0668C64.5225 10.0668 64.2531 10.0655 63.9837 10.0677Z" fill="white"></path><path fill-rule="evenodd" clip-rule="evenodd" d="M68.695 9.10658C68.6961 8.96726 68.6595 8.93371 68.5325 8.93808C68.2329 8.94838 67.9325 8.93703 67.6326 8.94362C67.5219 8.94608 67.4693 8.92809 67.4725 8.78885C67.4816 8.3803 67.4795 7.97131 67.4733 7.56264C67.4716 7.4502 67.5052 7.42126 67.6074 7.42336C67.9195 7.42988 68.232 7.4195 68.544 7.42886C68.6651 7.43249 68.6956 7.39492 68.6945 7.26848C68.6887 6.56131 68.695 5.85399 68.6888 5.14682C68.6877 5.01215 68.7197 4.97079 68.8506 4.97239C69.4567 4.9798 70.063 4.97969 70.669 4.97223C70.7935 4.97083 70.8188 5.01215 70.818 5.13527C70.8127 5.84248 70.8188 6.54976 70.8123 7.25693C70.8111 7.38919 70.8367 7.43093 70.9696 7.42937C71.6491 7.42145 72.3288 7.43132 73.0084 7.42141C73.1596 7.41919 73.1877 7.47073 73.1844 7.61598C73.1756 8.00506 73.1769 8.39462 73.1843 8.78378C73.1867 8.91163 73.1505 8.94553 73.0303 8.9444C72.3446 8.93816 71.6588 8.94518 70.9731 8.938C70.8454 8.93668 70.8118 8.96925 70.8122 9.10678C70.8172 10.7354 70.8145 12.364 70.817 13.9926C70.8172 14.1344 70.8309 14.2779 70.8539 14.4178C70.9277 14.8684 71.2425 15.1487 71.6821 15.1784C72.1498 15.2101 72.5917 15.0854 73.0275 14.9334C73.153 14.8897 73.1901 14.8982 73.2147 15.0458C73.2864 15.4785 73.377 15.9078 73.461 16.3382C73.4763 16.4165 73.4926 16.4758 73.3893 16.5167C72.7171 16.783 72.0411 17.021 71.3076 16.9637C70.4528 16.897 69.6885 16.6308 69.1622 15.8542C68.8213 15.3512 68.7022 14.7732 68.6959 14.1674C68.6873 13.3371 68.6938 12.5065 68.6938 11.676C68.6917 10.8195 68.6884 9.96298 68.695 9.10658Z" fill="white"></path><path fill-rule="evenodd" clip-rule="evenodd" d="M87.908 16.6329C87.9084 16.7815 87.8646 16.8215 87.6923 16.8193C87.0218 16.8105 86.3511 16.8125 85.6806 16.8184C85.5457 16.8196 85.5094 16.7888 85.5095 16.6718C85.5131 12.7712 85.5134 8.87067 85.5087 4.97012C85.5086 4.83538 85.5646 4.81962 85.6985 4.82073C86.3552 4.8262 87.0121 4.82898 87.6687 4.81948C87.8529 4.81676 87.9094 4.85251 87.9087 5.02052C87.9011 6.95889 87.9039 8.89727 87.9039 10.8356C87.9039 12.7681 87.9018 14.7005 87.908 16.6329Z" fill="#17C37B"></path></svg> 