<?xml version="1.0" encoding="UTF-8"?> <svg xmlns="http://www.w3.org/2000/svg" width="984.81" height="610.34" viewBox="0 0 984.81 610.34"><defs><style>.a{fill:#ea001b;}.b{fill:#0098de;}.c{fill:#f9bac1;}.d{fill:#35ade5;}.e{fill:#ee3146;}.f{fill:#60bfea;}.g{fill:#f25f70;}.h{fill:#8ad0ef;}.i{fill:#6c6bbc;}.j{fill:#231f20;}.k{fill:#089cdf;}.l{fill:#2eabe4;}.m{fill:#3a3738;}.n{fill:#3e3b3c;}.o{fill:#403d3e;}.p{fill:#3a3737;}.q{fill:#eee;}.r{fill:#f1f0f1;}.s{fill:#444142;}.t{fill:#666464;}</style></defs><path class="a" d="M191.1,295v-2c1.14-7.88.92-15.84,1.38-23.75.84-14.56,3.91-28.7,7.59-42.69A305.92,305.92,0,0,1,450.33,2C458.51.79,466.85,1.29,475,.1h11a46,46,0,0,0,15,0h2a13.28,13.28,0,0,0,8,0h4c6.7,1.09,13.49.84,20.23,1.37,21.39,1.7,41.91,7.25,62,14.19a295.48,295.48,0,0,1,80.34,42.55c2.51,1.86,5.4,3.37,6.79,6.43a3.13,3.13,0,0,1,0,1.58C681.25,71,676.3,74,672.08,77.69a302.25,302.25,0,0,0-64.3,79.7,294.07,294.07,0,0,0-36.73,117.9c-5.08,54.87,3.72,107.49,27.23,157.54a307.26,307.26,0,0,0,66.33,91.78c5,4.84,10.56,9.16,15.86,13.72,1.51,1.3,3.24,2.4,4,4.38a3.13,3.13,0,0,1,0,1.58c-5.28,6.66-12.64,10.76-19.52,15.32a303,303,0,0,1-114.71,46A352,352,0,0,1,511,609.88c-28.87,1.91-57.2-1.21-85.22-7.7a298.32,298.32,0,0,1-118-56.65c-47.66-37.36-81.63-84.67-101.27-142-8.16-23.84-14.25-48.2-14.59-73.69,0-4.23.29-8.6-.85-12.81v-3A72.8,72.8,0,0,0,191.1,295Z" transform="translate(-191.1 -0.1)"></path><path class="b" d="M683.93,65.93a6,6,0,0,1,.05-.73c.22-2.91,2.56-4.17,4.52-5.63a309.31,309.31,0,0,1,120-54.52A218,218,0,0,1,848.61.6c.82,0,1.67.14,2.36-.5h6c2.75,1,5.6.27,8.4.5,5.53-.3,11.09.65,16.59-.5h2a10.51,10.51,0,0,0,7,0h2c8.68,1.29,17.51.74,26.19,2.1a304.75,304.75,0,0,1,180.66,98.1,301.3,301.3,0,0,1,66.55,120.43c5.2,18.32,8.86,36.84,9.05,56a2.06,2.06,0,0,0,.49,1.35v54c-1.44,7.83-.81,15.85-2.17,23.7q-14.6,83.92-70.13,148.54-58.33,67.49-143.85,93.33a304.77,304.77,0,0,1-72.18,12.27c-48.51,2.62-94.78-6.23-139.13-25.54A288.57,288.57,0,0,1,688.24,549c-1.81-1.39-4-2.53-4.25-5.24a4.18,4.18,0,0,1,0-.71c.75-3.25,3.63-4.67,5.87-6.53,32.39-26.89,57.78-59.41,76.73-96.85a292.12,292.12,0,0,0,29.52-98.09c7.27-61.06-2.66-119.2-30.36-174.09-18.77-37.2-44.55-69-76.55-95.74C687.16,70.11,684.78,68.69,683.93,65.93Z" transform="translate(-191.1 -0.1)"></path><path class="c" d="M191.1,295a37.19,37.19,0,0,1,0,19Z" transform="translate(-191.1 -0.1)"></path><path class="d" d="M882,.1c-5.59,2.16-11.39.52-17.08.88-.31-.23-.4-.43-.28-.62s.25-.26.37-.26Z" transform="translate(-191.1 -0.1)"></path><path class="e" d="M501,.1a23.83,23.83,0,0,1-15,0Z" transform="translate(-191.1 -0.1)"></path><path class="f" d="M865,.1a8.75,8.75,0,0,1-.09.88C862.25.64,859.41,2.17,857,.1Z" transform="translate(-191.1 -0.1)"></path><path class="g" d="M511,.1c-2.66,1.67-5.33,1.36-8,0Z" transform="translate(-191.1 -0.1)"></path><path class="h" d="M891,.1c-2.33,1.83-4.67,1.33-7,0Z" transform="translate(-191.1 -0.1)"></path><path class="i" d="M683.93,65.93c3.36,1,5.46,3.78,7.94,5.89a307.18,307.18,0,0,1,70.31,85.48,300.19,300.19,0,0,1,34.48,100.95,306,306,0,0,1,2.57,68.12,302.36,302.36,0,0,1-74.94,179,320.85,320.85,0,0,1-36.23,35c-1.27,1.05-2.73,1.87-4.1,2.8-25.15-19.12-46.15-42.17-63.78-68.27-30.36-44.94-48.14-94.45-51.24-148.64C563,222,600.58,136.34,679.88,68.78,681.13,67.72,682.58,66.88,683.93,65.93Z" transform="translate(-191.1 -0.1)"></path><path class="j" d="M375.52,267.47c14.15-16.62,39.51-12.89,50,3.26,9.35-13,22.25-16,37.06-12.84,12.52,2.67,21.31,12.2,22.43,24.91,1.58,17.95.32,36,.67,53.95,0,2.22-.92,2.9-3,2.85a106,106,0,0,0-11,0c-3.24.25-3.85-1.06-3.82-4,.15-12.82.1-25.65,0-38.48a56.82,56.82,0,0,0-.58-8.46c-1.6-10.25-7.2-15.28-17-15.43S433,278.73,431.12,288a46.1,46.1,0,0,0-.84,8.93c-.09,12.83-.14,25.66,0,38.49.05,3.23-.78,4.23-4.13,4.24-13.57,0-13.53.17-13.59-13.31,0-12,.09-24-.43-36-.48-10.8-6.46-16.62-16.4-17.1-10.33-.49-17.68,5.18-19.87,15.12-1.16,5.29-.66,10.62-.71,15.93q-.14,15.75,0,31.49c0,2.62-.39,4-3.49,3.82a89.54,89.54,0,0,0-11,0c-2.74.14-3.35-1-3.34-3.53q.09-37,0-74c0-2.73,1-3.44,3.49-3.3a55.57,55.57,0,0,0,9.48,0c4.05-.48,5.28,1.1,4.78,4.91C375,264.87,374.6,266.27,375.52,267.47Z" transform="translate(-191.1 -0.1)"></path><path class="j" d="M735,256.83A63.16,63.16,0,0,1,764,263.35c2.31,1.16,3.21,2.24,1.52,4.81-2.08,3.19-2.9,7.81-5.69,9.77-3.21,2.24-6.61-2.1-10.15-3-6.51-1.68-13-2.83-19.73-2.12a16.43,16.43,0,0,0-7,2.28,7.46,7.46,0,0,0-3.86,7.55c.33,3.11,2.55,4.52,5.2,5.39,6.85,2.24,14.09,2.34,21.08,3.85a49.29,49.29,0,0,1,10,3.11c16.54,7.5,18.78,28,4.23,39-7.49,5.69-16.33,7.32-25.41,7.55-11.85.31-23.13-2-33.5-8.12-2.76-1.63-3.35-3.07-1.38-5.78,2.15-2.95,3.21-7.42,6-9s5.8,2.6,9,3.77c8.8,3.26,17.72,4.4,27,2.53a15.32,15.32,0,0,0,6.38-2.69c4.82-3.68,4.38-9.34-1-12-4.55-2.26-9.61-2.59-14.54-3.28-6.27-.88-12.5-1.89-18.28-4.66-16.38-7.86-18-29.16-2.9-39.42C718,257.89,726.38,256.66,735,256.83Z" transform="translate(-191.1 -0.1)"></path><path class="j" d="M800.49,297.62c0-6.33-.17-12.67.07-19,.13-3.17-.94-4.28-4-3.79a5.72,5.72,0,0,1-1.49,0c-3.59-.32-9.12,1.63-10.35-.84-1.8-3.62-.59-8.73-.73-13.2-.07-2,1.27-1.95,2.65-1.95,3.49,0,7-.16,10.49,0,2.69.17,3.43-.87,3.37-3.42-.15-5.83,0-11.66-.09-17.49-.06-2.62.5-3.78,3.53-3.89,14.17-.49,14.17-.6,14.17,13.61,0,11.14,0,11.14,11,11.14,5,0,10,.1,15,0,2.17-.06,2.73.63,2.86,2.8.79,13.24.85,13.24-12.42,13.24-4.16,0-8.33.15-12.49-.05-2.85-.14-4.13.4-4.06,3.73.23,11-.06,22,.15,33,.21,10.81,5.7,15,16.31,12.77,1.14-.24,2.26-.57,3.41-.72,2.71-.37,6.07-4.08,7.46-2.05,2.51,3.68,3.32,8.57,4.62,13,.4,1.4-1.18,1.85-2.17,2.33-10.81,5.23-22,6.54-33.33,2.17-9-3.46-12.7-11-13.43-19.95-.57-7.11-.11-14.31-.11-21.46Z" transform="translate(-191.1 -0.1)"></path><path class="j" d="M891.17,267.59c8-10.51,18-12.3,29.45-9.79,2.83.63,4.37,1.52,2.7,4.59a11.72,11.72,0,0,0-.56,1.91c-1.11,3.3-1.39,7.39-3.56,9.69-2.51,2.65-6.4-.46-9.77-.51-11.32-.18-18.12,5.81-18.38,17.56-.33,14.63-.28,29.28-.08,43.92,0,3.76-.93,5.12-4.7,4.66-4.23-.53-9.9,1.84-12.37-1.06-2.09-2.46-.74-7.92-.75-12.06,0-21,.11-41.93-.12-62.89,0-4.06,1.2-5.34,5-4.79a27.93,27.93,0,0,0,4,0C890.23,258.85,890.23,258.85,891.17,267.59Z" transform="translate(-191.1 -0.1)"></path><path class="k" d="M1166,493.36c-1.88-2.47-.65-4.89-1.22-7-.25,0-.62-.1-.74,0-1.55,1.57-.91,5.32-3.81,5.13-2.52-.16-1.93-3.86-3.89-5.52-1,2.23.35,4.83-1.39,7.54-1.89-4-.86-7.56-1.05-11a1.23,1.23,0,0,1,1.05-1.42,2,2,0,0,1,2.43,1.19l2.68,5.77c1.07.11,1-.76,1.3-1.18,1.54-1.9,1.07-6.42,4.39-5.54,2.79.75.91,4.6,1.21,7A6,6,0,0,1,1166,493.36Z" transform="translate(-191.1 -0.1)"></path><path class="l" d="M1141.08,482.12c3.72-1.6,6.93-1.15,10.58-.36-4.53,1-4,4.12-4,7.15,0,1.33.76,3.72-1.11,3.74-2.43,0-1.31-2.49-1.41-3.9C1144.93,485.94,1146,482.55,1141.08,482.12Z" transform="translate(-191.1 -0.1)"></path><path class="m" d="M1043.46,328.71c6.52,3.85,6.71,9.69.46,14.1-.68-.21-1.24-.53-1.37-1.31a3.55,3.55,0,0,1,.65-1.89c2.85-3.94-.4-7-1.53-10.32A1.34,1.34,0,0,1,1043.46,328.71Z" transform="translate(-191.1 -0.1)"></path><path class="n" d="M1035,341.76c-3.61-3.31-4.22-6.9-1-10.84.85-.35,1.29.17,1.67.8a34.28,34.28,0,0,0,.82,8.74A1.8,1.8,0,0,1,1035,341.76Z" transform="translate(-191.1 -0.1)"></path><path class="o" d="M1035,332.09l-1-1.17c2.58-3.24,5.74-4,9.5-2.21l-1.52,1.06C1040.05,331.79,1037.59,332.12,1035,332.09Z" transform="translate(-191.1 -0.1)"></path><path class="p" d="M1035,341.76l1.19-.94a2.35,2.35,0,0,1,1.29-.51c1.81.3,3.88-.29,5.26,1.49l1.23,1C1040.69,344.51,1037.63,344.82,1035,341.76Z" transform="translate(-191.1 -0.1)"></path><path class="j" d="M584.73,267.57c0-8.72,0-8.72-8.94-8.72-8.52,0-8.52,0-8.89,8.94-17.06-17.8-42.27-11.18-53.65.46C498,283.89,497,311.49,511.46,328a38.76,38.76,0,0,0,27.46,13.45c10.82.74,20.21-2.5,27.77-11,.87,9.13.87,9.13,9.85,9.13a20,20,0,0,1,3,0c4.07.63,5.34-.86,5.3-5.11C584.62,312.19,584.73,289.88,584.73,267.57Zm-41.19,57.37c-14.19-.06-24.44-11-24.36-25.92s10.45-25.82,24.61-25.75,24.29,10.89,24.26,26S557.82,325,543.54,324.94Z" transform="translate(-191.1 -0.1)"></path><path class="j" d="M625.09,305.86c8.82.16,17.66.06,26.49.06h21c9.78,0,9.78,0,9.43-9.76-.66-18.42-11.44-33.47-27.16-37.94-25.09-7.13-48.91,9.48-51,35.53-1.8,22.94,8.56,40.44,27.66,45.84A51,51,0,0,0,669.41,336c9.34-4.69,9.3-4.77,3.72-13.2a21.07,21.07,0,0,1-1.64-2.5c-1.2-2.53-2.55-2.79-4.91-1.09a37.1,37.1,0,0,1-17.64,6.39c-12.73,1.53-23.2-5.06-26.41-16.32C621.74,306.46,622.24,305.81,625.09,305.86Zm17.55-33.34c10.68-.34,18.39,5.88,20.6,16.46.39,1.88.81,3.08-1.92,3.06-13-.1-26,0-39,0C623.84,279.86,631.22,272.88,642.64,272.52Z" transform="translate(-191.1 -0.1)"></path><path class="j" d="M976.72,256.83c-25.2-.17-43.85,17.72-44.05,42.25-.19,24.35,18.11,42.69,42.85,42.93,25.18.24,44.16-17.7,44.39-42C1020.15,275.52,1001.63,257,976.72,256.83Zm-.6,68.54c-14.91-.07-25.35-10.95-25.24-26.31.1-14.95,10.74-25.63,25.46-25.56s25.65,11.29,25.42,26.29C1001.53,314.64,990.71,325.43,976.12,325.37Z" transform="translate(-191.1 -0.1)"></path><path class="q" d="M1036.9,341a2.92,2.92,0,0,0-.76-.19c-2.25-2.67-2.79-5.56-1.13-8.73a8.2,8.2,0,0,1,6.93-2.32c5.23,3.38,5.77,6.36,1.94,10.84a3.21,3.21,0,0,1-1.91-1,6,6,0,0,1-1.2-3.94c-.08-.67.16-1.43-.53-1.93a1.36,1.36,0,0,0-1.36.47c-1,1.86-.05,4-1,5.88A2.4,2.4,0,0,1,1036.9,341Z" transform="translate(-191.1 -0.1)"></path><path class="r" d="M1043,339l.92,1.63-1.19,1.19c-1.94-.15-4,.86-5.79-.79.08-.52.17-1.05.26-1.58a3.51,3.51,0,0,0,.93-1.71C1040.54,335,1041.36,338.45,1043,339Z" transform="translate(-191.1 -0.1)"></path><path class="s" d="M1043,339c-1.23.28-2-.49-2.82-1.19-1.69-1.41-.89.72-1.39,1-2.64-1.94-1.19-4.33-.74-6.62l2.83-.09a13,13,0,0,1,1.2,2.82C1041.61,336.44,1042.29,337.71,1043,339Z" transform="translate(-191.1 -0.1)"></path><path class="t" d="M1042,334.93c-.88-.17-2.07.28-2.56-.7-.6-1.21.92-1.39,1.36-2.12C1043.18,332.22,1043.41,333.23,1042,334.93Z" transform="translate(-191.1 -0.1)"></path><path class="t" d="M1038,332.2c.15,2.22-.89,4.57.74,6.62-.17,1.13-1,.66-1.59.61C1037.34,337,1036.08,334.42,1038,332.2Z" transform="translate(-191.1 -0.1)"></path></svg> 