<?xml version="1.0" encoding="UTF-8"?> <svg xmlns="http://www.w3.org/2000/svg" width="1199.8" height="582.76" viewBox="0 0 1199.8 582.76"><defs><style>.a{fill:#fe0404;}.b{fill:#1e1e1c;}</style></defs><path class="a" d="M83.11,608.93c2.28-4.9,1.75-10.31,2.79-15.44A22,22,0,0,1,118,578.24a23.07,23.07,0,0,1,11.65,23.08c-.61,4.95-1.42,9.9-1.75,14.87-.56,8.46,4.59,13.89,13.07,14.14,1,0,2,0,3,0H646.26c1.83,0,3.67,0,5.49-.08,7.6-.55,12.66-5.83,12.38-13.47a138.32,138.32,0,0,0-1.74-14.86c-1.82-12.37,6.15-24,17.92-26,12.72-2.14,23.74,5.36,25.94,18.19,2.53,14.78,4.6,29.57,0,44.47-6.77,21.79-23.41,35-46.23,36-2.33.1-4.66.07-7,.07H139.73C107.26,674.74,91.32,662,84,630c-.09-.42-.55-.75-.84-1.12Z" transform="translate(-83.11 -91.98)"></path><path class="b" d="M1282.9,310c-1.94,1.71-2.19,4.27-3.16,6.45-11.28,25.53-23.13,50.78-38,74.46a9.07,9.07,0,0,1-1.31,2.11c-6.87,5.95-6.46,13.85-6.32,21.9.24,14.48.11,29,0,43.45,0,8.66-4.67,13.77-12.28,13.84s-13-5.53-13-13.91c-.07-17.81,0-35.63,0-53.44a5.1,5.1,0,0,0-2.19-4.73c-4.23-3.43-6.79-8.55-9.6-13.25-14.21-23.68-25.92-48.63-37-73.88-.79-1.82-1.42-3.72-2-5.61-2.35-7.2,0-13.15,6.16-15.81,7.31-3.15,14.27-.87,17.47,6.38,9.51,21.58,19.3,43,30.35,63.86,2.62,5,5.09,10,8.64,14.74,3.11-3.51,5.08-7.54,7.18-11.44,11.46-21.38,21.23-43.56,31.08-65.7,3.66-8.23,8.6-10.58,16.74-8.36,3,.83,5,3.11,7.28,4.95Z" transform="translate(-83.11 -91.98)"></path><path class="b" d="M365,309.36c-14.07,27.79-25,55.38-34.93,83.4-12.36,34.91-25,69.72-36.84,104.8-4.24,12.52-14.78,19.51-27.32,19.36-12.26-.14-22.64-7.71-26.94-20.1-12.77-36.87-25.07-73.91-38.85-110.43-9.15-24.23-18-48.61-30-71.65-.74-1.43-1.46-2.87-2.76-5.42-2.19,17.25-4.25,33.3-6.26,49.35Q154.8,409,148.56,459.25c-1.91,15.52-3.81,31.06-5.4,46.62-.86,8.31-4.93,13.87-12.47,17.16a28.54,28.54,0,0,1-17.64,1.47c-9.78-2.06-15.45-10.18-14.2-20.37,3.44-28.24,7.07-56.47,10.66-84.7q6.27-49.28,12.61-98.54c2.66-20.8,5.25-41.61,8-62.39,1.12-8.39,9.11-15.38,18.36-16.51,18.09-2.21,32.23,3.32,41.43,20,13.27,24.06,23.81,49.35,34.17,74.71,13.87,34,27,68.27,39.88,102.61.51,1.35,1,2.69,1.6,4.14,2-1,1.93-2.86,2.49-4.3,20.73-53.58,40.28-107.65,64.83-159.68a158.81,158.81,0,0,1,13.54-23.81,31,31,0,0,1,24.32-13.75c6-.37,12-1,17.82,1.14,7.9,2.87,12.44,8.29,13.53,16.84Q410.84,328,419.77,396q7,54.21,14,108.43a18.15,18.15,0,0,1-16.44,20.6c-6.37.67-12.6.3-18.38-3s-9.09-8.18-9.77-14.77c-5.85-56-13.55-111.69-20.27-167.54C367.73,330,366.39,320.27,365,309.36Z" transform="translate(-83.11 -91.98)"></path><path class="b" d="M456.13,383.12q0-58.22,0-116.43c0-16.34,8.57-25,24.88-25,33.82,0,67.64-.1,101.46,0a80.14,80.14,0,0,1,80.39,82.69A63.31,63.31,0,0,1,645,367.69c-2.62,2.76-2.22,3.71.83,5.6,25.19,15.65,38.95,38.45,39.73,68,1,38.47-27.9,73.81-65.6,81.65a93.7,93.7,0,0,1-19.33,2q-59.73-.06-119.45,0c-16.28,0-25.07-8.73-25.07-24.9Q456.13,441.58,456.13,383.12Zm42.94-.9c0,31.47.08,62.95-.1,94.42,0,4.14,1,5.21,5.19,5.18,30.81-.19,61.63-.11,92.44-.1,5.48,0,10.92.51,16.4-.7,16.15-3.58,29.65-17.71,32-33.84,2.48-16.95-5.41-32.11-21.08-40.58-8.54-4.62-17.75-6.45-27.37-6.47-16.16,0-32.31.08-48.47-.05a20.81,20.81,0,0,1-20.91-19.41,20.32,20.32,0,0,1,18.12-21.91c9.58-.92,19.29-.43,28.94-.49,6,0,12,0,17.89-1.34,17.94-4.15,29.58-17.39,30.5-34.81.84-15.9-9.87-30.83-26.35-36.71a50.44,50.44,0,0,0-17.16-2.64c-25.15,0-50.3.1-75.45-.07-3.66,0-4.71.76-4.69,4.59C499.15,318.93,499.07,350.58,499.07,382.22Z" transform="translate(-83.11 -91.98)"></path><path class="a" d="M396.31,92.21c62.8,0,125.61.61,188.4-.22,38.85-.52,55.62,22,62.16,50.51a223.77,223.77,0,0,1,4,25.13,22.5,22.5,0,0,1-19.58,24.73c-11.86,1.42-22.43-7-24.34-19.27-.91-5.92-1.67-11.87-2.92-17.72-2.86-13.37-9.38-18.52-23-18.52q-139.68,0-279.36,0-44.48,0-89,0c-13.86,0-20.76,5.64-23.45,19.34-1,4.89-1.55,9.86-2.15,14.82-1.72,13.92-12.16,22.66-25.3,21.07-12.17-1.46-20.39-12.84-18.83-26.16s3.37-26.71,8.81-39.26c10.12-23.34,27.74-34.57,53.17-34.5C268.7,92.31,332.51,92.21,396.31,92.21Z" transform="translate(-83.11 -91.98)"></path><path class="b" d="M946.47,435.65c5.89-21,10-41,14.42-60.93,5.47-24.49,10.6-49.07,15.94-73.59,1.86-8.53,7.68-12.2,16.22-10.41,7.64,1.6,11.21,7,9.41,15.34-10.28,47.75-19,95.89-33.46,142.65-1.33,4.27-3,8.44-4.68,12.59-3.66,9.07-11.22,11.12-20,10.77-7.92-.31-13.53-3.91-16.22-11.66-7.37-21.22-12.48-43.07-18.1-64.77-3.43-13.28-6.53-26.65-10.75-40.1-2.11,8.36-4.17,16.74-6.33,25.09-6,23.32-10.84,47-18.91,69.72-1,2.82-2,5.62-3,8.44-4.85,14.24-15.51,15.36-27.34,12-4.44-1.26-7-4.78-8.75-9-6.2-14.77-9.88-30.33-13.84-45.75-9.32-36.23-16.58-72.93-23.88-109.61-1.73-8.74,1.87-14.42,9.54-15.64,9.27-1.46,14.38,2.46,16.22,11.75,8.6,43.37,17.08,86.77,27.88,129.67.32,1.27.31,2.66,1.78,3.74,6.14-21.3,12.17-42.48,17.29-63.92,5-21.18,10-42.38,15.06-63.55,2.09-8.76,8.51-13.92,16.6-13.58,6.91.29,11.88,4.29,13.58,11.72,4.72,20.58,9.17,41.21,13.82,61.8C934,390.65,939.49,412.73,946.47,435.65Z" transform="translate(-83.11 -91.98)"></path><path class="b" d="M1086.33,290.24c6.35,0,12.29,3,15.9,11.73,17.82,43,32.88,87,47.65,131.07,2.47,7.41,4.93,14.82,7.2,22.29,2.47,8.08-.16,13.69-7.22,16-7.62,2.46-13.36-.25-16.12-8-4.67-13.14-9.28-26.31-13.57-39.58-1-3.22-2.51-3.93-5.59-3.92-20.83.12-41.66.15-62.48,0-3.11,0-4.28,1.09-5.1,3.84-4,13.37-8.08,26.7-12.18,40-2.7,8.81-8.88,12.93-16.11,10.8-7.53-2.22-11-9.34-8.4-18.14q6.08-20.28,12.72-40.39c10.72-32.65,21.46-65.31,34.74-97.05,2.55-6.12,5.45-12.11,8.49-18C1070.75,292.17,1074.44,290.1,1086.33,290.24Zm-2.55,30.45c-1.64,4.22-2.81,7.43-4.14,10.58-8.3,19.77-14.6,40.25-21.53,60.51-.86,2.51-.52,3.48,2.46,3.45q23.48-.18,47,0c2.81,0,3-1,2.25-3.24C1101.8,368.43,1094.1,344.77,1083.78,320.69Z" transform="translate(-83.11 -91.98)"></path></svg> 