<?xml version="1.0" encoding="UTF-8"?> <svg xmlns="http://www.w3.org/2000/svg" width="598.15" height="126.81" viewBox="0 0 598.15 126.81"><defs><style>.a{fill:#2b2728;}.b{fill:#1581c3;}</style></defs><path class="a" d="M401.81,368.43c-1.28,10.32-2.51,20-3.7,29.74-.44,3.63-.8,7.28-1.19,10.92s-2.48,5.36-6.09,5-4-3-3.62-5.91q3.17-24.76,6.38-49.52c.33-2.49.52-5.18,3.74-5.73,3.47-.6,6.88-.27,8.78,3.13a125,125,0,0,1,6.1,12.54c3.68,8.83,7.13,17.77,11,27.34,4.53-11.17,8.69-21.58,13-31.93a55.64,55.64,0,0,1,4.1-8c2-3.29,5.33-3.74,8.82-3.08s3.51,3.59,3.84,6.21q3.13,24.52,6.21,49.05c.36,2.89.06,5.51-3.6,5.88-3.3.35-5.5-1-5.91-4.51-.08-.67-.24-1.32-.32-2-1.41-11.73-2.8-23.47-4.24-35.2-.11-.92.27-2-1.1-3-2,2-2.74,4.68-3.65,7.16-3.55,9.67-7,19.4-10.38,29.12-1.14,3.23-2.27,6.39-6.5,6.52-4.51.13-5.75-3.12-6.95-6.55-3.42-9.73-6.87-19.44-10.43-29.11C405.09,373.92,404.26,371.19,401.81,368.43Z" transform="translate(-383.8 -320.08)"></path><path class="a" d="M464.12,383.49c0-8,0-16,0-23.94,0-5.52,1.35-6.92,6.68-6.95,7,0,14-.18,20.94.17,13.64.67,20.89,14,14.08,25.75-1.16,2-.66,2.64.79,3.93,6.61,5.87,8.57,12.86,5.87,20s-9.29,11.58-18,11.63c-7.65.05-15.3,0-22.95,0-6.27,0-7.41-1.2-7.43-7.69C464.1,398.79,464.12,391.14,464.12,383.49Zm9.19-.31h-.07c0,6,.13,12-.05,18-.08,2.77.69,3.83,3.61,3.73,6-.2,12,0,18-.09S504.87,401,504.88,396s-4.17-8.64-10.14-8.88c-3.49-.13-7,0-10.48-.07-2.75-.05-4.45-1.54-4.55-4.27-.11-3,1.58-4.63,4.57-4.75,2.16-.09,4.33,0,6.49-.06,5.42-.24,9-3.45,9.1-8s-3.52-8-8.87-8.2c-4.65-.2-9.32.13-14-.14-3.29-.19-3.87,1.25-3.78,4.1C473.43,371.54,473.31,377.36,473.31,383.18Z" transform="translate(-383.8 -320.08)"></path><path class="a" d="M591.57,372.74c-4.76,7.41-7.42,15.61-10.36,23.67-1,2.66-1.92,5.32-2.75,8s-2.41,4.43-5.29,4.43-4.38-1.78-5.31-4.42c-3.33-9.39-6.16-19-10.86-27.84-.67-1.26-.91-2.84-3-4-1.34,9.91-2.64,19.51-4,29.1-.18,1.31-.32,2.64-.63,3.93-.57,2.47-2.1,3.79-4.71,3.24-2.39-.5-3.14-2.22-2.85-4.51q2.73-21,5.46-42.07a4.09,4.09,0,0,1,4-3.8c3.06-.34,5.62.46,7.21,3.31A176.46,176.46,0,0,1,569,383.85c1.26,3.2,2.45,6.43,4,10.6.93-2.06,1.58-3.26,2-4.53a197,197,0,0,1,12-26.83c1.53-2.85,3.49-4.83,7-4.68,2.86.12,4.63,1.23,5,4.36q2.63,20.55,5.46,41.06c.37,2.75-.37,4.74-3.29,5.09s-4.09-1.59-4.45-4.21q-1.86-13.6-3.75-27.2C592.81,376,593.21,374.2,591.57,372.74Z" transform="translate(-383.8 -320.08)"></path><path class="b" d="M451.24,446.75c-18,0-36-.29-53.94.11-10.24.23-15.36-6.47-12.88-17.86.59-2.73,2.56-4.43,5.52-3.82s4.49,2.73,3.91,5.5c-1.19,5.61,1.5,6.38,6.25,6.36q51.19-.19,102.4,0c4.59,0,7.06-.82,6-6.16a4.55,4.55,0,0,1,4.19-5.73c3.19-.39,4.83,1.61,5.37,4.65,2,11.05-3,17.38-13.85,17.08C486.55,446.39,468.89,446.75,451.24,446.75Z" transform="translate(-383.8 -320.08)"></path><path class="a" d="M747.09,383.62c0-6.49.06-13,0-19.45,0-3.61,1.35-5.78,5.18-5.76,6.31,0,12.66-.26,18.94.26,11.11.93,16.58,11,11.44,20.86-1,1.81-.6,2.47.75,3.58,5.36,4.38,7,9.95,4.6,16.48-2.17,5.88-7.82,9.35-15,9.42-6.65.06-13.3-.1-19.94.06-4.32.1-6-1.86-5.94-6C747.17,396.58,747.09,390.1,747.09,383.62Zm8.19-.45h0c0,4.82.13,9.65,0,14.46-.11,2.68.89,3.44,3.45,3.35,4.81-.17,9.64,0,14.45-.08,5-.14,8.06-2.88,8-7-.05-3.81-3.05-6.53-7.74-6.8-3-.17-6,0-9-.08-2.5,0-4.26-1.25-4.33-3.82-.08-2.85,1.74-4.13,4.48-4.19,1.66,0,3.32,0,5,0,4.7-.22,7.62-2.6,7.42-6.3-.24-4.58-3.4-6.2-7.43-6.41-3.65-.19-7.32.1-11-.1-2.8-.16-3.36,1.11-3.29,3.55C755.38,374.19,755.28,378.68,755.28,383.17Z" transform="translate(-383.8 -320.08)"></path><path class="b" d="M451.32,320.09c13.48,0,27,0,40.45,0A14.78,14.78,0,0,1,506,337.8a4.59,4.59,0,0,1-4.4,4.06c-2.7.19-4.27-1.4-5.07-3.9-2.57-8-2.58-8-11-8-23.64,0-47.29.13-70.92-.1-5.07,0-8,1.24-8.33,6.63-.22,3.46-2,5.95-5.73,5.27s-4.23-3.49-3.79-6.93c1.41-11.09,5.39-14.72,16.59-14.73Z" transform="translate(-383.8 -320.08)"></path><path class="a" d="M855.42,371.89v29.75a29.26,29.26,0,0,1-.12,4,3.77,3.77,0,0,1-7.52-.27c-.13-2.32,0-4.66,0-7,0-11.15.07-22.3.15-33.46,0-2.55-.83-5.71,2.83-6.57a7.45,7.45,0,0,1,8.28,3.14c7.52,10.17,15.16,20.24,22.76,30.35.78,1,1.59,2,3.25,4.16V370.72c0-2.5,0-5,0-7.49,0-2.72,1.15-4.69,4-4.65s3.91,2.05,3.9,4.76q-.09,15.23-.11,30.46c0,3,0,6,0,9,0,2.5.33,5.36-2.94,6-3,.63-6,.25-8-2.71-3.62-5.38-7.21-10.8-11-16.05-4.57-6.29-9.36-12.43-14.05-18.64Z" transform="translate(-383.8 -320.08)"></path><path class="a" d="M817.16,358.41c9.15-.05,16.46,5.32,18.59,15,2.25,10.22,3.47,20.66,5.08,31,.36,2.29-.57,4-3,4.44-2.59.5-4.19-.8-4.75-3.26-.47-2.1-.72-4.26-1-6.4-1.08-7.6-1.08-7.6-8.93-7.6h-9c-2.91,0-5.58-.53-5.5-4.17.08-3.38,2.62-3.76,5.35-3.73,3.66.06,7.35-.26,11,.09,4.37.42,5.19-1.36,4-5.08-.41-1.25-.56-2.6-1-3.85-2-5.55-5.89-8.5-11.08-8.38a11.07,11.07,0,0,0-10.8,9.38c-1.65,8.49-2.79,17.07-4.16,25.61a34.69,34.69,0,0,1-1,4.89,3.49,3.49,0,0,1-4.29,2.52c-2.12-.35-3.39-1.77-3.07-3.85,1.75-11.33,2.28-22.92,5.72-33.9C801.88,363,809,358.44,817.16,358.41Z" transform="translate(-383.8 -320.08)"></path><path class="a" d="M938.77,382.33c.1-2.32-.36-5.84.57-9.27,2.62-9.63,10.82-15,22.18-14.66,10.42.35,18,6.53,19.66,16.39a52.72,52.72,0,0,1-.08,18.37c-2.08,11.08-11.38,16.95-24.56,15.8a19.6,19.6,0,0,1-17.76-19C938.7,387.82,938.77,385.66,938.77,382.33Zm35.09,1.49h0c0-2,.11-4,0-6-.48-7-5.35-11.17-13.2-11.28-8.51-.11-13.35,3.54-14,10.88a93.31,93.31,0,0,0-.13,11c.3,8.64,5,12.69,14.44,12.54,8.25-.13,12.8-4.75,12.91-13.13C973.88,386.49,973.86,385.16,973.86,383.82Z" transform="translate(-383.8 -320.08)"></path><path class="a" d="M650.23,377c0,4.33.21,8.67,0,13a20.21,20.21,0,0,1-18.53,19c-10.59.82-20-6-21.76-16.44-1.65-9.9-.46-19.94-.51-29.92a3.71,3.71,0,0,1,4.12-4.05c2.59.13,3.7,1.87,3.71,4.42,0,8.33-.07,16.66.13,25,.14,6.16,3.29,10.41,8.53,12.25a12.2,12.2,0,0,0,13.53-3.81,12.44,12.44,0,0,0,2.83-8.32c0-7.83.07-15.66.07-23.49,0-3,.34-6.09,4.22-6,3.65.09,3.75,3.07,3.71,5.89C650.19,368.64,650.23,372.8,650.23,377Z" transform="translate(-383.8 -320.08)"></path><path class="a" d="M899.94,383.23c0-2.34-.08-4.67,0-7a18.22,18.22,0,0,1,15.11-17.4c5.12-1,10.29-.38,15.45-.41,2.62,0,4.72,1,4.77,3.91.06,3.27-2.23,4.12-5,4.15-3.83,0-7.66,0-11.48.19-6.87.39-10.58,4.32-10.72,11.23-.09,4-.14,8,0,12,.26,6.57,4.55,10.81,11.11,11,3.83.14,7.66.06,11.49.06,2.74,0,4.62,1.19,4.61,4.06s-1.93,4-4.66,4c-3.49,0-7,.06-10.49,0-12.37-.07-20.12-7.88-20.2-20.35,0-1.83,0-3.66,0-5.49Z" transform="translate(-383.8 -320.08)"></path><path class="a" d="M704.8,358.4h15.47c2.8,0,5.11.82,5,4.12-.08,3-2.25,3.77-4.88,3.67h-.5c-11.53.39-11.53.39-11.52,11.78,0,8.48,0,17,.05,25.44,0,2.87-.45,5.67-4.13,5.49-3.33-.16-3.58-2.83-3.58-5.49,0-10.48-.32-21,.09-31.43.2-5.06-1.56-6.46-6.18-5.81a51.82,51.82,0,0,1-6,.05c-2.63.06-4.79-.67-4.87-3.69-.08-3.32,2.26-4.07,5.05-4.07h16Z" transform="translate(-383.8 -320.08)"></path><path class="a" d="M657.15,377.29V363.82c0-2.79.85-5.14,4-5.17s4,2.3,3.95,5.13q-.06,12.47.06,24.93c.1,8,4.37,12.23,12.37,12.3,3.32,0,6.65,0,10,0,2.67,0,4.58,1.15,4.55,4.09s-2,3.93-4.67,3.92c-3.49,0-7,0-10.48,0-11.36-.13-19.08-7.41-19.71-18.8-.23-4.31,0-8.64,0-13Z" transform="translate(-383.8 -320.08)"></path><path class="a" d="M731.66,384c0-6.83,0-13.66,0-20.49,0-2.65.78-4.82,3.7-4.94,3.18-.13,4.31,2.08,4.31,4.93q.06,20.24.05,40.47c0,2.8-1.07,5.09-4.3,4.94-2.93-.13-3.73-2.29-3.72-4.93,0-6.66,0-13.32,0-20Z" transform="translate(-383.8 -320.08)"></path></svg> 