<?xml version="1.0" encoding="UTF-8"?> <svg xmlns="http://www.w3.org/2000/svg" id="Layer_1" data-name="Layer 1" viewBox="0 0 500.14 119.7"><defs><style>.cls-1{fill:#0d1516;}.cls-2{fill:#e30b18;}.cls-3{fill:#e20915;}.cls-4{fill:#8ec033;}.cls-5{fill:#cce2a3;}</style></defs><path class="cls-1" d="M693,552.31c0-6.16,0-12.32,0-18.48.14-16.34,13.78-29.12,29.44-27.65,15.92,1.49,28,16.35,25.28,31.1-3.11,17-18.35,27.1-34.69,22.48-4.49-1.27-5-.19-4.75,3.68a71.56,71.56,0,0,1,0,9.49,7.37,7.37,0,0,1-7.94,7.18,7.18,7.18,0,0,1-7.29-7.31C692.89,566,693,559.14,693,552.31Zm27.39-6.71a12.33,12.33,0,0,0,12.3-11.85c.2-6.53-5.67-12.35-12.38-12.28a12.07,12.07,0,0,0,.08,24.13Z" transform="translate(-290 -478)"></path><path class="cls-2" d="M550.18,507.68c0-6.31.05-12.62,0-18.93,0-4.41,1.62-6.88,6.46-6.71,5.81.2,11.63-.08,17.44.15,9.78.39,14.31,4.68,14.65,14.47s.06,19.6.08,29.4c0,3.78-1.35,5.4-5.57,5.25-9.79-.35-19.6-.2-29.4-.06-2.77,0-3.79-.73-3.71-3.64C550.32,521,550.18,514.33,550.18,507.68Zm15.63,3.24V522.4c0,1.89-.13,3.71,2.72,3.62,2.45-.07,5.1,0,5.18-3.16q.27-11.72-.07-23.44c-.09-2.88-2.73-2.82-4.93-2.94-2.54-.12-3,1.3-2.93,3.46C565.89,503.6,565.81,507.26,565.81,510.92Z" transform="translate(-290 -478)"></path><path class="cls-2" d="M606.17,508.09c0-6.49,0-13,0-19.47,0-4.51,1.84-6.77,6.61-6.58,6,.23,12-.05,18,.22,8.74.38,13.67,4.92,14,13.65.42,10.8.1,21.63.21,32.45,0,2.16-.71,2.74-2.85,2.9-12.34.87-12.33.94-12.33-11.35,0-5.83-.08-11.66,0-17.48.06-3.36-.33-5.87-4.64-6-4.67-.09-3.32,3.17-3.34,5.52-.1,8.49-.13,17,0,25.47,0,2.7-.6,3.73-3.56,3.82-12.12.37-12.11.48-12.11-11.7Z" transform="translate(-290 -478)"></path><path class="cls-2" d="M606.17,555.48c0-6,0-12,0-18,0-1-.39-2.5.11-2.92,4-3.31,8.7-.74,13.05-1.51,2.57-.46,2.47,1.39,2.47,3.13,0,8.83,0,17.65,0,26.48,0,2.58,0,4.47,3.58,4.35,3.27-.12,4.47-1.45,4.45-4.53,0-8.66.1-17.32-.08-26-.05-2.88.86-3.53,3.64-3.55,11.57-.07,11.57-.18,11.57,11.55,0,7.16.07,14.32,0,21.48-.13,9.85-4.34,14.48-14,15.1-6.14.39-12.31.28-18.46.36-4.4.07-6.29-2.21-6.24-6.51C606.22,568.47,606.17,562,606.17,555.48Z" transform="translate(-290 -478)"></path><path class="cls-3" d="M290.1,507.81c0-6.49,0-13,0-19.47,0-4.32,1.81-6.44,6.31-6.29,5.82.19,11.65,0,17.47.18,9.67.33,14,4.3,14.45,14,.43,10,.18,20,.16,29.93,0,3.4-1,5.31-5.23,5.14-9.63-.4-19.3-.31-28.95,0-3.68.11-4.41-1.14-4.27-4.5C290.28,520.46,290.1,514.13,290.1,507.81Zm15.43,3.46c0,3.81,0,7.62,0,11.43,0,2.11.46,3.51,3.06,3.33,2.18-.15,4.7.2,4.76-2.9.17-7.94.31-15.89.05-23.82-.1-3.21-3.13-2.76-5.42-2.83-2.45-.07-2.47,1.6-2.45,3.36C305.55,503.65,305.52,507.46,305.53,511.27Z" transform="translate(-290 -478)"></path><path class="cls-2" d="M586.8,533.05c.24,1.83-.5,2.84-1.22,3.19-5.27,2.62-3.89,6.52-2.58,10.77,2.64,8.55,5,17.19,7.39,25.82.86,3.11,3.56,6.92-1.93,8.49-6.76,1.93-12.08-.44-13.38-5.76-1.86-7.57-3.63-15.16-5.44-22.74a64.47,64.47,0,0,0-3.83-12.22q0,16.06,0,32.12c0,7.92-4.21,10.88-11.91,8.46a4.76,4.76,0,0,1-3.65-4.76c-.09-13.63,0-27.27-.08-40.9,0-2,.77-2.52,2.67-2.5C564.1,533.09,575.38,533.05,586.8,533.05Z" transform="translate(-290 -478)"></path><path class="cls-3" d="M517.1,541.56c-.37-8.5-.34-8.09,6.89-8.63,5.5-.42,6.84,1.44,7.21,6.75.81,11.75,2.49,23.45,3.93,35.15.49,4-.44,6.44-5,6.67-7.43.39-9.68-.91-10.09-6.26-.25-3.31-.82-6.62-.78-9.93,0-4.22-2.84-3.11-5.15-3.29-2.57-.19-4.6.07-4.64,3.47a88.85,88.85,0,0,1-.7,10.44c-.63,4.92-3.77,6.42-10.78,5.51-4.61-.6-4.72-3.41-4.22-7.24,1.63-12.35,3-24.74,4.29-37.14.31-3.07,1.18-4.16,4.49-4.1,9.84.16,9.79,0,9.17,10-.12,2-1.64,4.9,2.55,5,2.31.05,3.51-.44,3.08-3A25.68,25.68,0,0,1,517.1,541.56Z" transform="translate(-290 -478)"></path><path class="cls-3" d="M416.34,533.06c4.79-1.49,6.13,1.21,6.56,6.37,1,11.75,2.57,23.46,4,35.17.43,3.56,0,6.32-4.31,6.87-7.13.89-10.07-.53-10.72-5.46a45.42,45.42,0,0,1-.69-8.44c.28-4.72-1.79-5.89-6.19-5.67-3,.15-3.69,1.41-3.83,3.87a94.51,94.51,0,0,1-.82,10.93c-.74,4.35-4.54,5.76-10.94,4.67-4.29-.73-4.54-3.57-4.1-7.06,1.58-12.7,3.18-25.4,4.53-38.12.28-2.61,1.11-3.17,3.6-3.2,10.4-.12,10.37-.22,9.74,10.18-.13,2.13-1.18,4.69,2.92,4.76s3-2.49,2.92-4.64c0-1-.09-2-.17-3C408.31,533.06,408.31,533.06,416.34,533.06Z" transform="translate(-290 -478)"></path><path class="cls-3" d="M441.08,551.11c0-5,.12-10-.05-15-.07-2.31.48-3.07,3-3.17,12.51-.5,12.51-.59,12.51,11.63,0,6.48,0,13,0,19.45,0,2.42.33,4.81,3.61,4.86s4.09-2.13,4.07-4.95c0-4.82-.08-9.64,0-14.46.11-5.23,1.65-6.16,8.23-6.38,4.53-.15,6.92,1.27,6.77,6.16-.17,5.65,0,11.31-.05,17-.15,9.36-4,14-13,16A27,27,0,0,1,450,580.92c-5.7-2.29-8.39-7-8.72-12.86-.31-5.64-.06-11.3-.06-16.95Z" transform="translate(-290 -478)"></path><path class="cls-3" d="M441.08,512.18V499.71c0-13.57,7-20,20.74-19,12.79.92,17.37,5.82,17.38,18.6,0,4.66-.08,9.31,0,14,.1,4.47-2.36,5.64-6.34,5.61-6.52,0-8.43-1-8.62-5.56s-.11-9.31,0-14c0-2.68-.9-4.9-3.68-4.93-3,0-4.11,2.09-4.07,5.09.11,9-.1,18,.11,26.93.08,3.47-.5,5-4.53,4.87-11-.21-11,0-11-11.14Q441.09,516.17,441.08,512.18Z" transform="translate(-290 -478)"></path><path class="cls-1" d="M775.33,553.24a77.37,77.37,0,0,1-5.7,10.52c-1.86,3.07-3.59,3.58-6.62,1.43-5.76-4.08-9.73-9.33-9.91-16.43-.37-14.63-.34-29.26-.24-43.9a7.51,7.51,0,0,1,7.92-7.77c4.52.09,7.24,3.12,7.58,8.07.22,3.22-1.6,7.5.9,9.37,2.06,1.54,6.07.47,9.22.54,4.95.12,7.73,2.38,7.83,6.41s-2.87,6.75-7.95,6.92c-10,.34-10,.34-10,10.46,0,1.83,0,3.66,0,5.49C768.28,549,769.89,552.46,775.33,553.24Z" transform="translate(-290 -478)"></path><path class="cls-3" d="M513.87,507.51c-.35,6.27-.82,12.52-1,18.79-.11,3.55-1.05,5.17-5.16,5-8.73-.34-8.8-.07-7.83-8.79,1.29-11.54,2.75-23.07,4-34.61.44-4,2.39-5.77,6.47-5.87,13.85-.33,13.87-.4,15.54,13.17,1.31,10.71,2.45,21.45,3.9,32.14.43,3.17-.42,3.92-3.55,3.92-9.88,0-9.82.15-10.34-9.89-.24-4.62-.73-9.22-1.11-13.83Z" transform="translate(-290 -478)"></path><path class="cls-3" d="M405.5,509.18c-.44,6.16-1,12.32-1.25,18.49-.11,2.71-.92,3.57-3.74,3.6-10.29.12-10.18.26-8.89-9.81,1.34-10.53,2.44-21.1,3.63-31.65.75-6.62,1.91-7.8,8.38-7.7,9.88.15,12.74-2.62,13.77,11.68.84,11.58,2.46,23.1,4,34.62.31,2.37-.31,2.69-2.4,2.83-10.7.73-10.89.71-11.62-9.78-.28-4.07,0-8.18,0-12.28Z" transform="translate(-290 -478)"></path><path class="cls-3" d="M342.87,556c0-6.65.1-13.3,0-19.94-.05-2.4.71-3,3.09-3.06,12.33-.41,12.32-.49,12.32,11.84,0,5.65.32,11.33-.1,16.95-.32,4.36,1.27,5.41,5.33,5.24,6.53-.26,7.57,1,7.53,7.33,0,5.86-1.14,7-7,7.07-4.49.05-9,0-13.47,0-6.52,0-7.63-1.12-7.67-7.48C342.85,568,342.87,562,342.87,556Z" transform="translate(-290 -478)"></path><path class="cls-3" d="M327.11,533.06c-4.48,6.27-10,7.35-15.68,6.88-4.89-.4-6.23,1.19-6,6,.39,9.29.15,18.62.1,27.94,0,6.49-1.27,7.58-8.13,7.54-5.89,0-7.27-1.41-7.28-7.4,0-12.31.1-24.62-.08-36.93,0-3.23.79-4.2,4.11-4.13C304.71,533.2,315.31,533.06,327.11,533.06Z" transform="translate(-290 -478)"></path><path class="cls-3" d="M358.24,508.54c0,6.31-.1,12.62.05,18.93.06,2.61-.42,3.74-3.45,3.81-12,.26-12,.38-12-11.69,0-10.3,0-20.59,0-30.89,0-5.57,1.36-6.62,7.93-6.61,6.21,0,7.36,1,7.41,6.52C358.29,495.25,358.24,501.89,358.24,508.54Z" transform="translate(-290 -478)"></path><path class="cls-4" d="M706.16,487.18c19-10.21,38.48-13,58.42-2.76a44.39,44.39,0,0,1,20.7,22.05c-4.67,1.14-7.61.24-10.27-3.84-8-12.33-20.38-17.7-34.49-18.94a59.36,59.36,0,0,0-32.73,6.13C708.36,488.25,706.7,488.06,706.16,487.18Z" transform="translate(-290 -478)"></path><path class="cls-4" d="M685,578.88c-13.14-12.82-13.68-28.35-9.28-44.72,3-11,9.22-20.11,17.28-28,1,1.89,3.08,2.12,4.79,2.9-5.06,6.82-10.21,13.58-13.43,21.53-6.53,16.15-7.82,31.86,4,46.44C686.7,576.65,685.93,577.9,685,578.88Z" transform="translate(-290 -478)"></path><path class="cls-4" d="M733.84,593.89c27-9.69,44.09-28.07,49.12-56.75.56-3.2,1.82-4.22,4.84-3.66,3.68.68,2,3.36,1.64,5-6.81,30.48-25.8,49.19-55.7,57.25C733.77,595.14,733.81,594.51,733.84,593.89Z" transform="translate(-290 -478)"></path><path class="cls-5" d="M697.8,509c-1.71-.78-3.76-1-4.79-2.9,7.74-6.68,14.71-15.09,28.07-11.58C712,498.29,705.13,504,697.8,509Z" transform="translate(-290 -478)"></path><path class="cls-1" d="M666.36,566.83c-.05,4.4-2.9,7.36-6.3,7-3.64-.34-5.73-2.53-5.95-6.17-.2-3.31,3.16-6.72,6.33-6.28C663.87,561.91,666.24,563.79,666.36,566.83Z" transform="translate(-290 -478)"></path><path class="cls-5" d="M706.16,487.18c.54.88,2.2,1.07,1.63,2.64-5.85,3.49-11.94,6.57-17.42,10.76C694.21,494.35,700.1,490.66,706.16,487.18Z" transform="translate(-290 -478)"></path><path class="cls-5" d="M685,578.88c.92-1,1.69-2.23,3.36-1.89a.54.54,0,0,1,.59.59c-.07,1.3.34,2.22,1.84,2.25,4.35,1.74,7.82,5.11,12.27,6.73C695.85,586.82,689.92,584.05,685,578.88Z" transform="translate(-290 -478)"></path><path class="cls-5" d="M733.84,593.89c0,.62-.07,1.25-.1,1.87-6.25,1.65-12.53,2.91-19,.94A102.23,102.23,0,0,0,733.84,593.89Z" transform="translate(-290 -478)"></path><path class="cls-4" d="M690.8,579.83c-1.5,0-1.91-1-1.84-2.25Z" transform="translate(-290 -478)"></path><path class="cls-5" d="M685.85,504.79c-.11.25-.23.49-.35.73-.11-.09-.33-.21-.32-.27a5.28,5.28,0,0,1,.33-.73Z" transform="translate(-290 -478)"></path></svg> 