<?xml version="1.0" encoding="UTF-8"?>
<svg xmlns="http://www.w3.org/2000/svg" id="Logotipos" viewBox="0 0 2000 700">
  <path d="M164.78,222.25c-70.55,18.91-112.43,91.43-93.52,161.98,18.9,70.55,91.43,112.42,161.98,93.52,70.55-18.9,112.42-91.43,93.52-161.98-18.91-70.55-91.43-112.42-161.98-93.52ZM279.62,286.45l19.06-4.51c2.93-.69,4.63,1.93,2.81,4.32l-11.88,15.58-13.18,17.29c-1.56,2.04-4.62,2.4-5.75.66l-7.58-11.67-7.58-11.67c-1.13-1.74.44-4.39,2.94-4.98l21.15-5.01ZM212.46,267.33l14.17-16.49,12.77-14.86c1.96-2.28,4.88-1.16,4.81,1.85l-.45,19.58-.5,21.73c-.06,2.57-2.33,4.65-4.26,3.91l-12.99-4.99-12.99-4.99c-1.93-.74-2.22-3.81-.55-5.76ZM263.27,332.05l.12.45c9.55,35.62-11.26,72.33-46.99,82.39l-.23.06c-35.79,9.83-73.01-11.08-82.9-47.1-9.83-35.79,11.08-73.01,47.1-82.9,35.79-9.83,73.01,11.08,82.9,47.1ZM161.06,274.84l1.77-21.67,1.6-19.53c.25-3,3.26-3.81,4.98-1.33l11.15,16.11,12.37,17.88c1.46,2.11.85,5.13-1.15,5.67l-13.44,3.6-13.44,3.6c-2,.54-4.04-1.78-3.83-4.34ZM105.65,271.82l18.49,6.48,20.51,7.19c2.42.85,3.71,3.65,2.4,5.26l-8.76,10.82-8.76,10.82c-1.3,1.61-4.31.94-5.65-1.26l-11.3-18.57-10.18-16.74c-1.56-2.57.4-5,3.24-4ZM77.29,341.26l18.77-5.62,20.82-6.24c2.46-.74,5.15.78,5.04,2.84l-.73,13.9-.73,13.9c-.11,2.07-2.94,3.29-5.31,2.3l-20.06-8.38-18.08-7.55c-2.78-1.16-2.61-4.28.27-5.14ZM117.03,413.91l-19.06,4.51c-2.93.69-4.63-1.93-2.81-4.32l11.88-15.58,13.18-17.29c1.56-2.04,4.62-2.4,5.75-.66l7.58,11.67,7.58,11.67c1.13,1.73-.44,4.39-2.94,4.98l-21.15,5.01ZM184.19,433.04l-14.17,16.48-12.77,14.86c-1.96,2.28-4.88,1.16-4.81-1.85l.45-19.59.5-21.73c.06-2.57,2.33-4.65,4.26-3.91l12.99,4.99,12.99,4.99c1.93.74,2.22,3.81.55,5.76ZM235.59,425.52l-1.77,21.67-1.6,19.53c-.25,3-3.26,3.81-4.98,1.33l-11.15-16.11-12.37-17.88c-1.46-2.11-.85-5.13,1.15-5.67l13.44-3.6,13.44-3.6c2-.54,4.04,1.78,3.83,4.34ZM291,428.54l-18.49-6.48-20.51-7.19c-2.42-.85-3.71-3.65-2.4-5.26l8.76-10.82,8.76-10.82c1.3-1.61,4.31-.94,5.65,1.26l11.3,18.57,10.18,16.74c1.56,2.57-.4,5-3.24,4ZM319.36,359.1l-18.77,5.62-20.82,6.24c-2.46.74-5.15-.78-5.04-2.84l.73-13.9.73-13.9c.11-2.07,2.94-3.29,5.31-2.3l20.06,8.38,18.08,7.55c2.78,1.16,2.61,4.28-.27,5.14Z" fill="#00d178" stroke-width="0"></path>
  <path d="M1725.57,394.71c13.68,0,25.25,11.57,25.25,25.25s-11.57,24.72-25.25,24.72-24.72-11.31-24.72-24.72,11.31-25.25,24.72-25.25Z" fill="#00d178" stroke-width="0"></path>
  <g>
    <path d="M412.1,417.07l12.36-21.83c2.1-3.42,7.1-2.89,8.94-1.58,1.05.53,19.99,14.47,37.35,14.47,10.52,0,18.15-6.58,18.15-15.78,0-11.05-9.21-19.46-27.09-26.56-22.62-8.94-51.02-26.56-51.02-58.12,0-26.04,20.25-52.34,60.75-52.34,27.35,0,48.39,13.94,56.28,19.73,3.16,1.84,2.63,6.58,1.58,8.42l-13.41,20.25c-1.84,2.89-6.58,5.26-8.94,3.42-2.37-1.32-21.57-15.78-37.61-15.78-9.47,0-16.57,6.31-16.57,13.41,0,9.73,7.89,17.1,28.67,25.51,20.51,8.15,53.13,24.2,53.13,59.97,0,27.09-23.41,54.44-62.07,54.44-34.19,0-53.13-14.2-59.18-20.25-2.63-2.63-3.42-3.68-1.31-7.36Z" fill="#05253e" stroke-width="0"></path>
    <path d="M645.13,255.32c52.6,0,94.68,42.34,94.68,94.95s-42.08,94.42-94.68,94.42-94.42-41.82-94.42-94.42,41.82-94.95,94.42-94.95ZM645.13,402.6c28.93,0,52.6-23.67,52.6-52.34s-23.67-52.86-52.6-52.86-52.34,23.93-52.34,52.86,23.67,52.34,52.34,52.34Z" fill="#05253e" stroke-width="0"></path>
    <path d="M769.01,262.94c0-2.63,2.1-5,5-5h31.3c2.63,0,5,2.37,5,5v140.45h62.6c2.89,0,5,2.37,5,5v28.67c0,2.63-2.1,5-5,5h-98.89c-2.89,0-5-2.37-5-5v-174.11Z" fill="#05253e" stroke-width="0"></path>
    <path d="M853.96,264.79c-1.58-3.42.53-6.84,4.47-6.84h34.98c2.1,0,3.95,1.58,4.47,2.89l43.4,96h1.58l43.4-96c.53-1.32,2.37-2.89,4.47-2.89h34.98c3.95,0,6.05,3.42,4.47,6.84l-82.58,177c-.79,1.58-2.37,2.89-4.47,2.89h-2.63c-2.1,0-3.68-1.32-4.47-2.89l-82.06-177Z" fill="#05253e" stroke-width="0"></path>
    <path d="M1049.11,262.94c0-2.63,2.1-5,5-5h108.89c2.89,0,5,2.37,5,5v28.67c0,2.63-2.1,5-5,5h-72.85v32.61h59.97c2.63,0,5,2.37,5,5v28.67c0,2.89-2.37,5-5,5h-59.97v35.51h72.85c2.89,0,5,2.37,5,5v28.67c0,2.63-2.1,5-5,5h-108.89c-2.89,0-5-2.37-5-5v-174.11Z" fill="#05253e" stroke-width="0"></path>
    <path d="M1200.6,262.94c0-2.63,2.1-5,5-5h78.64c31.56,0,57.34,25.51,57.34,56.81,0,24.2-16.04,43.66-38.93,52.86l36.03,66.8c1.84,3.42,0,7.63-4.47,7.63h-34.98c-2.1,0-3.68-1.31-4.21-2.37l-34.98-69.7h-18.15v67.07c0,2.63-2.37,5-5,5h-31.3c-2.89,0-5-2.37-5-5v-174.11ZM1280.82,336.59c10.78,0,19.99-9.99,19.99-21.04s-9.21-19.99-19.99-19.99h-38.93v41.03h38.93Z" fill="#05253e" stroke-width="0"></path>
    <path d="M1374.19,262.94c0-2.63,2.1-5,4.73-5h64.17c50.76,0,92.32,41.29,92.32,91.79s-41.55,92.32-92.32,92.32h-64.17c-2.63,0-4.73-2.37-4.73-5v-174.11ZM1440.47,403.13c29.72,0,51.29-23.41,51.29-53.39s-21.57-53.13-51.29-53.13h-25.25v106.52h25.25Z" fill="#05253e" stroke-width="0"></path>
    <path d="M1564.87,262.94c0-2.63,2.1-5,5-5h108.89c2.89,0,5,2.37,5,5v28.67c0,2.63-2.1,5-5,5h-72.85v32.61h59.97c2.63,0,5,2.37,5,5v28.67c0,2.89-2.37,5-5,5h-59.97v35.51h72.85c2.89,0,5,2.37,5,5v28.67c0,2.63-2.1,5-5,5h-108.89c-2.89,0-5-2.37-5-5v-174.11Z" fill="#05253e" stroke-width="0"></path>
    <path d="M1774.23,332.53c0-1.61,1.29-3.06,3.06-3.06h38.76c19.78,0,36.02,16.08,36.02,35.54s-16.24,36.18-35.86,36.18h-16.89v37.79c0,1.61-1.45,3.06-3.06,3.06h-18.98c-1.77,0-3.06-1.45-3.06-3.06v-106.46ZM1814.6,377.72c6.92,0,12.7-5.47,12.7-12.7,0-6.75-5.79-11.9-12.7-11.9h-15.28v24.61h15.28Z" fill="#05253e" stroke-width="0"></path>
    <path d="M1881.82,353.12h-23c-1.77,0-3.06-1.45-3.06-3.06v-17.53c0-1.61,1.29-3.06,3.06-3.06h71.41c1.77,0,3.06,1.45,3.06,3.06v17.53c0,1.61-1.29,3.06-3.06,3.06h-23v85.88c0,1.61-1.45,3.06-3.06,3.06h-19.3c-1.61,0-3.06-1.45-3.06-3.06v-85.88Z" fill="#05253e" stroke-width="0"></path>
  </g>
</svg>
