<?xml version="1.0" encoding="UTF-8"?> <svg xmlns="http://www.w3.org/2000/svg" width="274.4" height="28.45" viewBox="0 0 274.4 28.45"><defs><style>.a{fill:#ffce06;}.a,.b{fill-rule:evenodd;}.b{fill:#06815d;}</style></defs><path class="a" d="M26.2,13.82A6.76,6.76,0,0,1,29,16a5.7,5.7,0,0,1,1,3.36,7.44,7.44,0,0,1-3.72,6.78,18.08,18.08,0,0,1-9.57,2.28H.3L6,0H21.08c3.33,0,5.87.59,7.6,1.77a5.7,5.7,0,0,1,2.6,5A6.8,6.8,0,0,1,29.94,11,8.76,8.76,0,0,1,26.2,13.82ZM14.09,6.71l-.86,4.22h4.88c2.12,0,3.17-.82,3.17-2.48a1.48,1.48,0,0,0-.65-1.3,3.36,3.36,0,0,0-1.87-.44Zm3.17,15a3.79,3.79,0,0,0,2.35-.67,2.25,2.25,0,0,0,.9-1.93,1.61,1.61,0,0,0-.67-1.38,2.77,2.77,0,0,0-1.69-.49H12l-.89,4.47ZM45.39,7.23l-.65,3.34h12L55.4,17.48H43.32l-.73,3.74H56.86L55.4,28.45H31.73L37.42,0H60.56L59.1,7.23Zm24.08.21H61.13L62.63,0H88.9L87.4,7.44H79.06l-4.18,21h-9.6l4.19-21Z" transform="translate(-0.3)"></path><path class="b" d="M140.39,0l-14.8,28.45H115.3l-1.62-15-7.81,15H95.58L92.17,0h9.47l1.83,16.22L111.93,0h8.82l1.63,16.46L131,0Zm2.73,0h9.59L147,28.45h-9.6ZM185.4,0l-5.69,28.45h-7.89L163.65,15.2,161,28.45h-9.35L157.35,0h7.89l8.17,13.25L176.05,0Zm32.7,0-5.7,28.45h-7.88L196.34,15.2,193.7,28.45h-9.35L190,0h7.89l8.17,13.25L208.74,0Zm12.6,7.23-.65,3.34h12l-1.38,6.91H228.63l-.73,3.74h14.27l-1.46,7.23H217L222.73,0h23.14l-1.46,7.23Zm44,2.12a11.08,11.08,0,0,1-2,6.6A12,12,0,0,1,267,20.16l4.75,8.29h-10l-4-7.15h-2.35L254,28.45h-9.59L250.1,0h12.77q5.61,0,8.72,2.46A8.29,8.29,0,0,1,274.7,9.35Zm-9.72.93q0-2.88-3.58-2.88h-3.21l-1.34,6.66h3.94a4.45,4.45,0,0,0,3.09-1,3.6,3.6,0,0,0,1.1-2.79Z" transform="translate(-0.3)"></path></svg> 