<?xml version="1.0" encoding="UTF-8"?> <svg xmlns="http://www.w3.org/2000/svg" id="Слой_1" data-name="Слой 1" viewBox="0 0 216 68.33"><defs><style>.cls-1{fill:#48952b;}</style></defs><g id="Слой_2" data-name="Слой 2"><g id="Layer_1" data-name="Layer 1"><path class="cls-1" d="M80.6,33.3a1.25,1.25,0,0,1,.6-1.1,4.59,4.59,0,0,1,1.6-.7,5.34,5.34,0,0,1,2.2-.2,8.52,8.52,0,0,1,2.3.3,3.27,3.27,0,0,1,1.5,1.1,4.85,4.85,0,0,1,.8,2.1,12.22,12.22,0,0,1,.2,3.3c0,1.3-.1,2.5-.2,3.8a5.84,5.84,0,0,1-.8,2.2,2.94,2.94,0,0,1-1.6,1,6.52,6.52,0,0,1-2.4.2,6.15,6.15,0,0,1-1.4-.1A5.9,5.9,0,0,1,82,45a5,5,0,0,1-1.3-.4l-.1-11.3ZM75.3,48a7.62,7.62,0,0,0,2,.6,20.48,20.48,0,0,0,2.4.5l2.6.3a21.75,21.75,0,0,0,2.5.1,18.35,18.35,0,0,0,4.7-.6A7.34,7.34,0,0,0,92.8,47a8.36,8.36,0,0,0,1.9-3.6,21,21,0,0,0,.7-5.6,20.18,20.18,0,0,0-.6-5.5,8.8,8.8,0,0,0-1.7-3.5A5.66,5.66,0,0,0,90.3,27a10.75,10.75,0,0,0-4-.5,17.85,17.85,0,0,0-2.3.2,10.55,10.55,0,0,0-1.9.5,10.09,10.09,0,0,0-1.5.7V19.2l-5.3,2.7V48Zm39.2-3.8c-.4.1-.9.2-1.5.4a10.1,10.1,0,0,1-1.7.3c-.6.1-1.1.1-1.6.2a7.08,7.08,0,0,1-1.4.1,21.05,21.05,0,0,1-2.5-.2,4.17,4.17,0,0,1-1.8-.8,4.52,4.52,0,0,1-1.1-1.7,9,9,0,0,1-.4-2.8h14.1a32.52,32.52,0,0,0-.2-5.4,12,12,0,0,0-1-3.7,6,6,0,0,0-1.9-2.3,6.6,6.6,0,0,0-2.7-1.2,15,15,0,0,0-3.7-.3,15.93,15.93,0,0,0-4.3.6,7,7,0,0,0-3.2,1.9,9.4,9.4,0,0,0-2,3.5,20.24,20.24,0,0,0-.7,5.5,17.65,17.65,0,0,0,.8,5.6,8.11,8.11,0,0,0,5.5,5.5,15.93,15.93,0,0,0,4.3.6,10.87,10.87,0,0,0,1.8-.1c.7-.1,1.3-.1,2-.2a14.16,14.16,0,0,0,2-.4,12.09,12.09,0,0,0,1.8-.5l-.6-4.6Zm-6.9-13.4a5.84,5.84,0,0,1,1.9.2,3.29,3.29,0,0,1,1.3.7,3.92,3.92,0,0,1,.8,1.4,9.86,9.86,0,0,1,.3,2.4h-9.2a8.87,8.87,0,0,1,.7-2.8,2.56,2.56,0,0,1,1.5-1.4,5.2,5.2,0,0,1,2.7-.5Zm22.2,1,3.1-4.6h-7.5V20.8l-5.3,2.7v3.7h-3.7v4.6h3.7v9.9a18.1,18.1,0,0,0,.4,4,4.93,4.93,0,0,0,1.4,2.4,4.64,4.64,0,0,0,2.3,1.2,11.23,11.23,0,0,0,3.2.3,14.77,14.77,0,0,0,2.1-.1,15.52,15.52,0,0,0,2.1-.4,12.09,12.09,0,0,0,1.8-.5l-.9-4.2a14.3,14.3,0,0,1-3.7.6,4.48,4.48,0,0,1-2-.4,2.34,2.34,0,0,1-1-1.2,7.8,7.8,0,0,1-.3-2.2V31.8Z" transform="translate(0 0.01)"></path><path class="cls-1" d="M69.1,34.2a19.71,19.71,0,0,1-2.4,9.5C62.5,51.2,51,63.3,42.6,66.8a18.38,18.38,0,0,1-8,1.5,18.36,18.36,0,0,1-8-1.8c-4.3-1.8-9-6.3-13.5-10.8C8.8,51.5,4.7,47.2,2.7,43.6A19.34,19.34,0,0,1,0,34.2a19.71,19.71,0,0,1,2.4-9.5C6.6,17.2,18.1,5,26.5,1.5a18.38,18.38,0,0,1,8-1.5c3.4-.1,6.9,1.6,10.2,4,7.4,5.2,17.1,14.8,21.8,22.5A14.22,14.22,0,0,1,69.1,34.2ZM54.8,20.9a11.36,11.36,0,0,0-2.5-.6,25.35,25.35,0,0,0-2.9-.4c-1-.1-2-.2-3-.2a18,18,0,0,0-6.5.9,7.73,7.73,0,0,0-4,2.9,8.92,8.92,0,0,0-1.3,5.3,12,12,0,0,0,.5,3.3,4.81,4.81,0,0,0,1.7,2.3,7.39,7.39,0,0,0,2.8,1.4,17.63,17.63,0,0,0,4,.7,30.62,30.62,0,0,1,3.2.5,6.39,6.39,0,0,1,1.9.8,3.13,3.13,0,0,1,.9,1.1,2.3,2.3,0,0,1,.2,1.4,3.41,3.41,0,0,1-.7,2.2A3.6,3.6,0,0,1,47,43.6a21.86,21.86,0,0,1-3.6.3,25,25,0,0,1-7.2-1l-1.6,4.3a22.85,22.85,0,0,0,8.9,1.5,22.38,22.38,0,0,0,5.2-.5,8.54,8.54,0,0,0,3.7-1.5A5.77,5.77,0,0,0,54.6,44a11.62,11.62,0,0,0,.8-4.2,8.61,8.61,0,0,0-1-4.4,6.06,6.06,0,0,0-3-2.7,16.48,16.48,0,0,0-5.3-1.3,16.68,16.68,0,0,1-3.1-.5,6.19,6.19,0,0,1-1.9-.7A2.37,2.37,0,0,1,40,27.8a3.5,3.5,0,0,1,.6-2.2,3.74,3.74,0,0,1,2-1.2,11,11,0,0,1,3.6-.3,26.2,26.2,0,0,1,2.8.1,23.36,23.36,0,0,1,2.6.4,14.62,14.62,0,0,1,2,.5l1.2-4.2ZM15.9,22.4V48.5H31.6l1.7-4.6H20.9v-24l-5,2.5Z" transform="translate(0 0.01)"></path><path class="cls-1" d="M161.5,44a16.82,16.82,0,0,1-2.4.7,12.41,12.41,0,0,1-2.7.3,10.68,10.68,0,0,1-2.5-.3,4,4,0,0,1-1.8-1,5.29,5.29,0,0,1-1.1-2.1,13.93,13.93,0,0,1-.4-3.5,14.72,14.72,0,0,1,.4-3.6,4.27,4.27,0,0,1,1.1-2.1,3.25,3.25,0,0,1,1.8-1,7.07,7.07,0,0,1,2.5-.2,10.87,10.87,0,0,1,1.8.1c.6.1,1.2.2,1.7.3a8.8,8.8,0,0,1,1.5.5l1.2-4.5a7.37,7.37,0,0,0-1.4-.4c-.5-.1-1.1-.2-1.7-.3a11,11,0,0,0-1.8-.2c-.6,0-1.2-.1-1.7-.1a23,23,0,0,0-4.5.5,7.72,7.72,0,0,0-5.6,5.3,20.9,20.9,0,0,0-.8,5.5,17.65,17.65,0,0,0,.8,5.6,8.37,8.37,0,0,0,2.2,3.6,8.79,8.79,0,0,0,3.4,1.9,17.4,17.4,0,0,0,4.5.6,10.28,10.28,0,0,0,1.7-.1c.6-.1,1.2-.1,1.8-.2s1.2-.2,1.7-.3a8.8,8.8,0,0,0,1.5-.5ZM172,49.6a17.59,17.59,0,0,0,4.6-.6,7.34,7.34,0,0,0,3.3-1.9,8,8,0,0,0,2-3.6,17.53,17.53,0,0,0,.6-5.6,25.05,25.05,0,0,0-.6-5.5,8.21,8.21,0,0,0-2-3.5,6.69,6.69,0,0,0-3.3-1.8,14.15,14.15,0,0,0-4.6-.5,22.15,22.15,0,0,0-4.5.5,7.82,7.82,0,0,0-3.2,1.8,8.21,8.21,0,0,0-2,3.5,17.22,17.22,0,0,0-.6,5.5,26,26,0,0,0,.6,5.6,8.36,8.36,0,0,0,1.9,3.6,7,7,0,0,0,3.2,1.9,11.91,11.91,0,0,0,4.6.6Zm0-18.8a19.42,19.42,0,0,1,2.4.2,3.07,3.07,0,0,1,1.5,1,5.84,5.84,0,0,1,.8,2.2A24.33,24.33,0,0,1,177,38c0,1.2-.1,2.5-.2,3.7a5.84,5.84,0,0,1-.8,2.2,3.27,3.27,0,0,1-1.5,1.1,9.86,9.86,0,0,1-2.4.3,8.52,8.52,0,0,1-2.3-.3,3.27,3.27,0,0,1-1.5-1.1,5.84,5.84,0,0,1-.8-2.2,15.06,15.06,0,0,1-.2-3.7c0-1.3.1-2.5.2-3.8a5.84,5.84,0,0,1,.8-2.2,3.07,3.07,0,0,1,1.5-1c.6-.1,1.4-.1,2.2-.2Zm17.2,1,1.2-.3c.4-.1.8-.1,1.3-.2s.8-.1,1.2-.1a8.33,8.33,0,0,1,2.2.3,3,3,0,0,1,1.3.9,4.49,4.49,0,0,1,.7,1.8c.1,1,.2,2,.2,3V49l5.3-2V36.9a24.52,24.52,0,0,0-.2-2.7A17,17,0,0,0,202,32a8,8,0,0,1,1.5-.3,7.72,7.72,0,0,1,1.5-.2c.5,0,.9-.1,1.3-.1a8.33,8.33,0,0,1,2.2.3,3,3,0,0,1,1.3.9,4.49,4.49,0,0,1,.7,1.8c.1,1,.2,2,.2,3V49H216V36.9a19.89,19.89,0,0,0-.5-4.9,7.84,7.84,0,0,0-1.5-3.2,5.45,5.45,0,0,0-2.7-1.7,13.06,13.06,0,0,0-3.9-.5,22.75,22.75,0,0,0-2.6.2,25.58,25.58,0,0,0-2.7.5,24.13,24.13,0,0,0-2.5.8,6.59,6.59,0,0,0-2.4-1.1,11.7,11.7,0,0,0-3.2-.4,21.86,21.86,0,0,0-3.6.3c-1.2.2-2.3.4-3.5.7-1,.2-2,.6-3,.9V49l5.3-2.7V31.8Z" transform="translate(0 0.01)"></path><path class="cls-1" d="M143.3,45.8a1.93,1.93,0,0,1-.3,1,7,7,0,0,1-2.6,2.5,2.13,2.13,0,0,1-1.8,0,5.26,5.26,0,0,1-1.4-1.2,6.89,6.89,0,0,1-1.1-1.3,1.69,1.69,0,0,1-.3-1,1.93,1.93,0,0,1,.3-1,7,7,0,0,1,2.6-2.5,2.92,2.92,0,0,1,.9-.2,2.1,2.1,0,0,1,1.1.4,10.44,10.44,0,0,1,2.3,2.4,1.61,1.61,0,0,1,.3.9Z" transform="translate(0 0.01)"></path></g></g></svg> 