<?xml version="1.0" encoding="UTF-8"?> <svg xmlns="http://www.w3.org/2000/svg" viewBox="0 0 768 127"><defs><style> .cls-1, .cls-2, .cls-3 { stroke-width: 0px; } .cls-2 { fill: #f4bd42; } .cls-3 { fill: #fae64d; } </style></defs><g id="Camada_2" data-name="Camada 2"><polygon class="cls-2" points="222.44 117.36 34.98 122.98 34.98 22 246.5 22 222.44 117.36"></polygon><polygon class="cls-3" points="727 106.7 499.39 113.89 476.7 20.3 727 20.3 727 106.7"></polygon></g><g id="Camada_1" data-name="Camada 1"><g><path class="cls-1" d="m11.1,5.8c-1.9,1-4.3,3.4-5.3,5.3-1.7,3.1-1.8,6.8-1.8,52.4s.1,49.3,1.8,52.4c1,1.9,3.4,4.3,5.3,5.3,3.2,1.7,16.9,1.8,372.9,1.8s369.7-.1,372.9-1.8c1.9-1,4.3-3.4,5.3-5.3,1.7-3.1,1.8-6.8,1.8-52.4s-.1-49.3-1.8-52.4c-1-1.9-3.4-4.3-5.3-5.3-3.2-1.7-16.9-1.8-372.9-1.8S14.3,4.1,11.1,5.8Zm270.6,18.2c1.8,1,3.8,3.2,4.6,4.7,3.7,7.2,25.7,67.3,25.7,70,0,6.1-9,9.6-13.9,5.6-1.1-1-3.1-4.7-4.3-8.3l-2.3-6.5-16.6-.3-16.5-.2-2.3,6.4c-2.6,7.5-4.2,9.2-9.3,10.1-3.4.7-4.1.4-7.4-2.9-2.9-2.9-3.5-4.1-3-6.2.9-3.4,24.4-64.1,26.3-67.7,1.9-3.8,7-6.7,11.8-6.7,2.2,0,5.4.9,7.2,2Zm51.1-.9c2.4.8,8.2,7.3,22.9,25.6l19.8,24.6.5-23c.6-25.4.8-26.4,7.1-27.8,3.7-.8,9.6,1.1,10.9,3.5.6,1.1,1,15.9,1,37.8,0,34.3-.1,36-2,38.4-4,5.2-12.2,3.8-17.5-3-1.6-2-10.3-12.9-19.4-24.2l-16.6-20.5-.5,23.4-.5,23.4-2.8,2c-3.8,2.9-9.2,2.6-12.6-.7l-2.6-2.6-.3-34.5c-.3-37.2.1-40.5,5-42.5,3.1-1.2,4-1.2,7.6.1Zm161.8-.1c2,.8,5.6,4.8,11.9,13.5,5,6.8,9.2,12.4,9.5,12.4s4.6-5.5,9.5-12.2c9.9-13.5,12.6-15.5,17.9-13.7,4.4,1.4,6,3.4,6,7.5,0,2.6-2.4,6.4-12.2,19.6l-12.2,16.3v16.7c0,16-.1,16.9-2.3,19.4-1.8,2.2-3.1,2.7-7,2.7-8.4,0-8.7-.6-8.7-21v-17.5l-11.7-15.6c-6.4-8.5-12.1-16.8-12.7-18.3-1.3-3.5.6-7.6,4.4-9.5,3.1-1.6,3.9-1.6,7.6-.3Zm109.6,1c16.4,5.1,28.2,19.7,29.3,36.4,1.6,25.8-16.9,45.5-42.6,45.6-12.8,0-27-6.7-33.2-15.7-6.1-8.8-7.2-12.9-7.2-25.9,0-11.9,0-12.1,3.7-19.6,4-7.9,8.4-12.8,15.9-17.1,9.7-5.7,23-7.1,34.1-3.7Zm53.8,0c1.1.6,2.2,2.1,2.5,3.3s.6,12.8.7,25.7c.3,20.7.5,24,2.2,27.3,4.8,9.6,20.5,12.2,29,4.8,4.7-4.1,5.1-6.3,5.6-32.7.5-22.7.7-25.4,2.4-27.2,3.9-4.4,13.2-3.5,15.5,1.4,1.7,3.9,1.5,49.7-.3,55.8-3,9.9-11.1,17.8-22.3,21.7-9,3.2-21.6,2.4-30.5-1.9-7.5-3.6-14.8-10.9-18.2-18.2-2-4.2-2.1-6.2-2.1-30.6s.1-26.4,1.9-28.2c2.7-3.1,9.1-3.6,13.6-1.2Zm-564.8,0c7.9,2.2,13.7,10.2,13.8,18.8,0,5.7-2,10.1-6.3,13.9l-3.7,3.2,4.7,2.1c9.3,4.1,12.9,10.4,12.1,21-.5,7.5-4.2,13.1-11.2,17.5l-4.9,3-20.7.3c-18.7.3-20.8.1-22.8-1.5-2.2-1.8-2.2-2.1-2.2-38.3l-.1-36.5,2.6-2.3c2.5-2.1,3.4-2.2,18.8-2.2,8.9,0,17.9.5,19.9,1Zm73.6,3.6c3.8,4.3,2.5,9.4-2.9,11.3-1.8.6-8.1,1.1-14,1.1h-10.9v16h10.5c15.5,0,20.1,2.7,18.1,10.5-1.1,4.2-5.2,5.5-17.6,5.5h-11v17h13.2c12.1,0,13.4.2,15.5,2.2,3,2.8,3,7.4.1,10.5-2.1,2.3-2.5,2.3-22.3,2.3s-20.3-.1-22.3-2c-2.2-2.1-2.2-2.3-2.2-38V28.1l2.3-1.8c2.1-1.6,4.2-1.8,21.8-1.5,19.3.3,19.4.3,21.7,2.8Zm68.9-1.4c3.1,2.9,3,7.2-.2,10.3-2.2,2.3-3.2,2.5-11,2.5h-8.5v61.9l-2.6,2c-3.4,2.7-9.4,2.8-12.5.2l-2.4-1.9-.3-31.6-.3-31.6h-8.9c-8.1,0-9-.2-10.4-2.2-2.2-3.1-2-7.4.4-9.8,1.9-1.9,3.3-2,28.2-2s26.2.1,28.5,2.2Zm222.5,1.5c15.2,7.2,23.7,23.3,22.2,42.2-.9,11.7-6.9,21.9-16.6,28.2-9.2,5.9-15.5,7.1-35,6.7-14.5-.3-17-.5-18.5-2.1-1.7-1.6-1.8-4.8-2.1-37.7l-.3-36,2.6-2.6,2.6-2.6,19.2.4q19.2.3,25.9,3.5Z"></path><path class="cls-1" d="m269.6,55.3c-2.7,7.8-5.1,14.8-5.4,15.4-.3,1,2.1,1.3,10.2,1.3,5.8,0,10.6-.3,10.6-.7,0-1.3-9.2-28.7-9.9-29.5-.3-.4-2.8,5.7-5.5,13.5Z"></path><path class="cls-1" d="m582.4,39.9c-8.7,3.9-14.1,14.9-13.2,26.5.6,6.4,4,14.7,7.5,17.8,5.7,5.2,17.7,6.7,24.8,3.1,7.7-4,11.6-10.4,12.3-20.5.9-12.8-3.3-21.9-12.1-26.3-6.2-3-13.4-3.3-19.3-.6Z"></path><path class="cls-1" d="m70,47v9.3l6.3-.5c7-.6,10-2,11.6-5.5,1.6-3.6,1.3-5.9-1.1-8.8-2-2.2-3.4-2.7-9.5-3.2l-7.3-.6v9.3Z"></path><path class="cls-1" d="m69,80v9h9c6.2,0,10-.5,12-1.5,5.8-3,6.7-9,2.1-13.6-2.9-2.8-3.2-2.9-13-2.9h-10.1v9Z"></path><path class="cls-1" d="m426,63.5v24.5h9c13,0,18.7-2.8,23.3-11.5,1.7-3.2,2.2-5.7,2.2-12.5,0-9.8-2-14.8-8-19.8-4.7-3.9-9.6-5.2-18.9-5.2h-7.6v24.5Z"></path></g></g></svg> 