<?xml version="1.0" encoding="UTF-8"?> <svg xmlns="http://www.w3.org/2000/svg" width="538.1" height="134.77" viewBox="0 0 538.1 134.77"><defs><style>.a{fill:red;}</style></defs><path class="a" d="M780,90.17l-21.87,14.58c-8-7.72-17.15-8.72-26.64-3.74-10,5.24-16.72,13.26-17.45,25-.69,11,8,19.2,18.76,17,6.31-1.31,12.2-4.64,17.88-6.91l17.87,16.3a54.86,54.86,0,0,1-28.56,15.21c-14.94,3-29,1.08-40.85-9.23-15-13-18.25-33.27-9-52,10.77-21.68,36.1-35.81,60.19-33.32C762.31,74.29,772,79.8,780,90.17Z" transform="translate(-414.02 -34.12)"></path><path class="a" d="M923,135.89l17.55,16.76a55.91,55.91,0,0,1-28,14.85c-13.61,2.83-26.67,1.57-38.19-6.76-15.09-10.9-20.43-28.15-15-46.64,8-27.31,41.16-46.71,68.83-40.08a39.66,39.66,0,0,1,23.92,16.17l-21.53,14.44c-17.4-16.18-40.56,1.14-44,17.48-2.73,13,6.44,23.45,19.45,20.76C911.9,141.66,917.3,138.31,923,135.89Z" transform="translate(-414.02 -34.12)"></path><path class="a" d="M638.3,99.09H626.15c1.69-7.84,3.07-15.12,5-22.25.27-1,3.16-1.79,4.87-1.85,7.52-.26,7.52-.15,8.94-7.63,2.57-13.63,2.58-13.63,15.45-19.29l19.5-8.59c-2.52,12.18-4.83,23.33-7.3,35.28h18.79c-1.61,7.93-2.93,15.09-4.66,22.16-.24,1-2.44,2-3.78,2.1-5,.25-10,.1-15.6.1-2.53,12.87-5.23,25.5-7.38,38.22-.82,4.82,1.72,6.76,6.64,5.78,2.71-.54,5.29-1.76,8.3-2.8,1,6.11,2.08,12.14,2.82,18.21a4.66,4.66,0,0,1-1.83,3.59c-9,6-18.76,8.44-29.43,5.47-10.88-3-17.73-11.89-16.62-23.6,1-10.55,3.61-21,5.58-31.4C636.22,108.37,637.21,104.18,638.3,99.09Z" transform="translate(-414.02 -34.12)"></path><path class="a" d="M825.47,44.83C823.23,55.76,821.15,66,819,76.22c-5.95,28.66-12,57.3-17.81,86-.71,3.48-2.1,4.69-5.6,4.6-7.79-.22-15.59-.07-24-.07.57-3.39.94-6.13,1.5-8.83,7.38-35.67,14.91-71.31,22.06-107,1-5,3-6.44,7.87-6.16C810.27,45.14,817.57,44.83,825.47,44.83Z" transform="translate(-414.02 -34.12)"></path><path class="a" d="M859.73,74.91c-1.36,6.75-2.53,12.76-3.78,18.76-4.72,22.65-9.52,45.28-14.13,68-.75,3.67-2.1,5.38-6.19,5.21-7.75-.32-15.54-.09-24-.09,2.18-10.4,4.19-20,6.19-29.52,4-19.23,8.14-38.44,12-57.7.74-3.72,2.28-4.83,6-4.7C843.49,75.1,851.28,74.91,859.73,74.91Z" transform="translate(-414.02 -34.12)"></path><path class="a" d="M849.94,66c-8.3.09-14.79-6-15-14.05-.21-9.19,8-17.67,17.22-17.84a14.62,14.62,0,0,1,14.7,14.47C867.07,57.66,859.05,65.9,849.94,66Z" transform="translate(-414.02 -34.12)"></path><path class="a" d="M621.86,103.94C617.37,87.8,606.68,77.88,590.76,74c-28.78-7-62.15,13.79-69.26,42.6-5.82,23.61,8,46.19,31.68,51.13,15.45,3.23,29.71-.61,42.87-8.93,2.58-1.63,4.93-3.62,7.77-5.72l-19.11-17.73c-8.39,6.32-17.8,11.56-30.35,4.62,2.45-1.16,3.92-1.88,5.41-2.55,19.44-8.68,38.83-17.49,58.38-25.93C622.12,109.8,622.93,107.81,621.86,103.94ZM550,121.65c-.16-7.13,7.67-16.93,16.72-20.83,8-3.44,15.9-4.69,23.9,2.67Z" transform="translate(-414.02 -34.12)"></path><path class="a" d="M519.24,84.47c7.16-15.18,1.1-31-14.65-36.67A52.48,52.48,0,0,0,488.52,45c-14.47-.39-29,0-43.45-.29-4.6-.1-6.28,1.39-7.15,5.81-4.38,22-9.09,44-13.66,66-3.41,16.41-6.79,32.82-10.24,49.52a9.28,9.28,0,0,0,2.09.65c20-.14,40,.14,59.91-.67,11.61-.47,21.93-5.41,30.22-13.82,13.85-14,12-35.53-3.92-46.91-.71-.51-1.35-1.11-2.27-1.89C508.62,98.8,515.24,93,519.24,84.47Zm-34.77,45.44c-2.89,6.93-8.82,9.89-15.81,10.47-5.93.49-11.94.1-18.78.1,1.56-7.6,2.88-14.59,4.54-21.5.24-1,2.11-2.15,3.25-2.17,6.32-.14,12.67-.26,19,.2C484.5,117.6,487.49,122.67,484.47,129.91Zm4.35-47.11c-2.44,6-7.51,8.91-13.5,9.7-4.86.63-9.87.13-15.38.13,1.42-6.81,2.68-13.29,4.22-19.7A3.68,3.68,0,0,1,467,71a126.19,126.19,0,0,1,14.94.19C488.83,71.82,491.41,76.39,488.82,82.8Z" transform="translate(-414.02 -34.12)"></path></svg> 