<?xml version="1.0" encoding="UTF-8"?> <svg xmlns="http://www.w3.org/2000/svg" width="689.72" height="318.71" viewBox="0 0 689.72 318.71"><defs><style>.a{fill:#d1a941;}</style></defs><path class="a" d="M814.14,353.25c0-3.5.07-7,0-10.49s1.72-3.59,4.14-2.51a26.15,26.15,0,0,1,3.28,2.25c14.59,9.46,30.32,14.28,47.83,11.52,5.18-.82,10.37-2.19,12.37-7.84,1.8-5.07-.85-9.51-7-12-6.82-2.77-14.16-3.57-21.29-5.12-8-1.74-15.82-3.95-22.94-8.11a31.46,31.46,0,0,1-6.09-50c8.87-8.63,20-12.54,31.94-13.73a114.78,114.78,0,0,1,47.75,5.54c3.28,1.08,4.38,2.66,4.21,6.05-.29,5.64,0,11.32-.14,17,0,1.69,1.05,3.93-1,5s-3.35-.78-4.86-1.77c-11.73-7.72-24.5-11.77-38.66-10.95-4.7.27-9.24,1.16-13.32,3.66-3,1.87-4.83,4.47-4.63,8.23s2.36,6.08,5.68,7.45c8.53,3.52,17.74,4.3,26.57,6.64a105.93,105.93,0,0,1,17.42,6c23,10.62,20.49,38.31,9,50.2-10,10.36-22.53,14.48-36.27,15.6a112.52,112.52,0,0,1-49.08-6.53c-3.63-1.36-5.59-2.88-5.05-7A72.66,72.66,0,0,0,814.14,353.25Z" transform="translate(-336.97 -160.05)"></path><path class="a" d="M713,316.58c0-17.66.09-35.32-.08-53,0-3.52.59-4.9,4.56-4.87q37.23.3,74.47,0c3.79,0,5,1.05,4.73,4.78a106.53,106.53,0,0,0,0,13.49c.2,3.39-1.1,4.16-4.29,4.13-15-.15-30,.07-45-.16-3.79-.06-5,1-4.66,4.74a75.85,75.85,0,0,1,0,11.48c-.22,3.2,1,3.89,4,3.86,13.66-.14,27.33.06,41-.14,3.73-.05,5.48.67,5.09,4.85a76.47,76.47,0,0,0,0,12.48c.29,3.85-.85,5.17-4.92,5.09-13.49-.26-27,.05-40.48-.19-3.84-.07-4.85,1.12-4.68,4.8.28,6.49.26,13,0,19.49-.14,3.47.92,4.54,4.45,4.5,14.83-.19,29.66.05,44.48-.17,3.92-.06,5.31,1,5,5a130.56,130.56,0,0,0,0,14c.1,2.67-.95,3.39-3.5,3.38q-38.48-.11-77,0c-3.39,0-3.2-1.8-3.2-4.09Q713.06,343.32,713,316.58Z" transform="translate(-336.97 -160.05)"></path><path class="a" d="M1026.52,279.73c0,3.34.07,6.67,0,10,0,1.39.78,3.26-.9,4.08-1.9.91-3.37-.4-4.9-1.54-3.6-2.68-7.2-5.39-11-7.71-7.64-4.64-16-6.72-24.89-5.3C971.33,281.4,963,289.5,959.47,302.4a53.39,53.39,0,0,0-.07,28.16c4.86,18.26,22.31,27.41,41.22,21.93,7.51-2.18,13.84-6.41,19.81-11.28,1.51-1.24,3-3.16,5.2-2,1.73.95.83,3,.85,4.6.09,6.33,0,12.66.06,19,0,2.12-.26,3.68-2.56,4.78-18.92,9-38.57,11.47-58.81,5.93-22.43-6.13-36.47-24.47-38.11-48.94-.65-9.51-.46-19,2.25-28.24,6.71-22.93,22.39-35.74,45.63-39.07a83.89,83.89,0,0,1,46.86,6.55c3.61,1.6,5.27,3.42,4.78,7.41A70.51,70.51,0,0,0,1026.52,279.73Z" transform="translate(-336.97 -160.05)"></path><path d="M788.22,429.92c0,14.47,0,28.94,0,43.42,0,2.27.27,4.15-3.18,4.06-3-.08-3.95-.89-3.92-4,.15-16,.18-31.94,0-47.91,0-3.49,1.24-3.88,4.27-4.16,5.5-.5,8.51,1.28,11,6.48,6.1,12.67,13,24.93,20.53,37.29V447.61c0-7.48.11-15-.05-22.46-.06-2.7.53-3.8,3.51-3.76,2.82,0,3.63.86,3.61,3.69-.13,15.81,0,31.61-.15,47.42,0,1.56,1.65,4.67-1.7,4.63-3,0-6.66,2-8.82-2.22-4.71-9.15-9.58-18.21-14.41-27.3-3.22-6.06-6.48-12.11-9.72-18.16Z" transform="translate(-336.97 -160.05)"></path><path d="M963.11,464.88q0-19.36,0-38.74c0-2.5-.53-4.77,3.57-4.8,4.29,0,3.44,2.49,3.44,4.85,0,15.31.08,30.62-.08,45.92,0,1.7,1.8,4.94-1.81,5-3.14.09-6.76,1.66-9-2.85-6.42-12.73-13.28-25.26-20-37.86l-3.74-7.06c-1.46,1.59-.87,3.13-.88,4.49-.05,13.31-.11,26.62,0,39.93,0,3-1.16,3.53-3.81,3.57s-3.34-.91-3.32-3.46q.15-24.46,0-48.92c0-3,1.2-3.26,3.78-3.62,5.77-.8,8.9,1.32,11.47,6.59,6.09,12.52,12.89,24.7,19.4,37Z" transform="translate(-336.97 -160.05)"></path><path d="M989.64,449.48c0-7.66.17-15.33-.08-23-.11-3.69.58-5.28,4.8-5.12,9.15.36,18.33.11,27.49.11,2.28,0,4.54-.59,4.62,3.26s-2,3.39-4.37,3.38c-7.16,0-14.33.11-21.49-.08-2.82-.07-3.62.76-3.67,3.61-.2,11.63-.31,11.63,11.09,11.63,5,0,10,.13,15-.06,2.73-.1,3.35,1,3.39,3.51s-.67,3.41-3.34,3.35c-7.49-.19-15,.06-22.49-.13-2.83-.07-3.78.73-3.63,3.61a112.27,112.27,0,0,1,0,13.48c-.22,3.34,1.21,3.82,4.06,3.76,7.33-.17,14.67,0,22-.11,2.59-.06,3.43.68,3.44,3.34s-1,3.33-3.49,3.3q-15-.19-30,0c-2.64,0-3.42-.74-3.37-3.37C989.74,465.81,989.64,457.65,989.64,449.48Z" transform="translate(-336.97 -160.05)"></path><path d="M843.19,449.29c0-8.15.15-16.29-.07-24.43-.09-3.2,1.43-3.43,3.92-3.43s3.94.21,3.9,3.41c-.18,13.79.08,27.59-.18,41.38-.07,3.83,1,4.79,4.73,4.61,6.46-.31,13,0,19.44-.12,2.49,0,3.93.2,3.93,3.39,0,3.39-1.83,3.22-4.11,3.21-9.31,0-18.62-.11-27.92,0-2.79,0-3.77-.73-3.7-3.64C843.31,465.57,843.19,457.43,843.19,449.29Z" transform="translate(-336.97 -160.05)"></path><path d="M899.14,477.29c-2.5,0-5,0-7.49,0-1.93,0-3.55.1-3.54-2.74,0-2.67,1.29-3.19,3.38-2.86,3.84.6,4.27-1.43,4.23-4.62-.15-11.81-.18-23.63,0-35.45,0-3.34-.65-5.06-4.32-4.48-2.15.33-3.34-.25-3.31-2.9s1.57-2.79,3.54-2.77c5,0,10,0,15,0,2.17,0,3.82,0,3.83,3,0,2.9-1.61,2.88-3.5,2.64-3-.38-4,.56-4,3.77q.28,18.48,0,36.95c0,3.13.9,4.23,3.95,3.85,1.9-.25,3.48-.18,3.53,2.66.06,3.16-1.72,3-3.81,2.93C904.13,477.24,901.63,477.29,899.14,477.29Z" transform="translate(-336.97 -160.05)"></path><path class="a" d="M654,165.25c0-4.23-1.18-5.18-5.27-5.17q-153.21.16-306.41,0c-4.56,0-5.4,1.29-5.39,5.55q.22,76.47.1,152.94,0,76.71-.06,153.43c0,3.57.4,5.16,4.7,5.15q153.71-.21,307.4,0c4,0,4.92-1.09,4.92-5Q653.87,318.68,654,165.25ZM625.11,443c0,4.15-1,5.21-5.19,5.2q-124.45-.19-248.92,0c-4.13,0-5.26-1-5.24-5.2.16-41.49.1-83,.1-124.45s.06-83-.1-124.45c0-4.18,1.13-5.19,5.25-5.19q124.46.19,248.92,0c4.16,0,5.19,1,5.18,5.2Q624.92,318.54,625.11,443Z" transform="translate(-336.97 -160.05)"></path><path d="M764.83,445.23c-1.35-14.84-9.75-23.62-23.75-24.87-12.9-1.16-23.21,5.93-26.65,18.41a39.51,39.51,0,0,0-1.15,15.34c2.31,18.95,17.45,28.85,35,23,10.6-3.55,16.61-13.42,16.54-27.35C764.85,448.22,765,446.71,764.83,445.23Zm-9.76,16.23c-2.9,6.83-8.5,10.53-16,10.54s-13.29-3.67-16-10.49a33.21,33.21,0,0,1-.65-22.5c2.41-8,8.54-12.17,16.86-12.12,8.15.06,14.16,4.57,16.6,12.52a29.92,29.92,0,0,1,1.22,10.35A27.23,27.23,0,0,1,755.07,461.46Z" transform="translate(-336.97 -160.05)"></path><path class="a" d="M495.87,203.27c-63.55-.26-115.6,51.44-115.74,115S431.61,433.78,495.2,433.88s115.49-51.65,115.55-115.2C610.81,255.36,559.22,203.53,495.87,203.27ZM495,390.41c-39.7-.3-71.95-32.78-71.63-72.14A71.94,71.94,0,1,1,495,390.41Z" transform="translate(-336.97 -160.05)"></path><path class="a" d="M495.15,275.25a43.33,43.33,0,1,0,43.53,43.49C538.85,294.94,519,275.1,495.15,275.25Z" transform="translate(-336.97 -160.05)"></path></svg> 