<?xml version="1.0" encoding="UTF-8"?> <!-- Generator: Adobe Illustrator 22.0.1, SVG Export Plug-In . SVG Version: 6.00 Build 0) --> <svg xmlns="http://www.w3.org/2000/svg" xmlns:xlink="http://www.w3.org/1999/xlink" version="1.1" id="Capa_1" x="0px" y="0px" viewBox="0 0 166.6 30" style="enable-background:new 0 0 166.6 30;" xml:space="preserve"> <style type="text/css"> .st0{enable-background:new ;} .st1{fill:#1A1A2B;} .st2{fill:#262636;} .st3{fill:#0091EB;} </style> <g> <g> <g class="st0"> <path class="st1" d="M58.4,2.5h7.3v1.6H63v7.1h-2v-7h-2.6V2.5z"></path> <path class="st1" d="M72,11.3l-1.4-2.5h-0.2h-1.8v2.5h-2V2.6h3.8c1.2,0,2,0.2,2.6,0.8c0.6,0.5,1,1.3,1,2.2c0,0.7-0.1,1.3-0.4,1.7 c-0.3,0.5-0.7,0.9-1.2,1.1l1.8,2.9L72,11.3L72,11.3z M68.7,7.1h1.8c0.5,0,1-0.1,1.3-0.4c0.3-0.2,0.4-0.6,0.4-1.2 c0-0.5-0.1-0.9-0.4-1.1S71,4.1,70.4,4.1h-1.8V7.1z"></path> <path class="st1" d="M82.1,11.3l-0.7-1.6h-4l-0.7,1.6h-2l3.8-8.7h2l3.7,8.7H82.1z M78,8h2.7l-1.4-3.4L78,8z"></path> <path class="st1" d="M91.2,2.5H93v8.7h-1.8L87,5.7v5.5h-1.8V2.6H87l4.3,5.6L91.2,2.5L91.2,2.5z"></path> <path class="st1" d="M99.2,4.3c-0.4-0.2-0.9-0.2-1.2-0.2c-0.4,0-0.6,0.1-0.8,0.2c-0.2,0.1-0.3,0.3-0.3,0.5c0,0.3,0.1,0.5,0.4,0.7 C97.6,5.7,98,5.9,98.7,6c0.6,0.2,1.1,0.4,1.5,0.5c0.4,0.2,0.7,0.4,1,0.8s0.4,0.8,0.4,1.4c0,0.5-0.1,1-0.4,1.5 c-0.3,0.4-0.7,0.7-1.2,0.9s-1.1,0.3-1.7,0.3c-0.7,0-1.4-0.1-2.1-0.4c-0.7-0.2-1.3-0.6-1.7-1l0.8-1.6c0.4,0.4,1,0.7,1.5,1 c0.5,0.2,1.1,0.4,1.6,0.4c0.4,0,0.7-0.1,1-0.2c0.2-0.1,0.4-0.4,0.4-0.7c0-0.2-0.1-0.4-0.2-0.5S99.1,8,98.9,7.9 c-0.2-0.1-0.5-0.2-1-0.3c-0.6-0.2-1.1-0.4-1.5-0.5c-0.4-0.2-0.7-0.4-1-0.8c-0.3-0.4-0.4-0.8-0.4-1.4c0-0.5,0.1-1,0.4-1.4 s0.7-0.7,1.2-0.9c0.5-0.2,1.1-0.3,1.7-0.3s1.2,0.1,1.7,0.2c0.5,0.2,1.1,0.4,1.6,0.7l-0.8,1.6C100.2,4.7,99.7,4.5,99.2,4.3z"></path> <path class="st1" d="M102.8,2.5h6.2v1.6h-4.3v2.1h4v1.6h-4v3.3h-2V2.5L102.8,2.5z"></path> <path class="st1" d="M110.2,2.5h6.6v1.6h-4.7V6h4.2v1.6h-4.2v1.9h4.8v1.6h-6.8L110.2,2.5L110.2,2.5z"></path> <path class="st1" d="M123.8,11.3l-1.4-2.5h-0.2h-1.8v2.5h-2V2.6h3.8c1.2,0,2,0.2,2.6,0.8c0.6,0.5,1,1.3,1,2.2 c0,0.7-0.1,1.3-0.4,1.7c-0.3,0.5-0.7,0.9-1.2,1.1l1.8,2.9L123.8,11.3L123.8,11.3z M120.5,7.1h1.8c0.5,0,1-0.1,1.3-0.4 c0.3-0.2,0.4-0.6,0.4-1.2c0-0.5-0.1-0.9-0.4-1.1s-0.7-0.4-1.3-0.4h-1.8V7.1z"></path> <path class="st1" d="M127.5,2.5h6.6v1.6h-4.7V6h4.2v1.6h-4.2v1.9h4.8v1.6h-6.8L127.5,2.5L127.5,2.5z"></path> <path class="st1" d="M141.8,2.5h1.8v8.7h-1.8l-4.2-5.5v5.5h-1.8V2.6h1.8l4.3,5.6L141.8,2.5L141.8,2.5z"></path> <path class="st1" d="M150.9,4.5c-0.4-0.2-0.8-0.3-1.2-0.3c-0.5,0-1,0.1-1.3,0.4c-0.4,0.2-0.7,0.5-1,1c-0.2,0.4-0.4,0.9-0.4,1.4 s0.1,1,0.4,1.4c0.2,0.4,0.5,0.8,1,1s0.9,0.4,1.3,0.4c0.4,0,0.8-0.1,1.2-0.3c0.4-0.2,0.8-0.4,1.1-0.8l1.2,1.3 c-0.5,0.5-1,0.9-1.6,1.2s-1.3,0.4-1.8,0.4c-0.9,0-1.6-0.2-2.3-0.6c-0.7-0.4-1.3-1-1.6-1.6c-0.4-0.7-0.6-1.5-0.6-2.3 c0-0.9,0.2-1.6,0.6-2.3c0.4-0.6,1-1.2,1.6-1.6c0.7-0.4,1.5-0.6,2.3-0.6c0.7,0,1.3,0.1,1.8,0.4c0.6,0.2,1.2,0.6,1.6,1.1l-1.2,1.4 C151.6,4.9,151.2,4.6,150.9,4.5z"></path> <path class="st1" d="M154.3,2.5h2v8.7h-2V2.5z"></path> <path class="st1" d="M164.5,11.3l-0.7-1.6h-4l-0.7,1.6h-2.1l3.8-8.7h2l3.7,8.7H164.5z M160.5,8h2.7l-1.4-3.4L160.5,8z"></path> </g> <g class="st0"> <path class="st1" d="M85,18c0.5,0.4,0.9,0.9,0.9,1.6c0,0.5-0.1,0.9-0.4,1.2c-0.3,0.4-0.7,0.6-1.1,0.7c0.5,0.1,1,0.4,1.3,0.8 c0.3,0.4,0.5,0.9,0.5,1.5c0,0.7-0.3,1.3-0.9,1.8s-1.4,0.7-2.4,0.7h-4.2v-8.8h4C83.7,17.4,84.5,17.7,85,18z M83.5,20.7 c0.2-0.2,0.3-0.4,0.3-0.7c0-0.3-0.1-0.5-0.3-0.7C83.2,19.1,83,19,82.6,19h-1.9v1.9h1.9C83,21,83.3,20.9,83.5,20.7z M83.7,24.3 c0.2-0.2,0.4-0.4,0.4-0.8c0-0.3-0.1-0.5-0.4-0.7c-0.2-0.2-0.7-0.3-1.1-0.2h-2v2h1.9C83,24.6,83.4,24.5,83.7,24.3z"></path> <path class="st1" d="M94,26.2l-0.7-1.7h-4l-0.7,1.7h-2l3.8-8.7h2l3.7,8.7H94z M89.9,22.9h2.7l-1.4-3.4L89.9,22.9z"></path> <path class="st1" d="M103,17.4h1.8v8.7H103l-4.2-5.5v5.5H97v-8.7h1.8L103,23L103,17.4L103,17.4z"></path> <path class="st1" d="M112.1,19.3c-0.4-0.2-0.8-0.3-1.2-0.3c-0.5,0-1,0.1-1.3,0.4c-0.4,0.2-0.7,0.5-1,1c-0.2,0.4-0.4,0.9-0.4,1.4 s0.1,1,0.4,1.4s0.5,0.8,1,1c0.4,0.2,0.9,0.4,1.3,0.4c0.4,0,0.8-0.1,1.2-0.3s0.8-0.4,1.1-0.8l1.2,1.3c-0.5,0.5-1,0.9-1.6,1.2 s-1.3,0.4-1.8,0.4c-0.9,0-1.6-0.2-2.3-0.6c-0.7-0.4-1.3-1-1.6-1.6c-0.4-0.7-0.6-1.5-0.6-2.3c0-0.9,0.2-1.6,0.6-2.3 c0.4-0.6,1-1.2,1.7-1.6c0.7-0.4,1.5-0.6,2.3-0.6c0.7,0,1.3,0.1,1.8,0.4c0.6,0.2,1.2,0.6,1.6,1.1l-1.2,1.4 C112.9,19.8,112.5,19.5,112.1,19.3z"></path> <path class="st1" d="M121.8,26.2l-0.7-1.7h-4l-0.7,1.7h-2l3.8-8.7h2l3.7,8.7H121.8z M117.7,22.9h2.7l-1.4-3.4L117.7,22.9z"></path> <path class="st1" d="M130.2,26.2l-1.4-2.5h-0.2h-1.8v2.5h-2v-8.7h3.8c1.2,0,2,0.2,2.6,0.8s1,1.3,1,2.2c0,0.7-0.1,1.3-0.4,1.8 c-0.3,0.5-0.7,0.9-1.2,1.1l1.8,2.9L130.2,26.2L130.2,26.2z M126.8,22.1h1.8c0.5,0,1-0.1,1.3-0.4c0.3-0.2,0.4-0.6,0.4-1.2 c0-0.5-0.1-0.9-0.4-1.1c-0.3-0.2-0.7-0.4-1.3-0.4h-1.8V22.1z"></path> <path class="st1" d="M133.8,17.4h2v8.7h-2V17.4z"></path> <path class="st1" d="M144.1,26.2l-0.7-1.7h-4l-0.7,1.7h-2l3.8-8.7h2l3.7,8.7H144.1z M140.1,22.9h2.7l-1.4-3.4L140.1,22.9z"></path> </g> </g> <g> <path class="st2" d="M49.8,7L39.5,0l-1,4.5h-7.1c-7.8,0-12.7,3.9-14.8,11.6h5.3c1.9-5.6,5.7-6.5,9.5-6.5h6l-1,4.5L49.8,7z"></path> <path class="st3" d="M0,23l10.3,7l1-4.5h7.1c7.8,0,12.7-3.9,14.8-11.6h-5.3c-1.9,5.5-5.7,6.5-9.5,6.5h-6l1-4.5L0,23z"></path> </g> </g> </svg> 