<?xml version="1.0" encoding="UTF-8"?>
<svg xmlns="http://www.w3.org/2000/svg" xmlns:xlink="http://www.w3.org/1999/xlink" width="512" zoomAndPan="magnify" viewBox="0 0 384 383.999986" height="512" preserveAspectRatio="xMidYMid meet" version="1.0">
  <defs>
    <g></g>
    <clipPath id="a59170eda5">
      <path d="M 113 327 L 271 327 L 271 383.828125 L 113 383.828125 Z M 113 327 " clip-rule="nonzero"></path>
    </clipPath>
  </defs>
  <g fill="#000000" fill-opacity="1">
    <g transform="translate(179.917961, 138.493765)">
      <g>
        <path d="M 17 0 L 15.84375 -2.96875 L 15.6875 -2.96875 C 14.6875 -1.707031 13.65625 -0.832031 12.59375 -0.34375 C 11.53125 0.144531 10.144531 0.390625 8.4375 0.390625 C 6.34375 0.390625 4.691406 -0.207031 3.484375 -1.40625 C 2.285156 -2.601562 1.6875 -4.3125 1.6875 -6.53125 C 1.6875 -8.84375 2.492188 -10.546875 4.109375 -11.640625 C 5.734375 -12.742188 8.179688 -13.359375 11.453125 -13.484375 L 15.234375 -13.59375 L 15.234375 -14.546875 C 15.234375 -16.765625 14.101562 -17.875 11.84375 -17.875 C 10.09375 -17.875 8.039062 -17.347656 5.6875 -16.296875 L 3.71875 -20.3125 C 6.226562 -21.625 9.015625 -22.28125 12.078125 -22.28125 C 15.003906 -22.28125 17.25 -21.640625 18.8125 -20.359375 C 20.375 -19.085938 21.15625 -17.148438 21.15625 -14.546875 L 21.15625 0 Z M 15.234375 -10.125 L 12.9375 -10.046875 C 11.195312 -9.992188 9.90625 -9.679688 9.0625 -9.109375 C 8.21875 -8.535156 7.796875 -7.660156 7.796875 -6.484375 C 7.796875 -4.804688 8.757812 -3.96875 10.6875 -3.96875 C 12.0625 -3.96875 13.160156 -4.363281 13.984375 -5.15625 C 14.816406 -5.945312 15.234375 -7.003906 15.234375 -8.328125 Z M 15.234375 -10.125 "></path>
      </g>
    </g>
  </g>
  <path fill="#000000" d="M 132.429688 195.472656 C 127.589844 189.921875 122.433594 184.003906 117.222656 177.328125 C 78.972656 168.410156 59.238281 143.953125 45.691406 102.75 C 18.167969 19.003906 46.429688 21.039062 69.1875 31.292969 C 68.734375 23.453125 68.449219 15.226562 68.355469 6.59375 C 39.769531 -8.410156 -11.070312 -3.566406 20.609375 104.933594 C 51.195312 190.578125 96.5 201.730469 139.039062 203.125 C 136.960938 200.671875 134.753906 198.136719 132.429688 195.472656 " fill-opacity="1" fill-rule="nonzero"></path>
  <path fill="#000000" d="M 304.589844 0.101562 L 79.285156 0.101562 C 79.195312 189.824219 170.320312 178.078125 169.605469 248.480469 L 191.941406 248.375 L 214.273438 248.480469 C 213.558594 178.078125 304.683594 189.824219 304.589844 0.101562 " fill-opacity="1" fill-rule="nonzero"></path>
  <path fill="#000000" d="M 315.523438 6.59375 C 315.429688 15.230469 315.148438 23.453125 314.691406 31.292969 C 337.453125 21.039062 365.714844 19 338.183594 102.75 C 324.644531 143.953125 304.910156 168.410156 266.652344 177.328125 C 261.441406 184.003906 256.285156 189.921875 251.449219 195.472656 C 249.121094 198.140625 246.917969 200.671875 244.839844 203.125 C 287.378906 201.730469 332.6875 190.578125 363.273438 104.933594 C 394.945312 -3.566406 344.109375 -8.410156 315.523438 6.59375 " fill-opacity="1" fill-rule="nonzero"></path>
  <g clip-path="url(#a59170eda5)">
    <path fill="#000000" d="M 260.136719 328.167969 C 260.136719 327.835938 260.113281 327.511719 260.085938 327.1875 L 123.789062 327.1875 C 123.765625 327.511719 123.742188 327.835938 123.742188 328.167969 L 123.742188 361.378906 L 113.160156 383.957031 L 270.722656 383.957031 L 260.136719 361.378906 L 260.136719 328.167969 " fill-opacity="1" fill-rule="nonzero"></path>
  </g>
  <path fill="#000000" d="M 225.5625 293.636719 L 214.273438 293.636719 L 214.273438 259.449219 L 191.941406 259.34375 L 169.605469 259.449219 L 169.605469 293.636719 L 158.316406 293.636719 C 145.84375 293.636719 135.738281 303.75 135.738281 316.21875 L 248.144531 316.21875 C 248.144531 303.75 238.035156 293.636719 225.5625 293.636719 " fill-opacity="1" fill-rule="nonzero"></path>
</svg>
