<?xml version="1.0" encoding="UTF-8"?> <svg xmlns="http://www.w3.org/2000/svg" xmlns:xlink="http://www.w3.org/1999/xlink" width="504" height="504" viewBox="0 0 504 504"><defs><style>.a{fill:none;}.b{clip-path:url(#a);}.c{fill:#d81023;}.d{fill:#fefefe;}.e,.j{fill:#009b3a;}.f{fill:#fedf00;}.g{fill:#002776;}.h{clip-path:url(#b);}.i{fill:#fff;}.j{fill-rule:evenodd;}.k{clip-path:url(#c);}</style><clipPath id="a"><circle class="a" cx="252" cy="252" r="252"></circle></clipPath><clipPath id="b"><circle class="a" cx="252.49" cy="255.38" r="103.95"></circle></clipPath><clipPath id="c"><path class="a" d="M284.73,241.34l3.95-9.08,8.17,3.55-4,9.08Zm6.74-4.32-.68,1.56,4.08,1.77.68-1.55Z"></path></clipPath></defs><g class="b"><path class="c" d="M124.61,503.91H-131.3c-.88-1.63-.45-3.4-.45-5.1V5.19c0-1.7-.43-3.47.45-5.1H124.61a5.85,5.85,0,0,1,2,4.58c.08,2.21.11,4.41.11,6.61q0,240.72-.06,481.44C126.69,496.49,128,500.69,124.61,503.91Z"></path><path class="d" d="M124.61,503.91c-.08-1.72-.23-3.45-.23-5.17V5.26c0-1.72.15-3.45.23-5.17h255.9a5.85,5.85,0,0,1,2,4.58c.08,2.21.11,4.41.11,6.61q0,240.72-.06,481.44c0,3.77,1.29,8-2.08,11.19Z"></path><path class="c" d="M380.51,503.91c.08-1.72.22-3.45.22-5.17V5.26c0-1.72-.14-3.45-.22-5.17Q506.57.09,632.63,0c3.24,0,3.87.64,3.87,3.87q-.15,248.13,0,496.26c0,3.23-.63,3.87-3.87,3.87Q506.57,503.84,380.51,503.91Z"></path><rect class="e" x="-99.13" width="720" height="504"></rect></g><path class="f" d="M6,255.38l246.5,157.4L499,255.38,252.49,98Z"></path><circle class="g" cx="252.49" cy="255.38" r="103.95"></circle><g class="h"><path class="i" d="M-59.35,463.27c0-139.42,113-252.44,252.44-252.44s252.44,113,252.44,252.44H430.68c0-131.22-106.37-237.59-237.59-237.59S-44.5,332.05-44.5,463.27Z"></path></g><path class="j" d="M163.83,225a5,5,0,1,0-5-5,5.85,5.85,0,0,0,0,.59,4.73,4.73,0,0,0,5,4.37m-.22-1.83a3.16,3.16,0,1,0-3-3.29,3,3,0,0,0,0,.52,2.9,2.9,0,0,0,3,2.77"></path><path class="j" d="M171.9,224.1l1.83-.13-.25-3.66,4-.28a3.11,3.11,0,1,0-.44-6.21l-5.64.4Zm1.45-5.63,3.81-.27a1.26,1.26,0,0,0,1.18-1.33v0a1.27,1.27,0,0,0-1.35-1.18h0l-3.81.26Z"></path><path class="e" d="M180.29,223.51c-.1-1.41-.31-4.51-2.43-4.36l-2.68.19c3.1-.22,3.32,2.88,3.42,4.29"></path><path class="j" d="M184.45,223.32l4.66-.08a4.25,4.25,0,0,0,4.17-4.32v-1.41a4.24,4.24,0,0,0-4.31-4.17h0l-4.67.08Zm1.8-1.87h2.69a2.7,2.7,0,0,0,2.64-2.73v-.85a2.7,2.7,0,0,0-2.73-2.64h-2.69Z"></path><path class="e" d="M197,223.2l8.9.31.06-1.84-7.2-.25.08-2.55,5.66.2.06-1.69-5.66-.2.07-2,6.79.24.06-1.84-8.48-.3Z"></path><path class="e" d="M209.57,223.73l1.69.15.6-6.76,1.38,6.93,1.55.14,2.56-6.59-.59,6.76,1.69.15.86-9.86-2.46-.22L214.28,221l-1.38-6.93-2.46-.22Z"></path><path class="e" d="M230.09,226l7.31,1.26.29-1.67-5.64-1,.38-2.23,4.6.79.29-1.67-4.6-.79.26-1.54,5.47.94.29-1.67-7.15-1.23Z"></path><path class="j" d="M248.88,229.74l1.78.46.92-3.56,3.84,1a3.11,3.11,0,0,0,1.56-6l-5.48-1.41Zm3.16-4.88,3.7.95a1.27,1.27,0,0,0,.64-2.46h0l-3.7-1Z"></path><path class="j" d="M261,233l1.75.55,1.11-3.51,3.78,1.19a3.11,3.11,0,0,0,2-5.88l-.16,0-5.4-1.7Zm3.41-4.71,3.64,1.15a1.27,1.27,0,1,0,.77-2.43l-3.64-1.15Z"></path><path class="e" d="M269.05,235.51c.43-1.35,1.37-4.32-.66-5l-2.56-.8c3,.93,2,3.9,1.61,5.25"></path><path class="j" d="M277.16,238.41a5,5,0,1,0-2.22-6.71,3.92,3.92,0,0,0-.22.51,4.73,4.73,0,0,0,2.44,6.2m.65-1.72a3.16,3.16,0,1,0-1.14-4.32,3.12,3.12,0,0,0-.23.49,2.91,2.91,0,0,0,1.37,3.83"></path><g class="k"><path class="j" d="M288.81,243.12A5,5,0,1,0,287,236.3a4.66,4.66,0,0,0-.25.5,4.72,4.72,0,0,0,2.11,6.32m.74-1.69a3.16,3.16,0,1,0-.9-4.38,2.77,2.77,0,0,0-.26.48,2.89,2.89,0,0,0,1.16,3.9"></path></g><rect class="e" x="292.17" y="238.38" width="1.41" height="3.75" transform="translate(-44.23 413.04) rotate(-66.5)"></rect><rect class="e" x="290.75" y="241.64" width="4.95" height="1.41" transform="translate(-45.94 414.62) rotate(-66.5)"></rect><path class="j" d="M296.22,246.44l1.64.82L299.5,244l3.55,1.77a3.11,3.11,0,1,0,2.78-5.57h0l-5.07-2.53Zm4.11-4.11,3.41,1.7a1.27,1.27,0,1,0,1.14-2.28l-3.42-1.7Z"></path><path class="e" d="M303.75,250.2c.63-1.27,2-4,.12-5l-2.4-1.2c2.78,1.39,1.39,4.17.76,5.44"></path><path class="e" d="M307.43,252.14l7.75,4.38.91-1.6-6.28-3.55,1.25-2.21,4.92,2.78.84-1.48-4.92-2.78,1-1.72,5.91,3.34.91-1.6-7.39-4.18Z"></path><path class="e" d="M321.87,257c-.53.84,0,1.77,1.2,2.53s2,.73,2.35.19c1.08-1.7-5.18-4.18-3.25-7.14,1.66-2.54,4.51-.56,5.58.12s2.8,2.45,1.46,4.49L327.39,256c.57-.89-.06-1.75-1-2.36s-1.68-.86-2.23,0c-.92,1.38,5.22,4,3.34,6.94-1.39,2.18-3.8,1.23-5.41.2-1.38-.87-3.43-2.93-2.09-5Z"></path><path class="e" d="M332.49,264c-.58.81-.09,1.77,1.07,2.59s2,.83,2.33.32c1.17-1.64-4.95-4.45-2.87-7.3,1.79-2.46,4.53-.33,5.57.41s2.66,2.59,1.22,4.56l-1.76-1.25c.62-.87,0-1.76-.88-2.42s-1.63-.94-2.23-.11c-1,1.34,5,4.26,3,7.11-1.5,2.1-3.86,1-5.41-.08-1.33-.94-3.27-3.11-1.82-5.12Z"></path><path class="j" d="M342.53,275.39a5,5,0,1,0,0-7.07c-.13.14-.26.28-.38.43a4.72,4.72,0,0,0,.4,6.64m1.15-1.43a3.16,3.16,0,1,0,.26-4.46,3.41,3.41,0,0,0-.37.39,2.9,2.9,0,0,0,.11,4.07"></path><path class="i" d="M167.63,232.26l-1.37,4.23,2.11.69"></path><path class="i" d="M167.63,232.26l1.38,4.23-2.12.69"></path><path class="i" d="M171.87,235.34h-4.46v2.22"></path><path class="i" d="M171.87,235.34l-3.6,2.61-1.31-1.8"></path><path class="i" d="M163.4,235.34,167,238l1.31-1.8"></path><path class="i" d="M163.4,235.34h4.45v2.22"></path><path class="i" d="M170.25,240.32l-1.38-4.24-2.11.69"></path><path class="i" d="M170.25,240.32l-3.6-2.62,1.31-1.8"></path><path class="i" d="M165,240.32l3.61-2.62-1.31-1.8"></path><path class="i" d="M165,240.32l1.38-4.24,2.12.69"></path><path class="i" d="M176.83,276l-1.38,4.23,2.12.69"></path><path class="i" d="M176.83,276l1.37,4.23-2.12.69"></path><path class="i" d="M181.06,279h-4.45v2.23"></path><path class="i" d="M181.06,279l-3.6,2.62-1.31-1.8"></path><path class="i" d="M172.59,279l3.6,2.62,1.31-1.8"></path><path class="i" d="M172.59,279H177v2.23"></path><path class="i" d="M179.44,284l-1.37-4.24-2.12.69"></path><path class="i" d="M179.44,284l-3.6-2.62,1.31-1.8"></path><path class="i" d="M174.21,284l3.6-2.62-1.31-1.8"></path><path class="i" d="M174.21,284l1.37-4.24,2.12.69"></path><path class="i" d="M164.1,286l-1.1,3.56,1.77.58"></path><path class="i" d="M164.1,286l1.14,3.53-1.76.58"></path><path class="i" d="M167.63,288.6h-3.71v1.85"></path><path class="i" d="M167.63,288.6l-3,2.18-1.09-1.5"></path><path class="i" d="M160.57,288.6l3,2.18,1.09-1.5"></path><path class="i" d="M160.57,288.6h3.71v1.85"></path><path class="i" d="M166.28,292.75l-1.15-3.53-1.76.57"></path><path class="i" d="M166.28,292.75l-3-2.18,1.09-1.5"></path><path class="i" d="M161.92,292.75l3-2.18-1.09-1.5"></path><path class="i" d="M161.92,292.75l1.14-3.53,1.77.57"></path><path class="i" d="M187,271.93l-.66,2,1,.33"></path><path class="i" d="M187,271.93l.65,2-1,.33"></path><path class="i" d="M189,273.39h-2.1v1.06"></path><path class="i" d="M189,273.39l-1.72,1.25-.62-.86"></path><path class="i" d="M185,273.39l1.72,1.25.62-.86"></path><path class="i" d="M185,273.39h2.12v1.06"></path><path class="i" d="M188.25,275.76l-.65-2-1,.32"></path><path class="i" d="M188.25,275.76l-1.71-1.24.62-.86"></path><path class="i" d="M185.76,275.76l1.72-1.24-.63-.86"></path><path class="i" d="M185.76,275.76l.66-2,1,.32"></path><path class="i" d="M198.46,287l-1.14,3.53,1.76.58"></path><path class="i" d="M198.46,287l1.15,3.53-1.77.58"></path><path class="i" d="M202,289.59h-3.71v1.85"></path><path class="i" d="M202,289.59l-3,2.18-1.09-1.5"></path><path class="i" d="M194.93,289.59l3,2.18,1.09-1.5"></path><path class="i" d="M194.93,289.59h3.71v1.85"></path><path class="i" d="M200.65,293.74l-1.15-3.53-1.77.57"></path><path class="i" d="M200.65,293.74l-3-2.18,1.09-1.5"></path><path class="i" d="M196.28,293.74l3-2.18-1.09-1.5"></path><path class="i" d="M196.28,293.74l1.15-3.53,1.76.57"></path><path class="i" d="M195.35,298.09l-.92,2.82,1.42.46"></path><path class="i" d="M195.35,298.09l.92,2.82-1.41.46"></path><path class="i" d="M198.18,300.14h-3v1.49"></path><path class="i" d="M198.18,300.14l-2.41,1.75-.87-1.2"></path><path class="i" d="M192.53,300.14l2.4,1.75.87-1.2"></path><path class="i" d="M192.53,300.14h3v1.49"></path><path class="i" d="M197.1,303.46l-.92-2.82-1.41.46"></path><path class="i" d="M197.1,303.46l-2.41-1.74.88-1.21"></path><path class="i" d="M193.61,303.46l2.4-1.74-.87-1.21"></path><path class="i" d="M193.61,303.46l.91-2.82,1.42.46"></path><path class="i" d="M284.73,218.68l-1.38,4.24,2.12.69"></path><path class="i" d="M284.73,218.68l1.38,4.24-2.12.69"></path><path class="i" d="M289,221.76h-4.46V224"></path><path class="i" d="M289,221.76l-3.61,2.62-1.31-1.8"></path><path class="i" d="M280.49,221.76l3.61,2.62,1.31-1.8"></path><path class="i" d="M280.49,221.76H285V224"></path><path class="i" d="M287.35,226.74,286,222.5l-2.12.69"></path><path class="i" d="M287.35,226.74l-3.6-2.62,1.3-1.8"></path><path class="i" d="M282.11,226.74l3.61-2.62-1.31-1.8"></path><path class="i" d="M282.11,226.74l1.38-4.24,2.12.69"></path><path class="i" d="M325.32,287.41l-1.38,4.24,2.12.69"></path><path class="i" d="M325.32,287.41l1.38,4.24-2.12.69"></path><path class="i" d="M329.56,290.49H325.1v2.23"></path><path class="i" d="M329.56,290.49,326,293.11l-1.31-1.8"></path><path class="i" d="M321.08,290.49l3.61,2.62,1.31-1.8"></path><path class="i" d="M321.08,290.49h4.46v2.23"></path><path class="i" d="M327.94,295.47l-1.38-4.24-2.12.69"></path><path class="i" d="M327.94,295.47l-3.61-2.62,1.31-1.8"></path><path class="i" d="M322.7,295.47l3.6-2.62-1.3-1.8"></path><path class="i" d="M322.7,295.47l1.38-4.24,2.12.69"></path><path class="i" d="M339.74,289.89l-.91,2.82,1.41.46"></path><path class="i" d="M339.74,289.89l.92,2.82-1.41.46"></path><path class="i" d="M342.57,291.94h-3v1.48"></path><path class="i" d="M342.57,291.94l-2.4,1.74-.88-1.2"></path><path class="i" d="M336.92,291.94l2.4,1.74.88-1.2"></path><path class="i" d="M336.92,291.94h3v1.48"></path><path class="i" d="M341.49,295.26l-.92-2.83-1.41.46"></path><path class="i" d="M341.49,295.26l-2.4-1.75.87-1.2"></path><path class="i" d="M338,295.26l2.4-1.75-.87-1.2"></path><path class="i" d="M338,295.26l.92-2.83,1.41.46"></path><path class="i" d="M329.56,297.35l-1.15,3.53,1.77.57"></path><path class="i" d="M329.56,297.35l1.15,3.53-1.77.57"></path><path class="i" d="M333.09,299.91h-3.71v1.86"></path><path class="i" d="M333.09,299.91l-3,2.18-1.09-1.5"></path><path class="i" d="M326,299.91l3,2.18,1.1-1.5"></path><path class="i" d="M326,299.91h3.71v1.86"></path><path class="i" d="M331.74,304.06l-1.14-3.53-1.77.58"></path><path class="i" d="M331.74,304.06l-3-2.18,1.09-1.5"></path><path class="i" d="M327.38,304.06l3-2.18-1.09-1.5"></path><path class="i" d="M327.38,304.06l1.15-3.53,1.76.58"></path><path class="i" d="M304.53,319.13l-1.15,3.53,1.77.57"></path><path class="i" d="M304.53,319.13l1.15,3.53-1.77.57"></path><path class="i" d="M308.06,321.69h-3.71v1.86"></path><path class="i" d="M308.06,321.69l-3,2.18-1.09-1.5"></path><path class="i" d="M301,321.69l3,2.18,1.09-1.5"></path><path class="i" d="M301,321.69h3.71v1.86"></path><path class="i" d="M306.71,325.84l-1.14-3.53-1.77.57"></path><path class="i" d="M306.71,325.84l-3-2.18,1.09-1.5"></path><path class="i" d="M302.35,325.84l3-2.18-1.09-1.5"></path><path class="i" d="M302.35,325.84l1.15-3.53,1.76.57"></path><path class="i" d="M304.39,330.33l-.92,2.83,1.41.46"></path><path class="i" d="M304.39,330.33l.92,2.83-1.42.46"></path><path class="i" d="M307.21,332.39h-3v1.48"></path><path class="i" d="M307.21,332.39l-2.4,1.74-.87-1.2"></path><path class="i" d="M301.56,332.39l2.41,1.74.87-1.2"></path><path class="i" d="M301.56,332.39h3v1.48"></path><path class="i" d="M306.13,335.71l-.91-2.83-1.42.46"></path><path class="i" d="M306.13,335.71l-2.4-1.75.87-1.2"></path><path class="i" d="M302.64,335.71l2.41-1.75-.88-1.2"></path><path class="i" d="M302.64,335.71l.92-2.83,1.41.46"></path><path class="i" d="M314.85,311.67l-.91,2.82,1.41.46"></path><path class="i" d="M314.85,311.67l.92,2.82-1.41.46"></path><path class="i" d="M317.68,313.72h-3v1.48"></path><path class="i" d="M317.68,313.72l-2.4,1.74-.88-1.2"></path><path class="i" d="M312,313.72l2.4,1.74.88-1.2"></path><path class="i" d="M312,313.72h3v1.48"></path><path class="i" d="M316.6,317l-.92-2.83-1.41.46"></path><path class="i" d="M316.6,317l-2.4-1.75.87-1.2"></path><path class="i" d="M313.11,317l2.4-1.75-.87-1.2"></path><path class="i" d="M313.11,317l.92-2.83,1.41.46"></path><path class="i" d="M323.2,305.69l-1.15,3.53,1.77.58"></path><path class="i" d="M323.2,305.69l1.15,3.53-1.77.58"></path><path class="i" d="M326.73,308.26H323v1.85"></path><path class="i" d="M326.73,308.26l-3,2.18-1.1-1.5"></path><path class="i" d="M319.67,308.26l3,2.18,1.09-1.5"></path><path class="i" d="M319.67,308.26h3.71v1.85"></path><path class="i" d="M325.38,312.41l-1.15-3.53-1.76.57"></path><path class="i" d="M325.38,312.41l-3-2.19,1.09-1.5"></path><path class="i" d="M321,312.41l3-2.19-1.09-1.5"></path><path class="i" d="M321,312.41l1.14-3.53,1.77.57"></path><path class="i" d="M304.11,309.69l-.92,2.82,1.41.46"></path><path class="i" d="M304.11,309.69l.91,2.82-1.41.46"></path><path class="i" d="M306.93,311.74h-3v1.48"></path><path class="i" d="M306.93,311.74l-2.4,1.74-.88-1.2"></path><path class="i" d="M301.28,311.74l2.4,1.74.88-1.2"></path><path class="i" d="M301.28,311.74h3v1.48"></path><path class="i" d="M305.85,315.06l-.92-2.83-1.41.46"></path><path class="i" d="M305.85,315.06l-2.4-1.75.87-1.2"></path><path class="i" d="M302.36,315.06l2.4-1.75-.87-1.2"></path><path class="i" d="M302.36,315.06l.92-2.83,1.41.46"></path><path class="i" d="M212.89,255.91l-1.15,3.53,1.77.57"></path><path class="i" d="M212.89,255.91l1.15,3.53-1.77.57"></path><path class="i" d="M216.42,258.48h-3.71v1.85"></path><path class="i" d="M216.42,258.48l-3,2.18-1.1-1.5"></path><path class="i" d="M209.36,258.48l3,2.18,1.09-1.5"></path><path class="i" d="M209.36,258.48h3.71v1.85"></path><path class="i" d="M215.07,262.63l-1.15-3.53-1.76.57"></path><path class="i" d="M215.07,262.63l-3-2.19,1.09-1.5"></path><path class="i" d="M210.71,262.63l3-2.19-1.09-1.5"></path><path class="i" d="M210.71,262.63l1.14-3.53,1.77.57"></path><path class="i" d="M280.77,247.18l-.92,2.82,1.42.46"></path><path class="i" d="M280.77,247.18l.92,2.82-1.41.46"></path><path class="i" d="M283.6,249.23h-3v1.48"></path><path class="i" d="M283.6,249.23,281.19,251l-.87-1.2"></path><path class="i" d="M278,249.23l2.4,1.74.87-1.2"></path><path class="i" d="M278,249.23h3v1.48"></path><path class="i" d="M282.52,252.55l-.92-2.82-1.41.45"></path><path class="i" d="M282.52,252.55l-2.41-1.75.88-1.2"></path><path class="i" d="M279,252.55l2.4-1.75-.87-1.2"></path><path class="i" d="M279,252.55l.91-2.82,1.42.45"></path><path class="i" d="M252.49,297.59l-1.38,4.24,2.12.69"></path><path class="i" d="M252.49,297.59l1.37,4.24-2.12.69"></path><path class="i" d="M256.72,300.67h-4.45v2.23"></path><path class="i" d="M256.72,300.67l-3.6,2.62-1.31-1.8"></path><path class="i" d="M248.25,300.67l3.6,2.62,1.31-1.8"></path><path class="i" d="M248.25,300.67h4.45v2.23"></path><path class="i" d="M255.11,305.65l-1.38-4.23-2.12.68"></path><path class="i" d="M255.11,305.65,251.5,303l1.31-1.8"></path><path class="i" d="M249.87,305.65l3.6-2.62-1.31-1.8"></path><path class="i" d="M249.87,305.65l1.37-4.23,2.12.68"></path><path class="i" d="M264.51,277.69l-1.15,3.53,1.77.57"></path><path class="i" d="M264.51,277.69l1.14,3.53-1.76.57"></path><path class="i" d="M268,280.25h-3.71v1.86"></path><path class="i" d="M268,280.25l-3,2.19-1.09-1.51"></path><path class="i" d="M261,280.25l3,2.19,1.09-1.51"></path><path class="i" d="M261,280.25h3.71v1.86"></path><path class="i" d="M266.69,284.4l-1.15-3.53-1.76.58"></path><path class="i" d="M266.69,284.4l-3-2.18,1.09-1.5"></path><path class="i" d="M262.33,284.4l3-2.18-1.09-1.5"></path><path class="i" d="M262.33,284.4l1.14-3.53,1.77.58"></path><path class="i" d="M252.49,268.36l-1.15,3.53,1.76.57"></path><path class="i" d="M252.49,268.36l1.14,3.53-1.76.57"></path><path class="i" d="M256,270.92h-3.7v1.86"></path><path class="i" d="M256,270.92l-3,2.18-1.09-1.5"></path><path class="i" d="M249,270.92l3,2.18,1.09-1.5"></path><path class="i" d="M249,270.92h3.71v1.86"></path><path class="i" d="M254.67,275.07l-1.15-3.53-1.76.57"></path><path class="i" d="M254.67,275.07l-3-2.18,1.09-1.5"></path><path class="i" d="M250.3,275.07l3-2.18-1.09-1.5"></path><path class="i" d="M250.3,275.07l1.15-3.53,1.77.57"></path><path class="i" d="M242,278.43l-.92,2.83,1.42.46"></path><path class="i" d="M242,278.43l.92,2.83-1.41.46"></path><path class="i" d="M244.85,280.48h-3V282"></path><path class="i" d="M244.85,280.48l-2.41,1.75-.87-1.2"></path><path class="i" d="M239.2,280.48l2.4,1.75.87-1.2"></path><path class="i" d="M239.2,280.48h3V282"></path><path class="i" d="M243.77,283.8l-.92-2.82-1.41.46"></path><path class="i" d="M243.77,283.8l-2.41-1.74.88-1.2"></path><path class="i" d="M240.28,283.8l2.4-1.74-.87-1.2"></path><path class="i" d="M240.28,283.8l.91-2.82,1.42.46"></path><path class="i" d="M247.25,286.49l-.65,2,1,.33"></path><path class="i" d="M247.25,286.49l.66,2-1,.33"></path><path class="i" d="M249.27,288h-2.12v1"></path><path class="i" d="M249.27,288l-1.71,1.25-.63-.86"></path><path class="i" d="M245.24,288l1.71,1.25.63-.86"></path><path class="i" d="M245.24,288h2.12v1"></path><path class="i" d="M248.5,290.33l-.65-2-1,.33"></path><path class="i" d="M248.5,290.33l-1.72-1.25.63-.85"></path><path class="i" d="M246,290.33l1.71-1.25-.62-.85"></path><path class="i" d="M246,290.33l.65-2,1,.33"></path><path class="i" d="M283.6,321.67l-1.15,3.53,1.77.58"></path><path class="i" d="M283.6,321.67l1.15,3.53-1.77.58"></path><path class="i" d="M287.13,324.24h-3.71v1.85"></path><path class="i" d="M287.13,324.24l-3,2.18-1.09-1.5"></path><path class="i" d="M280.07,324.24l3,2.18,1.09-1.5"></path><path class="i" d="M280.07,324.24h3.71v1.85"></path><path class="i" d="M285.78,328.39l-1.15-3.53-1.76.57"></path><path class="i" d="M285.78,328.39l-3-2.18,1.09-1.51"></path><path class="i" d="M281.42,328.39l3-2.18-1.09-1.51"></path><path class="i" d="M281.42,328.39l1.14-3.53,1.77.57"></path><path class="i" d="M292.51,313.22l-.92,2.83,1.41.46"></path><path class="i" d="M292.51,313.22l.92,2.83-1.42.46"></path><path class="i" d="M295.33,315.27h-3v1.49"></path><path class="i" d="M295.33,315.27l-2.4,1.75-.87-1.2"></path><path class="i" d="M289.68,315.27l2.41,1.75.87-1.2"></path><path class="i" d="M289.68,315.27h3v1.49"></path><path class="i" d="M294.25,318.59l-.91-2.82-1.42.46"></path><path class="i" d="M294.25,318.59l-2.4-1.74.88-1.2"></path><path class="i" d="M290.76,318.59l2.41-1.74-.88-1.2"></path><path class="i" d="M290.76,318.59l.92-2.82,1.41.46"></path><path class="i" d="M275.4,310.68l-.92,2.82,1.41.46"></path><path class="i" d="M275.4,310.68l.91,2.82-1.41.46"></path><path class="i" d="M278.22,312.73h-3v1.48"></path><path class="i" d="M278.22,312.73l-2.4,1.74-.87-1.2"></path><path class="i" d="M272.57,312.73l2.41,1.74.87-1.2"></path><path class="i" d="M272.57,312.73h3v1.48"></path><path class="i" d="M277.14,316.05l-.91-2.83-1.42.46"></path><path class="i" d="M277.14,316.05l-2.4-1.75.87-1.2"></path><path class="i" d="M273.65,316.05l2.4-1.75-.87-1.2"></path><path class="i" d="M273.65,316.05l.92-2.83,1.41.46"></path><path class="i" d="M210.77,306.08l-1.38,4.24,2.12.68"></path><path class="i" d="M210.77,306.08l1.37,4.24L210,311"></path><path class="i" d="M215,309.16h-4.45v2.23"></path><path class="i" d="M215,309.16l-3.6,2.62L210.09,310"></path><path class="i" d="M206.53,309.16l3.6,2.62,1.31-1.81"></path><path class="i" d="M206.53,309.16H211v2.23"></path><path class="i" d="M213.39,314.14,212,309.9l-2.12.69"></path><path class="i" d="M213.39,314.14l-3.61-2.62,1.31-1.8"></path><path class="i" d="M208.15,314.14l3.6-2.62-1.31-1.8"></path><path class="i" d="M208.15,314.14l1.38-4.24,2.11.69"></path><path class="i" d="M252.49,335.21l-.46,1.42.7.22"></path><path class="i" d="M252.49,335.21l.46,1.42-.71.22"></path><path class="i" d="M253.9,336.24h-1.49V337"></path><path class="i" d="M253.9,336.24l-1.2.87-.44-.6"></path><path class="i" d="M251.07,336.24l1.21.87.43-.6"></path><path class="i" d="M251.07,336.24h1.49V337"></path><path class="i" d="M253.36,337.9l-.46-1.41-.71.23"></path><path class="i" d="M253.36,337.9l-1.2-.87.43-.6"></path><path class="i" d="M251.61,337.9l1.21-.87-.44-.6"></path><path class="i" d="M251.61,337.9l.46-1.41.71.23"></path></svg> 