<?xml version="1.0" encoding="UTF-8"?> <svg xmlns="http://www.w3.org/2000/svg" xmlns:xlink="http://www.w3.org/1999/xlink" width="175" height="42" viewBox="0 0 175 42"><defs><style>.a{fill:none;}.b{fill:#e94e1b;}.c{fill:#5faf2d;}.d{fill:#48a5d8;}.e{fill:#873888;}.f{clip-path:url(#a);}.g{fill:url(#b);}.h{clip-path:url(#c);}.i{fill:url(#d);}.j{clip-path:url(#e);}.k{fill:url(#f);}.l{fill:url(#g);}.m{clip-path:url(#h);}.n{fill:url(#i);}.o{fill:#4563ab;}.p{fill:#db371b;}.q{fill:#662d86;}.r{fill:#6d7b31;}.s{fill:#806faf;}.t{fill:#a85130;}.u{fill:#798f52;}.v{clip-path:url(#m);}.w,.z{opacity:0.4;}.x,.y{fill:url(#n);}.y{opacity:0.3;}.y,.z{isolation:isolate;}.z{fill:url(#p);}</style><clipPath id="a"><path class="a" d="M24.81,19.05a5.2,5.2,0,0,1,.62,2.22c0,4.11-4.19,11.25-8.41,14.2C12,39,6.19,36.58,4.85,33c-.73-2,.54-2.1-.77-5.74-1-2.77-3-3-3.72-4.93C-1.27,18.26,2.93,14.65,6.71,14,12.34,13,23.38,15.82,24.81,19.05Z"></path></clipPath><linearGradient id="b" x1="-756.42" y1="842.03" x2="-756.42" y2="851.94" gradientTransform="matrix(1.11, 2.86, 2.29, -0.89, -1086.54, 2948.37)" gradientUnits="userSpaceOnUse"><stop offset="0.2" stop-color="#873888"></stop><stop offset="0.76" stop-color="#bf88b7"></stop><stop offset="1" stop-color="#dec3dc"></stop></linearGradient><clipPath id="c"><path class="a" d="M24.83,19c3-1.28,12.46-.31,19.28,5.33a6.11,6.11,0,0,1-.42,9.4,8.44,8.44,0,0,1-5.26,1.6,12.94,12.94,0,0,0-4.49,1.15c-2.69,1.16-3.62,2.7-4.89,3.49-5.17,3.24-11.75-.34-12.12-4.45C16.22,26.87,22.13,20.15,24.83,19Z"></path></clipPath><linearGradient id="d" x1="-341.7" y1="200.55" x2="-341.7" y2="210.05" gradientTransform="matrix(3.28, -1.6, -1.05, -2.15, 1373.12, -79.55)" gradientUnits="userSpaceOnUse"><stop offset="0.17" stop-color="#48a5d8"></stop><stop offset="0.75" stop-color="#85c7ea"></stop><stop offset="1" stop-color="#cae7f6"></stop></linearGradient><clipPath id="e"><path class="a" d="M24.79,19c-2.09-4.3,3.57-12.31,6.93-14.44C33.46,3.44,39,1.75,42.44,5.78c1.2,1.4.47,3.05,1.93,5.33,1.68,2.61,3.4,2.92,4.37,4.13,3.16,3.94-.22,8.3-4.51,9.13C37.8,25.63,26.39,22.29,24.79,19Z"></path></clipPath><linearGradient id="f" x1="45.05" y1="39.85" x2="22.46" y2="30.73" gradientTransform="matrix(1, 0, 0, -1, 0, 44)" gradientUnits="userSpaceOnUse"><stop offset="0.29" stop-color="#e94e1b"></stop><stop offset="0.75" stop-color="#ec8825"></stop><stop offset="1" stop-color="#f5c6a8"></stop></linearGradient><linearGradient id="g" x1="5.46" y1="33.98" x2="31.89" y2="33.98" gradientTransform="matrix(1, 0, 0, -1, 0, 44)" gradientUnits="userSpaceOnUse"><stop offset="0.34" stop-color="#61a930"></stop><stop offset="1" stop-color="#bccf33"></stop></linearGradient><clipPath id="h"><path class="a" d="M16.71,4.15A11.22,11.22,0,0,0,20,2.3,8.1,8.1,0,0,1,27.45.78c1.12.32,3.75,1.57,4.26,3.77.95,3.85-2,12.32-6.85,14.5C20.8,20.86,10.36,17.81,6.66,14c-2.6-2.7-.51-6.54,2-7.89,1.27-.67,1.9-1,4.71-1.14A11.43,11.43,0,0,0,16.71,4.15Z"></path></clipPath><linearGradient id="i" x1="-1071.43" y1="1398.71" x2="-1071.43" y2="1409.53" gradientTransform="matrix(-2.78, 1.51, 0.83, 1.52, -4116.86, -507.24)" gradientUnits="userSpaceOnUse"><stop offset="0" stop-color="#5faf2d"></stop><stop offset="0.46" stop-color="#b1c718"></stop><stop offset="1" stop-color="#d5e395"></stop></linearGradient><clipPath id="m"><path class="a" d="M48.74,15.22c-1-1.21-2.69-1.52-4.37-4.13-1.46-2.25-.73-3.93-1.93-5.33C39,1.7,33.46,3.42,31.72,4.53v0C31.2,2.35,28.57,1.1,27.41.78A8.13,8.13,0,0,0,20,2.3a11.37,11.37,0,0,1-3.29,1.85,11.57,11.57,0,0,1-3.28.79c-2.81.17-3.44.47-4.71,1.14C6.19,7.43,4.1,11.27,6.73,14l.07,0C3,14.7-1.14,18.26.48,22.34c.74,1.85,2.72,2.16,3.72,4.93C5.51,30.91,4.2,31,5,33c1.22,3.58,7,6,12,2.51.37,4.06,7,7.69,12.12,4.45,1.27-.79,2.2-2.34,4.89-3.49a13,13,0,0,1,4.49-1.15,8.44,8.44,0,0,0,5.26-1.6A6.09,6.09,0,0,0,45,25.2a5.77,5.77,0,0,0-.78-.86h.07C48.52,23.52,51.9,19.16,48.74,15.22Z"></path></clipPath><radialGradient id="n" cx="25.3" cy="23.73" fx="17.32070076029015" r="21.2" gradientTransform="matrix(1, 0, 0, -1, 0, 44)" gradientUnits="userSpaceOnUse"><stop offset="0.39" stop-color="#fff"></stop><stop offset="1" stop-color="#fff" stop-opacity="0"></stop></radialGradient><radialGradient id="p" cx="32.36" cy="27.43" r="16.22" gradientTransform="matrix(1, 0, 0, -1, 0, 44)" gradientUnits="userSpaceOnUse"><stop offset="0.38" stop-color="#fff"></stop><stop offset="1" stop-color="#fff" stop-opacity="0"></stop></radialGradient></defs><path class="b" d="M62.78,41.19c-3.45,0-5.91-1.73-6.55-4.62A22.19,22.19,0,0,1,56,32.34V15.71c0-2.62-.06-4.73-.78-6.09l-.45-.82L62.5,6.43l.28.66a24.32,24.32,0,0,1,1.13,7.23l0,16.51A26.31,26.31,0,0,0,64,35c.14.55.35.66.73.66h.38l.79-.33,1.51,5-.67.27A11.7,11.7,0,0,1,62.78,41.19Zm22.92.35-.37-.38a9.12,9.12,0,0,1-1.48-2.11,9,9,0,0,1-6,2.18c-3.94,0-6.83-2-7.53-5.14a15.85,15.85,0,0,1-.35-3.7V17.45l7.68-1.36V31.31a15.28,15.28,0,0,0,.2,2.87,1.45,1.45,0,0,0,1.1,1.1c1.47,0,3-1.56,3.58-2.71l0-15,7.53-1.48v18a7,7,0,0,0,1.32,4.06l.73.81Zm18.88-.31c-5.57,0-9.43-3-10.6-8.27s.1-10.84,3.3-13.93A10.22,10.22,0,0,1,105,16.15,11.58,11.58,0,0,1,112.37,19l.55.48-3.73,4.9-.62-.55a5.67,5.67,0,0,0-3.38-1.46,2.29,2.29,0,0,0-2,1c-1.09,1.51-1.72,5.8-1,9.25.27,1.24,1,2.71,2.8,2.71,1.31,0,2.58-.63,4.16-2l.62-.54,3.85,4.84-.57.49A12.22,12.22,0,0,1,104.58,41.23Zm35.19-.57L130,27.26l8.12-10.46h-9.64l-4.77,7.9V15.8c0-4.06-.4-7.3-1.17-8.77l-.3-.58-7.48,2.34.38.8A14.07,14.07,0,0,1,116,15.4l-.12,25.26h7.75l0-10.95,6.84,10.95Zm1.53-23.34-.08,23.34H149L149,16.15Zm33,19a4.32,4.32,0,0,1-1.57-3.76V24.15a41.77,41.77,0,0,1,.29-5.36l.09-.57-.52-.25a20.49,20.49,0,0,0-8.44-1.6c-4.22,0-7.1,1.16-9.25,3.76-2.59,3.05-3.47,8.23-2.31,13.44,1.1,5,4.24,7.7,8.84,7.7a7.49,7.49,0,0,0,5.54-2.09,6.33,6.33,0,0,0,2.21,2l.45.26L175,37Zm-9.13-3.92a3.48,3.48,0,0,1-3,2.78c-.65,0-1.32-.17-1.78-2.26-.65-2.94-.57-7.11.68-8.94,1-1.51,1.83-1.57,3.27-1.57a4,4,0,0,1,1,.12ZM145.25,15.14a4.52,4.52,0,0,1-4.63-4.38,4.63,4.63,0,0,1,9.25,0,4.52,4.52,0,0,1-4.65,4.38h0Z"></path><path class="c" d="M16.71,4.15A11.22,11.22,0,0,0,20,2.3,8.1,8.1,0,0,1,27.45.78c1.12.32,3.75,1.57,4.26,3.77.95,3.85-2,12.32-6.85,14.5C20.8,20.86,10.36,17.81,6.66,14c-2.6-2.7-.51-6.54,2-7.89,1.27-.67,1.9-1,4.71-1.14A11.43,11.43,0,0,0,16.71,4.15Z"></path><path class="b" d="M24.79,19c-2.09-4.3,3.57-12.31,6.93-14.44C33.46,3.44,39,1.75,42.44,5.78c1.2,1.4.47,3.05,1.93,5.33,1.68,2.61,3.4,2.92,4.37,4.13,3.16,3.94-.22,8.3-4.51,9.13C37.8,25.63,26.39,22.29,24.79,19Z"></path><path class="d" d="M24.83,19c3-1.28,12.46-.31,19.28,5.33a6.11,6.11,0,0,1-.42,9.4,8.44,8.44,0,0,1-5.26,1.6,12.94,12.94,0,0,0-4.49,1.15c-2.69,1.16-3.62,2.7-4.89,3.49-5.17,3.24-11.75-.34-12.12-4.45C16.22,26.87,22.13,20.15,24.83,19Z"></path><path class="e" d="M24.81,19.05a5.2,5.2,0,0,1,.62,2.22c0,4.11-4.19,11.25-8.41,14.2C12,39,6.19,36.58,4.85,33c-.73-2,.54-2.1-.77-5.74-1-2.77-3-3-3.72-4.93C-1.27,18.26,2.93,14.65,6.71,14,12.34,13,23.38,15.82,24.81,19.05Z"></path><g class="f"><path class="g" d="M2.26,27.81,25,19,29.77,31.3,7,40.13Z"></path></g><g class="h"><path class="i" d="M48.65,32.08l-14.2,7L24.59,18.59l14.13-6.91Z"></path></g><g class="j"><path class="k" d="M47.33,9.89,42.88-1.23,20.13,7.5l4.68,11.55,9.24-3.76,9.2-3.72Z"></path></g><path class="l" d="M16.71,4.15A11.22,11.22,0,0,0,20,2.3,8.1,8.1,0,0,1,27.45.78c1.12.32,3.75,1.57,4.26,3.77.95,3.85-2,12.32-6.85,14.5C20.8,20.86,10.36,17.81,6.66,14c-2.6-2.7-.51-6.54,2-7.89,1.27-.67,1.9-1,4.71-1.14A11.43,11.43,0,0,0,16.71,4.15Z"></path><g class="m"><path class="n" d="M16.66,3.27,28.52-2.47l8.34,16.08L24.93,19.24Z"></path></g><g class="h"><path class="o" d="M25,19.48c-2.35-4.79,4-13.92,7.83-16.31C34.8,1.91,41,0,44.94,4.55c1.36,1.58.52,3.47,2.17,6C49,13.52,50.94,13.86,52,15.23c3.57,4.43-.24,9.37-5.07,10.32C39.7,27,26.83,23.21,25,19.48Z"></path><path class="o" d="M24.94,19.06a6.06,6.06,0,0,1,.73,2.63c-.06,4.84-4.93,13.28-9.91,16.79-6,4.2-12.79,1.3-14.32-2.94-.86-2.39.64-2.47-.91-6.76C-.65,25.51-3,25.13-3.85,23c-1.93-4.82,3.05-9,7.5-9.82C10.23,12,23.25,15.26,24.94,19.06Z"></path></g><g class="j"><path class="p" d="M15.17,1.38a13.4,13.4,0,0,0,3.92-2.2A9.71,9.71,0,0,1,28-2.64c1.38.38,4.5,1.88,5.13,4.47,1.13,4.6-2.34,14.72-8.18,17.32C20,21.31,7.58,17.66,3.17,13.06.06,9.85,2.55,5.25,5.63,3.63c1.51-.74,2.23-1.11,5.62-1.3A13.7,13.7,0,0,0,15.17,1.38Z"></path></g><g class="f"><path class="q" d="M15.17,1.38a13.4,13.4,0,0,0,3.92-2.2A9.71,9.71,0,0,1,28-2.64c1.38.38,4.5,1.88,5.13,4.47,1.13,4.6-2.34,14.72-8.18,17.32C20,21.31,7.58,17.66,3.17,13.06.06,9.85,2.55,5.25,5.63,3.63c1.51-.74,2.23-1.11,5.62-1.3A13.7,13.7,0,0,0,15.17,1.38Z"></path></g><path class="r" d="M31.72,4.55C28.35,6.7,22.7,14.69,24.79,19h.05C29.75,16.84,32.65,8.4,31.72,4.55Z"></path><path class="s" d="M25.43,21.27a5.2,5.2,0,0,0-.62-2.22c-2.74,1.14-8.57,7.82-7.82,16.47H17C21.24,32.52,25.37,25.38,25.43,21.27Z"></path><path class="t" d="M44.16,24.38C37.29,18.75,27.88,17.74,24.83,19,26.5,22.31,37.75,25.6,44.16,24.38Z"></path><path class="u" d="M24.81,19c-1.43-3.22-12.47-6-18-5.08C10.45,17.79,20.72,20.78,24.81,19Z"></path><g class="v"><g class="w"><path class="x" d="M50.55,20.48A26.59,26.59,0,1,0,24,47.06h0A26.58,26.58,0,0,0,50.55,20.48Z"></path><path class="y" d="M50.55,20.48A26.59,26.59,0,1,0,24,47.06h0A26.58,26.58,0,0,0,50.55,20.48Z"></path><path class="z" d="M53.84,27.4A26.6,26.6,0,1,0,27.23,54h0A26.59,26.59,0,0,0,53.84,27.4Z"></path></g></g></svg> 