<?xml version="1.0" encoding="UTF-8"?>
<svg xmlns="http://www.w3.org/2000/svg" id="Layer_1" data-name="Layer 1" viewBox="0 0 567.02 567.02">
  <defs>
    <style>.cls-1{fill:#17c37b;}</style>
  </defs>
  <path d="M193.83,202.79a9,9,0,1,0-9-9,9,9,0,0,0,9,9Z"></path>
  <path d="M283.51,513a228.71,228.71,0,0,0,161.15-68.34h0A228.71,228.71,0,0,0,513,283.51C510.9,157.64,409.38,56.11,283.51,54,157.64,56.11,56.11,157.64,54,283.51,56.11,409.38,157.64,510.9,283.51,513ZM110.73,292.47a170.72,170.72,0,0,0,44.89,106.26l-26.78,26.78A212.5,212.5,0,0,1,72.13,292.09ZM283.51,128.36A157.35,157.35,0,0,1,438.66,283.51,157.35,157.35,0,0,1,283.51,438.66a153.5,153.5,0,0,1-109-46.13h0a153.49,153.49,0,0,1-46.12-109A157.35,157.35,0,0,1,283.51,128.36Zm-142,309.82,26.78-26.78a170.72,170.72,0,0,0,106.26,44.89v38.12A212.48,212.48,0,0,1,141.51,438.18Zm151,57.18V457.24a170.77,170.77,0,0,0,106.26-44.88l26.78,26.78a212.58,212.58,0,0,1-133,55.75Zm145.71-69.85L411.4,398.73a171,171,0,0,0,44.89-106.36h38.12A212.71,212.71,0,0,1,438.18,425.51Zm57.18-151H457.24a170.77,170.77,0,0,0-44.88-106.26l26.78-26.78a212.58,212.58,0,0,1,55.75,133ZM425.51,128.84l-26.78,26.78a170.72,170.72,0,0,0-106.26-44.89V72.61A212.48,212.48,0,0,1,425.51,128.84Zm-151-56.71v38.12a170.83,170.83,0,0,0-106.26,44.89l-26.78-26.3A212.5,212.5,0,0,1,274.55,72.13ZM128.84,141.51l26.78,26.78a170.72,170.72,0,0,0-44.89,106.26H72.61A212.48,212.48,0,0,1,128.84,141.51Z"></path>
  <path d="M283.51,418A134.47,134.47,0,1,0,219,165.53a9,9,0,0,0,8.58,15.72,116.55,116.55,0,1,1-46.32,46.32A9,9,0,0,0,165.53,219a134.47,134.47,0,0,0,118,199Z"></path>
  <path class="cls-1" d="M277.51,360.51a8.72,8.72,0,0,0,5.9,2.19,8.35,8.35,0,0,0,5.82-2.19c6.48-5.62,12.58-10.77,18.49-15.72,33.83-28.59,56.22-47.65,56.22-76.24a50.15,50.15,0,0,0-12.19-33.26,43.26,43.26,0,0,0-32.6-14.58,42.57,42.57,0,0,0-35.64,19.82,42.59,42.59,0,0,0-35.83-19.82,43.06,43.06,0,0,0-32.5,14.58A49.65,49.65,0,0,0,203,268.55c0,28.59,22.3,47.65,56.23,76.24Z"></path>
  <path d="M277.51,360.51a8.72,8.72,0,0,0,5.9,2.19,8.35,8.35,0,0,0,5.82-2.19c6.48-5.62,12.58-10.77,18.49-15.72,33.83-28.59,56.22-47.65,56.22-76.24a50.15,50.15,0,0,0-12.19-33.26,43.26,43.26,0,0,0-32.6-14.58,42.57,42.57,0,0,0-35.64,19.82,42.59,42.59,0,0,0-35.83-19.82,43.06,43.06,0,0,0-32.5,14.58A49.65,49.65,0,0,0,203,268.55c0,28.59,22.3,47.65,56.23,76.24Zm-56.71-92a27.84,27.84,0,0,1,25.74-29.78l1-.05c19.92,0,26.88,23.35,27.16,24.4a9.53,9.53,0,0,0,8.67,6.57,8.86,8.86,0,0,0,8.58-6.57s7.05-24.4,27.16-24.4a27.83,27.83,0,0,1,26.94,28.69l-.06,1.14c0,20.49-19.06,36.31-49.85,62.51l-12.67,10.87-12.87-10.77C239.58,304.86,220.8,289,220.8,268.55Z"></path>
  <path class="cls-1" d="M141.51,438.18l26.78-26.78a170.72,170.72,0,0,0,106.26,44.89v38.12A212.48,212.48,0,0,1,141.51,438.18Z"></path>
  <path class="cls-1" d="M438.18,425.51,411.4,398.73a171,171,0,0,0,44.89-106.36h38.12A212.71,212.71,0,0,1,438.18,425.51Z"></path>
  <path class="cls-1" d="M425.51,128.84l-26.78,26.78a170.72,170.72,0,0,0-106.26-44.89V72.61A212.48,212.48,0,0,1,425.51,128.84Z"></path>
  <path class="cls-1" d="M128.84,141.51l26.78,26.78a170.72,170.72,0,0,0-44.89,106.26H72.61A212.48,212.48,0,0,1,128.84,141.51Z"></path>
</svg>
