<?xml version="1.0" encoding="UTF-8"?> <svg xmlns="http://www.w3.org/2000/svg" viewBox="0 0 100.02 35.2"><defs><style>.cls-1{fill:#494848;}.cls-2{fill:#92ba02;}</style></defs><g id="Layer_2" data-name="Layer 2"><g id="Layer_1-2" data-name="Layer 1"><path class="cls-1" d="M51.42,33a24.06,24.06,0,0,1-10.5,2.2c-7.6,0-12.1-3.8-12.1-11.2,0-7.7,5.9-15,15.7-15,5.3,0,10,2.6,10,8.2,0,5.9-5.7,8.5-17.2,8.2a3.07,3.07,0,0,0,1,1.5,7.42,7.42,0,0,0,4.8,1.3,18.33,18.33,0,0,0,7.7-1.6Zm-7.9-17.7c-3.6,0-5.1,2.3-5.3,3.6,6,0,7.7-.6,7.7-2,0-.8-.9-1.6-2.4-1.6Z"></path><path class="cls-1" d="M70.22,0l-1.9,10.9,15,.1-4.4,6.1H68L66.72,23a18.81,18.81,0,0,0-.5,3.3c0,.9.3,1.9,2.1,1.9h2.3L66,34.6c-.6.6-.7.6-2.6.6-5,0-6.7-1.2-6.7-4.5a22.2,22.2,0,0,1,.6-5.1L59,17.1h-3.2l1.4-7.2h3.2l1.5-7.7Z"></path><path class="cls-2" d="M93.22,5.8H71.92l-.5,2.7a.1.1,0,0,0,.1.1h16a.1.1,0,0,1,.1.1h0C81,17.6,74.82,26.1,68.32,35v.1h3.9C75.72,30.3,91.32,8.3,93.22,5.8Z"></path><path class="cls-2" d="M99.92,4.1c.5-1.9-.9-4.1-3.8-4.1H73a.1.1,0,0,0-.1.1L72.32,3h23.4a1.19,1.19,0,0,1,1,1.2v.1a5,5,0,0,1-.5,1.3C94.62,8.2,78.52,30.2,75,35.2h4.2c6.2-9,17.5-25.3,18.3-26.6C98.32,7.1,99.42,5.9,99.92,4.1Z"></path><path class="cls-1" d="M15.52,0l-3.3,12.8h.1a12.48,12.48,0,0,1,7.6-2.6c5.1,0,7.8,3.7,7.6,8.6-.4,7.3-5.8,16.3-18,16.3-7,0-9.8-3-9.5-7.2a21,21,0,0,1,.9-5L6.82,0ZM9.62,23.8a10.87,10.87,0,0,0-.4,2.6,2.14,2.14,0,0,0,2,2.3h.3c3.3,0,6.4-4.2,6.6-8.1.1-2.1-1-3.4-2.7-3.4-2.3,0-4.7,2.1-5.7,6.1Z"></path></g></g></svg> 