<?xml version="1.0" encoding="UTF-8"?> <svg xmlns="http://www.w3.org/2000/svg" width="16" height="16" viewBox="0 0 16 16" fill="none"><path d="M8 0C3.589 0 0 3.589 0 8C0 12.411 3.589 16 8 16C12.411 16 16 12.411 16 8C16 3.589 12.411 0 8 0ZM8.508 2.599L10.565 1.493C11.704 1.944 12.698 2.683 13.454 3.623L12.964 5.885L11.395 6.654L8.508 4.551V2.599ZM5.452 1.487L7.509 2.597V4.551L4.624 6.654L3.047 5.884L2.557 3.608C3.315 2.67 4.311 1.935 5.452 1.487ZM2.23 11.954C1.577 11.004 1.152 9.887 1.035 8.68L2.728 6.841L4.272 7.596L5.435 10.899L4.452 12.077L2.23 11.954ZM9.783 14.761C9.212 14.912 8.617 15 8 15C7.254 15 6.536 14.88 5.861 14.663L5.232 12.705L6.235 11.5H9.769L10.754 12.666L9.783 14.761ZM11.534 12.043L10.567 10.898L11.746 7.596L13.283 6.843L14.966 8.681C14.865 9.722 14.53 10.693 14.021 11.552L11.534 12.043Z" fill="#BEBEC7"></path></svg> 