<?xml version="1.0" encoding="UTF-8"?> <svg xmlns="http://www.w3.org/2000/svg" width="16" height="16" viewBox="0 0 16 16" fill="none"><g clip-path="url(#clip0)"><path d="M8.1145 5.48124C8.45072 5.14347 8.87181 4.90263 9.33342 4.78408V1.33333C9.33342 0.979704 9.19294 0.640565 8.94289 0.390517C8.69284 0.140468 8.3537 -7.62939e-06 8.00008 -7.62939e-06L2.00008 -7.62939e-06C1.64646 -7.62939e-06 1.30732 0.140468 1.05727 0.390517C0.807224 0.640565 0.666748 0.979704 0.666748 1.33333V7.33333C0.666748 7.68695 0.807224 8.02609 1.05727 8.27613C1.30732 8.52618 1.64646 8.66666 2.00008 8.66666H4.92908L8.1145 5.48124ZM6.66675 1.99999C6.7986 1.99999 6.9275 2.03909 7.03713 2.11235C7.14676 2.1856 7.23221 2.28972 7.28267 2.41154C7.33313 2.53335 7.34633 2.6674 7.32061 2.79672C7.29488 2.92604 7.23139 3.04483 7.13815 3.13806C7.04492 3.2313 6.92613 3.29479 6.79681 3.32052C6.66749 3.34624 6.53344 3.33304 6.41163 3.28258C6.28981 3.23212 6.18569 3.14667 6.11244 3.03704C6.03918 2.92741 6.00008 2.79851 6.00008 2.66666C6.00008 2.48985 6.07032 2.32028 6.19534 2.19525C6.32037 2.07023 6.48994 1.99999 6.66675 1.99999ZM6.66675 4.66666C6.7986 4.66666 6.9275 4.70576 7.03713 4.77901C7.14676 4.85227 7.23221 4.95639 7.28267 5.0782C7.33313 5.20002 7.34633 5.33407 7.32061 5.46339C7.29488 5.59271 7.23139 5.7115 7.13815 5.80473C7.04492 5.89797 6.92613 5.96146 6.79681 5.98718C6.66749 6.01291 6.53344 5.9997 6.41163 5.94925C6.28981 5.89879 6.18569 5.81334 6.11244 5.70371C6.03918 5.59407 6.00008 5.46518 6.00008 5.33333C6.00008 5.15651 6.07032 4.98695 6.19534 4.86192C6.32037 4.7369 6.48994 4.66666 6.66675 4.66666ZM3.33342 1.99999C3.46527 1.99999 3.59416 2.03909 3.7038 2.11235C3.81343 2.1856 3.89888 2.28972 3.94933 2.41154C3.99979 2.53335 4.013 2.6674 3.98727 2.79672C3.96155 2.92604 3.89805 3.04483 3.80482 3.13806C3.71158 3.2313 3.5928 3.29479 3.46348 3.32052C3.33415 3.34624 3.20011 3.33304 3.07829 3.28258C2.95648 3.23212 2.85236 3.14667 2.7791 3.03704C2.70585 2.92741 2.66675 2.79851 2.66675 2.66666C2.66675 2.48985 2.73699 2.32028 2.86201 2.19525C2.98703 2.07023 3.1566 1.99999 3.33342 1.99999ZM3.33342 6.66666C3.20156 6.66666 3.07267 6.62756 2.96303 6.55431C2.8534 6.48105 2.76795 6.37693 2.7175 6.25512C2.66704 6.1333 2.65383 5.99925 2.67956 5.86993C2.70528 5.74061 2.76878 5.62182 2.86201 5.52859C2.95525 5.43535 3.07403 5.37186 3.20335 5.34614C3.33268 5.32041 3.46672 5.33361 3.58854 5.38407C3.71035 5.43453 3.81447 5.51998 3.88773 5.62961C3.96098 5.73924 4.00008 5.86814 4.00008 5.99999C4.00008 6.1768 3.92984 6.34637 3.80482 6.4714C3.6798 6.59642 3.51023 6.66666 3.33342 6.66666Z" fill="#BEBEC7"></path><path d="M14.714 9.25251L11.3027 5.84109C11.1899 5.72792 11.0577 5.63598 10.9123 5.56967C10.068 5.18692 9.17528 5.36309 8.58587 5.95301L5.17445 9.36401C5.06128 9.4768 4.96934 9.60905 4.90303 9.75443C4.52028 10.5987 4.69645 11.4914 5.28637 12.0808L8.6977 15.4923C8.81049 15.6054 8.94274 15.6974 9.08812 15.7637C9.93237 16.1464 10.8251 15.9703 11.4145 15.3803L14.8259 11.969C14.9391 11.8562 15.0311 11.724 15.0974 11.5786C15.4798 10.7347 15.3036 9.84167 14.714 9.25251ZM10 11.3333C9.86818 11.3333 9.73929 11.2942 9.62965 11.221C9.52002 11.1477 9.43457 11.0436 9.38411 10.9218C9.33365 10.8 9.32045 10.6659 9.34618 10.5366C9.3719 10.4073 9.43539 10.2885 9.52863 10.1953C9.62186 10.102 9.74065 10.0385 9.86997 10.0128C9.99929 9.98709 10.1333 10.0003 10.2552 10.0508C10.377 10.1012 10.4811 10.1867 10.5543 10.2963C10.6276 10.4059 10.6667 10.5348 10.6667 10.6667C10.6667 10.8435 10.5965 11.0131 10.4714 11.1381C10.3464 11.2631 10.1768 11.3333 10 11.3333Z" fill="#BEBEC7"></path></g><defs><clipPath id="clip0"><rect width="16" height="16" fill="white"></rect></clipPath></defs></svg> 