<?xml version="1.0" encoding="UTF-8"?> <svg xmlns="http://www.w3.org/2000/svg" width="27" height="17" viewBox="0 0 27 17" fill="none"><path d="M17.0802 1.98627H10.081V14.6024H17.0802V1.98627Z" fill="#FF5F00"></path><path d="M10.5257 8.29543C10.5244 7.08022 10.7988 5.88066 11.3282 4.78756C11.8575 3.69447 12.6279 2.73651 13.5809 1.98622C12.4009 1.05605 10.9837 0.477628 9.4914 0.31707C7.99909 0.156512 6.49185 0.420294 5.14194 1.07827C3.79203 1.73624 2.65391 2.76186 1.85766 4.03791C1.06141 5.31396 0.63916 6.78895 0.63916 8.29431C0.63916 9.79967 1.06141 11.2747 1.85766 12.5507C2.65391 13.8268 3.79203 14.8524 5.14194 15.5104C6.49185 16.1683 7.99909 16.4321 9.4914 16.2716C10.9837 16.111 12.4009 15.5326 13.5809 14.6024C12.6282 13.8523 11.858 12.8947 11.3287 11.8021C10.7993 10.7094 10.5248 9.51025 10.5257 8.29543Z" fill="#EB001B"></path><path d="M26.5238 8.29546C26.5238 9.80093 26.1014 11.276 25.305 12.5521C24.5086 13.8282 23.3704 14.8538 22.0203 15.5117C20.6702 16.1696 19.1628 16.4332 17.6704 16.2724C16.178 16.1116 14.7608 15.5329 13.5809 14.6024C14.5333 13.8517 15.3032 12.8939 15.8327 11.8011C16.3621 10.7084 16.6372 9.50929 16.6372 8.29434C16.6372 7.0794 16.3621 5.88032 15.8327 4.78758C15.3032 3.69483 14.5333 2.73696 13.5809 1.98624C14.7608 1.05577 16.178 0.477069 17.6704 0.31628C19.1628 0.155491 20.6702 0.419104 22.0203 1.07699C23.3704 1.73487 24.5086 2.76047 25.305 4.03657C26.1014 5.31266 26.5238 6.78775 26.5238 8.29323V8.29546Z" fill="#F79E1B"></path><path d="M25.7592 13.2643V13.0065H25.8637V12.9532H25.5992V13.0065H25.7126V13.2643H25.7592ZM26.2725 13.2643V12.9532H26.1925L26.0992 13.1754L26.0059 12.9532H25.9348V13.2643H25.9925V13.031L26.0792 13.2332H26.1392L26.2258 13.031V13.2665L26.2725 13.2643Z" fill="#BEBEC7"></path></svg> 