<?xml version="1.0" encoding="UTF-8"?> <svg xmlns="http://www.w3.org/2000/svg" width="43" height="15" viewBox="0 0 43 15" fill="none"><path d="M30.7613 3.7429C31.7174 3.7429 32.4916 2.96641 32.4916 2.00893C32.4916 1.05145 31.7169 0.273438 30.7613 0.273438C29.8057 0.273438 29.0325 1.05095 29.0325 2.00893C29.0324 2.23668 29.0771 2.46221 29.164 2.67265C29.2508 2.88308 29.3781 3.07429 29.5387 3.23536C29.6992 3.39643 29.8898 3.5242 30.0996 3.61137C30.3094 3.69854 30.5342 3.74341 30.7613 3.74341V3.7429ZM17.5085 4.67814C17.4304 4.88035 16.8684 6.46772 15.509 8.11728V1.06207L11.8876 1.77992V14.5699H15.5095V10.6166C16.5589 12.1939 17.077 14.5699 17.077 14.5699H21.4152C20.9868 12.7803 19.1093 9.48171 19.1093 9.48171C20.2247 8.03864 21.0845 6.41395 21.6511 4.67865L17.5085 4.67814ZM27.0295 4.54468C23.7861 4.64932 22.139 6.1088 22.139 9.01055V14.5694H25.6782V10.0368C25.6782 8.29977 25.905 7.55967 27.9604 7.48384V4.59725C27.6147 4.52345 27.0295 4.5467 27.0295 4.5467V4.54468ZM5.81409 6.08857C5.37055 6.05976 4.34335 5.99252 4.34335 5.06538C4.34335 3.94663 5.82165 3.94663 6.37658 3.94663C7.35187 3.94663 8.61445 4.23479 9.51666 4.50626C9.82392 4.63446 10.1345 4.75448 10.4481 4.8662L10.4884 4.87732V1.81177L10.434 1.7956C9.36948 1.4215 8.1321 1.06257 5.83728 1.06257C1.88068 1.06257 0.479492 3.37387 0.479492 5.35454C0.479492 6.49603 0.967388 9.18294 5.49807 9.49283C5.88213 9.51659 6.90127 9.57523 6.90127 10.5342C6.90127 11.3254 6.06661 11.792 4.6634 11.792C3.12613 11.792 1.6327 11.3987 0.726968 11.0256V14.1816C2.0838 14.538 3.61302 14.7165 5.40583 14.7165C9.27422 14.7165 11.0066 12.5296 11.0066 10.3618C11.0066 7.90394 9.06808 6.30747 5.8151 6.08857H5.81409ZM29.0083 14.5714H32.5183V4.69027H29.0073L29.0083 14.5714ZM39.1281 1.69297V14.5714H42.6392V1.06358L39.1281 1.69297ZM34.0057 1.69297L37.5127 1.06358V14.5714H34.0057V1.69196V1.69297Z" fill="#862565"></path></svg> 