<?xml version="1.0" encoding="UTF-8"?> <svg xmlns="http://www.w3.org/2000/svg" width="40" height="13" viewBox="0 0 40 13" fill="none"><path d="M20.4179 4.07573C20.3953 5.85161 22.0005 6.84269 23.2097 7.43188C24.4521 8.03649 24.8694 8.42414 24.8647 8.96473C24.8552 9.79221 23.8736 10.1573 22.9548 10.1716C21.352 10.1965 20.4202 9.73886 19.6793 9.3927L19.102 12.0945C19.8453 12.4371 21.2216 12.7358 22.649 12.7488C25.9992 12.7488 28.1912 11.0951 28.203 8.53084C28.2161 5.27664 23.7017 5.09645 23.7325 3.64184C23.7432 3.20083 24.164 2.73019 25.0864 2.61045C25.5428 2.54999 26.803 2.50376 28.2315 3.16171L28.7922 0.547683C28.024 0.267905 27.0365 -1.81198e-05 25.8071 -1.81198e-05C22.6537 -1.81198e-05 20.4356 1.67628 20.4179 4.07573ZM34.1803 0.225226C33.5686 0.225226 33.0529 0.582063 32.8229 1.12976L28.0371 12.5568H31.3849L32.0512 10.7157H36.1423L36.5288 12.5568H39.4795L36.9046 0.225226H34.1803ZM34.6486 3.55648L35.6148 8.18704H32.9688L34.6486 3.55648ZM16.3587 0.225226L13.7198 12.5568H16.91L19.5477 0.225226H16.3587ZM11.6392 0.225226L8.31865 8.61857L6.97548 1.48186C6.81781 0.685201 6.19542 0.225226 5.50428 0.225226H0.075872L0 0.583247C1.11437 0.825089 2.38048 1.21512 3.1475 1.63242C3.61696 1.8873 3.75092 2.11017 3.90504 2.71596L6.44912 12.5568H9.82068L14.9895 0.225226H11.6392Z" fill="url(#paint0_linear)"></path><defs><linearGradient id="paint0_linear" x1="18.1504" y1="13.0046" x2="18.5194" y2="-0.0886756" gradientUnits="userSpaceOnUse"><stop stop-color="#222357"></stop><stop offset="1" stop-color="#254AA5"></stop></linearGradient></defs></svg> 