<?xml version="1.0" encoding="UTF-8"?>
<svg xmlns="http://www.w3.org/2000/svg" width="90" height="40" fill="none" viewBox="0 0 90 40">
  <path fill="#141C29" d="M12.112 28.507q-3.106 0-6.027-.832-2.883-.87-4.643-2.23l2.06-4.613q1.685 1.248 4.005 2.004 2.322.756 4.643.756 2.583 0 3.819-.756 1.235-.795 1.235-2.08 0-.944-.749-1.55-.711-.642-1.872-1.02-1.123-.38-3.07-.832-2.994-.72-4.904-1.437a8.1 8.1 0 0 1-3.295-2.306q-1.347-1.588-1.347-4.235 0-2.306 1.235-4.159 1.237-1.89 3.706-2.986 2.51-1.097 6.103-1.097 2.508 0 4.904.605t4.194 1.74l-1.873 4.65q-3.63-2.08-7.263-2.08-2.546 0-3.78.832-1.2.831-1.199 2.193 0 1.361 1.385 2.041 1.423.643 4.306 1.286 2.994.719 4.904 1.437a8 8 0 0 1 3.257 2.268q1.386 1.55 1.386 4.197a7.3 7.3 0 0 1-1.273 4.159q-1.236 1.853-3.744 2.948-2.509 1.097-6.103 1.097M25.997 2.93 31.837 0v28.053h-5.84zM45.876 28.356q-3.183 0-5.729-1.324-2.508-1.36-3.93-3.743-1.424-2.382-1.423-5.406 0-3.025 1.422-5.406 1.424-2.382 3.931-3.706 2.547-1.36 5.729-1.36t5.69 1.36q2.508 1.325 3.931 3.705 1.423 2.382 1.423 5.407t-1.423 5.406-3.93 3.743q-2.51 1.324-5.691 1.324m0-4.84q2.245 0 3.669-1.512 1.46-1.55 1.46-4.121t-1.46-4.083q-1.423-1.55-3.67-1.55T42.17 13.8q-1.46 1.512-1.46 4.083t1.46 4.121q1.46 1.512 3.707 1.512M72.848 27.07q-.86.643-2.134.983-1.236.303-2.62.303-3.595 0-5.579-1.853-1.947-1.853-1.947-5.444v-8.356h-3.107V8.166h3.107V4.19l5.84-.976v4.952h5.984v4.537H66.41v8.28q0 1.285.636 2.004.674.68 1.872.68 1.386 0 2.359-.756z"></path>
  <path fill="#141C29" d="M87.712 27.07q-.86.643-2.134.983-1.236.303-2.62.303-3.595 0-5.579-1.853-1.947-1.853-1.947-5.444v-8.356h-3.107V8.166h3.107V4.19l5.84-.976v4.952h5.017v4.537h-5.016v8.28q0 1.285.636 2.004.674.68 1.872.68 1.386 0 2.359-.756z"></path>
  <ellipse cx="45.987" cy="34.4" fill="#5600F5" rx="3.867" ry="3.905"></ellipse>
</svg>
