<?xml version="1.0" encoding="UTF-8"?> <svg xmlns="http://www.w3.org/2000/svg" width="415.15" height="71.52" viewBox="0 0 415.15 71.52"><path d="M331.55,159.43c0,1.36,0,2.73,0,4.1v20.94c.18-.15.28-.2.35-.28a13,13,0,0,1,6.92-4.41,24,24,0,0,1,7.05-.92c3.36,0,6.73,0,10.08.13a33.32,33.32,0,0,1,9.59,1.68,14.68,14.68,0,0,1,10.11,11.09,32.21,32.21,0,0,1,.87,7.57c0,4.38,0,8.77-.07,13.15a21.27,21.27,0,0,1-1.43,7.21,15.37,15.37,0,0,1-9.52,9.18,29.5,29.5,0,0,1-8.94,1.8c-3.34.16-6.69.23-10,.19a22.42,22.42,0,0,1-10.16-2.36A13.43,13.43,0,0,1,332,225a1.59,1.59,0,0,1-.19-.46l-.25.19v4.51h-11V160.08c0-.22,0-.43,0-.65Zm33.85,45.42h.1c0-1.62.07-3.25,0-4.86a31,31,0,0,0-.51-4.51,8.35,8.35,0,0,0-6.14-6.85,18.46,18.46,0,0,0-4-.73c-3.05-.15-6.11-.17-9.16-.17a27.37,27.37,0,0,0-7,.76,8.43,8.43,0,0,0-6.37,5.63,14.93,14.93,0,0,0-.75,4.68c0,3.73-.05,7.45,0,11.18a23.62,23.62,0,0,0,.41,4,8.17,8.17,0,0,0,5.65,6.73,24.17,24.17,0,0,0,4.68,1,64.11,64.11,0,0,0,10.37.2,23.08,23.08,0,0,0,5.89-.89,8.38,8.38,0,0,0,6-5.25,13.88,13.88,0,0,0,.84-4.36C365.45,209.27,365.4,207.06,365.4,204.85Z" transform="translate(-218.85 -159.43)"></path><path d="M457.43,159.43c0,3.57,0,7.15,0,10.73v9.91H472.2v8.81H457.46c0,.2,0,.33,0,.45q0,12.91,0,25.82a8.91,8.91,0,0,0,.25,2c.62,2.69,2.52,4.31,5.48,4.69a19.69,19.69,0,0,0,2.43.15c3.32,0,6.65,0,10,0h.69v8.83H462.81a19.31,19.31,0,0,1-8.6-1.78A13.29,13.29,0,0,1,447,220a22.57,22.57,0,0,1-.61-5.56q0-12.37,0-24.75v-.71h-5.88V180.1h5.83a4.08,4.08,0,0,0,.05-.43V159.73c0-.1,0-.2,0-.3Z" transform="translate(-218.85 -159.43)"></path><path d="M515.11,159.43v8.39H504.23a11.16,11.16,0,0,0-4.32.72,6.83,6.83,0,0,0-4.56,6.19c-.13,1.75,0,3.53,0,5.35H510v8.83H495.29v41.94h-11V188.91h-5.94V180.1h5.92v-.64c0-2.12,0-4.26.15-6.37a14.1,14.1,0,0,1,5.09-10.27,15.18,15.18,0,0,1,7.27-3.08c.77-.13,1.54-.21,2.3-.31Z" transform="translate(-218.85 -159.43)"></path><path d="M634,186.46c-.7.46-1.41.91-2.11,1.38-1.46,1-2.91,2-4.37,2.94l-.44.27a5.24,5.24,0,0,0-3.48-2.53,19.39,19.39,0,0,0-10.25-.34c-4.44,1.13-7,4.07-7.92,8.51a17.07,17.07,0,0,0-.29,3.27q0,15.1,0,30.21v.69h-11v-52h10.36v6.77c.39.24.51,0,.65-.26a13.7,13.7,0,0,1,6.19-5.27,15.67,15.67,0,0,1,5.85-1.26,29.91,29.91,0,0,1,9.27,1,11,11,0,0,1,6.45,4.43c.39.62.7,1.29,1,1.93Z" transform="translate(-218.85 -159.43)"></path><path d="M584.33,159.43v11.12h-11V160c0-.18,0-.37,0-.55Z" transform="translate(-218.85 -159.43)"></path><path d="M552.51,201.92c0-1,0-1.92,0-2.87,0-1.66,0-3.32-.2-5-.39-3.63-2.06-5.31-5.68-5.92a56.51,56.51,0,0,0-9.55-.48,33.21,33.21,0,0,0-8,.78,10.37,10.37,0,0,0-3.35,1.38,5.11,5.11,0,0,0-2.38,3.65.88.88,0,0,1-.07.25l-1.58-.52c-2.78-.92-5.56-1.85-8.36-2.74-.46-.15-.53-.38-.47-.8a9.83,9.83,0,0,1,4.88-7.37,22.43,22.43,0,0,1,8.37-2.85c5.37-.88,10.78-.67,16.18-.53a35.44,35.44,0,0,1,9.43,1.44,16.17,16.17,0,0,1,8.3,5.25,15.35,15.35,0,0,1,3.16,7.87,38.52,38.52,0,0,1,.28,4.8q0,15.91,0,31.84v.69h-11v-4.68l-.24-.18a2.5,2.5,0,0,1-.16.41c-1.66,2.92-4.39,4-7.53,4.19q-3.4.25-6.83.3c-3.56,0-7.13,0-10.69,0a27.79,27.79,0,0,1-8.58-1.27,11.64,11.64,0,0,1-8.37-9.5,34.12,34.12,0,0,1-.13-11.58c.7-4.29,3.29-7.18,7.24-8.89a25.9,25.9,0,0,1,7.89-1.92,121.15,121.15,0,0,1,16.5-.19,21.45,21.45,0,0,1,5.78,1,9.45,9.45,0,0,1,4.63,3.2,3.47,3.47,0,0,0,.34.32Zm-17,4.18c-2.71.11-5,.16-7.36.31a12,12,0,0,0-4.55,1.1,4.37,4.37,0,0,0-2.74,3.51,47.25,47.25,0,0,0-.14,5.95,4.09,4.09,0,0,0,3.21,4,21.15,21.15,0,0,0,4.51.87,93.65,93.65,0,0,0,16.49-.27,13.37,13.37,0,0,0,5-1.41,4.37,4.37,0,0,0,2.33-2.85,12.55,12.55,0,0,0,.06-5.42,5.58,5.58,0,0,0-3.43-3.87,16.08,16.08,0,0,0-5.85-1.52C540.42,206.31,537.79,206.22,535.53,206.1Z" transform="translate(-218.85 -159.43)"></path><path d="M436.73,209.13H393.07c0,.84-.06,1.63,0,2.41.12,1.36.24,2.72.49,4.06a6.72,6.72,0,0,0,5.38,5.58,28,28,0,0,0,6.93.8c3.51,0,7,0,10.54-.1a16.54,16.54,0,0,0,5-.88,7.13,7.13,0,0,0,4.67-4.38l.15-.31,9.76,2.95a13.06,13.06,0,0,1-1.8,4.55,13.57,13.57,0,0,1-7.11,5.35,26.89,26.89,0,0,1-7.51,1.52c-5.89.37-11.79.29-17.68.09a25.29,25.29,0,0,1-9.49-2.07,15.51,15.51,0,0,1-9.12-11.1,24.26,24.26,0,0,1-.72-5.81c0-4.88,0-9.76,0-14.63a19.78,19.78,0,0,1,1.8-8.14,15.39,15.39,0,0,1,8.59-7.94,30,30,0,0,1,9.11-2A139.69,139.69,0,0,1,417.9,179a30.77,30.77,0,0,1,7.67,1.28,14.24,14.24,0,0,1,10.17,10.5,28.8,28.8,0,0,1,1,7.2c.06,3.61,0,7.22,0,10.83A2.79,2.79,0,0,1,436.73,209.13Zm-43.67-8.87h32.79c-.11-2-.12-4-.34-6a6.15,6.15,0,0,0-4.3-5.32,19.59,19.59,0,0,0-5.29-1.07,90.58,90.58,0,0,0-11.65-.06,30.23,30.23,0,0,0-5.1.7,6.89,6.89,0,0,0-5.27,4.35A19.47,19.47,0,0,0,393.06,200.26Z" transform="translate(-218.85 -159.43)"></path><path d="M277.86,216.26H262.62v14.28H234.11V216.26H218.85l29.51-34.41Z" transform="translate(-218.85 -159.43)"></path><path d="M286,208.33l-29.48-34.4H271.7V159.65h28.5v14.24h15.28Z" transform="translate(-218.85 -159.43)"></path><path d="M584.29,230.87h-11v-52h11Z" transform="translate(-218.85 -159.43)"></path></svg> 