<?xml version="1.0" encoding="UTF-8"?>
<svg xmlns="http://www.w3.org/2000/svg" width="603.89" height="263.18" viewBox="0 0 603.89 263.18">
  <defs>
    <style>.a{fill:#0d8e9a;}.b{fill:#f04c4d;}.c{fill:#055b63;}.d{fill:#065a61;}.e{fill:none;}.f{fill:#c62829;}.g{fill:#c4bec0;}</style>
  </defs>
  <path class="a" d="M71.8,218.93a60.7,60.7,0,0,1,15.38,3.15C98,226.21,105,234,108.5,245a54.77,54.77,0,0,1,2.41,14.3c.63,13.29-2.24,25.87-7.47,38a185.64,185.64,0,0,1-19,33.55c-4.6,6.53-9.38,12.92-14.25,19.25-.33.43-.82.78-.83,1.4a17.31,17.31,0,0,1-2.47,3.42c-10.05,12.73-20.4,25.23-30.55,37.89a5.7,5.7,0,0,0-1.1,1.66,21.32,21.32,0,0,0,3.43-1.36q32.67-14,65.35-28a18.6,18.6,0,0,1,4.53-1.7.39.39,0,0,1,.35.41c0,.41,0,.81,0,1.22,0,12.33,0,24.66,0,37a2.15,2.15,0,0,1-1.42,2.28Q39.89,437.39-27.71,470.6a2.6,2.6,0,0,1-1.25.48,2.23,2.23,0,0,1-.39-1.73q0-18.12,0-36.25a5.16,5.16,0,0,1,1.2-3.33Q-17,415.27-5.82,400.84c10.69-13.79,21.17-27.74,31.26-42,8.07-11.39,15.9-22.94,22.91-35,5.42-9.32,10.62-18.75,14.28-28.94,2.44-6.79,3.76-13.73,2.7-21a18.91,18.91,0,0,0-1.9-6.21c-2.93-5.47-6.37-6.63-12.23-5.79s-10.26,4.06-14,8.44c-4.22,5-6.83,10.82-9,16.9-1.11,3.1-2,6.27-2.79,9.45-.5,1.93-.61,1.9-2.55,2.07-3.64.33-7.27.2-10.91.36a5.23,5.23,0,0,1-1.79.27c-4.25-.15-8.47.42-12.71.32-2.83-.06-5.63.55-8.47.29-4.13.15-8.26.42-12.4.36a2.66,2.66,0,0,1-1.19-.1c-.49-.42-.27-.92-.15-1.4a113.92,113.92,0,0,1,10.46-26.62,108.44,108.44,0,0,1,14.84-21,102.3,102.3,0,0,1,26.36-21.19,91.81,91.81,0,0,1,31.16-10.52A45.6,45.6,0,0,1,70.91,219,1.51,1.51,0,0,0,71.8,218.93Z" transform="translate(164.95 -208)"></path>
  <path class="b" d="M-24.71,299.92c.27.22.58.11.87.1l12.81-.36c.47.66.08,1.27-.14,1.86A58.82,58.82,0,0,1-21,318.13,97.44,97.44,0,0,1-42.6,337.75c-5.47,3.64-11.16,6.92-16.95,10-12.52,6.73-25.54,12.4-38.43,18.35a68,68,0,0,0-8,3.94c.37.63,1,.61,1.47.75,10.84,3.11,21.65,6.28,32.48,9.39q11.14,3.21,22.28,6.46c.67.2,1.61.16,1.64,1.25a4.3,4.3,0,0,1-1.05,1.81c-5.79,7.45-11.53,14.95-17.32,22.4a5.34,5.34,0,0,0-1.2,3.62c.06,3.08,0,6.16,0,9.24,0,.61.2,1.33-.5,1.77l-46.67-15.22-48.54-15.83a2.45,2.45,0,0,0-.43-.15c-.86-.13-1.16-.59-1.07-1.47.19-1.86.28-3.73.42-5.6l.81-10.42c.37-4.89.77-9.77,1.08-14.66a2.27,2.27,0,0,1,1.31-2c9.42-5.61,18.86-11.19,28.22-16.92a344.44,344.44,0,0,0,33.41-23.09A151.77,151.77,0,0,0-76,298.49,46.74,46.74,0,0,0-67,282.93a29.41,29.41,0,0,0-1.08-21.45,4.63,4.63,0,0,0-1.17-1.91c-.44-.19-.65-.62-.92-1A19,19,0,0,0-98,255.43a25.38,25.38,0,0,0-4.42,5,54.35,54.35,0,0,0-6.05,11.86,1.48,1.48,0,0,0,.3,1.89,1.7,1.7,0,0,1-1.58.08q-8.83-4.17-17.69-8.3l-22.41-10.39c-1.22-.56-1.23-.58-.81-1.76,5.12-14.37,13.88-25.81,27.09-33.64a63.44,63.44,0,0,1,22.44-7.95,122.09,122.09,0,0,1,13-1.17c.85.36,1.69,0,2.54,0a74.31,74.31,0,0,1,13.4,1.32,97.54,97.54,0,0,1,30.31,10.3,77.5,77.5,0,0,1,12,8c.6.49,1.38.9,1.5,1.82-.38,1.54-1.82,2.12-2.84,3A105.26,105.26,0,0,0-63,287c-.54,2-.54,2,1.51,2.58,7.18,1.93,14.35,3.9,21.51,5.86l13.46,3.7A3.27,3.27,0,0,1-24.71,299.92Z" transform="translate(164.95 -208)"></path>
  <path class="c" d="M-68.23,426.76c0-3.74.1-7.48,0-11.21A5.09,5.09,0,0,1-67,412.1c6-7.65,11.88-15.34,17.81-23,.31-.4.58-.83.87-1.24.71-2,2.31-3.39,3.53-5,2.15-2.92,4.47-5.72,6.58-8.68,7.41-9.48,14.42-19.26,21.4-29.05,2.38-3.33,4.72-6.69,7-10.05A7.71,7.71,0,0,0-9,334a344,344,0,0,0,19.67-32.36,16.8,16.8,0,0,1,1.69-2.86c1.21,0,2.43-.12,3.64-.07,2.63.13,5.23-.44,7.86-.3.76,0,.88-.41,1-1,.89-3.42,1.79-6.83,3-10.16A59.74,59.74,0,0,1,34.74,273a28,28,0,0,1,10.65-9.64,19.24,19.24,0,0,1,10.43-1.95,9,9,0,0,1,6.48,3.78,19.72,19.72,0,0,1,3.47,9.08A42,42,0,0,1,66,282.4a37.09,37.09,0,0,1-1.7,8.57,114.67,114.67,0,0,1-9.16,21.56q-5,9.53-10.69,18.65c-4.46,7.21-9.1,14.3-14,21.21-3,4.27-6,8.6-9.07,12.85-4.22,5.84-8.5,11.65-12.78,17.44Q4.52,388.14.36,393.53c-3.69,4.79-7.44,9.53-11.14,14.32-3.2,4.14-6.36,8.33-9.55,12.48-2.52,3.28-5.05,6.54-7.62,9.78a4.59,4.59,0,0,0-1.05,3c0,12.64,0,25.28,0,37.93-.64.33-1.05-.21-1.49-.44q-17.1-8.81-34.16-17.65a23,23,0,0,0-2.16-1.09,2,2,0,0,1-1.44-2.27c.08-7.07,0-14.14,0-21.21C-68.17,427.87-68.21,427.31-68.23,426.76Z" transform="translate(164.95 -208)"></path>
  <path class="d" d="M270.77,308.06c-.58,1.57-.17,2.33.87,2.38h38.89c-1,5-2.15,9.76-4.57,14.09-3.47,6.19-9,9.39-15.81,10.53-5,.85-10.08.47-15.12.18-1.06-.07-2.13-.12-3.19-.11s-1.32.23-1.33,1.21c0,3,0,6,0,8.95,0,.87.26,1.09,1.11,1.18a4.58,4.58,0,0,0,.53,0h58a9.15,9.15,0,0,1-.41,2.61,42.06,42.06,0,0,1-3.36,9.88c-2.61,5.15-6.4,9-11.93,11a19,19,0,0,1-6.37,1.19c-4.65,0-9.3,0-13.95,0l-49-.08h-.76c-1.56,0-1.48.15-1.48-1.47q0-36.86,0-73.7a19.82,19.82,0,0,1,8.15-16.32,24.89,24.89,0,0,1,15.67-5.24q12.51,0,25,0h36.7a4.76,4.76,0,0,1,1.64.09c.27.41,0,.8,0,1.17a44.89,44.89,0,0,1-3.66,11.36A21.11,21.11,0,0,1,314,298.2a23,23,0,0,1-7.46,1.09l-32.61-.07h-2.27c-1.15,0-1.38.91-.83,2.54" transform="translate(164.95 -208)"></path>
  <line class="e" x1="435.64" y1="93.91" x2="435.64" y2="99.92"></line>
  <path class="d" d="M331,299.1a3.1,3.1,0,0,1,0-.61A51.2,51.2,0,0,1,334.68,287a20.89,20.89,0,0,1,11.09-10.9,25,25,0,0,1,9.5-1.63h82.08c1.75,0,1.75,0,1.41,1.67a43.49,43.49,0,0,1-3.13,9.79,22.51,22.51,0,0,1-9.81,10.81,23.15,23.15,0,0,1-11,2.5c-4.5,0-9,0-13.5,0-.35,0-.71,0-1.06,0-1.13.06-1.31.23-1.37,1.34,0,.41,0,.81,0,1.22v47.33a27.73,27.73,0,0,1-.4,5c-.84,4.68-3.49,8.21-7.17,11.05a24.57,24.57,0,0,1-5.94,3.32,54.24,54.24,0,0,1-13.24,3.08c-1.06.14-1.07.08-1.1-1,0-.36,0-.71,0-1.07v-68c0-2.29,0-2.29-2.25-2.29h-36.1A5.2,5.2,0,0,1,331,299.1Z" transform="translate(164.95 -208)"></path>
  <path class="c" d="M-24.71,299.92a20,20,0,0,1-3.81-.93q-16.89-4.59-33.76-9.21a8.75,8.75,0,0,0-.88-.23c-.65-.13-.8-.51-.63-1.11.38-1.36.73-2.73,1.14-4.08a105.75,105.75,0,0,1,29.53-47.78c1.47-1.38,3-2.68,4.53-4,.26-.78,1-1.17,1.55-1.62A96.84,96.84,0,0,1-8.38,219.71a4.59,4.59,0,0,1,1.89-.47c3.19-1.13,6.34-2.36,9.6-3.27a81.69,81.69,0,0,1,21.53-3.14,95.9,95.9,0,0,1,13.41,1.32l22.8,3.2,10.95,1.58c-.44.36-1,.22-1.46.23-1.21,0-2.42,0-3.64,0a76.55,76.55,0,0,0-10.78,1.15,85.28,85.28,0,0,0-13.47,3.35A94.21,94.21,0,0,0,16.31,237.4a108.45,108.45,0,0,0-15.2,13.83,106.6,106.6,0,0,0-13.22,18,114.67,114.67,0,0,0-10.74,24.31C-23.51,295.66-24.09,297.79-24.71,299.92Z" transform="translate(164.95 -208)"></path>
  <path class="c" d="M108.53,363.34A13.55,13.55,0,0,1,105,365c-4.75,2.1-9.54,4.11-14.32,6.15-4.59,2-9.19,3.89-13.78,5.86-4.08,1.75-8.14,3.55-12.21,5.31-3.89,1.67-7.8,3.32-11.69,5l-11.54,5-6.13,2.6c-.22.1-.46.32-.69.1s-.09-.56.1-.8q1.83-2.31,3.67-4.61,3.54-4.43,7.1-8.83c2.38-2.94,4.79-5.85,7.17-8.78s4.69-5.92,7.11-8.82c2.9-3.49,5.68-7.07,8.45-10.66a3.74,3.74,0,0,1,1.11-1l38.49,11.57C108.07,363.12,108.3,363.25,108.53,363.34Z" transform="translate(164.95 -208)"></path>
  <path class="f" d="M-6.49,219.24a10.35,10.35,0,0,1-2.18,1,93,93,0,0,0-18.93,11.6c-.31.25-.66.46-1,.69a5.55,5.55,0,0,0-1.87-1.92,81,81,0,0,0-18.06-10.89,98.6,98.6,0,0,0-21.72-6.69c-3.11-.58-6.24-1.05-9.37-1.4a41.08,41.08,0,0,0-6.93-.4c-.53,0-1.12.19-1.59-.25,4-.38,8-.78,12.06-1.14,6.24-.55,12.48-1.07,18.71-1.62a80.27,80.27,0,0,1,18.13.67,100,100,0,0,1,25.65,6.9A61.65,61.65,0,0,1-6.49,219.24Z" transform="translate(164.95 -208)"></path>
  <path class="f" d="M-108.13,274.14l-.6-.06c-.56,0-.71-.3-.53-.8a74.12,74.12,0,0,1,4.66-10.17,29.48,29.48,0,0,1,4.93-6.67c2.93-2.9,6.3-5.15,10.57-5.74a21.24,21.24,0,0,1,16.42,4.5,10.5,10.5,0,0,1,3.38,4.37,48.76,48.76,0,0,0-4.17,8.9A1.57,1.57,0,0,1-75,269.66c-6.35.84-12.7,1.74-19.06,2.61l-12.3,1.69C-106.92,274-107.53,274.08-108.13,274.14Z" transform="translate(164.95 -208)"></path>
  <path class="f" d="M12.31,298.76a2.35,2.35,0,0,1-.48,1.4A339.73,339.73,0,0,1-8.6,333.93c-.06.08-.13.15-.2.23-.33.29-.65.62-1,.89a101.21,101.21,0,0,1-9.5,5.66c-12.31,6.91-25.22,12.58-38,18.45-3.44,1.57-6.91,3.11-10.3,4.81a2.73,2.73,0,0,0-1.31.88,4.18,4.18,0,0,0,1.9.75c9.09,2.59,18.15,5.26,27.24,7.83.64.18,1.44.18,1.78.95-2,2.91-4.22,5.6-6.34,8.4-1.3,1.71-2.66,3.38-4,5.07a.71.71,0,0,0-.61-.56c-4.45-1.29-8.9-2.6-13.35-3.88s-8.81-2.52-13.21-3.78c-6.34-1.82-12.7-3.59-19-5.46q-5.72-1.71-11.46-3.31c-.32-.09-.76-.15-.81-.57s.37-.56.68-.7c2.87-1.38,5.73-2.76,8.61-4.11,1.6-.74,3.23-1.43,4.83-2.17,4.35-2,8.68-4.06,13-6,5-2.26,9.9-4.57,14.73-7.1,6.83-3.58,13.61-7.27,20.1-11.45a104.8,104.8,0,0,0,10.73-7.83,96.67,96.67,0,0,0,10.34-10.2,81,81,0,0,0,7.08-9.21,54.33,54.33,0,0,0,5.26-10.37,3.63,3.63,0,0,0,.38-1.45c2.17-.11,4.34-.24,6.51-.32l14.86-.45C11,298.87,11.65,298.8,12.31,298.76Z" transform="translate(164.95 -208)"></path>
  <path class="g" d="M-9.49,335.13l-.35-.38a1.48,1.48,0,0,1,1-.59A1.74,1.74,0,0,1-9.49,335.13Z" transform="translate(164.95 -208)"></path>
  <path class="d" d="M234.75,332.69a19.91,19.91,0,0,0-1.85-8.83,1.77,1.77,0,0,1,0-1.7,19.94,19.94,0,0,0,1.83-8.68q0-8.64,0-17.29a19.94,19.94,0,0,0-7.18-15.61c-4.93-4.34-10.82-6.14-17.32-6.14H149.09c-1.89,0-1.71-.18-1.71,1.7v93.31c0,2.06-.3,1.88,1.84,1.88h60.84l2.13,0a24.31,24.31,0,0,0,10.88-2.95c7.59-4.16,11.72-10.46,11.68-19.28C234.72,343.61,234.73,338.15,234.75,332.69Zm-59.33-23a71.61,71.61,0,0,0,0-9.38c0-.89.39-1,1.05-1,3.33,0,6.66,0,10,0h18c2,0,2.11.08,2.11,2.05,0,1.58,0,3.17,0,4.76,0,.82,0,1.64,0,2.46,0,2.06-.05,2.11-2.19,2.12h-27.2c-.31,0-.62,0-.93,0C175.59,310.79,175.36,310.5,175.42,309.73Zm31.47,35.32c0,1.42-.15,1.56-1.57,1.57H177c-1.32,0-1.33,0-1.33-1.32q0-4.4,0-8.79c0-1.08,0-1.11,1.08-1.11h28.66c1.33,0,1.5.16,1.51,1.46Q206.92,341,206.89,345.05Z" transform="translate(164.95 -208)"></path>
</svg>
