<?xml version="1.0" encoding="UTF-8"?>
<svg xmlns="http://www.w3.org/2000/svg" fill="none" height="28" viewBox="0 0 154 28" width="154">
  <g fill="#9d220d">
    <path d="m92.7683 16.8997h-2.9956v4.902h1.2254l1.634-1.0894c1.0894 1.1983 3.6311 1.4071 4.7658 1.3617 7.0811 0 7.3531-5.5828 4.7661-7.6253-2.5874-2.0425-7.4894-1.3171-7.4894-2.8595 0-.8782 1.044-1.0893 1.4978-1.0893 2.2876-.1089 3.7673 1.4071 4.2216 2.1787h2.723v-4.62966h-1.226l-1.77.95314c-3.5401-2.58715-10.076-1.77016-10.2122 2.99562-.1361 4.7658 6.2636 4.902 7.4891 5.1743s1.634 2.0425-.817 2.1787c-1.9607.1089-3.3587-1.5886-3.8126-2.451z"></path>
    <path d="m107.066 7.91306c.894.00001 1.697.39242 2.246 1.01437.549-.622 1.352-1.01435 2.247-1.01437h2.315v3.26794h-.953c-.602 0-1.089.4877-1.089 1.0893v5.3106c0 .6016.487 1.0893 1.089 1.0893h1.77c.601 0 1.089-.4877 1.089-1.0893v-2.7234h3.949v6.9444h-.272c-.589 0-1.138-.1716-1.601-.4677-.502.379-1.126.6039-1.803.6039h-4.494c-.895 0-1.698-.3925-2.247-1.0146-.549.6221-1.351 1.0146-2.246 1.0146h-2.315v-3.2679h.953c.602 0 1.089-.4877 1.089-1.0893v-5.3106c0-.6016-.487-1.0893-1.089-1.0893h-.953v-3.26794z"></path>
    <path d="m138.792 7.91306c.491 0 .953.11772 1.362.32654.408-.20884.871-.32654 1.362-.32654h2.587c.756 0 1.447.28052 1.974.74293.527-.46247 1.218-.74293 1.974-.74293h2.588c.517 0 1.005.13143 1.429.36265.425-.23121.912-.36265 1.43-.36265h.272v5.58284h-3.404v-1.2256c0-.5828-.457-1.0586-1.033-1.0878l-.056-.0015-.049.0013c-.504.0256-.904.4419-.904.9518v5.4468c0 .6015.488 1.0892 1.089 1.0893h2.043v3.2679h-3.405c-.756 0-1.447-.2805-1.974-.7429-.527.4624-1.218.7429-1.974.7429h-3.132v-3.2679h1.77c.602-.0001 1.089-.4878 1.089-1.0893v-5.3106c0-.5828-.457-1.0587-1.033-1.0878l-.056-.0015-.049.0013c-.504.0256-.904.4419-.904.9518v1.3618h-3.268v-2.5872c0-.0043 0-.0086 0-.0129v-2.98274z"></path>
    <path clip-rule="evenodd" d="m4.39678 7.91306c.9719 0 1.83561.4629 2.38291 1.18018.54731-.71728 1.41103-1.18017 2.38292-1.18018h4.83379c2.0681 0 3.7447 1.67647 3.7447 3.74454v1.0213c0 1.504-1.2193 2.7233-2.7234 2.7233l.2461.0614c1.1358.284 1.9326 1.3047 1.9326 2.4755v.7991c0 .2631.2134.4765.4765.4765.2633 0 .4766-.2133.4766-.4765v-2.6552h2.0425v2.8594c0 1.8049-1.4631 3.268-3.2679 3.268h-1.6341c-1.8048-.0001-3.2679-1.4631-3.2679-3.268v-1.0893c0-.9024-.7316-1.634-1.634-1.634h-1.18802v1.3618c.00002.6015.45025 1.0892 1.05182 1.0893h1.0315v3.2679h-2.12079c-.97194 0-1.83562-.463-2.38292-1.1804-.5473.7174-1.41096 1.1804-2.38291 1.1804h-2.31476v-3.2679h.95317c.6016 0 1.08928-.4877 1.08931-1.0893v-5.3106c-.00004-.6016-.48772-1.0893-1.08931-1.0893h-.95317v-3.26794z" fill-rule="evenodd"></path>
    <path clip-rule="evenodd" d="m30.1321 7.91302c3.9105 0 7.0806 3.17008 7.0806 7.08058s-3.1701 7.0806-7.0806 7.0806h-2.1786c-3.9105 0-7.0806-3.1701-7.0806-7.0806s3.1701-7.08057 7.0806-7.08058zm-1.0893 3.05448c-1.8048 0-3.2679 1.4631-3.268 3.2679v1.5166c0 1.8048 1.4631 3.2679 3.268 3.2679 1.8048 0 3.2681-1.4631 3.2681-3.2679v-1.5166c-.0001-1.8048-1.4633-3.2679-3.2681-3.2679z" fill-rule="evenodd"></path>
    <path clip-rule="evenodd" d="m81.6027 7.91302c3.9105 0 7.0805 3.17008 7.0806 7.08058 0 3.9105-3.1701 7.0806-7.0806 7.0806h-2.1786c-3.9106 0-7.0806-3.1701-7.0806-7.0806s3.1701-7.08057 7.0806-7.08058zm-1.0893 3.05448c-1.8049 0-3.2679 1.4631-3.268 3.2679v1.5166c0 1.8048 1.4631 3.2679 3.268 3.2679 1.8048 0 3.2681-1.4631 3.2681-3.2679v-1.5166c-.0001-1.8048-1.4633-3.2679-3.2681-3.2679z" fill-rule="evenodd"></path>
    <path clip-rule="evenodd" d="m130.35 7.92323c3.91 0 7.081 3.17007 7.081 7.08057s-3.171 7.0806-7.081 7.0806h-2.179c-3.91 0-7.08-3.1701-7.08-7.0806s3.17-7.08056 7.08-7.08057zm-1.089 3.05447c-1.805 0-3.268 1.4631-3.268 3.2679v1.5166c0 1.8048 1.463 3.2679 3.268 3.2679 1.804 0 3.268-1.4631 3.268-3.2679v-1.5166c0-1.8048-1.464-3.2679-3.268-3.2679z" fill-rule="evenodd"></path>
    <path clip-rule="evenodd" d="m39.5274 7.91306c.8999 0 1.7072.40074 2.2563 1.03505.5632-.63432 1.3911-1.03504 2.3141-1.03505h2.6464c3.9104.00002 7.0805 3.17014 7.0805 7.08054 0 3.9105-3.1701 7.0806-7.0805 7.0806h-2.6464c-.9231 0-1.7509-.4008-2.3141-1.0352-.5491.6344-1.3563 1.0352-2.2563 1.0352h-2.3147v-3.2996h.9531c.6016 0 1.0893-.4877 1.0893-1.0893v-5.3831c0-.6017-.4876-1.0895-1.0893-1.0895h-.9531v-3.29964zm5.9391 3.29964c-.6016 0-1.0893.4878-1.0893 1.0895v5.3831c0 .6016.676 1.0893 1.2777 1.0893 1.8047 0 3.268-1.4633 3.268-3.2681v-1.0259c0-1.7767-1.4179-3.2222-3.1838-3.2669z" fill-rule="evenodd"></path>
    <path d="m57.5014 7.91306c.8947 0 1.6978.39619 2.2467 1.0242.5489-.62803 1.352-1.0242 2.2468-1.0242h5.8551c.5178.00001 1.0049.13259 1.4298.36604.4249-.23343.912-.36604 1.4297-.36604h.2723v5.71904h-3.4042v-1.3301c0-.6016-.4877-1.0893-1.0893-1.0893h-3.1318l-.056.0015c-.5755.0292-1.0333.505-1.0333 1.0878v1.3301h2.6484v2.7231h-2.6484v1.3301c0 .5828.4578 1.0586 1.0333 1.0878l.056.0015h3.1318c.6016 0 1.0892-.4877 1.0893-1.0893v-1.3301h3.4042v5.719h-.2723c-.5177 0-1.0048-.1327-1.4297-.3662-.4249.2335-.912.3662-1.4298.3662h-5.8551c-.8948 0-1.6979-.3963-2.2468-1.0243-.5489.628-1.3519 1.0243-2.2467 1.0243h-2.3148v-3.2996h.9532c.6016 0 1.0892-.4877 1.0893-1.0893v-5.3831c0-.6016-.4877-1.0895-1.0893-1.0895h-.9532v-3.29964z"></path>
    <path d="m118.749 23.2082 15.625-.0001-1.389 2.7755h-5.903l-2.17 1.7384-.782-1.7384h-6.77z"></path>
    <path d="m125.693 4.11393h5.903l2.17-1.74625.955 1.74625h6.597l-1.389 2.76763h-15.625z"></path>
  </g>
  <path clip-rule="evenodd" d="m2.31476 5.82943c.97189 0 1.8356.4629 2.38291 1.18018.54731-.71728 1.41102-1.18018 2.38292-1.18018h4.83381c2.068 0 3.7447 1.67647 3.7447 3.7445v1.02137c0 1.504-1.2194 2.7233-2.7234 2.7233l.246.0614c1.1359.284 1.9326 1.3047 1.9326 2.4755v.799c0 .2632.2134.4766.4766.4766s.4766-.2134.4766-.4766v-2.6552h2.0425v2.8595c0 1.8049-1.4631 3.2679-3.2679 3.2679h-1.6341c-1.8048 0-3.26792-1.463-3.26792-3.2679v-1.0893c0-.9024-.73162-1.634-1.63404-1.634h-1.22545v1.3617c.00002.6016.48772 1.0893 1.0893 1.0893h1.0315v3.268h-2.1208c-.97194 0-1.83562-.463-2.38292-1.1804-.5473.7173-1.41097 1.1804-2.38291 1.1804h-2.31476v-3.268h.953166c.601604 0 1.089284-.4877 1.089304-1.0893v-5.3105c-.00003-.60162-.48771-1.08935-1.089304-1.08935h-.953166v-3.26792zm4.76583 5.71897h2.04247c.67682 0 1.22544-.5488 1.22544-1.2256s-.54864-1.22545-1.22544-1.22545h-2.04247z" fill="#f6c299" fill-rule="evenodd"></path>
  <path clip-rule="evenodd" d="m28.0501 5.82943c3.9105 0 7.0805 3.17009 7.0805 7.08057 0 3.9105-3.17 7.0806-7.0805 7.0806h-2.1787c-3.9105 0-7.0805-3.1701-7.0805-7.0806 0-3.91048 3.1701-7.08056 7.0805-7.08057zm-1.0893 3.05447c-1.8049.00002-3.2679 1.4631-3.268 3.2679v1.5166c0 1.8048 1.4631 3.2679 3.268 3.2679 1.8048 0 3.268-1.4631 3.268-3.2679v-1.5166c0-1.8048-1.4632-3.2679-3.268-3.2679z" fill="#f6c299" fill-rule="evenodd"></path>
  <path clip-rule="evenodd" d="m37.4454 5.82943c.8999 0 1.7071.40074 2.2563 1.03505.5632-.63432 1.3911-1.03504 2.3141-1.03505h2.6463c3.9105.00002 7.0806 3.1701 7.0806 7.08057 0 3.9105-3.1701 7.0806-7.0806 7.0806h-2.6463c-.9231 0-1.7509-.4008-2.3141-1.0352-.5492.6343-1.3563 1.0352-2.2563 1.0352h-2.3148v-3.2996h.9532c.6016 0 1.0893-.4877 1.0893-1.0893v-5.3832c0-.60158-.4877-1.08944-1.0893-1.08944h-.9532v-3.29963zm5.9391 3.29963c-.6017 0-1.0893.48785-1.0893 1.08944v5.3832c0 .6016.676 1.0893 1.2776 1.0893 1.8048-.0001 3.2681-1.4633 3.2681-3.2681v-1.0259c0-1.7767-1.4179-3.22221-3.1838-3.26693z" fill="#f6c299" fill-rule="evenodd"></path>
  <path d="m55.4194 5.82943c.8947.00002 1.6979.39621 2.2468 1.0242.5489-.62801 1.352-1.0242 2.2468-1.0242h5.8551c.5177.00002 1.0049.1326 1.4297.36604.4249-.23341.9121-.36604 1.4298-.36604h.2723v5.71897h-3.4043v-1.33c0-.6016-.4877-1.0893-1.0893-1.08934h-3.1318l-.0559.00152c-.5756.02914-1.0333.50497-1.0334 1.08782v1.33h2.9957v2.7232h-2.9957v1.3301c.0001.5828.4578 1.0586 1.0334 1.0877l.0559.0016h3.1318c.6016-.0001 1.0893-.4878 1.0893-1.0893v-1.3301h3.4043v5.719h-.2723c-.5178 0-1.0049-.1328-1.4298-.3662-.4248.2335-.912.3662-1.4297.3662h-5.8551c-.8948 0-1.6979-.3963-2.2468-1.0244-.5489.6281-1.352 1.0244-2.2468 1.0244h-2.3147v-3.2996h.9531c.6016-.0001 1.0893-.4878 1.0893-1.0893v-5.3832c0-.60155-.4877-1.0894-1.0893-1.08944h-.9531v-3.29963z" fill="#f6c299"></path>
  <path clip-rule="evenodd" d="m79.5207 5.82943c3.9105.00001 7.0805 3.17009 7.0806 7.08057 0 3.9105-3.1701 7.0806-7.0806 7.0806h-2.1787c-3.9105 0-7.0805-3.1701-7.0805-7.0806 0-3.91048 3.1701-7.08056 7.0805-7.08057zm-1.0893 3.05447c-1.8049.00002-3.2679 1.4631-3.268 3.2679v1.5166c0 1.8048 1.4631 3.2679 3.268 3.2679 1.8048 0 3.2681-1.4631 3.2681-3.2679v-1.5166c-.0001-1.8048-1.4633-3.26789-3.2681-3.2679z" fill="#f6c299" fill-rule="evenodd"></path>
  <path d="m130.904 23.9002h-5.903l-2.171 1.7383-.781-1.7383h-6.77l1.388-2.7756h15.625z" fill="#f58a8a"></path>
  <path clip-rule="evenodd" d="m128.269 5.83974c3.91 0 7.08 3.17008 7.08 7.08056 0 3.9105-3.17 7.0806-7.08 7.0806h-2.179c-3.91 0-7.08-3.1701-7.08-7.0806 0-3.91047 3.17-7.08055 7.08-7.08056zm-1.09 3.05447c-1.804.00001-3.267 1.46309-3.267 3.26789v1.5166c0 1.8048 1.463 3.2679 3.267 3.2679 1.805 0 3.268-1.4631 3.268-3.2679v-1.5166c0-1.8048-1.463-3.26789-3.268-3.26789z" fill="#f58a8a" fill-rule="evenodd"></path>
  <path d="m87.8277 9.91417c.1362-4.76575 6.6721-4.88833 10.2124-2.99564l1.7702-.95316h1.2257v4.62973h-2.7236c-.4539-.77166-1.9336-2.28758-4.2211-2.17866-.4539 0-1.4979.21107-1.4979 1.0893 0 1.54236 4.902.81706 7.4896 2.85946 2.587 2.0425 2.314 7.6254-4.7663 7.6254-1.1347.0454-3.6765-.1635-4.7658-1.3618l-1.6339 1.0893h-1.2256v-4.902h2.9956c.4539.8624 1.8519 2.56 3.8127 2.4511 2.451-.1362 2.0425-1.9063.817-2.1786s-7.6252-.4086-7.489-5.17443z" fill="#f58a8a"></path>
  <path d="m104.985 5.82956c.894.00001 1.697.39243 2.246 1.01437.549-.62199 1.352-1.01435 2.247-1.01437h2.315v3.26793h-.953c-.602 0-1.09.48772-1.09 1.08931v5.3106c0 .6016.488 1.0893 1.09 1.0893h1.77c.601 0 1.089-.4877 1.089-1.0893v-2.7234h3.949v6.9445h-.272c-.589-.0001-1.138-.1717-1.601-.4678-.502.379-1.126.6039-1.804.6039h-4.493c-.895 0-1.698-.3925-2.247-1.0145-.549.622-1.352 1.0145-2.246 1.0145h-2.315v-3.2679h.953c.601 0 1.089-.4877 1.089-1.0893v-5.3106c0-.60159-.488-1.08931-1.089-1.08931h-.953v-3.26793z" fill="#f58a8a"></path>
  <path d="m136.711 5.82956c.49.00001.953.11773 1.362.32654.408-.20883.871-.32654 1.361-.32654h2.587c.757 0 1.448.28052 1.975.74294.527-.46248 1.218-.74293 1.974-.74294h2.588c.517.00001 1.004.13143 1.429.36265.425-.2312.912-.36265 1.43-.36265h.272v5.58284h-3.404v-1.2256c0-.58279-.458-1.05862-1.033-1.08779l-.056-.00152-.049.00135c-.504.02553-.904.44187-.904.95186v5.4467c0 .6015.487 1.0892 1.089 1.0893h2.043v3.2679h-3.405c-.756 0-1.447-.2805-1.974-.7429-.527.4624-1.218.7429-1.975.7429h-3.131v-3.2679h1.77c.602-.0001 1.089-.4878 1.089-1.0893v-5.3106c0-.58281-.458-1.05865-1.033-1.08779l-.056-.00152-.049.00135c-.504.02557-.904.44189-.904.95186v1.3617h-3.268v-2.5872c0-.0043 0-.00859 0-.01288v-2.98276z" fill="#f58a8a"></path>
  <path d="m132.64 2.03046h6.597l-1.389 2.76761h-15.625l1.389-2.76761h5.903l2.17-1.74628z" fill="#f58a8a"></path>
</svg>
