<?xml version="1.0" encoding="UTF-8"?>
<svg xmlns="http://www.w3.org/2000/svg" xmlns:xlink="http://www.w3.org/1999/xlink" width="60" zoomAndPan="magnify" viewBox="0 0 45 44.999999" height="60" preserveAspectRatio="xMidYMid meet" version="1.0">
  <defs>
    <clipPath id="8269400084">
      <path d="M 37.632812 43.320312 L 45 43.320312 L 45 45 L 37.632812 45 Z M 37.632812 43.320312 " clip-rule="nonzero"></path>
    </clipPath>
    <clipPath id="5eada0ca3e">
      <path d="M 7 3.523438 L 41.773438 3.523438 L 41.773438 39 L 7 39 Z M 7 3.523438 " clip-rule="nonzero"></path>
    </clipPath>
    <clipPath id="c07c119f13">
      <path d="M 3.523438 22 L 9 22 L 9 28 L 3.523438 28 Z M 3.523438 22 " clip-rule="nonzero"></path>
    </clipPath>
    <clipPath id="7dfd419d57">
      <path d="M 18 37 L 23 37 L 23 41.773438 L 18 41.773438 Z M 18 37 " clip-rule="nonzero"></path>
    </clipPath>
    <clipPath id="f6a24aacd6">
      <path d="M 11 35 L 18 35 L 18 41.773438 L 11 41.773438 Z M 11 35 " clip-rule="nonzero"></path>
    </clipPath>
    <clipPath id="a687583bf9">
      <path d="M 23.980469 14.175781 L 31.332031 14.175781 L 31.332031 21.523438 L 23.980469 21.523438 Z M 23.980469 14.175781 " clip-rule="nonzero"></path>
    </clipPath>
    <clipPath id="d51f056b63">
      <path d="M 27.65625 14.175781 C 25.628906 14.175781 23.980469 15.820312 23.980469 17.851562 C 23.980469 19.878906 25.628906 21.523438 27.65625 21.523438 C 29.6875 21.523438 31.332031 19.878906 31.332031 17.851562 C 31.332031 15.820312 29.6875 14.175781 27.65625 14.175781 Z M 27.65625 14.175781 " clip-rule="nonzero"></path>
    </clipPath>
  </defs>
  <g clip-path="url(#8269400084)">
    <path fill="#000000" d="M 50.902344 43.558594 L 50.335938 46.039062 L 49.6875 45.425781 C 48.914062 46.242188 48.109375 46.996094 47.273438 47.683594 C 46.402344 48.402344 45.503906 49.050781 44.574219 49.640625 C 43.582031 50.265625 42.546875 50.773438 41.480469 51.222656 C 40.417969 51.671875 39.328125 52.058594 38.234375 52.441406 L 38.101562 52.484375 L 37.960938 52.074219 L 38.09375 52.027344 C 40.042969 51.347656 41.820312 50.214844 43.574219 49.101562 L 44.054688 48.796875 C 44.953125 48.226562 45.820312 47.601562 46.65625 46.914062 C 47.457031 46.253906 48.230469 45.53125 48.972656 44.746094 L 48.324219 44.132812 L 50.957031 43.320312 Z M 50.375 44.617188 L 50.574219 43.734375 L 48.867188 44.257812 L 49.367188 44.734375 L 49.269531 44.839844 C 48.492188 45.671875 47.675781 46.4375 46.832031 47.132812 C 45.984375 47.832031 45.109375 48.464844 44.203125 49.035156 C 43.847656 49.261719 43.777344 49.304688 43.71875 49.34375 C 42.566406 50.078125 41.398438 50.820312 40.175781 51.4375 C 40.578125 51.285156 40.980469 51.125 41.375 50.960938 C 42.425781 50.519531 43.449219 50.015625 44.425781 49.398438 C 45.347656 48.816406 46.238281 48.171875 47.097656 47.464844 C 47.957031 46.753906 48.785156 45.976562 49.578125 45.128906 L 49.675781 45.027344 L 50.171875 45.5 Z M 50.375 44.617188 " fill-opacity="1" fill-rule="nonzero"></path>
  </g>
  <g clip-path="url(#5eada0ca3e)">
    <path fill="#000000" d="M 41.027344 3.546875 C 38.753906 3.546875 36.113281 4.039062 33.347656 4.964844 C 33.34375 4.964844 33.34375 4.964844 33.339844 4.964844 C 33.339844 4.964844 33.339844 4.96875 33.339844 4.96875 C 33.113281 5.042969 32.890625 5.113281 32.664062 5.195312 C 32.644531 5.203125 32.621094 5.214844 32.597656 5.222656 C 32.039062 5.425781 31.492188 5.644531 30.953125 5.871094 C 30.949219 5.871094 30.945312 5.875 30.941406 5.875 C 27.589844 7.285156 24.617188 9.167969 22.609375 11.171875 L 18.699219 15.082031 L 15.441406 15.082031 C 13.871094 15.082031 12.394531 15.691406 11.285156 16.804688 L 7.367188 20.71875 C 7.15625 20.929688 7.09375 21.25 7.210938 21.527344 C 7.328125 21.796875 7.59375 21.972656 7.886719 21.972656 C 7.894531 21.972656 7.898438 21.972656 7.90625 21.972656 L 14.140625 21.820312 C 13.84375 23.457031 14.023438 25.15625 14.722656 26.683594 C 12.601562 28.863281 10.96875 31.738281 12.296875 33.070312 C 12.632812 33.402344 13.0625 33.550781 13.554688 33.550781 C 15.03125 33.550781 17.054688 32.230469 18.691406 30.636719 C 19.746094 31.117188 20.882812 31.367188 22.027344 31.367188 C 22.535156 31.367188 23.042969 31.316406 23.546875 31.222656 L 23.398438 37.464844 C 23.390625 37.761719 23.566406 38.039062 23.839844 38.15625 C 23.933594 38.195312 24.03125 38.214844 24.128906 38.214844 C 24.320312 38.214844 24.507812 38.140625 24.648438 38 L 28.566406 34.085938 C 29.675781 32.972656 30.285156 31.5 30.285156 29.929688 L 30.285156 26.664062 L 34.167969 22.78125 C 36.1875 20.765625 38.074219 17.773438 39.480469 14.398438 C 39.480469 14.398438 39.484375 14.398438 39.484375 14.398438 C 39.71875 13.832031 39.945312 13.261719 40.152344 12.679688 C 40.226562 12.460938 40.296875 12.25 40.367188 12.035156 C 40.371094 12.027344 40.375 12.023438 40.378906 12.015625 C 40.382812 12.007812 40.378906 11.996094 40.382812 11.988281 C 41.308594 9.214844 41.792969 6.558594 41.78125 4.277344 C 41.777344 3.871094 41.429688 3.546875 41.027344 3.546875 Z M 14.550781 20.34375 L 9.703125 20.460938 L 12.320312 17.839844 C 13.15625 17.007812 14.261719 16.550781 15.4375 16.550781 L 17.230469 16.550781 L 16.546875 17.234375 C 15.644531 18.136719 14.980469 19.207031 14.550781 20.34375 Z M 17.324219 24.542969 C 16.84375 24.847656 16.355469 25.207031 15.871094 25.617188 C 15.417969 24.382812 15.351562 23.035156 15.652344 21.753906 C 16.082031 22.808594 16.753906 23.804688 17.324219 24.542969 Z M 17.804688 29.453125 C 15.492188 31.765625 13.582031 32.273438 13.335938 32.03125 C 13.09375 31.789062 13.605469 29.875 15.917969 27.5625 C 16.9375 26.542969 18.03125 25.730469 18.996094 25.277344 C 19.5625 25.011719 19.953125 24.941406 20.171875 24.941406 C 20.292969 24.941406 20.359375 24.960938 20.382812 24.984375 C 20.449219 25.050781 20.5 25.5 20.089844 26.371094 C 19.636719 27.335938 18.824219 28.429688 17.804688 29.453125 Z M 19.75 29.496094 C 20.160156 29.011719 20.523438 28.523438 20.828125 28.039062 C 21.578125 28.617188 22.582031 29.28125 23.644531 29.710938 C 22.351562 30.015625 20.996094 29.953125 19.75 29.496094 Z M 28.816406 29.929688 C 28.816406 31.105469 28.359375 32.210938 27.527344 33.046875 L 24.910156 35.664062 L 25.027344 30.8125 C 26.164062 30.382812 27.234375 29.722656 28.136719 28.816406 L 28.820312 28.136719 L 28.820312 29.929688 Z M 33.128906 21.742188 L 27.097656 27.777344 C 26.832031 28.042969 26.546875 28.285156 26.253906 28.503906 C 26.25 28.503906 26.25 28.503906 26.246094 28.503906 C 25.371094 29.011719 23.511719 28.289062 21.53125 26.722656 C 22.167969 25.1875 21.839844 24.363281 21.421875 23.945312 C 21.003906 23.527344 20.179688 23.195312 18.644531 23.835938 C 17.164062 21.976562 16.421875 20.183594 16.769531 19.25 C 17.011719 18.90625 17.28125 18.578125 17.585938 18.273438 L 19.523438 16.335938 C 19.523438 16.335938 19.523438 16.335938 19.523438 16.332031 L 23.648438 12.210938 C 25.335938 10.523438 27.78125 8.921875 30.570312 7.644531 C 30.863281 9.082031 31.800781 10.683594 33.238281 12.117188 C 34.671875 13.550781 36.273438 14.484375 37.710938 14.777344 C 36.433594 17.585938 34.828125 20.046875 33.128906 21.742188 Z M 38.304688 13.394531 C 37.109375 13.253906 35.589844 12.390625 34.273438 11.078125 C 32.960938 9.765625 32.09375 8.238281 31.953125 7.046875 C 32.308594 6.90625 32.667969 6.765625 33.035156 6.632812 C 33.03125 6.640625 33.035156 6.652344 33.035156 6.660156 C 33 7.402344 33.613281 8.855469 35.054688 10.292969 C 36.503906 11.742188 37.960938 12.351562 38.703125 12.3125 C 38.710938 12.3125 38.714844 12.3125 38.71875 12.3125 C 38.585938 12.675781 38.449219 13.035156 38.304688 13.394531 Z M 39.1875 10.875 C 39 10.851562 38.8125 10.835938 38.621094 10.847656 C 38.378906 10.875 37.316406 10.480469 36.089844 9.25 C 34.871094 8.035156 34.5 6.976562 34.5 6.742188 C 34.511719 6.542969 34.5 6.347656 34.472656 6.15625 C 36.535156 5.515625 38.542969 5.121094 40.296875 5.035156 C 40.21875 6.785156 39.824219 8.804688 39.1875 10.875 Z M 39.1875 10.875 " fill-opacity="1" fill-rule="nonzero"></path>
  </g>
  <path fill="#000000" d="M 27.640625 12.828125 C 26.308594 12.828125 25.058594 13.34375 24.117188 14.285156 C 23.175781 15.226562 22.660156 16.476562 22.660156 17.808594 C 22.660156 19.140625 23.175781 20.390625 24.117188 21.332031 C 25.058594 22.273438 26.308594 22.789062 27.640625 22.789062 C 28.972656 22.789062 30.222656 22.269531 31.164062 21.332031 C 32.105469 20.390625 32.621094 19.140625 32.621094 17.808594 C 32.621094 16.476562 32.105469 15.226562 31.164062 14.285156 C 30.222656 13.34375 28.972656 12.828125 27.640625 12.828125 Z M 30.125 20.292969 C 29.460938 20.957031 28.578125 21.320312 27.640625 21.320312 C 26.699219 21.320312 25.820312 20.957031 25.15625 20.292969 C 24.492188 19.628906 24.128906 18.746094 24.128906 17.808594 C 24.128906 16.871094 24.492188 15.988281 25.15625 15.324219 C 25.820312 14.660156 26.699219 14.296875 27.640625 14.296875 C 28.578125 14.296875 29.460938 14.660156 30.125 15.324219 C 30.789062 15.988281 31.152344 16.871094 31.152344 17.808594 C 31.152344 18.746094 30.789062 19.628906 30.125 20.292969 Z M 30.125 20.292969 " fill-opacity="1" fill-rule="nonzero"></path>
  <g clip-path="url(#c07c119f13)">
    <path fill="#000000" d="M 4.847656 26.992188 L 7.914062 23.921875 C 8.203125 23.636719 8.203125 23.171875 7.914062 22.886719 C 7.628906 22.597656 7.164062 22.597656 6.875 22.886719 L 3.808594 25.953125 C 3.519531 26.242188 3.519531 26.707031 3.808594 26.992188 C 3.949219 27.136719 4.140625 27.207031 4.328125 27.207031 C 4.515625 27.207031 4.703125 27.136719 4.847656 26.992188 Z M 4.847656 26.992188 " fill-opacity="1" fill-rule="nonzero"></path>
  </g>
  <path fill="#000000" d="M 11.679688 33.664062 C 11.394531 33.378906 10.929688 33.378906 10.644531 33.664062 L 5.894531 38.414062 C 5.605469 38.699219 5.605469 39.164062 5.894531 39.453125 C 6.039062 39.59375 6.226562 39.667969 6.414062 39.667969 C 6.601562 39.667969 6.789062 39.59375 6.933594 39.453125 L 11.679688 34.703125 C 11.96875 34.417969 11.96875 33.953125 11.679688 33.664062 Z M 11.679688 33.664062 " fill-opacity="1" fill-rule="nonzero"></path>
  <path fill="#000000" d="M 9.535156 28.230469 C 9.246094 27.941406 8.78125 27.941406 8.496094 28.230469 L 4.476562 32.25 C 4.1875 32.535156 4.1875 33 4.476562 33.285156 C 4.621094 33.429688 4.808594 33.5 4.996094 33.5 C 5.183594 33.5 5.371094 33.429688 5.515625 33.285156 L 9.535156 29.265625 C 9.820312 28.980469 9.820312 28.515625 9.535156 28.230469 Z M 9.535156 28.230469 " fill-opacity="1" fill-rule="nonzero"></path>
  <g clip-path="url(#7dfd419d57)">
    <path fill="#000000" d="M 21.421875 37.433594 L 18.355469 40.5 C 18.066406 40.789062 18.066406 41.253906 18.355469 41.539062 C 18.496094 41.683594 18.683594 41.753906 18.875 41.753906 C 19.0625 41.753906 19.25 41.683594 19.390625 41.539062 L 22.460938 38.46875 C 22.75 38.183594 22.75 37.71875 22.460938 37.433594 C 22.175781 37.144531 21.710938 37.144531 21.421875 37.433594 Z M 21.421875 37.433594 " fill-opacity="1" fill-rule="nonzero"></path>
  </g>
  <g clip-path="url(#f6a24aacd6)">
    <path fill="#000000" d="M 16.078125 35.8125 L 12.058594 39.832031 C 11.773438 40.121094 11.773438 40.582031 12.058594 40.871094 C 12.203125 41.011719 12.390625 41.085938 12.578125 41.085938 C 12.765625 41.085938 12.957031 41.011719 13.097656 40.871094 L 17.117188 36.851562 C 17.40625 36.5625 17.40625 36.101562 17.117188 35.8125 C 16.832031 35.527344 16.367188 35.527344 16.078125 35.8125 Z M 16.078125 35.8125 " fill-opacity="1" fill-rule="nonzero"></path>
  </g>
  <g clip-path="url(#a687583bf9)">
    <g clip-path="url(#d51f056b63)">
      <path fill="#17c37b" d="M 23.980469 14.175781 L 31.332031 14.175781 L 31.332031 21.523438 L 23.980469 21.523438 Z M 23.980469 14.175781 " fill-opacity="1" fill-rule="nonzero"></path>
    </g>
  </g>
</svg>
