<?xml version="1.0" encoding="UTF-8"?> <svg xmlns="http://www.w3.org/2000/svg" width="368" height="192" viewBox="0 0 368 192" fill="none"><mask id="mask0_4158_13662" style="mask-type:alpha" maskUnits="userSpaceOnUse" x="0" y="0" width="368" height="192"><rect width="368" height="192" rx="4" fill="#C4C4C4"></rect></mask><g mask="url(#mask0_4158_13662)"><rect width="368" height="192" rx="4" fill="url(#paint0_linear_4158_13662)"></rect><circle cx="385" cy="206" r="56" fill="#844AFE"></circle><rect x="352.044" y="148.466" width="0.942802" height="5.65681" transform="rotate(165 352.044 148.466)" fill="#844AFE"></rect><rect x="349.116" y="137.538" width="0.942802" height="5.65681" transform="rotate(165 349.116 137.538)" fill="#844AFE"></rect><rect x="346.782" y="141.58" width="5.65681" height="0.942802" transform="rotate(165 346.782 141.58)" fill="#844AFE"></rect><rect x="357.71" y="138.651" width="5.65681" height="0.942802" transform="rotate(165 357.71 138.651)" fill="#844AFE"></rect><rect x="22.0435" y="28.4663" width="0.942802" height="5.65681" transform="rotate(165 22.0435 28.4663)" fill="#844AFE"></rect><rect x="19.1152" y="17.5382" width="0.942802" height="5.65681" transform="rotate(165 19.1152 17.5382)" fill="#844AFE"></rect><rect x="16.7817" y="21.5796" width="5.65681" height="0.942802" transform="rotate(165 16.7817 21.5796)" fill="#844AFE"></rect><rect x="27.71" y="18.6515" width="5.65681" height="0.942802" transform="rotate(165 27.71 18.6515)" fill="#844AFE"></rect><rect x="45.5581" y="47.9763" width="0.942802" height="5.65681" transform="rotate(-150 45.5581 47.9763)" fill="#844AFE"></rect><rect x="51.2148" y="38.1785" width="0.942802" height="5.65681" transform="rotate(-150 51.2148 38.1785)" fill="#844AFE"></rect><rect x="46.707" y="39.3862" width="5.65681" height="0.942802" transform="rotate(-150 46.707 39.3862)" fill="#844AFE"></rect><rect x="56.5049" y="45.0431" width="5.65681" height="0.942802" transform="rotate(-150 56.5049 45.0431)" fill="#844AFE"></rect></g><defs><linearGradient id="paint0_linear_4158_13662" x1="169" y1="192" x2="169" y2="-4.3979e-06" gradientUnits="userSpaceOnUse"><stop stop-color="#001B29" stop-opacity="0.8"></stop><stop offset="0.39271" stop-color="#001B29" stop-opacity="0.56"></stop><stop offset="1" stop-color="#001B29" stop-opacity="0"></stop></linearGradient></defs></svg> 