<?xml version="1.0" encoding="UTF-8"?> <svg xmlns="http://www.w3.org/2000/svg" xmlns:xlink="http://www.w3.org/1999/xlink" id="Camada_1" data-name="Camada 1" viewBox="0 0 1169.39 479.16"><defs><style> .cls-1 { fill: none; } .cls-2 { clip-path: url(#clippath); } .cls-3 { fill: #fff; } .cls-4 { fill: #ffce07; } .cls-5 { fill: #cb7529; } .cls-6 { fill: url(#Gradiente_sem_nome_16); } .cls-7 { fill: url(#Gradiente_sem_nome_18); } .cls-8 { fill: url(#Gradiente_sem_nome_17); } .cls-9 { fill: url(#Gradiente_sem_nome_11); } .cls-10 { fill: url(#Gradiente_sem_nome_10); } .cls-11 { fill: url(#Gradiente_sem_nome_13); } .cls-12 { fill: url(#Gradiente_sem_nome_12); } .cls-13 { fill: url(#Gradiente_sem_nome_15); } .cls-14 { fill: url(#Gradiente_sem_nome_14); } .cls-15 { fill: url(#Gradiente_sem_nome); } .cls-15, .cls-16, .cls-17, .cls-18, .cls-19, .cls-20, .cls-21, .cls-22, .cls-23, .cls-24 { opacity: .6; } .cls-15, .cls-17, .cls-18, .cls-19, .cls-20, .cls-21, .cls-22, .cls-23, .cls-24 { isolation: isolate; } .cls-17 { fill: url(#Gradiente_sem_nome_6); } .cls-18 { fill: url(#Gradiente_sem_nome_2); } .cls-19 { fill: url(#Gradiente_sem_nome_4); } .cls-20 { fill: url(#Gradiente_sem_nome_5); } .cls-21 { fill: url(#Gradiente_sem_nome_7); } .cls-22 { fill: url(#Gradiente_sem_nome_3); } .cls-23 { fill: url(#Gradiente_sem_nome_8); } .cls-24 { fill: url(#Gradiente_sem_nome_9); } </style><clipPath id="clippath"><rect class="cls-1" width="1169.39" height="479.16"></rect></clipPath><linearGradient id="Gradiente_sem_nome" data-name="Gradiente sem nome" x1="477.32" y1="252.52" x2="528.48" y2="223.1" gradientTransform="translate(-3222.6 1770.26) scale(6.67 -6.67)" gradientUnits="userSpaceOnUse"><stop offset="0" stop-color="#fff"></stop><stop offset="1" stop-color="#000"></stop></linearGradient><linearGradient id="Gradiente_sem_nome_2" data-name="Gradiente sem nome 2" x1="1884.18" y1="243.13" x2="2481.9" y2="243.13" gradientTransform="translate(-3222.6 1770.26) scale(6.67 -6.67)" gradientUnits="userSpaceOnUse"><stop offset="0" stop-color="#fff"></stop><stop offset="1" stop-color="#000"></stop></linearGradient><linearGradient id="Gradiente_sem_nome_3" data-name="Gradiente sem nome 3" x1="516.7" y1="247.03" x2="544.01" y2="239.51" gradientTransform="translate(-3222.6 1770.26) scale(6.67 -6.67)" gradientUnits="userSpaceOnUse"><stop offset="0" stop-color="#fff"></stop><stop offset="1" stop-color="#000"></stop></linearGradient><linearGradient id="Gradiente_sem_nome_4" data-name="Gradiente sem nome 4" x1="4739.36" y1="246.12" x2="7219.93" y2="246.12" gradientTransform="translate(-3222.6 1770.26) scale(6.67 -6.67)" gradientUnits="userSpaceOnUse"><stop offset="0" stop-color="#fff"></stop><stop offset="1" stop-color="#000"></stop></linearGradient><linearGradient id="Gradiente_sem_nome_5" data-name="Gradiente sem nome 5" x1="535.39" y1="258.35" x2="582.42" y2="233.83" gradientTransform="translate(-3222.6 1770.26) scale(6.67 -6.67)" gradientUnits="userSpaceOnUse"><stop offset="0" stop-color="#fff"></stop><stop offset="1" stop-color="#000"></stop></linearGradient><linearGradient id="Gradiente_sem_nome_6" data-name="Gradiente sem nome 6" x1="7819.76" y1="243.89" x2="10513.14" y2="243.89" gradientTransform="translate(-3222.6 1770.26) scale(6.67 -6.67)" gradientUnits="userSpaceOnUse"><stop offset="0" stop-color="#fff"></stop><stop offset="1" stop-color="#000"></stop></linearGradient><linearGradient id="Gradiente_sem_nome_7" data-name="Gradiente sem nome 7" x1="574.38" y1="258.08" x2="622.11" y2="231.69" gradientTransform="translate(-3222.6 1770.26) scale(6.67 -6.67)" gradientUnits="userSpaceOnUse"><stop offset="0" stop-color="#fff"></stop><stop offset="1" stop-color="#000"></stop></linearGradient><linearGradient id="Gradiente_sem_nome_8" data-name="Gradiente sem nome 8" x1="12508.51" y1="240.08" x2="16296.45" y2="240.08" gradientTransform="translate(-3222.6 1770.26) scale(6.67 -6.67)" gradientUnits="userSpaceOnUse"><stop offset="0" stop-color="#fff"></stop><stop offset="1" stop-color="#000"></stop></linearGradient><linearGradient id="Gradiente_sem_nome_9" data-name="Gradiente sem nome 9" x1="611.58" y1="256.59" x2="664.32" y2="223.18" gradientTransform="translate(-3222.6 1770.26) scale(6.67 -6.67)" gradientUnits="userSpaceOnUse"><stop offset="0" stop-color="#fff"></stop><stop offset="1" stop-color="#000"></stop></linearGradient><linearGradient id="Gradiente_sem_nome_10" data-name="Gradiente sem nome 10" x1="502.04" y1="258.03" x2="504.27" y2="229.84" gradientTransform="translate(-3222.6 1770.26) scale(6.67 -6.67)" gradientUnits="userSpaceOnUse"><stop offset="0" stop-color="#fff"></stop><stop offset="1" stop-color="#ffce07"></stop></linearGradient><linearGradient id="Gradiente_sem_nome_11" data-name="Gradiente sem nome 11" x1="644.89" y1="-411.14" x2="1015.56" y2="-2545.09" gradientTransform="translate(-3222.6 1770.26) scale(6.67 -6.67)" gradientUnits="userSpaceOnUse"><stop offset="0" stop-color="#fff"></stop><stop offset="1" stop-color="#ffce07"></stop></linearGradient><linearGradient id="Gradiente_sem_nome_12" data-name="Gradiente sem nome 12" x1="528.28" y1="260.66" x2="532.53" y2="235.44" gradientTransform="translate(-3222.6 1770.26) scale(6.67 -6.67)" gradientUnits="userSpaceOnUse"><stop offset="0" stop-color="#fff"></stop><stop offset="1" stop-color="#ffce07"></stop></linearGradient><linearGradient id="Gradiente_sem_nome_13" data-name="Gradiente sem nome 13" x1="611.81" y1="-413.36" x2="784.02" y2="-2560.73" gradientTransform="translate(-3222.6 1770.26) scale(6.67 -6.67)" gradientUnits="userSpaceOnUse"><stop offset="0" stop-color="#fff"></stop><stop offset="1" stop-color="#ffce07"></stop></linearGradient><linearGradient id="Gradiente_sem_nome_14" data-name="Gradiente sem nome 14" x1="557.59" y1="262.58" x2="559.57" y2="237.24" gradientTransform="translate(-3222.6 1770.26) scale(6.67 -6.67)" gradientUnits="userSpaceOnUse"><stop offset="0" stop-color="#fff"></stop><stop offset="1" stop-color="#ffce07"></stop></linearGradient><linearGradient id="Gradiente_sem_nome_15" data-name="Gradiente sem nome 15" x1="653.35" y1="-433.57" x2="835.26" y2="-2642.18" gradientTransform="translate(-3222.6 1770.26) scale(6.67 -6.67)" gradientUnits="userSpaceOnUse"><stop offset="0" stop-color="#fff"></stop><stop offset="1" stop-color="#ffce07"></stop></linearGradient><linearGradient id="Gradiente_sem_nome_16" data-name="Gradiente sem nome 16" x1="596.13" y1="261.56" x2="598.22" y2="235.49" gradientTransform="translate(-3222.6 1770.26) scale(6.67 -6.67)" gradientUnits="userSpaceOnUse"><stop offset="0" stop-color="#fff"></stop><stop offset="1" stop-color="#ffce07"></stop></linearGradient><linearGradient id="Gradiente_sem_nome_17" data-name="Gradiente sem nome 17" x1="691.44" y1="-483.19" x2="866.26" y2="-2841.44" gradientTransform="translate(-3222.6 1770.26) scale(6.67 -6.67)" gradientUnits="userSpaceOnUse"><stop offset="0" stop-color="#fff"></stop><stop offset="1" stop-color="#ffce07"></stop></linearGradient><linearGradient id="Gradiente_sem_nome_18" data-name="Gradiente sem nome 18" x1="636.42" y1="259.35" x2="638.43" y2="231.51" gradientTransform="translate(-3222.6 1770.26) scale(6.67 -6.67)" gradientUnits="userSpaceOnUse"><stop offset="0" stop-color="#fff"></stop><stop offset="1" stop-color="#ffce07"></stop></linearGradient></defs><g class="cls-2"><g><path class="cls-5" d="m253.88,181.23c9.26,24.37,8.31,46.19-3.16,65.55-10.53,18.16-27.9,30.77-52.1,37.84-10.9,3.15-23.88,6.31-38.61,9.46l-19.52,3.91-19.49,3.85h-.19l-59.11,11.82L0,72.77l80.69-18.7c17.59-3.62,35.41-6,53.33-7.13,20.47-1.36,37.28,0,50.3,3.63,34.18,9.38,41.27,33.82,21.26,73.34-2.39,4.74-5.28,9.21-8.62,13.34,28.39,3.78,47.37,18.45,56.93,43.98Zm-146.46-31.66c7.84-1.64,14.97-5.71,20.35-11.63,2.08-2.23,3.67-4.89,4.65-7.78.98-2.89,1.33-5.96,1.04-9-.36-2.92-1.49-5.7-3.28-8.04-1.79-2.34-4.16-4.17-6.89-5.3-6.95-3.15-15.99-3.72-27.42-1.23l11.56,42.98Zm57.78,90.05c3.03-2.65,5.51-5.86,7.3-9.46,1.68-3.63,1.85-7.78.47-11.54-3.16-8.07-10.9-13.15-22.68-15.1-5.03-.8-10.14-1.02-15.23-.63-4.17,0-8.62.5-13.46,1.1l12.04,44.9c0,.44,2.75.38,8.34-.44,1.96-.35,3.95-.54,5.91-.88,1.96-.35,2.97-.6,3.41-.73,4.43-.95,8.58-2.88,12.16-5.64l1.74-1.58Z"></path><path class="cls-5" d="m283.95,269.87l-28.43-232.47,93.29-8.51,18.96,232.1-83.81,8.89Z"></path><path class="cls-5" d="m615.39,255.4l-219.06,3.5v-18.6l82.14-127.13-90.99,7.85.92-74.54L609.73,0v18.6l-69.19,149.11,73.23-4.57,1.61,92.26Z"></path><path class="cls-5" d="m858.4,271.51l-217.99-20.12v-18.6l96.26-116.13-90.38-3.15V24.53l232.3-7.41v18.6l-85.11,140.63,73.29,3.37-8.37,91.78Z"></path><path class="cls-5" d="m995.42,299.19c-18.07-2.92-35.37-9.47-50.86-19.23-14.41-9.01-26.82-20.86-36.46-34.84-9.77-14.19-16.36-30.31-19.33-47.27-2.96-16.96-2.23-34.36,2.14-51.01,4.4-17.66,12.45-34.22,23.63-48.59,16.85-22.02,39.36-39.06,65.16-49.3,25.78-10.25,53.88-13.31,81.27-8.87,18.09,2.92,35.41,9.46,50.9,19.23,14.49,8.94,26.96,20.83,36.58,34.87,9.55,13.86,16.01,29.6,18.96,46.16,3.18,17.26,2.53,35.01-1.9,51.99-4.44,17.64-12.43,34.18-23.5,48.62-11.02,14.47-24.56,26.83-39.97,36.51-31.52,20.42-69.61,28.19-106.63,21.72Zm-20.65-137.44c-1.8,6.6-2.13,13.5-.97,20.24,1.16,6.74,3.77,13.14,7.66,18.76,4.02,5.76,9.17,10.64,15.15,14.34,5.98,3.7,12.65,6.14,19.6,7.17,14.75,2.6,29.92-.5,42.46-8.67,6.24-3.67,11.69-8.54,16.03-14.32,4.34-5.79,7.48-12.37,9.25-19.38,1.81-6.62,2.13-13.56.91-20.31-1.21-6.75-3.92-13.15-7.93-18.73-3.93-5.84-9.06-10.78-15.05-14.49-6-3.71-12.71-6.1-19.7-7.01-14.73-2.57-29.9.53-42.46,8.67-12.46,7.51-21.43,19.64-24.95,33.74Z"></path><g class="cls-16"><path class="cls-15" d="m253.88,181.23c9.26,24.37,8.31,46.19-3.16,65.55-10.53,18.16-27.9,30.77-52.1,37.84-10.9,3.15-23.88,6.31-38.61,9.46l-19.52,3.91-19.49,3.85h-.19l-59.11,11.82L0,72.77l80.69-18.7c17.59-3.62,35.41-6,53.33-7.13,20.47-1.36,37.28,0,50.3,3.63,34.18,9.38,41.27,33.82,21.26,73.34-2.39,4.74-5.28,9.21-8.62,13.34,28.39,3.78,47.37,18.45,56.93,43.98Zm-146.46-31.66c7.84-1.64,14.97-5.71,20.35-11.63,2.08-2.23,3.67-4.89,4.65-7.78.98-2.89,1.33-5.96,1.04-9-.36-2.92-1.49-5.7-3.28-8.04-1.79-2.34-4.16-4.17-6.89-5.3-6.95-3.15-15.99-3.72-27.42-1.23l11.56,42.98Zm57.78,90.05c3.03-2.65,5.51-5.86,7.3-9.46,1.68-3.63,1.85-7.78.47-11.54-3.16-8.07-10.9-13.15-22.68-15.1-5.03-.8-10.14-1.02-15.23-.63-4.17,0-8.62.5-13.46,1.1l12.04,44.9c0,.44,2.75.38,8.34-.44,1.96-.35,3.95-.54,5.91-.88,1.96-.35,2.97-.6,3.41-.73,4.43-.95,8.58-2.88,12.16-5.64l1.74-1.58Z"></path><g class="cls-16"><path class="cls-18" d="m283.95,269.87l-28.43-232.47,93.29-8.51,18.96,232.1-83.81,8.89Z"></path><path class="cls-22" d="m283.95,269.87l-28.43-232.47,93.29-8.51,18.96,232.1-83.81,8.89Z"></path></g><g class="cls-16"><path class="cls-19" d="m615.4,255.4l-219.06,3.5v-18.6l82.14-127.13-90.99,7.85,13.17-62.78-13.84-38.94L609.74,0v18.6l-69.19,149.11,73.23-4.57,1.61,92.26Z"></path><path class="cls-20" d="m615.4,255.4l-219.06,3.5v-18.6l82.14-127.13-90.99,7.85,13.17-62.78-13.84-38.94L609.74,0v18.6l-69.19,149.11,73.23-4.57,1.61,92.26Z"></path></g><g class="cls-16"><path class="cls-17" d="m858.4,271.51l-217.99-20.12v-18.6l96.26-116.13-90.38-3.15V24.53l232.3-7.41v18.6l-85.11,140.63,73.29,3.37-8.37,91.78Z"></path><path class="cls-21" d="m858.4,271.51l-217.99-20.12v-18.6l96.26-116.13-90.38-3.15V24.53l232.3-7.41v18.6l-85.11,140.63,73.29,3.37-8.37,91.78Z"></path></g><g class="cls-16"><path class="cls-23" d="m995.42,299.19c-18.07-2.92-35.37-9.47-50.86-19.23-14.41-9.01-26.82-20.86-36.46-34.84-9.77-14.19-16.36-30.31-19.33-47.27-2.96-16.96-2.23-34.36,2.14-51.01,4.4-17.66,12.45-34.22,23.63-48.59,16.85-22.02,39.36-39.06,65.16-49.3,25.78-10.25,53.88-13.31,81.27-8.87,18.09,2.92,35.41,9.46,50.9,19.23,14.49,8.94,26.96,20.83,36.58,34.87,9.55,13.86,16.01,29.6,18.96,46.16,3.18,17.26,2.53,35.01-1.9,51.99-4.44,17.64-12.43,34.18-23.5,48.62-11.02,14.47-24.56,26.83-39.97,36.51-31.52,20.42-69.61,28.19-106.63,21.72Zm-20.65-137.44c-1.8,6.6-2.13,13.5-.97,20.24,1.16,6.74,3.77,13.14,7.66,18.76,4.02,5.76,9.17,10.64,15.15,14.34,5.98,3.7,12.65,6.14,19.6,7.17,14.75,2.6,29.92-.5,42.46-8.67,6.24-3.67,11.69-8.54,16.03-14.32,4.34-5.79,7.48-12.37,9.25-19.38,1.81-6.62,2.13-13.56.91-20.31-1.21-6.75-3.92-13.15-7.93-18.73-3.93-5.84-9.06-10.78-15.05-14.49-6-3.71-12.71-6.1-19.7-7.01-14.73-2.57-29.9.53-42.46,8.67-12.46,7.51-21.43,19.64-24.95,33.74Z"></path><path class="cls-24" d="m995.42,299.19c-18.07-2.92-35.37-9.47-50.86-19.23-14.41-9.01-26.82-20.86-36.46-34.84-9.77-14.19-16.36-30.31-19.33-47.27-2.96-16.96-2.23-34.36,2.14-51.01,4.4-17.66,12.45-34.22,23.63-48.59,16.85-22.02,39.36-39.06,65.16-49.3,25.78-10.25,53.88-13.31,81.27-8.87,18.09,2.92,35.41,9.46,50.9,19.23,14.49,8.94,26.96,20.83,36.58,34.87,9.55,13.86,16.01,29.6,18.96,46.16,3.18,17.26,2.53,35.01-1.9,51.99-4.44,17.64-12.43,34.18-23.5,48.62-11.02,14.47-24.56,26.83-39.97,36.51-31.52,20.42-69.61,28.19-106.63,21.72Zm-20.65-137.44c-1.8,6.6-2.13,13.5-.97,20.24,1.16,6.74,3.77,13.14,7.66,18.76,4.02,5.76,9.17,10.64,15.15,14.34,5.98,3.7,12.65,6.14,19.6,7.17,14.75,2.6,29.92-.5,42.46-8.67,6.24-3.67,11.69-8.54,16.03-14.32,4.34-5.79,7.48-12.37,9.25-19.38,1.81-6.62,2.13-13.56.91-20.31-1.21-6.75-3.92-13.15-7.93-18.73-3.93-5.84-9.06-10.78-15.05-14.49-6-3.71-12.71-6.1-19.7-7.01-14.73-2.57-29.9.53-42.46,8.67-12.46,7.51-21.43,19.64-24.95,33.74Z"></path></g></g><path class="cls-3" d="m344.8,455.68c-14.53,11.11-32.79,16.23-50.99,14.28-9.17-.94-18.08-3.64-26.22-7.95-7.72-4.12-14.61-9.64-20.31-16.27-5.66-6.52-9.96-14.1-12.64-22.29-2.74-8.36-3.65-17.21-2.65-25.95.95-8.71,3.72-17.13,8.12-24.72,4.35-7.42,10.11-13.93,16.96-19.14,14.33-11.14,32.51-16.16,50.55-13.94,15.66,1.49,30.35,8.24,41.67,19.14l-17.34,26.49c-4.81-3.77-10.6-6.08-16.68-6.65-7.83-1.04-15.76,1-22.11,5.68-3.05,2.05-5.62,4.74-7.52,7.89-1.9,3.14-3.09,6.66-3.49,10.32-.4,3.65,0,7.35,1.19,10.82,1.18,3.48,3.11,6.66,5.65,9.31,5.13,5.54,12.02,9.14,19.51,10.19,7.49,1.05,15.11-.53,21.56-4.45l14.75,27.24Z"></path><path class="cls-3" d="m390.45,476.39l-44.7-14.82,65.68-128.8,74.71,122.97-33.71,21.79-10.77-20.59-43.6-1.04-7.61,20.5Zm36.05-48.27l-10.52-20.02-7.14,19.27,17.66.76Z"></path><path class="cls-3" d="m552.55,342.35l-9.98,28.98c-10.4-3.56-17.22-3.15-20.32,1.45-4.17,5.8-.6,12.61,10.52,20.49,4.91,3.46,10.02,6.62,15.32,9.46l1.9,1.07,1.67.88c1.42.76,2.49,1.39,3.16,1.77,2.18,1.26,3.79,2.27,4.77,2.93,6.83,4.55,11.76,11.44,13.87,19.36,1.98,7.68,1.23,15.8-2.12,22.98-3.05,7.3-7.96,13.67-14.25,18.48-7.68,5.24-16.65,8.29-25.94,8.83-7.04.43-14.09-.25-20.92-2.02-7.25-1.68-14.36-3.88-21.29-6.59l16.3-28.76c4.22,3.19,9.39,4.88,14.69,4.79,4.33-.38,6.07-2.96,5.15-7.66-.71-3.18-2.4-6.06-4.83-8.23-3.38-2.9-7.12-5.34-11.15-7.25l-3.48-1.77-3.48-1.8c-2.81-1.45-5.24-2.74-7.14-3.88-11.88-6.94-19.18-15.77-21.83-26.3-2.29-8.93-1.16-18.4,3.16-26.55,4.22-8.06,10.98-14.5,19.24-18.32,11.42-5.42,24.08-7.68,36.68-6.56,6.92.51,13.74,1.92,20.28,4.19Z"></path><path class="cls-3" d="m580.92,469.52l-1.36-126.69,46.28.88-3.16,125.93-41.76-.13Z"></path><path class="cls-3" d="m637,473.8l-.83-119.34,75,43.26-3.5-52.34,50.26-2.71,4.24,129.72-78.44-36.1,1.45,37.37-48.17.16Z"></path><path class="cls-3" d="m828.67,473.91c-9.14-.65-18.05-3.11-26.22-7.25-7.55-3.88-14.23-9.24-19.65-15.76-5.47-6.64-9.45-14.38-11.65-22.7-2.21-8.31-2.6-17-1.14-25.48,1.44-8.99,4.74-17.58,9.7-25.22,7.45-11.67,17.92-21.1,30.32-27.29,12.4-6.19,26.25-8.91,40.06-7.86,9.13.69,18.03,3.21,26.16,7.41,7.59,3.84,14.3,9.21,19.71,15.77,5.33,6.47,9.23,13.99,11.44,22.07,2.31,8.49,2.75,17.37,1.29,26.04-1.46,8.98-4.73,17.56-9.63,25.22-4.89,7.65-11.1,14.37-18.36,19.83-14.81,11.43-33.38,16.87-52.03,15.23Zm-16.14-67.54c-.62,3.36-.49,6.81.38,10.11.87,3.3,2.46,6.37,4.65,9,2.23,2.71,5.02,4.94,8.16,6.53,3.14,1.59,6.57,2.51,10.1,2.71,7.45.65,14.86-1.54,20.76-6.12,2.95-2.09,5.46-4.74,7.36-7.81,1.91-3.06,3.19-6.48,3.76-10.04.62-3.38.47-6.85-.42-10.16-.91-3.31-2.54-6.38-4.79-8.98-2.2-2.74-4.96-4.98-8.08-6.57-3.13-1.59-6.57-2.5-10.08-2.67-7.46-.63-14.87,1.56-20.8,6.12-5.88,4.28-9.83,10.71-10.99,17.88Z"></path><path class="cls-4" d="m253.88,162.64c9.26,24.37,8.31,46.19-3.16,65.55-10.53,18.16-27.9,30.77-52.1,37.84-10.9,3.15-23.88,6.31-38.61,9.46l-19.52,3.91-19.52,3.78h-.19l-59.08,11.89L0,54.2l80.69-18.73c17.59-3.57,35.41-5.94,53.33-7.09,20.47-1.36,37.28,0,50.3,3.66,34.18,9.33,41.27,33.78,21.26,73.34-2.4,4.72-5.29,9.18-8.62,13.31,28.39,3.76,47.37,18.41,56.93,43.95Zm-146.46-31.62c7.85-1.64,14.97-5.73,20.35-11.67,2.08-2.23,3.67-4.88,4.65-7.78.98-2.89,1.33-5.96,1.04-9-.37-2.92-1.5-5.69-3.29-8.04-1.79-2.34-4.16-4.17-6.89-5.3-6.95-3.15-15.99-3.69-27.42-1.23l11.56,43.01Zm57.78,89.92c3.03-2.65,5.51-5.86,7.3-9.46,1.68-3.63,1.85-7.78.47-11.54-3.16-8.04-10.9-13.15-22.68-15.1-5.03-.79-10.14-1-15.23-.63-4.17,0-8.62.5-13.46,1.13,7.93,30.05,12.04,44.84,12.04,44.84,0,0,2.75.38,8.34-.44,1.96-.35,3.95-.54,5.91-.88,1.15-.17,2.29-.41,3.41-.72,4.42-.94,8.58-2.86,12.16-5.61l1.74-1.58Z"></path><path class="cls-4" d="m284.34,254.93l-28.69-236,92.31-8.36,19.33,235.69-82.96,8.67Z"></path><path class="cls-4" d="m615.39,236.73l-219.06,3.5,82.14-145.7-90.98,7.82-9.83-88.28L609.74,0l-69.19,149.11,73.23-4.57,1.61,92.2Z"></path><path class="cls-4" d="m858.4,252.94l-217.99-20.15,97.21-135.99-91.33-2.02V5.77l232.3,11.19-85.11,140.69,73.29,3.34-8.37,91.94Z"></path><path class="cls-4" d="m995.42,280.62c-18.05-2.96-35.32-9.5-50.8-19.23-14.4-9.03-26.81-20.89-36.46-34.87-9.78-14.18-16.38-30.3-19.37-47.26-2.98-16.96-2.25-34.36,2.12-51.02,4.4-17.66,12.45-34.21,23.63-48.59,10.95-14.46,24.45-26.8,39.84-36.42,31.49-20.45,69.58-28.22,106.59-21.76,18.09,2.93,35.4,9.47,50.9,19.23,14.45,9,26.88,20.91,36.45,34.97,9.55,13.86,16.01,29.6,18.96,46.16,3.2,17.3,2.56,35.09-1.86,52.12-4.44,17.63-12.43,34.16-23.5,48.59-11.02,14.38-24.52,26.68-39.87,36.32-31.52,20.42-69.6,28.19-106.63,21.76Zm-20.66-137.47c-1.79,6.6-2.12,13.51-.96,20.25,1.16,6.74,3.77,13.15,7.66,18.78,4.02,5.76,9.17,10.64,15.15,14.34,5.98,3.7,12.65,6.14,19.6,7.17,14.75,2.57,29.92-.54,42.46-8.7,6.24-3.66,11.69-8.53,16.03-14.32,4.35-5.79,7.48-12.38,9.25-19.39,1.81-6.62,2.12-13.56.91-20.31-1.21-6.75-3.92-13.15-7.93-18.73-3.93-5.84-9.06-10.78-15.05-14.49-6-3.71-12.71-6.1-19.7-7.01-14.73-2.53-29.9.56-42.46,8.67-12.46,7.51-21.43,19.64-24.96,33.74Z"></path><g><path class="cls-10" d="m253.88,162.64c9.26,24.37,8.31,46.19-3.16,65.55-10.53,18.16-27.9,30.77-52.1,37.84-10.9,3.15-23.88,6.31-38.61,9.46l-19.52,3.91-19.52,3.78h-.19l-59.08,11.89L0,54.2l80.69-18.73c17.59-3.57,35.41-5.94,53.33-7.09,20.47-1.36,37.28,0,50.3,3.66,34.18,9.33,41.27,33.78,21.26,73.34-2.4,4.72-5.29,9.18-8.62,13.31,28.39,3.76,47.37,18.41,56.93,43.95Zm-146.46-31.62c7.85-1.64,14.97-5.73,20.35-11.67,2.08-2.23,3.67-4.88,4.65-7.78.98-2.89,1.33-5.96,1.04-9-.37-2.92-1.5-5.69-3.29-8.04-1.79-2.34-4.16-4.17-6.89-5.3-6.95-3.15-15.99-3.69-27.42-1.23l11.56,43.01Zm57.78,89.92c3.03-2.65,5.51-5.86,7.3-9.46,1.68-3.63,1.85-7.78.47-11.54-3.16-8.04-10.9-13.15-22.68-15.1-5.03-.79-10.14-1-15.23-.63-4.17,0-8.62.5-13.46,1.13,7.93,30.05,12.04,44.84,12.04,44.84,0,0,2.75.38,8.34-.44,1.96-.35,3.95-.54,5.91-.88,1.15-.17,2.29-.41,3.41-.72,4.42-.94,8.58-2.86,12.16-5.61l1.74-1.58Z"></path><g><path class="cls-9" d="m284.34,254.93l-28.69-236,92.31-8.36,19.33,235.69-82.96,8.67Z"></path><path class="cls-12" d="m284.34,254.93l-28.69-236,92.31-8.36,19.33,235.69-82.96,8.67Z"></path></g><g><path class="cls-11" d="m615.39,236.73l-219.06,3.5,82.14-145.7-90.98,7.82-9.83-88.28L609.74,0l-69.19,149.11,73.23-4.57,1.61,92.2Z"></path><path class="cls-14" d="m615.39,236.73l-219.06,3.5,82.14-145.7-90.98,7.82-9.83-88.28L609.74,0l-69.19,149.11,73.23-4.57,1.61,92.2Z"></path></g><g><path class="cls-13" d="m858.4,252.94l-217.99-20.15,97.21-135.99-91.33-2.02V5.77l232.3,11.19-85.11,140.69,73.29,3.34-8.37,91.94Z"></path><path class="cls-6" d="m858.4,252.94l-217.99-20.15,97.21-135.99-91.33-2.02V5.77l232.3,11.19-85.11,140.69,73.29,3.34-8.37,91.94Z"></path></g><g><path class="cls-8" d="m995.42,280.62c-18.05-2.96-35.32-9.5-50.8-19.23-14.4-9.03-26.81-20.89-36.46-34.87-9.78-14.18-16.38-30.3-19.37-47.26-2.98-16.96-2.25-34.36,2.12-51.02,4.4-17.66,12.45-34.21,23.63-48.59,10.95-14.46,24.45-26.8,39.84-36.42,31.49-20.45,69.58-28.22,106.59-21.76,18.09,2.93,35.4,9.47,50.9,19.23,14.45,9,26.88,20.91,36.45,34.97,9.55,13.86,16.01,29.6,18.96,46.16,3.2,17.3,2.56,35.09-1.86,52.12-4.44,17.63-12.43,34.16-23.5,48.59-11.02,14.38-24.52,26.68-39.87,36.32-31.52,20.42-69.6,28.19-106.63,21.76Zm-20.66-137.47c-1.79,6.6-2.12,13.51-.96,20.25,1.16,6.74,3.77,13.15,7.66,18.78,4.02,5.76,9.17,10.64,15.15,14.34,5.98,3.7,12.65,6.14,19.6,7.17,14.75,2.57,29.92-.54,42.46-8.7,6.24-3.66,11.69-8.53,16.03-14.32,4.35-5.79,7.48-12.38,9.25-19.39,1.81-6.62,2.12-13.56.91-20.31-1.21-6.75-3.92-13.15-7.93-18.73-3.93-5.84-9.06-10.78-15.05-14.49-6-3.71-12.71-6.1-19.7-7.01-14.73-2.53-29.9.56-42.46,8.67-12.46,7.51-21.43,19.64-24.96,33.74Z"></path><path class="cls-7" d="m995.42,280.62c-18.05-2.96-35.32-9.5-50.8-19.23-14.4-9.03-26.81-20.89-36.46-34.87-9.78-14.18-16.38-30.3-19.37-47.26-2.98-16.96-2.25-34.36,2.12-51.02,4.4-17.66,12.45-34.21,23.63-48.59,10.95-14.46,24.45-26.8,39.84-36.42,31.49-20.45,69.58-28.22,106.59-21.76,18.09,2.93,35.4,9.47,50.9,19.23,14.45,9,26.88,20.91,36.45,34.97,9.55,13.86,16.01,29.6,18.96,46.16,3.2,17.3,2.56,35.09-1.86,52.12-4.44,17.63-12.43,34.16-23.5,48.59-11.02,14.38-24.52,26.68-39.87,36.32-31.52,20.42-69.6,28.19-106.63,21.76Zm-20.66-137.47c-1.79,6.6-2.12,13.51-.96,20.25,1.16,6.74,3.77,13.15,7.66,18.78,4.02,5.76,9.17,10.64,15.15,14.34,5.98,3.7,12.65,6.14,19.6,7.17,14.75,2.57,29.92-.54,42.46-8.7,6.24-3.66,11.69-8.53,16.03-14.32,4.35-5.79,7.48-12.38,9.25-19.39,1.81-6.62,2.12-13.56.91-20.31-1.21-6.75-3.92-13.15-7.93-18.73-3.93-5.84-9.06-10.78-15.05-14.49-6-3.71-12.71-6.1-19.7-7.01-14.73-2.53-29.9.56-42.46,8.67-12.46,7.51-21.43,19.64-24.96,33.74Z"></path></g></g><path class="cls-3" d="m978.86,363.2l11.19,22.61c.08.15.18.27.31.37.13.1.29.17.45.2l24.99,3.63c.18.03.35.11.49.23.14.12.25.28.31.45s.07.36.03.55c-.04.18-.13.35-.26.48l-18.04,17.59c-.12.11-.2.25-.25.41-.05.15-.06.32-.03.48l4.27,24.85c.04.19.02.38-.05.55-.07.18-.19.33-.34.44-.15.11-.34.17-.53.18-.19,0-.38-.04-.54-.13l-22.34-11.73c-.14-.08-.31-.12-.47-.12s-.33.04-.47.12l-22.37,11.73c-.16.1-.35.14-.54.13-.19,0-.37-.07-.53-.18s-.27-.26-.34-.44c-.07-.18-.08-.37-.05-.55l4.29-24.85c.02-.16,0-.33-.05-.48-.06-.15-.15-.29-.27-.4l-18.07-17.59c-.14-.13-.24-.29-.29-.47-.05-.18-.05-.37.01-.55.05-.18.16-.34.31-.46.14-.12.32-.2.51-.22l25.02-3.63c.16-.03.31-.1.44-.2.13-.1.24-.23.32-.37l11.18-22.61c.08-.15.21-.28.36-.36.15-.09.32-.13.49-.13s.34.05.49.13c.15.09.27.21.36.36Z"></path><path class="cls-3" d="m152.68,363.19l11.18,22.61c.07.15.18.27.31.37.13.1.28.17.45.2l24.93,3.63c.18.03.35.11.49.24.14.12.24.28.3.45.06.18.06.36.02.54-.04.18-.13.34-.26.47l-18.1,17.59c-.11.12-.19.26-.24.41-.05.15-.06.31-.04.47l4.36,24.94c.03.18.01.37-.05.54-.07.17-.18.32-.33.43-.15.11-.32.17-.51.19s-.37-.03-.53-.11l-22.37-11.73c-.15-.08-.31-.12-.47-.12s-.33.04-.47.12l-22.37,11.73c-.16.09-.35.12-.53.11-.18-.01-.36-.08-.51-.19-.15-.11-.26-.26-.33-.43-.07-.17-.09-.36-.05-.54l4.27-24.85c.03-.16.01-.32-.03-.48-.05-.15-.13-.29-.25-.41l-18.1-17.59c-.13-.13-.22-.3-.26-.48-.04-.18-.03-.37.03-.55.06-.18.17-.33.31-.45.14-.12.31-.2.5-.23l25.02-3.72c.16-.03.31-.1.45-.2.13-.1.24-.23.31-.37l11.18-22.61c.08-.16.21-.29.36-.38.15-.09.33-.14.51-.14s.35.05.51.14c.15.09.28.23.36.38Z"></path></g></g></svg> 