<?xml version="1.0" encoding="UTF-8"?> <svg xmlns="http://www.w3.org/2000/svg" id="Camada_1" data-name="Camada 1" viewBox="0 0 565.62 161.02"><defs><style> .cls-1 { fill: #e60881; } </style></defs><g><path class="cls-1" d="m32.81,96.1c-1.27,0-2.54-.38-3.68-1.15L3.68,77.87c-2.28-1.52-3.68-4.35-3.68-7.4v-34.16c0-3.05,1.4-5.88,3.68-7.4L29.13,11.83c2.28-1.53,5.08-1.53,7.36,0l25.46,17.08c2.28,1.53,3.68,4.35,3.68,7.4v34.16c0,3.06-1.41,5.88-3.68,7.4l-25.46,17.08c-1.14.77-2.41,1.15-3.68,1.15"></path><g><g><path d="m501.45,47.12h-9.36s-1.14,0-1.14.01l-16.1,30.27v-30.28h-9.37v87.03h9.37v-37.22l2.91-5.46,14.33,42.69v.02h9.36v-.02l-17.94-53.45,17.94-33.58h0Z"></path><path d="m137.69,58c-2.58,0-4.68,2.44-4.68,5.44v54.4c0,3,2.1,5.44,4.68,5.44h7.43c2.58,0,4.68-2.44,4.68-5.44v-54.4c0-3-2.1-5.44-4.68-5.44h-7.43Zm7.43,76.16h-7.43c-7.75,0-14.05-7.32-14.05-16.32v-54.4c0-9,6.3-16.32,14.05-16.32h7.43c7.75,0,14.05,7.32,14.05,16.32v54.4c0,9-6.3,16.32-14.05,16.32"></path><path d="m115.18,70.99v-7.55c0-9-6.3-16.32-14.05-16.32h-7.43c-7.75,0-14.05,7.32-14.05,16.32v54.4c0,9,6.3,16.32,14.05,16.32h7.43c7.75,0,14.05-7.32,14.05-16.32v-32.62h-15.19v10.83h5.83v21.79c0,3-2.1,5.44-4.69,5.44h-7.43c-2.58,0-4.68-2.44-4.68-5.44v-54.4c0-3,2.1-5.44,4.68-5.44h7.43c2.58,0,4.69,2.44,4.69,5.44v7.55h9.36Z"></path><path d="m195.79,123.29h-14.11c-2.58,0-4.69-2.44-4.69-5.44V47.12h-9.36v70.72c0,9,6.3,16.32,14.05,16.32h14.11v-10.88Z"></path><path d="m228.37,117.85c0,3-2.1,5.44-4.68,5.44h-12.12V58h12.12c2.58,0,4.68,2.44,4.68,5.44v54.4Zm-4.68-70.72h-12.12s-9.36,0-9.36,0v87.07h9.36v-.02h12.12c7.75,0,14.05-7.32,14.05-16.32v-54.4c0-9-6.3-16.32-14.05-16.32"></path><path d="m261.12,58h18.18v-10.88h-18.18c-7.75,0-14.05,7.32-14.05,16.32v54.4c0,9,6.3,16.32,14.05,16.32h18.18v-10.88h-18.18c-2.58,0-4.68-2.44-4.68-5.44v-21.79h19.05v-10.83h-19.05v-21.78c0-3,2.1-5.44,4.68-5.44"></path><path d="m359.65,79.73c0,3-2.1,5.44-4.68,5.44h-12.12v-27.17h12.12c2.58,0,4.68,2.44,4.68,5.44v16.29Zm9.36-5.97v-10.31c0-9-6.3-16.32-14.05-16.32h-21.48v87.06h9.36v-38.13h12.12c7.74,0,14.04-7.32,14.04-16.32v-3.58h0s0-12.72,0-2.39"></path><path d="m385.04,85.23v-21.78c0-3,2.1-5.44,4.68-5.44h7.44c2.58,0,4.68,2.44,4.68,5.44v21.78h-16.8Zm12.12-38.1h-7.44c-7.75,0-14.04,7.32-14.04,16.32v70.72h9.36v-38.11h16.8v38.11h9.36V63.46c0-9-6.3-16.32-14.05-16.32"></path><path d="m429.95,58h12.12c2.58,0,4.68,2.44,4.68,5.44v16.29c0,3-2.1,5.44-4.68,5.44h-12.12v-27.17Zm15.34,37.6c6.19-1.7,10.82-8.16,10.82-15.87v-16.29c0-9-6.3-16.32-14.04-16.32h-12.12s-9.36,0-9.36,0v87.07h9.36v-38.14h6.13l12.62,38.12h0s9.37.01,9.37.01h0s-12.78-38.59-12.78-38.59Z"></path><path d="m512.47,48.37c-.3,0-.54.28-.54.62v9.25c0,.34.24.63.54.63h6.1c.29,0,.53-.28.53-.63v-9.25c0-.34-.24-.62-.53-.62h-6.1Zm6.1,11.74h-6.1c-.89,0-1.61-.84-1.61-1.87v-9.25c0-1.03.72-1.87,1.61-1.87h6.1c.89,0,1.61.84,1.61,1.87v9.25c0,1.03-.72,1.87-1.61,1.87"></path><path d="m514.79,50.29h1.24c.26,0,.48.25.48.55v1.66c0,.3-.21.55-.48.55h-1.24v-2.76Zm1.56,3.83c.63-.18,1.1-.83,1.1-1.62v-1.66c0-.92-.64-1.66-1.43-1.66h-2.19v8.87h0s.95,0,.95,0v-3.89h.63l1.28,3.88h0s.96,0,.96,0h0s-1.31-3.93-1.31-3.93Z"></path></g><polygon points="314.68 47.12 314.68 103.02 297.88 47.12 288.52 47.12 288.52 134.17 297.88 134.17 297.88 78.28 314.68 134.17 314.68 134.18 324.04 134.18 324.04 134.17 324.04 47.12 314.68 47.12"></polygon><path d="m519.9,129.05c0-2.69-2.11-5.08-4.52-5.08-2.62,0-4.52,2.39-4.52,5.08,0,2.93,1.9,5.13,4.52,5.13,2.42,0,4.52-2.21,4.52-5.13"></path></g></g><g><g><path d="m562.08,123.78c.93.11,1.38-.44,2.78-2.52.09-.13.33-.11.44.04l.24.37s.14.34.14.36c.29.86.23,2.19.13,2.38-2.05,4.07-4.07,7.41-8.22,7-4.14-.4-3.79-7.73-3.42-12.59.09-1.24.54-5.36.74-6.58l.89-6.6-4.39,1c-.32.1-.62-.25-.56-.62l.48-3.41c.03-.2.16-.37.33-.42l4.71-1.09,2.48-13.88c.05-.48.33-.89.72-1.07l3.82-1.75c.52-.24,1.06.26.99.9-.55,4.75-1.8,9.83-2.26,14.44l5.05-1.15c.3-.09.58.2.56.55l-.24,3.37c-.02.23-.2.5-.39.55l-4.92,1.11c-1.66,9.64-1.96,12.78-1.79,14.98.14,1.81.54,4.46,1.69,4.6Z"></path><path d="m541.41,125.76c1.53,1.02,5.35.53,9.15-2.76,3.81-3.28,3.87-5.6,3.87-5.6l.87,3.25s-3.82,5.9-8.41,8.57c-1.8,1.05-3.86,1.34-5.83.9l-2.61-.58,2.96-3.78Z"></path></g><path d="m539.97,111.24c-5.95,0-5.39,15.93-5.39,20.44,0,4.85.21,7.07.25,12.73,0,.44-.22.84-.57,1.02-1.29.65-4.45,2.24-6.22,3.13-.59.3-1.25-.2-1.26-.95-.14-10.45-.14-10.56-.14-19.38l.03-3.58c.11-4.68.11-4.85-.02-11.22,0-.46.19-.88.53-1.12.77-.54,2.22-1.55,3.31-2.32.64-.45,1.4.12,1.44.91.01.23.03.34.07.62l.24,1.75c.08.28.41.32.55.07,2.07-3.89,2.99-6.66,8.05-7.32l-.86,5.23Zm-9.36,18.46"></path><path d="m533.74,143.5c-8.34,0-6.64-1.08-6.64-9.61,0-11.9,4.25-28.76,16.12-28.76,3.9,0,7.16,2.84,7.16,7.58,0,9.38-9.67,16.87-16.2,20.56.45,4.64-6.08,8.26-1.64,8.26l1.19,1.97Zm9.39-28.89c0-1.37-.82-2.42-2.09-2.42-4.44,0-5.62,11.48-5.71,15.28,3.17-2.74,7.8-7.9,7.8-12.85Z"></path></g></svg> 