<?xml version="1.0" encoding="UTF-8"?> <svg xmlns="http://www.w3.org/2000/svg" width="80" height="80" viewBox="0 0 80 80" fill="none"><path d="M8.75024 38.75H58.7502V73.4375C58.7502 74.1834 58.4539 74.8988 57.9265 75.4262C57.399 75.9537 56.6837 76.25 55.9377 76.25H11.5627C10.8168 76.25 10.1015 75.9537 9.57401 75.4262C9.04656 74.8988 8.75024 74.1834 8.75024 73.4375V38.75Z" fill="white"></path><path d="M46.3909 5.39393L45.7241 5.64206C44.7424 6.00753 43.8591 6.59657 43.1444 7.36252C42.4297 8.12848 41.9032 9.05031 41.6065 10.055L40.9788 12.18L39.962 12.7344C38.3899 13.5897 37.222 15.0344 36.7151 16.7508L48.5965 27.8367L55.4185 20.5242L55.7693 12.2072C55.8116 11.2045 55.6364 10.2044 55.2559 9.27576C54.8753 8.34709 54.2983 7.51174 53.5645 6.82706C52.6198 5.94562 51.4483 5.34466 50.1812 5.09154C48.9142 4.83842 47.6017 4.94313 46.3909 5.39393Z" fill="#12A96A"></path><path d="M78.4491 35.306L78.2477 35.9881C77.9511 36.9929 77.4246 37.9147 76.7099 38.6807C75.9952 39.4466 75.112 40.0357 74.1302 40.4011L72.0534 41.1742L71.5716 42.2271C71.2031 43.0329 70.6793 43.7583 70.0304 44.3617C69.3814 44.9651 68.6199 45.4348 67.7895 45.7439L55.9082 34.6581L62.7302 27.3466L71.003 26.4211C72.0005 26.3095 73.0103 26.4151 73.9631 26.7305C74.9159 27.0459 75.7892 27.5638 76.523 28.2485C77.4678 29.13 78.1483 30.2571 78.4885 31.5036C78.8287 32.7501 78.8151 34.0668 78.4491 35.306Z" fill="#12A96A"></path><path d="M28.7502 38.75H38.7502V76.25H28.7502V38.75Z" fill="white"></path><path d="M8.75024 52.5H58.7502V62.5H8.75024V52.5Z" fill="white"></path><path d="M58.7503 52.5V56.7984L54.144 52.5H58.7503Z" fill="#12A96A"></path><path d="M33.2908 13.5437L71.2114 48.9225C71.7567 49.4312 72.0775 50.1357 72.1034 50.881C72.1292 51.6263 71.858 52.3513 71.3492 52.8966L64.7424 59.9781L22.7099 20.7631L29.3167 13.6815C29.8255 13.1363 30.5299 12.8154 31.2752 12.7896C32.0205 12.7637 32.7455 13.035 33.2908 13.5437Z" fill="white"></path><path d="M47.6824 26.9706L56.8199 35.4956L48.2949 44.6331L39.1574 36.1081L47.6824 26.9706Z" fill="#12A96A"></path><path d="M48.5965 27.8361L48.5448 27.8553C43.3923 29.7733 37.9084 30.642 32.4154 30.4105L29.2239 30.2758L34.7083 35.3924L33.1253 40.7538L38.1226 39.1367C42.9136 37.5867 47.3803 35.1724 51.3017 32.0135L52.2531 31.2471L48.5965 27.8361Z" fill="#12A96A"></path><path d="M55.9082 34.6582L55.8926 34.7111C54.3356 39.9839 53.8483 45.5147 54.4594 50.9785L54.8146 54.1532L49.3302 49.0366L44.0913 50.9868L45.3585 45.8896C46.5734 41.0027 48.6729 36.3796 51.553 32.249L52.2518 31.2468L55.9082 34.6582Z" fill="#12A96A"></path><path d="M22.5002 10C23.881 10 25.0002 8.88071 25.0002 7.5C25.0002 6.11929 23.881 5 22.5002 5C21.1195 5 20.0002 6.11929 20.0002 7.5C20.0002 8.88071 21.1195 10 22.5002 10Z" fill="white"></path><path d="M8.75024 38.75C10.131 38.75 11.2502 37.6307 11.2502 36.25C11.2502 34.8693 10.131 33.75 8.75024 33.75C7.36953 33.75 6.25024 34.8693 6.25024 36.25C6.25024 37.6307 7.36953 38.75 8.75024 38.75Z" fill="white"></path><path d="M11.2777 13.3033L15.1377 16.8469L20.2451 15.6759L18.0677 20.442L20.7595 24.9375L15.554 24.3395L12.1102 28.2888L11.0704 23.1533L6.25024 21.0984L10.8131 18.5225L11.2777 13.3033Z" fill="#12A96A"></path><path d="M26.5988 36.1714L25.3138 41.2275L28.7503 45.1524L23.5446 45.4927L20.8738 49.9739L18.9414 45.1282L13.8542 43.9729L17.8657 40.6377L17.3925 35.4424L21.8039 38.2269L26.5988 36.1714Z" fill="#12A96A"></path><path d="M55.9082 34.6582L48.5967 27.8361L55.4187 20.5236C57.0833 21.0152 58.6107 21.8876 59.8797 23.0717C61.1488 24.2558 62.1247 25.7192 62.7303 27.3458L55.9082 34.6582Z" fill="#12A96A"></path><path d="M77.3753 27.3346C76.5101 26.5262 75.48 25.9149 74.3559 25.5426C73.2318 25.1704 72.0405 25.0461 70.8637 25.1783L63.5194 26C62.1517 23.0831 59.7114 20.8062 56.7069 19.6436L57.0184 12.2596C57.0754 10.907 56.7969 9.56133 56.2079 8.34246C55.6188 7.12359 54.7373 6.06936 53.6421 5.27367C52.5468 4.47799 51.2718 3.96557 49.9305 3.78206C48.5892 3.59855 47.2234 3.74965 45.9547 4.2219L45.2881 4.47002C44.126 4.90577 43.0806 5.60479 42.2339 6.51226C41.3872 7.41973 40.7622 8.511 40.408 9.70049L39.9269 11.3299L39.3644 11.6356C38.079 12.3311 37.0103 13.3675 36.2758 14.631L34.1409 12.6385C33.3526 11.9045 32.3054 11.5132 31.2289 11.5504C30.1524 11.5877 29.1347 12.0505 28.3991 12.8372L21.7897 19.9203C21.6777 20.0404 21.5905 20.1813 21.5329 20.335C21.4754 20.4888 21.4487 20.6523 21.4544 20.8164C21.4601 20.9804 21.498 21.1418 21.5661 21.2912C21.6341 21.4405 21.7309 21.5751 21.8509 21.687L29.7384 29.0464L29.2764 29.0269C29.0212 29.0161 28.7689 29.0838 28.5533 29.2208C28.3377 29.3577 28.1693 29.5575 28.0707 29.7931C27.9721 30.0287 27.948 30.2888 28.0016 30.5385C28.0553 30.7882 28.1842 31.0155 28.3709 31.1897L33.2897 35.7792L32.7816 37.5H27.5509L27.8103 36.4792C27.8676 36.2533 27.8606 36.0158 27.7901 35.7936C27.7196 35.5715 27.5883 35.3734 27.4112 35.2219C27.234 35.0704 27.0181 34.9714 26.7876 34.9362C26.5572 34.901 26.3215 34.9309 26.1072 35.0225L21.9162 36.8194L18.0597 34.3852C17.8624 34.2607 17.6343 34.1939 17.4011 34.1923C17.1678 34.1907 16.9388 34.2543 16.7399 34.3761C16.5409 34.4979 16.3801 34.6729 16.2754 34.8814C16.1707 35.0898 16.1265 35.3234 16.1477 35.5556L16.3247 37.5H12.2853C12.5327 36.8008 12.5671 36.0438 12.3843 35.325C12.2015 34.6062 11.8096 33.9577 11.2582 33.4616C10.7068 32.9655 10.0206 32.6441 9.28654 32.538C8.55244 32.4318 7.80337 32.5458 7.13405 32.8654C6.46472 33.185 5.90522 33.696 5.52629 34.3336C5.14736 34.9712 4.96604 35.7069 5.00524 36.4476C5.04445 37.1883 5.30243 37.9007 5.74655 38.4948C6.19067 39.0888 6.80098 39.5378 7.50031 39.785V73.4375C7.50155 74.5146 7.92996 75.5472 8.69156 76.3088C9.45315 77.0704 10.4857 77.4988 11.5628 77.5H55.9378C57.0149 77.4988 58.0475 77.0704 58.8091 76.3088C59.5707 75.5472 59.9991 74.5146 60.0003 73.4375V57.2821L63.8928 60.9139C64.1243 61.1299 64.429 61.25 64.7456 61.25H64.7887C64.9528 61.2444 65.1142 61.2064 65.2636 61.1384C65.413 61.0704 65.5475 60.9736 65.6595 60.8536L72.2689 53.7703C73.0039 52.9826 73.3959 51.9351 73.3586 50.8583C73.3213 49.7815 72.8578 48.7636 72.07 48.0286L69.9344 46.0361C71.144 45.216 72.104 44.0782 72.7089 42.7478L72.9745 42.1658L74.5662 41.5733C75.7284 41.1375 76.7738 40.4385 77.6205 39.531C78.4672 38.6236 79.0922 37.5323 79.4466 36.3428L79.648 35.6608C80.085 34.1992 80.1037 32.6444 79.702 31.1728C79.3004 29.7011 78.4943 28.3714 77.3753 27.3346ZM18.6648 41.5988C18.8207 41.4692 18.9426 41.3037 19.0203 41.1165C19.0979 40.9293 19.1288 40.7261 19.1105 40.5242L18.867 37.8513L21.1367 39.2839C21.3081 39.3921 21.5032 39.457 21.7053 39.473C21.9074 39.489 22.1103 39.4557 22.2966 39.3758L24.7634 38.3181L24.1022 40.9196C24.0523 41.116 24.0508 41.3216 24.0981 41.5187C24.1453 41.7158 24.2397 41.8985 24.3733 42.051L26.1409 44.0703L23.4627 44.2453C23.2604 44.2586 23.0644 44.3208 22.8916 44.4266C22.7187 44.5325 22.5742 44.6787 22.4705 44.8528L21.0955 47.1583L20.1012 44.6652C20.0264 44.4772 19.907 44.3102 19.7533 44.1785C19.5996 44.0468 19.4163 43.9544 19.2191 43.9092L16.6017 43.3147L18.6648 41.5988ZM8.75031 37.5C8.50308 37.5 8.26141 37.4267 8.05585 37.2894C7.85028 37.152 7.69007 36.9568 7.59546 36.7284C7.50085 36.5 7.47609 36.2486 7.52433 36.0062C7.57256 35.7637 7.69161 35.541 7.86642 35.3661C8.04124 35.1913 8.26397 35.0723 8.50644 35.024C8.74892 34.9758 9.00025 35.0006 9.22866 35.0952C9.45707 35.1898 9.65229 35.35 9.78964 35.5556C9.927 35.7611 10.0003 36.0028 10.0003 36.25C9.99994 36.5814 9.86812 36.8992 9.63378 37.1335C9.39944 37.3678 9.08171 37.4996 8.75031 37.5ZM27.5003 75H11.5628C11.1485 74.9996 10.7514 74.8348 10.4585 74.5419C10.1655 74.2489 10.0008 73.8518 10.0003 73.4375V63.75H27.5003V75ZM27.5003 61.25H10.0003V53.75H27.5003V61.25ZM27.5003 51.25H10.0003V40H16.5523L16.5612 40.0966L13.055 43.0116C12.8756 43.1607 12.7416 43.357 12.668 43.5784C12.5944 43.7997 12.5842 44.0372 12.6385 44.264C12.6929 44.4908 12.8096 44.6979 12.9755 44.8619C13.1414 45.0258 13.3499 45.1401 13.5773 45.1917L18.0237 46.2016L19.7127 50.4375C19.799 50.6542 19.9443 50.8424 20.1321 50.9808C20.3199 51.1191 20.5426 51.2022 20.7752 51.2206C20.8083 51.2233 20.8413 51.2246 20.8742 51.2246C21.0906 51.2246 21.3032 51.1684 21.4914 51.0616C21.6796 50.9548 21.8368 50.801 21.9477 50.6152L24.282 46.6985L27.5008 46.4881L27.5003 51.25ZM27.5003 41.8274L26.687 40.8985L26.9155 40H27.5003V41.8274ZM55.7831 21.9661C58.2062 22.8949 60.173 24.7298 61.2675 27.0827L55.8477 32.8914L50.3633 27.7749L55.7831 21.9661ZM53.1441 50.3803C53.1458 50.4295 53.1505 50.4786 53.158 50.5272C53.1714 50.6628 53.1823 50.7986 53.197 50.9335L50.1836 48.121C50.0139 47.9626 49.8034 47.8546 49.5757 47.8091C49.3481 47.7636 49.1122 47.7825 48.8947 47.8635L45.8767 48.9871L46.5722 46.1902C46.805 45.2539 47.0706 44.3301 47.3691 43.4188C47.4587 43.2672 47.5151 43.0983 47.5345 42.9233C48.7163 39.4525 50.3717 36.1615 52.4539 33.1436L54.4956 35.0485C53.11 40.0332 52.6519 45.2301 53.1441 50.3803ZM49.8709 51.25H46.9677L49.043 50.4775L49.8709 51.25ZM42.8725 51.25H40.0003V39.8096C40.3042 39.6987 40.6062 39.5846 40.9066 39.4672L41.1173 39.6639L44.8361 43.1338C44.583 43.9431 44.3509 44.7608 44.1453 45.588L42.878 50.6852C42.833 50.8706 42.8311 51.0638 42.8725 51.25ZM43.4194 38.3916C44.9229 37.6894 46.3838 36.8993 47.7944 36.0253C47.02 37.493 46.3328 39.0051 45.7366 40.5538L43.4194 38.3916ZM40.56 13.8317L41.577 13.2785C41.7212 13.2 41.8485 13.0939 41.9517 12.9662C42.0549 12.8386 42.132 12.6918 42.1784 12.5344L42.8061 10.4094C43.0497 9.59173 43.4793 8.8416 44.0614 8.2178C44.6435 7.594 45.3621 7.11349 46.1609 6.81393L46.8275 6.5658C47.7098 6.23734 48.6596 6.13222 49.5924 6.25981C50.5251 6.38741 51.4118 6.74375 52.1735 7.2971C52.9351 7.85044 53.5481 8.5836 53.9577 9.43126C54.3674 10.2789 54.5609 11.2147 54.5212 12.1553L54.19 20.0102L52.103 22.2469C49.8998 19.3384 48.8931 15.6971 49.2894 12.07C49.3073 11.9066 49.2929 11.7413 49.2468 11.5835C49.2008 11.4257 49.1241 11.2785 49.0211 11.1504C48.9181 11.0223 48.7909 10.9157 48.6467 10.8369C48.5025 10.758 48.3441 10.7083 48.1807 10.6907C48.0172 10.6731 47.8519 10.6879 47.6942 10.7343C47.5365 10.7807 47.3895 10.8577 47.2616 10.9609C47.1337 11.0642 47.0275 11.1917 46.9489 11.3361C46.8703 11.4804 46.821 11.6389 46.8037 11.8024C46.3321 16.1112 47.5466 20.4353 50.1926 23.8685L50.372 24.1028L48.5361 26.0705L39.4305 17.5746L38.1745 16.4027C38.6649 15.3066 39.5032 14.4029 40.5594 13.8317H40.56ZM24.4706 20.7119L30.2267 14.5428C30.5097 14.2402 30.9011 14.0622 31.3151 14.0479C31.7291 14.0335 32.1319 14.184 32.4352 14.4663L46.225 27.3328C42.1312 28.633 37.8538 29.261 33.5591 29.1922L24.4706 20.7119ZM37.5003 75H30.0003V63.75H37.5003V75ZM37.5003 61.25H30.0003V53.75H37.5003V61.25ZM37.5003 51.25H30.0003V40H32.0437L31.9256 40.3997C31.8612 40.6179 31.8575 40.8496 31.915 41.0698C31.9726 41.2899 32.0891 41.4902 32.2521 41.649C32.415 41.8078 32.6183 41.9191 32.8398 41.9709C33.0614 42.0227 33.2929 42.0131 33.5094 41.943L37.5003 40.6517V51.25ZM37.737 37.9475L34.9944 38.8349L35.9064 35.7464C35.9721 35.5238 35.9746 35.2872 35.9135 35.0633C35.8523 34.8393 35.73 34.6368 35.5603 34.4785L32.5469 31.666C32.6848 31.6711 32.8225 31.6728 32.9603 31.6767C33.0065 31.6806 33.0529 31.6818 33.0992 31.6803C38.2721 31.8152 43.4258 30.9988 48.3037 29.2717L50.3453 31.1766C46.5856 34.176 42.314 36.4699 37.737 37.9475ZM57.5003 73.4375C57.4999 73.8518 57.3351 74.2489 57.0422 74.5419C56.7492 74.8348 56.3521 74.9996 55.9378 75H40.0003V63.75H57.5003V73.4375ZM57.5003 61.25H40.0003V53.75H52.5503L53.9617 55.067C54.1485 55.2413 54.3841 55.3541 54.6369 55.3904C54.8897 55.4267 55.1476 55.3847 55.3758 55.27C55.604 55.1553 55.7916 54.9734 55.9134 54.7489C56.0351 54.5243 56.0851 54.2679 56.0567 54.0141L56.0272 53.75H56.2147L57.5003 54.9494V61.25ZM70.3641 49.8558C70.667 50.1385 70.8453 50.53 70.8596 50.9441C70.8739 51.3582 70.7232 51.7611 70.4405 52.0641L64.6844 58.2333L59.7503 53.6288C59.6612 53.5099 59.5517 53.4078 59.4269 53.3272L55.5966 49.7533C55.2305 45.4736 55.5609 41.1629 56.575 36.9891L70.3641 49.8558ZM77.2503 34.9519L77.0489 35.6341C76.8054 36.4518 76.3757 37.2019 75.7937 37.8257C75.2116 38.4495 74.493 38.93 73.6941 39.2296L71.6172 40.0028C71.4633 40.0601 71.3223 40.1471 71.2021 40.2589C71.0819 40.3707 70.9848 40.5051 70.9166 40.6544L70.435 41.7071C69.9386 42.8003 69.0955 43.6993 68.0364 44.2647L57.6748 34.5969L59.5108 32.6294L59.7562 32.7922C62.5085 34.6244 65.7409 35.6022 69.0472 35.6027C70.0468 35.6024 71.0445 35.5139 72.0286 35.338C72.191 35.3101 72.3463 35.2503 72.4855 35.1621C72.6248 35.0739 72.7452 34.9591 72.8399 34.8242C72.9345 34.6893 73.0016 34.537 73.0372 34.3761C73.0728 34.2152 73.0762 34.0488 73.0473 33.8865C73.0183 33.7243 72.9576 33.5694 72.8686 33.4307C72.7795 33.292 72.6639 33.1723 72.5284 33.0785C72.3929 32.9846 72.2402 32.9185 72.0791 32.8839C71.918 32.8493 71.7516 32.8469 71.5895 32.8769C67.9985 33.5232 64.2964 32.7708 61.2425 30.7741L63.3284 28.5374L71.1417 27.6633C72.0773 27.5586 73.0243 27.687 73.8983 28.037C74.7722 28.387 75.546 28.9478 76.1508 29.6693C76.7555 30.3909 77.1723 31.2508 77.3642 32.1725C77.556 33.0942 77.5169 34.049 77.2503 34.9519Z" fill="#1D2129"></path><path d="M26.2502 7.5C26.2502 6.75832 26.0303 6.0333 25.6183 5.41661C25.2062 4.79993 24.6205 4.31928 23.9353 4.03545C23.2501 3.75162 22.4961 3.67736 21.7687 3.82206C21.0412 3.96675 20.373 4.3239 19.8486 4.84835C19.3241 5.3728 18.967 6.04098 18.8223 6.76841C18.6776 7.49584 18.7519 8.24984 19.0357 8.93506C19.3195 9.62029 19.8002 10.206 20.4169 10.618C21.0335 11.0301 21.7586 11.25 22.5002 11.25C23.4945 11.2489 24.4476 10.8534 25.1507 10.1504C25.8537 9.4474 26.2491 8.49422 26.2502 7.5ZM21.2502 7.5C21.2502 7.25278 21.3236 7.0111 21.4609 6.80554C21.5983 6.59998 21.7935 6.43976 22.0219 6.34515C22.2503 6.25054 22.5016 6.22579 22.7441 6.27402C22.9866 6.32225 23.2093 6.4413 23.3841 6.61612C23.5589 6.79093 23.678 7.01366 23.7262 7.25614C23.7745 7.49862 23.7497 7.74995 23.6551 7.97836C23.5605 8.20676 23.4003 8.40199 23.1947 8.53934C22.9891 8.67669 22.7475 8.75 22.5002 8.75C22.1688 8.74963 21.8511 8.61781 21.6168 8.38347C21.3824 8.14913 21.2506 7.83141 21.2502 7.5Z" fill="#1D2129"></path><path d="M7.50024 6.25C7.50024 6.58152 7.63194 6.89947 7.86636 7.13389C8.10078 7.36831 8.41872 7.5 8.75024 7.5C9.58009 7.49928 10.3891 7.76007 11.0622 8.24532C11.7354 8.73058 12.2386 9.41562 12.5002 10.2031L12.5645 10.3956C12.6159 10.552 12.6977 10.6966 12.8051 10.8213C12.9126 10.946 13.0436 11.0482 13.1907 11.1221C13.3378 11.196 13.498 11.2401 13.6622 11.2519C13.8263 11.2637 13.9912 11.243 14.1474 11.1909C14.3035 11.1388 14.4478 11.0564 14.572 10.9484C14.6962 10.8405 14.7979 10.709 14.8712 10.5616C14.9445 10.4142 14.9879 10.2538 14.999 10.0896C15.0102 9.92541 14.9888 9.76061 14.936 9.60469L14.872 9.4125C14.4448 8.12694 13.6234 7.00866 12.5245 6.21654C11.4255 5.42443 10.1049 4.99876 8.75024 5C8.41872 5 8.10078 5.1317 7.86636 5.36612C7.63194 5.60054 7.50024 5.91848 7.50024 6.25Z" fill="#1D2129"></path><path d="M20.4319 30.8505C19.6078 30.3127 18.6494 30.0167 17.6656 29.996C16.6817 29.9752 15.7117 30.2306 14.8657 30.7331C14.7242 30.8165 14.6006 30.9268 14.5018 31.058C14.4031 31.1891 14.3311 31.3384 14.29 31.4973C14.2489 31.6562 14.2396 31.8217 14.2624 31.9843C14.2853 32.1468 14.34 32.3033 14.4233 32.4447C14.5067 32.5861 14.617 32.7097 14.7481 32.8085C14.8793 32.9073 15.0285 32.9793 15.1875 33.0203C15.3464 33.0614 15.5119 33.0708 15.6744 33.0479C15.837 33.025 15.9934 32.9704 16.1349 32.887C16.5815 32.622 17.0934 32.4874 17.6126 32.4984C18.1318 32.5095 18.6375 32.6657 19.0724 32.9495L19.32 33.1098C19.4578 33.1991 19.6119 33.2603 19.7733 33.2901C19.9348 33.3198 20.1005 33.3174 20.2611 33.2831C20.4216 33.2488 20.5738 33.1832 20.709 33.09C20.8442 32.9969 20.9598 32.878 21.049 32.7402C21.1383 32.6024 21.1995 32.4484 21.2292 32.287C21.259 32.1255 21.2566 31.9597 21.2223 31.7992C21.188 31.6386 21.1224 31.4864 21.0292 31.3512C20.9361 31.216 20.8172 31.1005 20.6794 31.0113L20.4319 30.8505Z" fill="#1D2129"></path><path d="M12.1231 12.3825C11.9512 12.2248 11.7387 12.1183 11.5095 12.0751C11.2804 12.0318 11.0436 12.0536 10.8262 12.1379C10.6087 12.2221 10.4191 12.3656 10.2789 12.5519C10.1387 12.7383 10.0535 12.9602 10.0328 13.1925L9.62651 17.757L5.63573 20.01C5.43263 20.1247 5.26568 20.294 5.15376 20.4986C5.04185 20.7033 4.98943 20.9352 5.00243 21.1681C5.01544 21.401 5.09335 21.6256 5.22736 21.8165C5.36136 22.0074 5.54612 22.157 5.76073 22.2484L9.9762 24.0453L10.8857 28.5367C10.932 28.7653 11.0414 28.9764 11.2014 29.1461C11.3614 29.3158 11.5656 29.4373 11.7911 29.497C12.0166 29.5566 12.2542 29.552 12.4772 29.4837C12.7002 29.4153 12.8996 29.2859 13.0529 29.1102L16.0642 25.6562L20.6168 26.1792C20.8486 26.2059 21.0831 26.1671 21.294 26.0674C21.5049 25.9677 21.6836 25.8109 21.81 25.6149C21.9365 25.4189 22.0055 25.1914 22.0094 24.9582C22.0133 24.7249 21.9518 24.4953 21.832 24.2952L19.4778 20.3634L21.382 16.1952C21.4789 15.983 21.5145 15.748 21.4848 15.5166C21.4551 15.2853 21.3613 15.0669 21.214 14.8861C21.0666 14.7053 20.8716 14.5693 20.651 14.4935C20.4305 14.4178 20.1931 14.4052 19.9657 14.4573L15.499 15.4816L12.1231 12.3825ZM16.9953 21.0841L18.3859 23.4066L15.6967 23.0977C15.4953 23.0745 15.2914 23.1007 15.1024 23.1739C14.9135 23.2472 14.7452 23.3652 14.612 23.518L12.8328 25.5583L12.2954 22.9052C12.2553 22.7066 12.1674 22.5207 12.0395 22.3636C11.9116 22.2065 11.7474 22.0828 11.561 22.0033L9.07073 20.9417L11.4281 19.6109C11.6045 19.5113 11.7541 19.3702 11.864 19.1999C11.9738 19.0296 12.0406 18.8351 12.0585 18.6333L12.2982 15.9375L14.2924 17.7675C14.4418 17.9046 14.6222 18.0034 14.8182 18.0552C15.0142 18.1071 15.2198 18.1105 15.4174 18.0652L18.056 17.4603L16.931 19.9225C16.8468 20.1068 16.8086 20.3089 16.8198 20.5112C16.831 20.7136 16.8912 20.9102 16.9953 21.0841Z" fill="#1D2129"></path></svg> 