<svg xmlns="http://www.w3.org/2000/svg" width="16" height="16" viewBox="0 0 16 16" fill="none">
	<path d="M7.81836 5.43652C7.89004 5.28218 8.10996 5.28218 8.18164 5.43652L8.76855 6.70117L10.1533 6.86914C10.3219 6.8898 10.3897 7.098 10.2656 7.21387L9.24414 8.16309L9.51172 9.53223C9.54419 9.69903 9.36735 9.82763 9.21875 9.74512L8 9.06738L6.78125 9.74512C6.63265 9.82763 6.45581 9.69903 6.48828 9.53223L6.75586 8.16309L5.73438 7.21387C5.61027 7.098 5.6781 6.8898 5.84668 6.86914L7.23145 6.70117L7.81836 5.43652Z" fill="url(#paint0_linear_11038_10473)"/>
	<path fill-rule="evenodd" clip-rule="evenodd" d="M8 0C12.4183 0 16 3.58172 16 8C16 12.4183 12.4183 16 8 16C3.58172 16 0 12.4183 0 8C0 3.58172 3.58172 0 8 0ZM4.5 4C3.6725 4.00005 3 4.6549 3 5.45996V9.54785C3 10.3553 3.41831 11.0078 5.00293 11.0078V12.5576L7.65332 11.0078H11.5C12.3275 11.0078 13 10.3554 13 9.54785V5.45996C13 4.65487 12.3275 4 11.5 4H4.5Z" fill="url(#paint1_linear_11038_10473)"/>
	<defs>
		<linearGradient id="paint0_linear_11038_10473" x1="2.14121" y1="2.51318" x2="12.9814" y2="14.7786" gradientUnits="userSpaceOnUse">
			<stop stop-color="#DF612F"/>
			<stop offset="1" stop-color="#8736E3"/>
		</linearGradient>
		<linearGradient id="paint1_linear_11038_10473" x1="2.14121" y1="2.51318" x2="12.9814" y2="14.7786" gradientUnits="userSpaceOnUse">
			<stop stop-color="#DF612F"/>
			<stop offset="1" stop-color="#8736E3"/>
		</linearGradient>
	</defs>
</svg>
