<?xml version="1.0" encoding="UTF-8"?> <svg xmlns="http://www.w3.org/2000/svg" width="121.13" height="44.57" viewBox="0 0 121.13 44.57"><defs><style>.a{fill:#eca73f;}.b{fill:#1e293e;}</style></defs><path class="a" d="M39.94,23.54l-1.36-4H29.81l-1.37,4H23.26a.47.47,0,0,1-.43-.63L31.21,1.67a.9.9,0,0,1,.84-.57h4.27a.93.93,0,0,1,.85.57l8.37,21.24a.46.46,0,0,1-.42.63Zm-3.16-8.72-2.58-7-2.6,7Z" transform="translate(0 -0.49)"></path><path class="a" d="M55.12,24.14a12,12,0,0,1-3.07-.39,10.39,10.39,0,0,1-2.45-.93,14.36,14.36,0,0,1-1.68-1.08,7.34,7.34,0,0,1-1.07-1l-.21-.23a.61.61,0,0,1,0-.84l3-3L50,17c.13.16.33.36.58.61a7.11,7.11,0,0,0,1.63,1,5.93,5.93,0,0,0,2.62.62,3.68,3.68,0,0,0,2.39-.7,2.07,2.07,0,0,0,.8-1.69,1.61,1.61,0,0,0-.9-1.42,10.28,10.28,0,0,0-2.6-1.07c-1.08-.31-2.15-.67-3.22-1.08a6.67,6.67,0,0,1-2.87-2.15,6,6,0,0,1-1.21-3.81,6.25,6.25,0,0,1,2.28-4.85,8.51,8.51,0,0,1,5.81-2A11.47,11.47,0,0,1,58,.82a9.15,9.15,0,0,1,2.15.77,12,12,0,0,1,1.46.88,4.86,4.86,0,0,1,.94.83.83.83,0,0,1,0,1.13l-2.87,3-.31-.35c-.11-.13-.27-.29-.48-.49a5.6,5.6,0,0,0-1.28-.76,4.39,4.39,0,0,0-2-.48A2.87,2.87,0,0,0,53.69,6,1.69,1.69,0,0,0,53,7.31a1.61,1.61,0,0,0,.91,1.41A10.79,10.79,0,0,0,56.52,9.8c1,.31,2.14.67,3.2,1.09A6.57,6.57,0,0,1,62.62,13a6,6,0,0,1,1.21,3.81,6.69,6.69,0,0,1-2.36,5.28A9.41,9.41,0,0,1,55.12,24.14Z" transform="translate(0 -0.49)"></path><path class="a" d="M70.8,1.1H67A.91.91,0,0,0,66.1,2V22.63a.91.91,0,0,0,.91.91H70.8a.91.91,0,0,0,.91-.91V2A.91.91,0,0,0,70.8,1.1Z" transform="translate(0 -0.49)"></path><path class="a" d="M90.54,23.54,80.42,10.6v12a.91.91,0,0,1-.91.91H75.8a.91.91,0,0,1-.91-.91V2a.91.91,0,0,1,.91-.91h3.33a.91.91,0,0,1,.72.35l9.86,12.6V2a.91.91,0,0,1,.91-.91H94.3a.91.91,0,0,1,.91.91V22.63a.91.91,0,0,1-.91.91Z" transform="translate(0 -0.49)"></path><path class="b" d="M0,40.82V28.24a.45.45,0,0,1,.45-.46H5.86a6.13,6.13,0,0,1,4.37,1.65,5.69,5.69,0,0,1,0,8.2,6.12,6.12,0,0,1-4.37,1.64H4.11V44.6H.45A.45.45,0,0,1,0,44.14Zm5.75-5.29a2.11,2.11,0,0,0,1.53-.59,2,2,0,0,0,0-2.84,2.13,2.13,0,0,0-1.53-.58H4.11v4H5.75Z" transform="translate(0 -0.49)"></path><path class="b" d="M40,44.61l-3.13-5.67H35.64v5.21a.46.46,0,0,1-.46.46H32a.46.46,0,0,1-.46-.46V28.24a.46.46,0,0,1,.46-.46h5.77A5.8,5.8,0,0,1,42,29.41a5.38,5.38,0,0,1,1.66,4,5.59,5.59,0,0,1-.32,1.93,4.93,4.93,0,0,1-.77,1.45,7.31,7.31,0,0,1-.88.94,3.72,3.72,0,0,1-.81.56L44,43.93a.46.46,0,0,1-.4.68Zm-2.36-9.42A1.86,1.86,0,0,0,39,34.68a1.69,1.69,0,0,0,.54-1.27A1.78,1.78,0,0,0,39,32.06a1.85,1.85,0,0,0-1.36-.53H36.1a.45.45,0,0,0-.45.45v2.76a.45.45,0,0,0,.45.45Z" transform="translate(0 -0.49)"></path><path class="b" d="M48.74,44.61V31.53H45.18a.47.47,0,0,1-.46-.46V28.24a.46.46,0,0,1,.46-.46H56.4a.45.45,0,0,1,.45.46v2.83a.46.46,0,0,1-.45.46H52.84V44.61Z" transform="translate(0 -0.49)"></path><path class="b" d="M65.57,45.06a7.18,7.18,0,0,1-7.35-7.3V28.24a.45.45,0,0,1,.45-.46h3.17a.46.46,0,0,1,.46.46v9.52a3.49,3.49,0,0,0,1,2.52,3.15,3.15,0,0,0,4.62,0,3.46,3.46,0,0,0,1-2.52V28.24a.45.45,0,0,1,.46-.46h3.17a.45.45,0,0,1,.45.46v9.52a7.18,7.18,0,0,1-7.35,7.3Z" transform="translate(0 -0.49)"></path><path class="b" d="M76.78,42.49a9,9,0,0,0,6.49,2.57,9.36,9.36,0,0,0,2.59-.35,9.49,9.49,0,0,0,2-.78,11.63,11.63,0,0,0,1.46-1,10.64,10.64,0,0,0,.92-.8l.26-.3a.45.45,0,0,0,.12-.31V35.72a.45.45,0,0,0-.46-.45H83.66v3.17h2.9v1.75l-.25.21a4.06,4.06,0,0,1-1.15.59,5.66,5.66,0,0,1-1.88.3,4.92,4.92,0,0,1-5-5,4.92,4.92,0,0,1,5-5,4.71,4.71,0,0,1,1.53.24A5.27,5.27,0,0,1,86,32a4.79,4.79,0,0,1,.85.65,5.28,5.28,0,0,1,.5.52l.19.26.21.29,2.37-2.38a.44.44,0,0,0,0-.59L90,30.5a6,6,0,0,0-.88-.86,14.13,14.13,0,0,0-1.34-1,7.64,7.64,0,0,0-2-.85,9.49,9.49,0,0,0-9,2.23,8.62,8.62,0,0,0,0,12.44Z" transform="translate(0 -0.49)"></path><path class="b" d="M110.06,44.61a.6.6,0,0,1-.6-.61V28.24a.45.45,0,0,1,.45-.46h3.21a.46.46,0,0,1,.46.46V40.86h7a.61.61,0,0,1,.6.61V44a.6.6,0,0,1-.6.61Z" transform="translate(0 -0.49)"></path><path class="b" d="M21.38,45.06a8.79,8.79,0,1,1,8.79-8.79A8.8,8.8,0,0,1,21.38,45.06Zm0-13.83a5,5,0,1,0,5,5A5,5,0,0,0,21.38,31.23Z" transform="translate(0 -0.49)"></path><path class="a" d="M109.38,24.14a11.83,11.83,0,1,1,11.75-11.82A11.8,11.8,0,0,1,109.38,24.14Zm0-18.58a6.76,6.76,0,1,0,6.72,6.76A6.74,6.74,0,0,0,109.38,5.56Z" transform="translate(0 -0.49)"></path><path class="a" d="M17.7,15.31a6.58,6.58,0,0,1-6.48,3.75,6.77,6.77,0,0,1,.31-13.5,6.6,6.6,0,0,1,6.13,3.67H23A11.67,11.67,0,0,0,11.81.49a11.82,11.82,0,1,0,.39,23.64A11.65,11.65,0,0,0,23,15.31Z" transform="translate(0 -0.49)"></path><path class="b" d="M104.11,44.61l-1-3H96.44l-1,3H91.22A.23.23,0,0,1,91,44.3l6.54-16.23a.46.46,0,0,1,.43-.29h3.55a.46.46,0,0,1,.43.29l6.46,16.23a.23.23,0,0,1-.21.31Zm-2.39-6.54-2-5.22-2,5.22Z" transform="translate(0 -0.49)"></path></svg> 